<svg width="1" height="1" viewBox="0 0 1 1" fill="none" xmlns="http://www.w3.org/2000/svg">
<path d="M0.119028 0C0.0532346 0 0 0.0532349 0 0.119028V0.880972C0 0.946765 0.0532346 1 0.119028 1H0.880971C0.946765 1 1 0.946765 1 0.880972V0.119028C1 0.0532349 0.946765 0 0.880971 0H0.119028ZM0.190554 0.333333H0.350805C0.368277 0.333333 0.462189 0.332241 0.462189 0.418236C0.462189 0.463828 0.431067 0.479389 0.416871 0.486214C0.437892 0.492766 0.476112 0.512148 0.476112 0.571116C0.476112 0.662298 0.371553 0.666394 0.35763 0.666394H0.190554V0.33306V0.333333ZM0.595413 0.333333H0.762216V0.380836H0.595413V0.333333ZM0.26208 0.391209V0.469287H0.338793C0.349167 0.469287 0.384112 0.463555 0.384112 0.428611C0.384112 0.393667 0.338793 0.391209 0.331968 0.391209H0.26208ZM0.684139 0.404586C0.776959 0.404586 0.802347 0.476931 0.805896 0.494131C0.809445 0.511603 0.809446 0.52689 0.809446 0.547365H0.621349C0.621349 0.568113 0.632269 0.614797 0.687688 0.614797C0.70243 0.614797 0.71335 0.611247 0.724543 0.604422C0.735463 0.597597 0.739284 0.590772 0.742833 0.583947H0.805351C0.794431 0.611247 0.779689 0.631996 0.757576 0.645919C0.735463 0.659842 0.7098 0.666666 0.680316 0.666666C0.661752 0.666666 0.643461 0.663118 0.624897 0.656293C0.610155 0.649468 0.595414 0.639094 0.584494 0.628993C0.573574 0.618619 0.566203 0.604696 0.558832 0.587497C0.551461 0.573574 0.547638 0.553099 0.547638 0.5359C0.547638 0.5187 0.554463 0.404859 0.684139 0.404859V0.404586ZM0.684139 0.452908C0.630357 0.452908 0.621621 0.504504 0.621621 0.508053H0.739831C0.736009 0.490854 0.720448 0.452908 0.684412 0.452908H0.684139ZM0.26208 0.51679V0.608791H0.341796C0.348621 0.608791 0.397215 0.606607 0.397215 0.564565C0.397215 0.522523 0.358995 0.517062 0.341796 0.517062H0.26208V0.51679Z" fill="#F9E1D4"/>
</svg>
