<svg width="1" height="1" viewBox="0 0 1 1" fill="none" xmlns="http://www.w3.org/2000/svg">
<path d="M0.987801 0.186732C0.962049 0.086814 0.906479 0.0311221 0.827596 0.00900906C0.804554 0.00245705 0.780428 0 0.756302 0H0.277039C0.255624 0 0.233938 0.00136501 0.212795 0.00491401C0.0886417 0.026208 0.0309025 0.0982802 0.00867422 0.197652C0.00243947 0.225225 0 0.253617 0 0.281736V0.791428C0 0.813541 0.00216858 0.835381 0.0075901 0.856675C0.031987 0.952225 0.101653 0.996178 0.206831 1H0.753863C0.789645 1 0.825156 0.994813 0.85904 0.982801C0.925725 0.959323 0.975332 0.916189 0.993765 0.837565C0.998102 0.818728 1 0.799072 1 0.779689V0.285012C1 0.251979 0.996476 0.218673 0.988073 0.186732H0.987801ZM0.503659 0.817909C0.331526 0.817909 0.192193 0.677587 0.192193 0.504231C0.192193 0.330876 0.331526 0.190554 0.503659 0.190554C0.675793 0.190554 0.815126 0.330876 0.815126 0.504231C0.815126 0.677587 0.675793 0.817909 0.503659 0.817909ZM0.834101 0.233415C0.800759 0.233415 0.773651 0.206115 0.773651 0.172536C0.773651 0.138957 0.800759 0.111657 0.834101 0.111657C0.867443 0.111657 0.894551 0.138957 0.894551 0.172536C0.894551 0.206115 0.867443 0.233415 0.834101 0.233415Z" fill="#F9E1D4"/>
<path d="M0.709946 0.50424C0.709946 0.618354 0.618052 0.710628 0.505013 0.710628C0.391974 0.710628 0.300079 0.618081 0.300079 0.50424C0.300079 0.390399 0.391703 0.297852 0.505013 0.297852C0.618323 0.297852 0.709946 0.390126 0.709946 0.50424Z" fill="#F9E1D4"/>
</svg>
