<svg width="1" height="1" viewBox="0 0 1 1" fill="none" xmlns="http://www.w3.org/2000/svg">
<path d="M0.880972 0H0.119029C0.0532355 0 0 0.0532351 0 0.119028V0.880972C0 0.946765 0.0532355 1 0.119029 1H0.880972C0.946765 1 1 0.946765 1 0.880972V0.119028C1 0.0532351 0.946765 0 0.880972 0ZM0.309582 0.380835V0.833197H0.166804V0.380835H0.309582ZM0.166804 0.249249C0.166804 0.215943 0.195468 0.190554 0.23833 0.190554C0.281191 0.190554 0.308217 0.215943 0.309855 0.249249C0.309855 0.282555 0.283102 0.309582 0.23833 0.309582C0.193557 0.309582 0.166804 0.282555 0.166804 0.249249ZM0.83347 0.833197H0.690691V0.59514C0.690691 0.547638 0.66694 0.499864 0.607426 0.499045H0.605514C0.547911 0.499045 0.524161 0.548184 0.524161 0.59514V0.833197H0.381381V0.380835H0.524161V0.441714C0.524161 0.441714 0.570025 0.380835 0.662572 0.380835C0.755119 0.380835 0.833743 0.445809 0.833743 0.577396V0.833197H0.83347Z" fill="#F9E1D4"/>
</svg>
