<svg width="1" height="1" viewBox="0 0 1 1" fill="none" xmlns="http://www.w3.org/2000/svg">
<path d="M1 0.23542V0.407699C0.890726 0.404977 0.801264 0.377489 0.722946 0.336392V0.717419C0.722946 0.735381 0.72016 0.753072 0.714588 0.77049C0.704682 0.800156 0.691371 0.826555 0.674345 0.850234C0.645866 0.890241 0.605623 0.922629 0.560118 0.947668C0.459203 1.00264 0.350858 1.01244 0.253967 0.98577C0.198556 0.970529 0.149026 0.943313 0.108474 0.90766C0.0827809 0.885071 0.0608031 0.858943 0.0434679 0.830366C0.0372767 0.820024 0.0313945 0.80941 0.0264416 0.798795C0.025513 0.796618 0.0245844 0.794713 0.0236557 0.792535C0.0230366 0.791447 0.0227274 0.790086 0.0221083 0.788997C0.0211796 0.78682 0.0202504 0.784915 0.0196313 0.782738C0.0190122 0.781649 0.0187024 0.78056 0.0183928 0.779472C0.0174642 0.777294 0.0168458 0.775389 0.0162267 0.773212C0.0159171 0.772123 0.0152977 0.771035 0.0149882 0.769946C0.014369 0.767769 0.0134401 0.765864 0.012821 0.763686C0.0122019 0.762053 0.0118927 0.76042 0.0112736 0.758788C0.0106545 0.757155 0.0103447 0.755521 0.0100351 0.753888C0.00941601 0.751983 0.00910683 0.750079 0.00848771 0.747901C0.00848771 0.747085 0.007868 0.745996 0.007868 0.745179C0.00755844 0.743274 0.00694 0.741369 0.00663045 0.739736C0.00632089 0.738103 0.00601137 0.73647 0.00570181 0.734565C-0.00234668 0.694285 -0.0017276 0.651556 0.00663045 0.606921C0.0199414 0.572084 0.0360383 0.54133 0.0549213 0.514114C0.0561596 0.512209 0.0577068 0.510031 0.0592546 0.508126C0.0617311 0.504588 0.0642076 0.501322 0.0669936 0.498056C0.0700891 0.493974 0.0731846 0.490164 0.0765898 0.486081C0.0781376 0.484176 0.079995 0.482271 0.0815428 0.480366C0.082781 0.479005 0.0837102 0.477917 0.0849484 0.476556C0.0849484 0.476284 0.0855675 0.476011 0.0858771 0.475739C0.0871153 0.474106 0.0886626 0.472745 0.0902104 0.471385C0.0917582 0.469752 0.0933061 0.468118 0.0951634 0.466485C0.0967112 0.464853 0.0982588 0.463492 0.0998066 0.461859C0.101354 0.460498 0.102902 0.458865 0.10445 0.457504C0.106307 0.455871 0.108165 0.454238 0.109713 0.452877C0.110641 0.452061 0.11188 0.451245 0.112808 0.450156C0.11869 0.445257 0.124571 0.440358 0.130762 0.435731C0.132001 0.434915 0.133239 0.433826 0.134787 0.43301C0.135406 0.432465 0.136335 0.431921 0.136954 0.431377C0.138192 0.43056 0.13974 0.429471 0.140978 0.428655C0.145931 0.425389 0.150884 0.422123 0.156146 0.41913C0.158623 0.417497 0.161099 0.416136 0.163575 0.414775C0.173481 0.409059 0.184006 0.404161 0.194841 0.399534C0.196389 0.398717 0.197937 0.398173 0.199794 0.397357C0.206914 0.394363 0.214343 0.391641 0.221772 0.389192C0.22332 0.388647 0.225178 0.388103 0.226725 0.387559C0.229511 0.386742 0.231988 0.385926 0.234774 0.385109C0.23756 0.384293 0.240036 0.383476 0.242822 0.38266C0.244989 0.382115 0.247156 0.381571 0.249323 0.381027C0.250871 0.380482 0.252419 0.38021 0.253967 0.379938C0.254895 0.379666 0.256133 0.379394 0.257371 0.379122C0.259229 0.378577 0.260777 0.378305 0.262634 0.378033C0.264801 0.377489 0.266968 0.376944 0.269444 0.376672C0.271302 0.376128 0.273469 0.375856 0.275636 0.375584C0.279041 0.375039 0.282136 0.374495 0.285541 0.373951C0.288637 0.373406 0.291423 0.373134 0.294518 0.37259C0.297924 0.372045 0.301638 0.371501 0.305043 0.371229C0.308448 0.370957 0.311854 0.370413 0.314949 0.37014C0.314949 0.37014 0.315568 0.37014 0.315878 0.37014C0.322379 0.369596 0.329188 0.369052 0.335689 0.368507C0.336308 0.368507 0.336928 0.368507 0.337547 0.368507C0.340953 0.368507 0.344667 0.368235 0.348072 0.367963C0.351787 0.367963 0.355501 0.367963 0.359216 0.367691C0.37717 0.367419 0.396053 0.367691 0.415246 0.369051V0.548678C0.259538 0.496968 0.127357 0.644752 0.239107 0.769946C0.239107 0.770218 0.239726 0.77049 0.240036 0.771035C0.303805 0.844246 0.432581 0.845879 0.49635 0.771035C0.51709 0.74654 0.527305 0.716602 0.527305 0.685848V0H0.723256C0.723875 0.00408243 0.724184 0.00816477 0.724803 0.0122472C0.732852 0.0677682 0.761022 0.117574 0.802502 0.155949C0.840268 0.191058 0.889178 0.216913 0.944279 0.228888C0.961614 0.232699 0.979569 0.235148 0.997833 0.235964C0.998762 0.235964 0.999381 0.235964 1 0.235964V0.23542Z" fill="#F9E1D4"/>
</svg>
