<?xml version="1.0" encoding="UTF-8"?>
<svg id="Layer_1" data-name="Layer 1" xmlns="http://www.w3.org/2000/svg" viewBox="0 0 1000 1000">
  <defs>
    <style>
      .cls-1 {
        opacity: .33;
      }

      .cls-2 {
        opacity: .44;
      }

      .cls-3 {
        fill: #fabe60;
      }

      .cls-3, .cls-4, .cls-5, .cls-6, .cls-7, .cls-8, .cls-9, .cls-10, .cls-11, .cls-12, .cls-13 {
        stroke-width: 0px;
      }

      .cls-4 {
        fill: #44884f;
      }

      .cls-5 {
        fill: #43344f;
      }

      .cls-6 {
        fill: #decdad;
      }

      .cls-7 {
        fill: #dbbaa0;
      }

      .cls-8 {
        fill: #b7d35a;
      }

      .cls-9 {
        fill: #b3d5ef;
      }

      .cls-10 {
        fill: #7cae5f;
      }

      .cls-11 {
        fill: #f4904a;
      }

      .cls-12 {
        fill: #fff;
      }

      .cls-13 {
        fill: #fff9e3;
      }
    </style>
  </defs>
  <rect class="cls-13" x="155.57" y="483.23" width="688.86" height="375.74"/>
  <circle class="cls-5" cx="500" cy="202.46" r="28.41"/>
  <path class="cls-5" d="M855.67,487.23H144.33L500,197.3l355.67,289.93ZM166.81,479.23h666.38L500,207.62,166.81,479.23Z"/>
  <g>
    <path class="cls-9" d="M687.22,662.98c0,28.69-11.63,54.67-30.43,73.47-18.8,18.8-44.78,30.43-73.47,30.43h-241.95c0-19.44,4.57-37.81,12.69-54.09,19.51-39.1,59.5-66.21,105.93-67.23h81.51c.61,0,1.2,0,1.8-.03,14.32-.47,27.23-6.46,36.68-15.9,9.85-9.85,15.94-23.46,15.94-38.48,0-11.97-3.87-23.05-10.43-32.03,56.38,1.15,101.73,47.22,101.73,103.88Z"/>
    <path class="cls-5" d="M714.58,766.95h-25.13c-1.76,0-3.19-1.43-3.19-3.19s1.43-3.19,3.19-3.19h25.13c1.76,0,3.19,1.43,3.19,3.19s-1.43,3.19-3.19,3.19Z"/>
    <path class="cls-5" d="M663.17,766.95h-326.14c-1.76,0-3.19-1.43-3.19-3.19s1.43-3.19,3.19-3.19h326.14c1.76,0,3.19,1.43,3.19,3.19s-1.43,3.19-3.19,3.19Z"/>
    <path class="cls-5" d="M310.94,766.95h-25.52c-1.76,0-3.19-1.43-3.19-3.19s1.43-3.19,3.19-3.19h25.52c1.76,0,3.19,1.43,3.19,3.19s-1.43,3.19-3.19,3.19Z"/>
    <path class="cls-5" d="M472.6,794.58h-110.83c-1.76,0-3.19-1.43-3.19-3.19s1.43-3.19,3.19-3.19h110.83c1.76,0,3.19,1.43,3.19,3.19s-1.43,3.19-3.19,3.19Z"/>
    <path class="cls-5" d="M632.84,816.18h-28.4c-1.76,0-3.19-1.43-3.19-3.19s1.43-3.19,3.19-3.19h28.4c1.76,0,3.19,1.43,3.19,3.19s-1.43,3.19-3.19,3.19Z"/>
    <path class="cls-5" d="M587.16,816.18h-105.42c-1.76,0-3.19-1.43-3.19-3.19s1.43-3.19,3.19-3.19h105.42c1.76,0,3.19,1.43,3.19,3.19s-1.43,3.19-3.19,3.19Z"/>
    <g>
      <path class="cls-10" d="M435.54,763.76h-86.99c0-24.02,19.47-43.5,43.5-43.5s43.5,19.47,43.5,43.5Z"/>
      <path class="cls-5" d="M438.73,766.95h-93.38v-3.19c0-25.75,20.95-46.69,46.69-46.69s46.69,20.95,46.69,46.69v3.19ZM351.87,760.57h80.35c-1.63-20.74-19.03-37.11-40.18-37.11s-38.54,16.37-40.18,37.11Z"/>
    </g>
    <g>
      <path class="cls-8" d="M647.66,762.74h-224.35c0-15.87,12.86-28.73,28.73-28.73.44,0,.9,0,1.33.03,11.26-27.13,38.01-46.21,69.21-46.21,27.25,0,51.1,14.55,64.2,36.31,5.52-2.61,11.69-4.07,18.19-4.07,23.57,0,42.68,19.11,42.68,42.68Z"/>
      <path class="cls-5" d="M650.86,765.94h-230.74v-3.19c0-17.35,13.91-31.51,31.17-31.92,12.58-28.13,40.34-46.19,71.3-46.19,13.71,0,27.2,3.6,39.01,10.42,10.64,6.15,19.74,14.77,26.44,25.05,5.38-2.15,11.07-3.24,16.95-3.24,25.29,0,45.87,20.58,45.87,45.87v3.19ZM426.71,759.55h217.63c-1.63-20.28-18.66-36.29-39.36-36.29-5.89,0-11.55,1.27-16.83,3.76l-2.61,1.23-1.49-2.48c-6.26-10.41-15.14-19.12-25.65-25.19-10.84-6.26-23.22-9.57-35.81-9.57-29.1,0-55.1,17.36-66.26,44.24l-.85,2.05-2.22-.09c-.4-.02-.81-.02-1.21-.02-13,0-23.77,9.76-25.34,22.35Z"/>
    </g>
    <g>
      <path class="cls-4" d="M515.25,763.76h-130.26c0-9.22,7.47-16.68,16.68-16.68.26,0,.52,0,.77.01,6.54-15.75,22.07-26.83,40.18-26.83,15.82,0,29.67,8.45,37.28,21.08,3.2-1.51,6.79-2.36,10.56-2.36,13.68,0,24.78,11.09,24.78,24.78Z"/>
      <path class="cls-5" d="M518.44,766.95h-136.64v-3.19c0-10.52,8.21-19.15,18.56-19.83,7.68-16.38,24.04-26.86,42.27-26.86,15.6,0,29.81,7.54,38.52,20.31,2.98-1.06,6.1-1.59,9.31-1.59,15.42,0,27.97,12.55,27.97,27.97v3.19ZM388.57,760.57h123.25c-1.55-10.39-10.53-18.39-21.35-18.39-3.22,0-6.31.69-9.2,2.05l-2.61,1.23-1.49-2.47c-7.36-12.23-20.27-19.53-34.54-19.53-16.35,0-30.96,9.76-37.23,24.86l-.85,2.05-2.22-.08c-.21,0-.43-.01-.65-.01-6.34,0-11.67,4.39-13.11,10.3Z"/>
    </g>
    <g>
      <polygon class="cls-4" points="644.21 696.32 630.25 763.76 658.17 763.76 644.21 696.32"/>
      <path class="cls-5" d="M658.17,766.95h-27.93c-.96,0-1.87-.43-2.48-1.18-.61-.74-.85-1.72-.65-2.66l13.96-67.44c.31-1.48,1.61-2.55,3.13-2.55s2.82,1.06,3.13,2.55l13.96,67.44c.19.94-.04,1.92-.65,2.66-.61.75-1.52,1.18-2.48,1.18ZM634.17,760.57h20.08l-10.04-48.49-10.04,48.49Z"/>
    </g>
    <g>
      <polygon class="cls-10" points="628.76 713.46 618.34 763.76 639.18 763.76 628.76 713.46"/>
      <path class="cls-5" d="M639.18,766.95h-20.83c-.96,0-1.87-.43-2.48-1.18-.61-.74-.85-1.72-.65-2.66l10.42-50.3c.31-1.48,1.61-2.55,3.13-2.55s2.82,1.06,3.13,2.55l10.42,50.3c.19.94-.04,1.92-.65,2.66-.61.75-1.52,1.18-2.48,1.18ZM622.27,760.57h12.99l-6.49-31.36-6.49,31.36Z"/>
    </g>
    <g>
      <path class="cls-4" d="M552.16,762.74h70c0-15.27-12.37-27.64-27.64-27.64-9.46,0-17.82,4.75-22.8,12.01-1.14-.26-2.32-.39-3.54-.39-8.85,0-16.03,7.17-16.03,16.03Z"/>
      <path class="cls-5" d="M625.35,765.94h-76.39v-3.19c0-10.6,8.62-19.22,19.22-19.22.71,0,1.42.04,2.13.12,5.83-7.38,14.73-11.73,24.21-11.73,17,0,30.84,13.83,30.84,30.84v3.19ZM555.75,759.55h63c-1.57-11.98-11.84-21.25-24.24-21.25-8.06,0-15.6,3.97-20.16,10.62l-1.22,1.78-2.11-.48c-.92-.21-1.88-.31-2.83-.31-5.97,0-11.01,4.1-12.43,9.64Z"/>
    </g>
    <g>
      <circle class="cls-11" cx="462.08" cy="685.26" r="53.34"/>
      <path class="cls-5" d="M462.08,741.8c-31.18,0-56.54-25.36-56.54-56.54s25.36-56.54,56.54-56.54,56.54,25.36,56.54,56.54-25.36,56.54-56.54,56.54ZM462.08,635.11c-27.65,0-50.15,22.5-50.15,50.15s22.5,50.15,50.15,50.15,50.15-22.5,50.15-50.15-22.5-50.15-50.15-50.15Z"/>
    </g>
    <g class="cls-1">
      <path class="cls-7" d="M512.37,685.31c0,15-6.75,28.45-17.44,37.61-6.3,2.73-13.28,4.25-20.61,4.25-28.17,0-51.01-22.36-51.01-49.95,0-15,6.75-28.45,17.44-37.61,6.3-2.73,13.28-4.25,20.61-4.25,28.17,0,51.01,22.36,51.01,49.95Z"/>
    </g>
    <path class="cls-5" d="M462.01,766.21c-1.73,0-3.16-1.39-3.19-3.13l-1.75-85.5c-.04-1.76,1.36-3.22,3.13-3.26,1.78-.04,3.22,1.36,3.26,3.13l1.75,85.5c.04,1.76-1.36,3.22-3.13,3.26-.02,0-.04,0-.07,0Z"/>
    <path class="cls-5" d="M461.86,706.64c-.82,0-1.63-.31-2.26-.94-1.25-1.25-1.25-3.27,0-4.52l15.53-15.53c1.25-1.25,3.27-1.25,4.52,0,1.25,1.25,1.25,3.27,0,4.52l-15.53,15.53c-.62.62-1.44.94-2.26.94Z"/>
    <g>
      <rect class="cls-3" x="361.77" y="527.31" width="93.94" height="145.07" rx="46.97" ry="46.97"/>
      <path class="cls-5" d="M418.55,675.58h-19.63c-22.25,0-40.35-18.1-40.35-40.35v-70.77c0-22.25,18.1-40.35,40.35-40.35h19.63c22.25,0,40.35,18.1,40.35,40.35v70.77c0,22.25-18.1,40.35-40.35,40.35ZM398.92,530.51c-18.73,0-33.96,15.23-33.96,33.96v70.77c0,18.73,15.23,33.96,33.96,33.96h19.63c18.73,0,33.96-15.23,33.96-33.96v-70.77c0-18.73-15.23-33.96-33.96-33.96h-19.63Z"/>
    </g>
    <g class="cls-2">
      <path class="cls-6" d="M452.75,565.67v68.13c0,7.86-2.47,15.13-6.67,21.03-4.43,2.08-9.37,3.25-14.56,3.25h-18.46c-19.29,0-34.94-16.01-34.94-35.78v-68.12c0-7.85,2.47-15.12,6.67-21.03,4.43-2.08,9.36-3.25,14.56-3.25h18.46c19.3,0,34.94,16.01,34.94,35.77Z"/>
    </g>
    <path class="cls-5" d="M406.95,766.95c-1.76,0-3.19-1.43-3.19-3.19v-177.56c0-1.76,1.43-3.19,3.19-3.19s3.19,1.43,3.19,3.19v177.56c0,1.76-1.43,3.19-3.19,3.19Z"/>
    <path class="cls-5" d="M407.82,655.79c-.82,0-1.63-.31-2.26-.94-1.25-1.25-1.25-3.27,0-4.52l18.73-18.73c1.25-1.25,3.27-1.25,4.52,0,1.25,1.25,1.25,3.27,0,4.52l-18.73,18.73c-.62.62-1.44.94-2.26.94Z"/>
    <path class="cls-5" d="M406.95,632.41c-.95,0-1.89-.42-2.52-1.23l-18.68-23.97c-1.08-1.39-.84-3.4.56-4.48,1.39-1.08,3.4-.84,4.48.56l18.68,23.97c1.08,1.39.84,3.4-.56,4.48-.58.45-1.27.67-1.96.67Z"/>
    <path class="cls-12" d="M640.93,606.62c-12.67,0-17.86,5.18-17.86,17.86,0-12.67-5.18-17.86-17.86-17.86,12.67,0,17.86-5.18,17.86-17.86,0,12.67,5.18,17.86,17.86,17.86Z"/>
    <path class="cls-12" d="M646.44,643.23c-9.08,0-12.8,3.72-12.8,12.8,0-9.08-3.72-12.8-12.8-12.8,9.08,0,12.8-3.72,12.8-12.8,0,9.08,3.72,12.8,12.8,12.8Z"/>
    <path class="cls-12" d="M620.76,630.49c-9.08,0-12.8,3.72-12.8,12.8,0-9.08-3.72-12.8-12.8-12.8,9.08,0,12.8-3.72,12.8-12.8,0,9.08,3.72,12.8,12.8,12.8Z"/>
  </g>
  <path class="cls-5" d="M848.43,862.97H151.57v-383.74h696.86v383.74ZM159.57,854.97h680.86v-367.74H159.57v367.74Z"/>
</svg>