<?xml version="1.0" encoding="UTF-8"?>
<svg id="Layer_1" data-name="Layer 1" xmlns="http://www.w3.org/2000/svg" viewBox="0 0 1000 1000">
  <defs>
    <style>
      .cls-1 {
        fill: #f4a590;
      }

      .cls-1, .cls-2, .cls-3 {
        stroke-width: 0px;
      }

      .cls-2 {
        fill: #ca6642;
      }

      .cls-3 {
        fill: #de8665;
      }
    </style>
  </defs>
  <path class="cls-1" d="M821.68,274.16c-11.11-44.83-40.3-74.77-86.91-90.38-19.65-6.57-40.31-9.56-61.04-9.56h-357.2c-18.72,0-37.4,2.53-55.26,8.14-57.34,18.07-87.97,58.77-87.2,126.15v379.93c0,8.62.48,17.24,1.75,25.76,7.27,49.03,33.74,83.33,81.71,101.14,19.28,7.17,39.77,10.45,60.33,10.45h357.84c14.73,0,29.46-1.18,43.94-3.97,65.57-12.69,105.1-49.63,106.31-122.2v-388.43c0-12.45-1.27-24.93-4.26-37.02ZM739.9,617.08c0,16.5-2.72,32.97-8.73,48.35-10.89,27.8-29.59,47.51-55.16,60.06-17.74,8.7-37.4,12.76-57.17,12.76h-228.56c-15.25,0-30.48-1.99-45.06-6.46-31.41-9.66-54.85-27.9-69.7-55.37-9.77-18.12-14.44-38.58-14.44-59.17v-217.4c0-30.93,9.47-61.31,28.07-86.01,13.86-18.39,31.33-32.26,52.25-41.74,19.09-8.64,39.95-12.67,60.91-12.67h193.84c25.6,0,51.05,5.44,73.98,16.81,27.67,13.75,47.89,33.64,59.69,60.5,6.88,15.69,10.08,32.76,10.08,49.9v230.43Z"/>
  <path class="cls-3" d="M694.21,374.94c-10.16-39.31-32.27-61.27-63.55-69.95-9.18-2.54-18.7-3.59-28.23-3.59h-190c-8.52,0-17.06.56-25.47,1.99-49.22,8.33-72.13,36.73-80.96,75.85-2.45,10.85-3.45,21.98-3.45,33.1v200.55c0,8.66.89,17.31,3.05,25.68,9.68,37.6,37.29,54.95,78.95,56.43h216.82c14.15,0,28.3-2.06,41.68-6.73,26.41-9.24,46.08-26.16,53.37-57.18,1.75-7.46,2.47-15.1,2.47-22.75v-194.73c0-13.03-1.43-26.07-4.68-38.68ZM502.37,623.42c-68.17,0-123.43-55.26-123.43-123.43s55.26-123.43,123.43-123.43,123.43,55.28,123.43,123.43-55.26,123.43-123.43,123.43ZM633.32,393.33c-13.23,0-23.96-10.72-23.96-23.95s10.74-23.97,23.96-23.97,23.95,10.74,23.95,23.97-10.72,23.95-23.95,23.95Z"/>
  <path class="cls-2" d="M584.1,499.99c0,44.86-36.38,81.25-81.25,81.25s-81.23-36.38-81.23-81.25,36.36-81.23,81.23-81.23,81.25,36.36,81.25,81.23Z"/>
</svg>