<?xml version="1.0" encoding="UTF-8"?>
<svg id="Layer_1" data-name="Layer 1" xmlns="http://www.w3.org/2000/svg" viewBox="0 0 1000 1000">
  <defs>
    <style>
      .cls-1 {
        fill: #f4a590;
      }

      .cls-1, .cls-2, .cls-3, .cls-4 {
        stroke-width: 0px;
      }

      .cls-2 {
        fill: #ca6642;
      }

      .cls-3 {
        fill: #de8665;
      }

      .cls-4 {
        fill: #f5e1da;
      }
    </style>
  </defs>
  <circle class="cls-4" cx="500" cy="500" r="337.9"/>
  <path class="cls-2" d="M713.38,396.49v77.37c-43.19-1.21-78.49-13.53-109.41-32.04v171.23c0,8.04-1.08,16.06-3.32,23.79-3.86,13.34-9.22,25.24-15.87,35.86-11.24,18.01-27.09,32.56-45.12,43.77-39.81,24.74-82.71,29.06-120.92,17.16-21.92-6.81-41.45-19.05-57.42-35.09-10.12-10.16-18.8-21.88-25.74-34.72-2.51-4.67-4.74-9.41-6.69-14.23-.39-.93-.75-1.85-1.1-2.78-.19-.52-.39-1.04-.58-1.56-.35-.94-.69-1.89-1-2.83-.19-.52-.37-1.02-.5-1.52-.35-.94-.64-1.87-.91-2.81-.17-.5-.33-1-.46-1.5-.29-.93-.56-1.87-.81-2.81-.21-.73-.4-1.47-.58-2.22-.19-.71-.39-1.45-.54-2.18-.23-.87-.42-1.75-.62-2.66-.1-.4-.19-.81-.27-1.23-.17-.83-.35-1.66-.48-2.49-.15-.75-.29-1.5-.42-2.28-3.18-18.14-2.99-37.27.42-57.32,5.26-15.62,11.65-29.48,19.09-41.64.54-.91,1.1-1.79,1.68-2.68.98-1.54,1.99-3.07,3.01-4.55,1.23-1.79,2.51-3.57,3.82-5.32.66-.89,1.33-1.75,2.01-2.6.44-.56.89-1.12,1.35-1.66.1-.13.19-.27.31-.39.54-.67,1.1-1.33,1.66-1.99.62-.75,1.27-1.5,1.93-2.24.6-.69,1.21-1.37,1.85-2.04.6-.66,1.2-1.29,1.79-1.93.69-.71,1.41-1.43,2.12-2.14.4-.4.81-.79,1.21-1.2,2.31-2.26,4.69-4.4,7.13-6.44.52-.42,1.02-.85,1.56-1.27.29-.25.6-.5.91-.73.52-.4,1.04-.83,1.56-1.21,1.95-1.52,3.95-2.97,6-4.34.98-.67,1.95-1.31,2.95-1.95,3.95-2.53,8.04-4.82,12.3-6.9.64-.33,1.27-.64,1.93-.93,2.81-1.33,5.73-2.56,8.7-3.7.66-.27,1.31-.5,1.99-.75,1.04-.39,2.1-.75,3.16-1.12,1.06-.37,2.14-.71,3.22-1.04.87-.27,1.72-.54,2.6-.77.6-.19,1.2-.37,1.79-.52.42-.13.87-.25,1.31-.35.67-.19,1.37-.37,2.06-.54.87-.23,1.75-.44,2.64-.64.79-.19,1.58-.37,2.39-.54,1.29-.27,2.58-.54,3.88-.79,1.18-.21,2.37-.42,3.57-.62,1.37-.23,2.76-.44,4.15-.64.04,0,.06,0,.08-.02,1.31-.17,2.64-.35,3.97-.5.1,0,.21-.02.33-.04,2.58-.29,5.21-.54,7.85-.71.25-.02.52-.04.79-.04,1.39-.1,2.8-.17,4.2-.23,1.47-.08,2.95-.12,4.45-.15,7.13-.13,14.5.08,22.08.66v80.67c-61.52-23.25-113.69,43.11-69.62,99.47.12.15.23.29.35.44,25.14,32.87,76.04,33.62,101.2,0,8.23-10.97,12.28-24.5,12.28-38.23v-308.11h77.35c.19,1.83.4,3.68.64,5.51,3.22,24.95,14.34,47.33,30.69,64.63,14.96,15.81,34.3,27.36,56.01,32.72,6.84,1.7,13.92,2.78,21.17,3.18.31.02.62.04.91.04Z"/>
  <path class="cls-3" d="M584.88,290.41h-58.26v308.11c0,13.73-4.05,27.26-12.28,38.23-25.16,33.62-76.06,32.87-101.2,0,26.22,13.03,60.06,7.31,79.13-18.18,8.23-10.99,12.28-24.52,12.28-38.23v-308.13h77.35c.19,1.85.4,3.68.64,5.53.56,4.3,1.35,8.52,2.35,12.67Z"/>
  <path class="cls-3" d="M460.33,437.98v17.54c-47.85,1.02-85.28,18.59-111.68,53.67-25.66,34.1-36.11,77.68-26.46,119.25,2.85,12.26,7.3,24.05,13.4,35.37,6.94,12.84,15.62,24.56,25.74,34.72-19.86-13.26-36.28-31.54-47.81-52.92-6.1-11.31-10.55-23.11-13.4-35.36-10.13-43.58,1.78-89.25,30.11-123.89,30.23-36.97,73.87-52.67,130.11-48.37Z"/>
  <path class="cls-3" d="M691.3,378.31v14.96c-21.71-5.36-41.05-16.91-56.01-32.72,16.37,10.41,35.51,16.79,55.99,17.74l.02.02Z"/>
  <path class="cls-1" d="M691.3,393.27v62.39c-43.19-1.21-78.49-13.53-109.41-32.04v171.23c0,8.17-1.14,16.31-3.41,24.18-3.86,13.19-9.18,24.95-15.77,35.49-11.24,17.99-27.09,32.56-45.12,43.77-39.81,24.72-82.71,29.06-120.92,17.16-12.65-3.95-24.5-9.68-35.34-16.91-10.12-10.16-18.8-21.88-25.74-34.72-2.51-4.67-4.74-9.41-6.69-14.23-.39-.93-.75-1.85-1.1-2.78-.19-.52-.39-1.04-.58-1.56-.35-.94-.69-1.89-1-2.83-.19-.52-.37-1.02-.5-1.52-.35-.94-.64-1.87-.91-2.81-.17-.5-.33-1-.46-1.5-.29-.93-.56-1.87-.81-2.81-.21-.73-.4-1.47-.58-2.22-.19-.71-.39-1.45-.54-2.18-.1-.31-.15-.6-.23-.91-.14-.58-.27-1.16-.39-1.75-.1-.4-.19-.81-.27-1.23-.17-.83-.35-1.66-.48-2.49-.15-.75-.29-1.5-.42-2.28-5.9-34.2,1.5-69.31,19.51-98.96.54-.91,1.1-1.79,1.68-2.68.96-1.54,1.97-3.05,3.01-4.55,1.23-1.79,2.51-3.57,3.82-5.32.66-.89,1.33-1.75,2.01-2.6.44-.56.89-1.12,1.35-1.66.1-.13.19-.27.31-.39.54-.67,1.1-1.33,1.66-1.99.62-.75,1.27-1.5,1.93-2.24.6-.69,1.21-1.37,1.85-2.04.6-.66,1.2-1.29,1.79-1.93.69-.71,1.41-1.43,2.12-2.14.4-.4.81-.79,1.21-1.2,2.31-2.26,4.69-4.4,7.13-6.44.52-.42,1.02-.85,1.56-1.27.29-.25.6-.5.91-.73.52-.4,1.04-.83,1.56-1.21,1.95-1.52,3.95-2.97,6-4.34.98-.67,1.95-1.31,2.95-1.95,3.95-2.53,8.04-4.82,12.3-6.9.64-.33,1.27-.64,1.93-.93,2.81-1.33,5.73-2.56,8.7-3.7.66-.27,1.31-.5,1.99-.75,1.04-.39,2.1-.75,3.16-1.12,1.06-.37,2.14-.71,3.22-1.04.87-.27,1.72-.54,2.6-.77.6-.19,1.2-.37,1.79-.52.42-.13.87-.25,1.31-.35.67-.19,1.37-.37,2.06-.54.87-.23,1.75-.44,2.64-.64.79-.19,1.58-.37,2.39-.54,1.29-.27,2.58-.54,3.88-.79,1.18-.21,2.37-.42,3.57-.62,1.37-.23,2.76-.44,4.15-.64.04,0,.06,0,.08-.02,1.31-.17,2.64-.35,3.97-.5.1,0,.21-.02.33-.04,2.58-.29,5.19-.52,7.85-.71.25-.02.52-.04.79-.04,1.39-.1,2.8-.17,4.2-.23,1.47-.08,2.95-.12,4.45-.15v63.14c-61.52-23.25-113.69,43.09-69.62,99.47,6.15,8.17,13.88,14.4,22.42,18.62,25.14,32.87,76.04,33.62,101.2,0,8.23-10.97,12.28-24.5,12.28-38.23v-308.11h58.26c7.23,29.48,25.66,54.41,50.42,70.14,14.96,15.81,34.3,27.36,56.01,32.72Z"/>
</svg>