<?xml version="1.0" encoding="UTF-8"?>
<svg id="Layer_1" data-name="Layer 1" xmlns="http://www.w3.org/2000/svg" viewBox="0 0 1000 1000">
  <defs>
    <style>
      .cls-1 {
        fill: none;
      }

      .cls-1, .cls-2, .cls-3, .cls-4, .cls-5, .cls-6, .cls-7, .cls-8, .cls-9 {
        stroke-width: 0px;
      }

      .cls-2 {
        fill: #357baa;
      }

      .cls-3 {
        fill: #1d537f;
      }

      .cls-4 {
        fill: #d0dde2;
      }

      .cls-5 {
        fill: #c5d3da;
      }

      .cls-6 {
        fill: #afc0c6;
      }

      .cls-7 {
        fill: #93abb2;
      }

      .cls-8 {
        fill: #7da1af;
      }

      .cls-9 {
        fill: #edefe7;
      }
    </style>
  </defs>
  <polygon class="cls-6" points="966.8 617.2 916.36 686.26 674.83 686.94 725.74 617.2 966.8 617.2"/>
  <polygon class="cls-5" points="725.74 617.2 674.83 686.94 51.94 688.68 60.34 633.22 236.09 628.99 581.8 620.67 725.74 617.2"/>
  <polygon class="cls-5" points="978.41 601.99 966.8 617.2 725.74 617.2 701.85 549.78 955.44 551.4 954.1 556.11 923.85 556.11 925.18 559.26 930.06 570.86 934.35 581.04 940.46 595.54 978.41 601.99"/>
  <polygon class="cls-4" points="669.92 531.81 672.97 549.78 668.89 526.24 670.14 524.16 697.81 524.05 698.79 531.81 669.92 531.81"/>
  <polygon class="cls-5" points="944 525.61 959.35 537.67 698.79 531.81 697.81 524.05 751.57 523.85 850.9 524.01 886.86 524.79 895.33 525.61 944 525.61"/>
  <polygon class="cls-2" points="701.84 549.78 672.97 549.78 669.92 531.81 698.79 531.81 701.84 549.78"/>
  <polygon class="cls-5" points="895.33 506.52 895.33 511.09 887.64 509.69 852.5 508.29 753.42 508.29 639.49 510.93 638.52 510.98 637.76 501.77 639.2 501.69 656.22 501.42 666.52 499.26 865.32 499.08 887.64 499.08 895.33 506.52"/>
  <path class="cls-5" d="M860.36,476.26h-23.8c-7.52-9.13-18.8-14.92-32.74-18.35h-67.45c-.31-.41-.63-.82-.96-1.22l-11.64.49c-4.06-4.34-9.07-8.73-14.96-13.19-.95-.72-.72-2.2.4-2.61l5.14-1.87c-1.67-.86-3.42-1.67-5.26-2.43l-18.1-.25-7.69-20.33h-11.66l-.25,20.58h-8.18l-9.67,21.57-40.33,3.97v23.53h240.59l11.52,1.24v-4.18l-4.96-6.95ZM659.04,457.18c1.37-6.12,1.85-13.12,8.03-14.34,1.06-.21,2.17-.18,3.24-.02,15.23,2.26,26.79,6.67,32.72,14.36h-43.99Z"/>
  <polygon class="cls-7" points="916.36 686.26 903.26 706.76 665 707.44 673.79 688.36 674.83 686.94 916.36 686.26"/>
  <path class="cls-6" d="M674.83,686.94l-1.04,1.42-8.79,19.08-620.55,1.77h0c-4.07-6.98-1.45-15.96,5.75-19.64l1.74-.89,622.89-1.74Z"/>
  <path class="cls-9" d="M701.85,549.78h-28.88l-4.08-23.54h-29.13l-218.03,12.24v1.87l-168.36,7.92-53.83,2.49h-33.21l-12.63,1.48-35.19,1.4v-2.88l17.67-11.47h17.52l13.09-1,32.5-1.84,54.08-1.56,168.36-9v-3.03l216.79-11.88-.76-9.21-216.03,12.67v2.72l-58.07,3.65-113.89,6.13-50.48,1.21-32.92,1.44-13.37.85h-7.29l7.27-13.48,46.31-2.59,50.48-.95,114.16-6.84,57.8-2.84v-4.11l191.48-13.48v-23.53l-15.34.56v-6.5l-96.64,5.74v13.01l-25.71.67-33.06.87c-10.85-18.34-24.48-32.22-43.65-37.22-7.32-1.92-15.45-2.53-24.54-1.61-1.27.13-2.54.35-3.74.75-14.01,4.65-22.29,26.52-30.28,46.5v-6.51h-31.77v9.95l-73.88,2.3-13.78,16.08-69.44,3.59-14.97,22.75c-41.54,12-69.53,55.66-76.07,99.67l175.75-4.23,4.66-14.97,337.11-9.15,3.94,15.8,143.94-3.47-23.89-67.42ZM358.49,464.52c4.33-5.09,11.09-7.47,17.64-6.18,14.75,2.91,26.69,8.68,33.01,20.17l-59.69,3.71c2.09-6.42,4.67-12.57,9.04-17.7ZM94.99,627.2h-18.26l1-8.59h18.26l-1,8.59ZM100.87,609.04h-18.26l1-8.59h18.26l-1,8.59ZM107.92,590.85h-18.26l1-8.59h18.26l-1,8.59ZM113.21,577.9h-14.76l7.4-14.54h7.52l-.16,14.54ZM117.13,627.98c-1.09,0-1.97-1.65-1.97-3.69s.88-3.68,1.97-3.68,1.97,1.65,1.97,3.68-.88,3.69-1.97,3.69ZM118.76,609.22c-1.09,0-1.97-1.65-1.97-3.69s.88-3.69,1.97-3.69,1.97,1.65,1.97,3.69-.88,3.69-1.97,3.69ZM116.54,587.34c0-2.04.89-3.69,1.97-3.69s1.97,1.65,1.97,3.69-.88,3.69-1.97,3.69-1.97-1.65-1.97-3.69ZM124.56,627.98c-1.09,0-1.97-1.65-1.97-3.69s.88-3.68,1.97-3.68,1.97,1.65,1.97,3.68-.88,3.69-1.97,3.69ZM126.19,609.22c-1.09,0-1.97-1.65-1.97-3.69s.88-3.69,1.97-3.69,1.97,1.65,1.97,3.69-.88,3.69-1.97,3.69ZM123.98,587.34c0-2.04.88-3.69,1.97-3.69s1.97,1.65,1.97,3.69-.89,3.69-1.97,3.69-1.97-1.65-1.97-3.69ZM131.99,627.98c-1.08,0-1.97-1.65-1.97-3.69s.89-3.68,1.97-3.68,1.97,1.65,1.97,3.68-.88,3.69-1.97,3.69ZM133.62,609.22c-1.08,0-1.97-1.65-1.97-3.69s.89-3.69,1.97-3.69,1.97,1.65,1.97,3.69-.88,3.69-1.97,3.69ZM131.41,587.34c0-2.04.88-3.69,1.97-3.69s1.97,1.65,1.97,3.69-.88,3.69-1.97,3.69-1.97-1.65-1.97-3.69ZM139.42,627.98c-1.08,0-1.97-1.65-1.97-3.69s.89-3.68,1.97-3.68,1.97,1.65,1.97,3.68-.88,3.69-1.97,3.69ZM141.06,609.22c-1.09,0-1.97-1.65-1.97-3.69s.88-3.69,1.97-3.69,1.97,1.65,1.97,3.69-.89,3.69-1.97,3.69ZM138.84,587.34c0-2.04.88-3.69,1.97-3.69s1.97,1.65,1.97,3.69-.88,3.69-1.97,3.69-1.97-1.65-1.97-3.69ZM143.92,576.58h-27.38v-13.92h27.38v13.92ZM146.86,627.2c-1.09,0-1.97-1.65-1.97-3.69s.88-3.69,1.97-3.69,1.97,1.65,1.97,3.69-.89,3.69-1.97,3.69ZM148.49,608.43c-1.09,0-1.97-1.65-1.97-3.69s.88-3.68,1.97-3.68,1.97,1.65,1.97,3.68-.88,3.69-1.97,3.69ZM146.27,586.55c0-2.03.88-3.69,1.97-3.69s1.97,1.66,1.97,3.69-.88,3.69-1.97,3.69-1.97-1.65-1.97-3.69ZM154.29,627.2c-1.09,0-1.97-1.65-1.97-3.69s.88-3.69,1.97-3.69,1.97,1.65,1.97,3.69-.88,3.69-1.97,3.69ZM155.92,608.43c-1.09,0-1.97-1.65-1.97-3.69s.88-3.68,1.97-3.68,1.97,1.65,1.97,3.68-.88,3.69-1.97,3.69ZM153.7,586.55c0-2.03.89-3.69,1.97-3.69s1.97,1.66,1.97,3.69-.88,3.69-1.97,3.69-1.97-1.65-1.97-3.69ZM161.72,625.98c-1.09,0-1.97-1.65-1.97-3.69s.88-3.68,1.97-3.68,1.97,1.65,1.97,3.68-.88,3.69-1.97,3.69ZM163.35,607.22c-1.09,0-1.97-1.65-1.97-3.69s.88-3.69,1.97-3.69,1.97,1.65,1.97,3.69-.88,3.69-1.97,3.69ZM161.14,585.34c0-2.04.88-3.69,1.97-3.69s1.97,1.65,1.97,3.69-.89,3.69-1.97,3.69-1.97-1.65-1.97-3.69ZM169.15,625.98c-1.09,0-1.97-1.65-1.97-3.69s.88-3.68,1.97-3.68,1.97,1.65,1.97,3.68-.88,3.69-1.97,3.69ZM170.78,607.22c-1.08,0-1.97-1.65-1.97-3.69s.89-3.69,1.97-3.69,1.97,1.65,1.97,3.69-.88,3.69-1.97,3.69ZM168.57,585.34c0-2.04.88-3.69,1.97-3.69s1.97,1.65,1.97,3.69-.89,3.69-1.97,3.69-1.97-1.65-1.97-3.69ZM173.81,575.09h-27.38v-13.92h27.38v13.92ZM176.58,625.98c-1.08,0-1.97-1.65-1.97-3.69s.89-3.68,1.97-3.68,1.97,1.65,1.97,3.68-.88,3.69-1.97,3.69ZM178.21,607.22c-1.08,0-1.97-1.65-1.97-3.69s.89-3.69,1.97-3.69,1.97,1.65,1.97,3.69-.88,3.69-1.97,3.69ZM176,585.34c0-2.04.88-3.69,1.97-3.69s1.97,1.65,1.97,3.69-.88,3.69-1.97,3.69-1.97-1.65-1.97-3.69ZM185.15,624.98c-1.09,0-1.97-1.65-1.97-3.69s.88-3.68,1.97-3.68,1.97,1.65,1.97,3.68-.88,3.69-1.97,3.69ZM186.78,606.22c-1.09,0-1.97-1.65-1.97-3.69s.88-3.69,1.97-3.69,1.97,1.65,1.97,3.69-.88,3.69-1.97,3.69ZM184.56,584.34c0-2.04.89-3.69,1.97-3.69s1.97,1.65,1.97,3.69-.88,3.69-1.97,3.69-1.97-1.65-1.97-3.69ZM192.76,624.98c-1.09,0-1.97-1.65-1.97-3.69s.88-3.68,1.97-3.68,1.97,1.65,1.97,3.68-.88,3.69-1.97,3.69ZM194.39,606.22c-1.09,0-1.97-1.65-1.97-3.69s.88-3.69,1.97-3.69,1.97,1.65,1.97,3.69-.88,3.69-1.97,3.69ZM192.18,584.34c0-2.04.88-3.69,1.97-3.69s1.97,1.65,1.97,3.69-.89,3.69-1.97,3.69-1.97-1.65-1.97-3.69ZM199.88,624.98c-1.09,0-1.97-1.65-1.97-3.69s.88-3.68,1.97-3.68,1.97,1.65,1.97,3.68-.88,3.69-1.97,3.69ZM201.51,606.22c-1.09,0-1.97-1.65-1.97-3.69s.88-3.69,1.97-3.69,1.97,1.65,1.97,3.69-.88,3.69-1.97,3.69ZM199.29,584.34c0-2.04.89-3.69,1.97-3.69s1.97,1.65,1.97,3.69-.88,3.69-1.97,3.69-1.97-1.65-1.97-3.69ZM203.69,573.6h-27.37v-13.92h27.37v13.92ZM206.2,558.2h27.38v13.91h-27.38v-13.91ZM226.53,584.34c0,2.04-.88,3.69-1.97,3.69s-1.97-1.65-1.97-3.69.88-3.69,1.97-3.69,1.97,1.65,1.97,3.69ZM219.1,584.34c0,2.04-.88,3.69-1.97,3.69s-1.97-1.65-1.97-3.69.88-3.69,1.97-3.69,1.97,1.65,1.97,3.69ZM211.67,584.34c0,2.04-.89,3.69-1.97,3.69s-1.97-1.65-1.97-3.69.88-3.69,1.97-3.69,1.97,1.65,1.97,3.69ZM208.31,624.98c-1.09,0-1.97-1.65-1.97-3.69s.88-3.68,1.97-3.68,1.97,1.65,1.97,3.68-.88,3.69-1.97,3.69ZM209.94,606.22c-1.09,0-1.97-1.65-1.97-3.69s.88-3.69,1.97-3.69,1.97,1.65,1.97,3.69-.88,3.69-1.97,3.69ZM215.74,624.98c-1.08,0-1.97-1.65-1.97-3.69s.89-3.68,1.97-3.68,1.97,1.65,1.97,3.68-.88,3.69-1.97,3.69ZM217.37,606.22c-1.08,0-1.97-1.65-1.97-3.69s.89-3.69,1.97-3.69,1.97,1.65,1.97,3.69-.88,3.69-1.97,3.69ZM223.18,624.98c-1.09,0-1.97-1.65-1.97-3.69s.88-3.68,1.97-3.68,1.97,1.65,1.97,3.68-.89,3.69-1.97,3.69ZM224.81,606.22c-1.09,0-1.97-1.65-1.97-3.69s.88-3.69,1.97-3.69,1.97,1.65,1.97,3.69-.89,3.69-1.97,3.69ZM232.99,579.65c1.09,0,1.97,1.65,1.97,3.69s-.88,3.69-1.97,3.69-1.97-1.65-1.97-3.69.88-3.69,1.97-3.69ZM233.24,605.22c-1.09,0-1.97-1.65-1.97-3.69s.88-3.69,1.97-3.69,1.97,1.65,1.97,3.69-.88,3.69-1.97,3.69ZM569.4,565.65c1.09,0,1.97,1.65,1.97,3.69s-.88,3.69-1.97,3.69-1.97-1.65-1.97-3.69.88-3.69,1.97-3.69ZM558.97,544.25c1.09,0,1.97,1.65,1.97,3.69s-.88,3.69-1.97,3.69-1.97-1.65-1.97-3.69.88-3.69,1.97-3.69ZM558.97,565.65c1.09,0,1.97,1.65,1.97,3.69s-.88,3.69-1.97,3.69-1.97-1.65-1.97-3.69.88-3.69,1.97-3.69ZM548.45,542.03c1.51,0,2.74,2.56,2.74,5.71s-1.23,5.72-2.74,5.72-2.74-2.56-2.74-5.72,1.22-5.71,2.74-5.71ZM550.51,570.34c0,2.04-.88,3.69-1.97,3.69s-1.97-1.65-1.97-3.69.88-3.69,1.97-3.69,1.97,1.65,1.97,3.69ZM538.68,542.93c1.52,0,2.74,2.56,2.74,5.71s-1.22,5.71-2.74,5.71-2.74-2.55-2.74-5.71,1.23-5.71,2.74-5.71ZM541.08,570.34c0,2.04-.89,3.69-1.97,3.69s-1.97-1.65-1.97-3.69.88-3.69,1.97-3.69,1.97,1.65,1.97,3.69ZM529.17,543.93c1.51,0,2.74,2.56,2.74,5.71s-1.23,5.71-2.74,5.71-2.74-2.55-2.74-5.71,1.22-5.71,2.74-5.71ZM531.64,570.34c0,2.04-.88,3.69-1.97,3.69s-1.97-1.65-1.97-3.69.89-3.69,1.97-3.69,1.97,1.65,1.97,3.69ZM519.65,543.93c1.51,0,2.74,2.56,2.74,5.71s-1.23,5.71-2.74,5.71-2.74-2.55-2.74-5.71,1.23-5.71,2.74-5.71ZM521.21,571.34c0,2.04-.88,3.69-1.97,3.69s-1.97-1.65-1.97-3.69.88-3.69,1.97-3.69,1.97,1.65,1.97,3.69ZM510.89,544.83c1.51,0,2.74,2.55,2.74,5.71s-1.23,5.71-2.74,5.71-2.74-2.56-2.74-5.71,1.23-5.71,2.74-5.71ZM512.78,571.34c0,2.04-.88,3.69-1.97,3.69s-1.97-1.65-1.97-3.69.88-3.69,1.97-3.69,1.97,1.65,1.97,3.69ZM501.37,544.83c1.52,0,2.74,2.55,2.74,5.71s-1.22,5.71-2.74,5.71-2.74-2.56-2.74-5.71,1.23-5.71,2.74-5.71ZM503.35,572.34c0,2.04-.88,3.69-1.97,3.69s-1.97-1.65-1.97-3.69.88-3.69,1.97-3.69,1.97,1.65,1.97,3.69ZM491.86,544.83c1.51,0,2.74,2.55,2.74,5.71s-1.23,5.71-2.74,5.71-2.74-2.56-2.74-5.71,1.22-5.71,2.74-5.71ZM493.92,572.34c0,2.04-.88,3.69-1.97,3.69s-1.97-1.65-1.97-3.69.88-3.69,1.97-3.69,1.97,1.65,1.97,3.69ZM483.1,545.72c1.51,0,2.74,2.56,2.74,5.71s-1.23,5.72-2.74,5.72-2.74-2.56-2.74-5.72,1.22-5.71,2.74-5.71ZM484.49,572.34c0,2.04-.89,3.69-1.97,3.69s-1.97-1.65-1.97-3.69.88-3.69,1.97-3.69,1.97,1.65,1.97,3.69ZM473.58,545.72c1.51,0,2.74,2.56,2.74,5.71s-1.23,5.72-2.74,5.72-2.74-2.56-2.74-5.72,1.23-5.71,2.74-5.71ZM475.05,573.34c0,2.04-.88,3.69-1.97,3.69s-1.97-1.65-1.97-3.69.89-3.69,1.97-3.69,1.97,1.65,1.97,3.69ZM464.06,546.72c1.52,0,2.74,2.56,2.74,5.71s-1.22,5.72-2.74,5.72-2.74-2.56-2.74-5.72,1.23-5.71,2.74-5.71ZM465.62,573.34c0,2.04-.88,3.69-1.97,3.69s-1.97-1.65-1.97-3.69.88-3.69,1.97-3.69,1.97,1.65,1.97,3.69ZM455.3,547.62c1.52,0,2.74,2.56,2.74,5.71s-1.22,5.71-2.74,5.71-2.74-2.55-2.74-5.71,1.23-5.71,2.74-5.71ZM457.19,574.34c0,2.04-.88,3.69-1.97,3.69s-1.97-1.65-1.97-3.69.88-3.69,1.97-3.69,1.97,1.65,1.97,3.69ZM445.79,547.62c1.51,0,2.74,2.56,2.74,5.71s-1.23,5.71-2.74,5.71-2.74-2.55-2.74-5.71,1.22-5.71,2.74-5.71ZM447.76,574.34c0,2.04-.88,3.69-1.97,3.69s-1.97-1.65-1.97-3.69.88-3.69,1.97-3.69,1.97,1.65,1.97,3.69ZM437.27,547.62c1.51,0,2.74,2.56,2.74,5.71s-1.23,5.71-2.74,5.71-2.74-2.55-2.74-5.71,1.23-5.71,2.74-5.71ZM439.33,574.34c0,2.04-.89,3.69-1.97,3.69s-1.97-1.65-1.97-3.69.88-3.69,1.97-3.69,1.97,1.65,1.97,3.69ZM428.51,548.52c1.51,0,2.74,2.55,2.74,5.71s-1.23,5.71-2.74,5.71-2.74-2.56-2.74-5.71,1.22-5.71,2.74-5.71ZM429.89,575.34c0,2.04-.88,3.69-1.97,3.69s-1.97-1.65-1.97-3.69.89-3.69,1.97-3.69,1.97,1.65,1.97,3.69ZM418.99,548.52c1.51,0,2.74,2.55,2.74,5.71s-1.23,5.71-2.74,5.71-2.74-2.56-2.74-5.71,1.23-5.71,2.74-5.71ZM420.46,575.34c0,2.04-.88,3.69-1.97,3.69s-1.97-1.65-1.97-3.69.88-3.69,1.97-3.69,1.97,1.65,1.97,3.69ZM410.47,549.52c1.52,0,2.74,2.55,2.74,5.71s-1.22,5.71-2.74,5.71-2.74-2.56-2.74-5.71,1.23-5.71,2.74-5.71ZM412.03,575.34c0,2.04-.88,3.69-1.97,3.69s-1.97-1.65-1.97-3.69.88-3.69,1.97-3.69,1.97,1.65,1.97,3.69ZM401.71,550.41c1.52,0,2.74,2.56,2.74,5.72s-1.22,5.71-2.74,5.71-2.74-2.56-2.74-5.71,1.23-5.72,2.74-5.72ZM403.6,576.34c0,2.04-.88,3.69-1.97,3.69s-1.97-1.65-1.97-3.69.88-3.69,1.97-3.69,1.97,1.65,1.97,3.69ZM392.2,550.41c1.51,0,2.74,2.56,2.74,5.72s-1.23,5.71-2.74,5.71-2.74-2.56-2.74-5.71,1.22-5.72,2.74-5.72ZM394.17,576.34c0,2.04-.89,3.69-1.97,3.69s-1.97-1.65-1.97-3.69.88-3.69,1.97-3.69,1.97,1.65,1.97,3.69ZM383.68,550.41c1.51,0,2.74,2.56,2.74,5.72s-1.23,5.71-2.74,5.71-2.74-2.56-2.74-5.71,1.23-5.72,2.74-5.72ZM382.77,572.65c1.08,0,1.96,1.65,1.96,3.69s-.88,3.69-1.96,3.69-1.97-1.65-1.97-3.69.88-3.69,1.97-3.69ZM374.92,551.31c1.51,0,2.74,2.56,2.74,5.71s-1.23,5.71-2.74,5.71-2.74-2.55-2.74-5.71,1.23-5.71,2.74-5.71ZM376.3,577.34c0,2.04-.88,3.69-1.97,3.69s-1.97-1.65-1.97-3.69.89-3.69,1.97-3.69,1.97,1.65,1.97,3.69ZM366.4,551.31c1.52,0,2.74,2.56,2.74,5.71s-1.22,5.71-2.74,5.71-2.74-2.55-2.74-5.71,1.23-5.71,2.74-5.71ZM367.87,577.34c0,2.04-.88,3.69-1.97,3.69s-1.97-1.65-1.97-3.69.88-3.69,1.97-3.69,1.97,1.65,1.97,3.69ZM357.89,551.31c1.51,0,2.74,2.56,2.74,5.71s-1.23,5.71-2.74,5.71-2.74-2.55-2.74-5.71,1.22-5.71,2.74-5.71ZM359.44,578.34c0,2.04-.88,3.69-1.97,3.69s-1.97-1.65-1.97-3.69.88-3.69,1.97-3.69,1.97,1.65,1.97,3.69ZM349.04,574.65c1.09,0,1.97,1.65,1.97,3.69s-.88,3.69-1.97,3.69-1.97-1.65-1.97-3.69.88-3.69,1.97-3.69ZM339.61,574.65c1.08,0,1.97,1.65,1.97,3.69s-.89,3.69-1.97,3.69-1.97-1.65-1.97-3.69.88-3.69,1.97-3.69ZM331.17,575.65c1.09,0,1.97,1.65,1.97,3.69s-.88,3.69-1.97,3.69-1.97-1.65-1.97-3.69.89-3.69,1.97-3.69ZM323.94,553.31c1.51,0,2.74,2.55,2.74,5.71s-1.23,5.71-2.74,5.71-2.74-2.56-2.74-5.71,1.22-5.71,2.74-5.71ZM325.71,579.34c0,2.04-.88,3.69-1.97,3.69s-1.97-1.65-1.97-3.69.88-3.69,1.97-3.69,1.97,1.65,1.97,3.69ZM315.31,575.65c1.09,0,1.97,1.65,1.97,3.69s-.88,3.69-1.97,3.69-1.97-1.65-1.97-3.69.88-3.69,1.97-3.69ZM306.88,576.65c1.09,0,1.97,1.65,1.97,3.69s-.88,3.69-1.97,3.69-1.97-1.65-1.97-3.69.88-3.69,1.97-3.69ZM298.45,576.65c1.08,0,1.97,1.65,1.97,3.69s-.89,3.69-1.97,3.69-1.97-1.65-1.97-3.69.88-3.69,1.97-3.69ZM290.01,576.65c1.09,0,1.97,1.65,1.97,3.69s-.88,3.69-1.97,3.69-1.97-1.65-1.97-3.69.89-3.69,1.97-3.69ZM281.58,577.65c1.09,0,1.97,1.65,1.97,3.69s-.88,3.69-1.97,3.69-1.97-1.65-1.97-3.69.88-3.69,1.97-3.69ZM274.15,577.65c1.09,0,1.97,1.65,1.97,3.69s-.88,3.69-1.97,3.69-1.97-1.65-1.97-3.69.88-3.69,1.97-3.69ZM265.72,577.65c1.09,0,1.97,1.65,1.97,3.69s-.88,3.69-1.97,3.69-1.97-1.65-1.97-3.69.88-3.69,1.97-3.69ZM236.09,556.71h27.37v13.91h-27.37v-13.91ZM259.26,582.34c0,2.04-.88,3.69-1.97,3.69s-1.97-1.65-1.97-3.69.88-3.69,1.97-3.69,1.97,1.65,1.97,3.69ZM251.83,582.34c0,2.04-.89,3.69-1.97,3.69s-1.97-1.65-1.97-3.69.88-3.69,1.97-3.69,1.97,1.65,1.97,3.69ZM239.45,583.34c0-2.04.89-3.69,1.97-3.69s1.97,1.65,1.97,3.69-.88,3.69-1.97,3.69-1.97-1.65-1.97-3.69ZM240.75,610.57l2.64-16.33,326.01-10.9,7.97,17.72-336.62,9.51ZM577.37,547.74c0-2.03.88-3.68,1.97-3.68s1.97,1.65,1.97,3.68-.89,3.69-1.97,3.69-1.97-1.65-1.97-3.69ZM579.83,572.03c-1.08,0-1.97-1.65-1.97-3.69s.89-3.69,1.97-3.69,1.97,1.65,1.97,3.69-.88,3.69-1.97,3.69ZM588.07,615.25c-1.09,0-1.97-1.65-1.97-3.69s.88-3.69,1.97-3.69,1.97,1.65,1.97,3.69-.88,3.69-1.97,3.69ZM589.01,593.15c-1.09,0-1.97-1.66-1.97-3.69s.88-3.69,1.97-3.69,1.97,1.65,1.97,3.69-.88,3.69-1.97,3.69ZM592.38,574.71h-5.63v-9.79h5.63v9.79ZM592.68,552.72h-5.64v-9.79h5.64v9.79ZM598.5,615.25c-1.09,0-1.97-1.65-1.97-3.69s.88-3.69,1.97-3.69,1.97,1.65,1.97,3.69-.88,3.69-1.97,3.69ZM599.44,593.15c-1.08,0-1.97-1.66-1.97-3.69s.89-3.69,1.97-3.69,1.97,1.65,1.97,3.69-.88,3.69-1.97,3.69ZM602.47,574.63h-5.63v-9.8h5.63v9.8ZM602.77,552.64h-5.64v-9.79h5.64v9.79ZM608.93,614.25c-1.08,0-1.97-1.65-1.97-3.69s.89-3.69,1.97-3.69,1.97,1.65,1.97,3.69-.88,3.69-1.97,3.69ZM609.88,592.15c-1.09,0-1.97-1.66-1.97-3.69s.88-3.69,1.97-3.69,1.97,1.65,1.97,3.69-.89,3.69-1.97,3.69ZM612.56,573.55h-5.63v-9.8h5.63v9.8ZM612.86,551.56h-5.64v-9.79h5.64v9.79ZM619.37,614.25c-1.09,0-1.97-1.65-1.97-3.69s.88-3.69,1.97-3.69,1.97,1.65,1.97,3.69-.89,3.69-1.97,3.69ZM620.31,592.15c-1.09,0-1.97-1.66-1.97-3.69s.88-3.69,1.97-3.69,1.97,1.65,1.97,3.69-.88,3.69-1.97,3.69ZM623.65,573.47h-5.63v-9.8h5.63v9.8ZM623.95,551.48h-5.64v-9.79h5.64v9.79ZM629.8,613.25c-1.09,0-1.97-1.65-1.97-3.69s.88-3.69,1.97-3.69,1.97,1.65,1.97,3.69-.88,3.69-1.97,3.69ZM630.74,591.15c-1.09,0-1.97-1.66-1.97-3.69s.88-3.69,1.97-3.69,1.97,1.65,1.97,3.69-.88,3.69-1.97,3.69ZM633.74,573.38h-5.63v-9.79h5.63v9.79ZM634.04,551.4h-5.64v-9.8h5.64v9.8ZM640.23,613.25c-1.09,0-1.97-1.65-1.97-3.69s.88-3.69,1.97-3.69,1.97,1.65,1.97,3.69-.88,3.69-1.97,3.69ZM641.17,591.15c-1.09,0-1.97-1.66-1.97-3.69s.88-3.69,1.97-3.69,1.97,1.65,1.97,3.69-.88,3.69-1.97,3.69ZM644.83,572.3h-5.63v-9.79h5.63v9.79ZM645.13,550.32h-5.64v-9.8h5.64v9.8ZM651.66,613.25c-1.09,0-1.97-1.65-1.97-3.69s.88-3.69,1.97-3.69,1.97,1.65,1.97,3.69-.88,3.69-1.97,3.69ZM652.6,591.15c-1.09,0-1.97-1.66-1.97-3.69s.88-3.69,1.97-3.69,1.97,1.65,1.97,3.69-.88,3.69-1.97,3.69ZM655.92,572.22h-5.63v-9.79h5.63v9.79ZM656.22,550.24h-5.64v-9.8h5.64v9.8ZM662.09,612.25c-1.09,0-1.97-1.65-1.97-3.69s.88-3.69,1.97-3.69,1.97,1.65,1.97,3.69-.88,3.69-1.97,3.69ZM663.03,590.15c-1.08,0-1.97-1.66-1.97-3.69s.89-3.69,1.97-3.69,1.97,1.65,1.97,3.69-.88,3.69-1.97,3.69ZM666.52,571.2h-5.64v-9.79h5.64v9.79ZM667.31,549.15h-5.64v-9.79h5.64v9.79ZM672.98,612.25c-1.09,0-1.97-1.65-1.97-3.69s.88-3.69,1.97-3.69,1.97,1.65,1.97,3.69-.88,3.69-1.97,3.69ZM673.92,590.15c-1.09,0-1.97-1.66-1.97-3.69s.88-3.69,1.97-3.69,1.97,1.65,1.97,3.69-.88,3.69-1.97,3.69ZM676.61,571.12h-5.64v-9.79h5.64v9.79ZM684.06,612.25c-1.09,0-1.97-1.65-1.97-3.69s.88-3.69,1.97-3.69,1.97,1.65,1.97,3.69-.88,3.69-1.97,3.69ZM685,590.15c-1.08,0-1.97-1.66-1.97-3.69s.89-3.69,1.97-3.69,1.97,1.65,1.97,3.69-.88,3.69-1.97,3.69ZM687.7,570.04h-5.63v-9.79h5.63v9.79ZM694.84,611.7c-1.09,0-1.97-1.66-1.97-3.69s.88-3.69,1.97-3.69,1.97,1.65,1.97,3.69-.88,3.69-1.97,3.69ZM695.78,589.59c-1.09,0-1.97-1.65-1.97-3.69s.88-3.68,1.97-3.68,1.97,1.65,1.97,3.68-.88,3.69-1.97,3.69ZM698.79,569.96h-5.63v-9.79h5.63v9.79ZM707.37,581.82c1.09,0,1.97,1.65,1.97,3.69s-.88,3.69-1.97,3.69-1.97-1.65-1.97-3.69.89-3.69,1.97-3.69ZM706.43,611.3c-1.09,0-1.97-1.65-1.97-3.69s.88-3.69,1.97-3.69,1.97,1.65,1.97,3.69-.88,3.69-1.97,3.69Z"/>
  <path class="cls-2" d="M475.52,476.1l-33.06.87c-10.85-18.34-24.48-32.22-43.65-37.22,30.3,4.25,59.82,16.83,76.71,36.35Z"/>
  <rect class="cls-2" x="116.54" y="562.66" width="27.38" height="13.92"/>
  <rect class="cls-2" x="146.43" y="561.17" width="27.38" height="13.92"/>
  <rect class="cls-2" x="176.32" y="559.68" width="27.37" height="13.92"/>
  <rect class="cls-2" x="206.2" y="558.2" width="27.38" height="13.91"/>
  <rect class="cls-2" x="236.09" y="556.71" width="27.37" height="13.91"/>
  <path class="cls-2" d="M120.48,587.34c0,2.04-.88,3.69-1.97,3.69s-1.97-1.65-1.97-3.69.89-3.69,1.97-3.69,1.97,1.65,1.97,3.69Z"/>
  <path class="cls-2" d="M127.92,587.34c0,2.04-.89,3.69-1.97,3.69s-1.97-1.65-1.97-3.69.88-3.69,1.97-3.69,1.97,1.65,1.97,3.69Z"/>
  <path class="cls-2" d="M135.35,587.34c0,2.04-.88,3.69-1.97,3.69s-1.97-1.65-1.97-3.69.88-3.69,1.97-3.69,1.97,1.65,1.97,3.69Z"/>
  <path class="cls-2" d="M142.78,587.34c0,2.04-.88,3.69-1.97,3.69s-1.97-1.65-1.97-3.69.88-3.69,1.97-3.69,1.97,1.65,1.97,3.69Z"/>
  <path class="cls-2" d="M150.21,586.55c0,2.04-.88,3.69-1.97,3.69s-1.97-1.65-1.97-3.69.88-3.69,1.97-3.69,1.97,1.66,1.97,3.69Z"/>
  <path class="cls-2" d="M157.64,586.55c0,2.04-.88,3.69-1.97,3.69s-1.97-1.65-1.97-3.69.89-3.69,1.97-3.69,1.97,1.66,1.97,3.69Z"/>
  <path class="cls-2" d="M165.08,585.34c0,2.04-.89,3.69-1.97,3.69s-1.97-1.65-1.97-3.69.88-3.69,1.97-3.69,1.97,1.65,1.97,3.69Z"/>
  <path class="cls-2" d="M172.51,585.34c0,2.04-.89,3.69-1.97,3.69s-1.97-1.65-1.97-3.69.88-3.69,1.97-3.69,1.97,1.65,1.97,3.69Z"/>
  <path class="cls-2" d="M179.94,585.34c0,2.04-.88,3.69-1.97,3.69s-1.97-1.65-1.97-3.69.88-3.69,1.97-3.69,1.97,1.65,1.97,3.69Z"/>
  <path class="cls-2" d="M188.5,584.34c0,2.04-.88,3.69-1.97,3.69s-1.97-1.65-1.97-3.69.89-3.69,1.97-3.69,1.97,1.65,1.97,3.69Z"/>
  <path class="cls-2" d="M196.12,584.34c0,2.04-.89,3.69-1.97,3.69s-1.97-1.65-1.97-3.69.88-3.69,1.97-3.69,1.97,1.65,1.97,3.69Z"/>
  <path class="cls-2" d="M203.23,584.34c0,2.04-.88,3.69-1.97,3.69s-1.97-1.65-1.97-3.69.89-3.69,1.97-3.69,1.97,1.65,1.97,3.69Z"/>
  <path class="cls-2" d="M211.67,584.34c0,2.04-.89,3.69-1.97,3.69s-1.97-1.65-1.97-3.69.88-3.69,1.97-3.69,1.97,1.65,1.97,3.69Z"/>
  <path class="cls-2" d="M219.1,584.34c0,2.04-.88,3.69-1.97,3.69s-1.97-1.65-1.97-3.69.88-3.69,1.97-3.69,1.97,1.65,1.97,3.69Z"/>
  <path class="cls-2" d="M226.53,584.34c0,2.04-.88,3.69-1.97,3.69s-1.97-1.65-1.97-3.69.88-3.69,1.97-3.69,1.97,1.65,1.97,3.69Z"/>
  <path class="cls-2" d="M234.96,583.34c0,2.04-.88,3.69-1.97,3.69s-1.97-1.65-1.97-3.69.88-3.69,1.97-3.69,1.97,1.65,1.97,3.69Z"/>
  <path class="cls-2" d="M243.39,583.34c0,2.04-.88,3.69-1.97,3.69s-1.97-1.65-1.97-3.69.89-3.69,1.97-3.69,1.97,1.65,1.97,3.69Z"/>
  <path class="cls-2" d="M251.83,582.34c0,2.04-.89,3.69-1.97,3.69s-1.97-1.65-1.97-3.69.88-3.69,1.97-3.69,1.97,1.65,1.97,3.69Z"/>
  <path class="cls-2" d="M259.26,582.34c0,2.04-.88,3.69-1.97,3.69s-1.97-1.65-1.97-3.69.88-3.69,1.97-3.69,1.97,1.65,1.97,3.69Z"/>
  <path class="cls-2" d="M267.69,581.34c0,2.04-.88,3.69-1.97,3.69s-1.97-1.65-1.97-3.69.88-3.69,1.97-3.69,1.97,1.65,1.97,3.69Z"/>
  <path class="cls-2" d="M276.12,581.34c0,2.04-.88,3.69-1.97,3.69s-1.97-1.65-1.97-3.69.88-3.69,1.97-3.69,1.97,1.65,1.97,3.69Z"/>
  <path class="cls-2" d="M283.55,581.34c0,2.04-.88,3.69-1.97,3.69s-1.97-1.65-1.97-3.69.88-3.69,1.97-3.69,1.97,1.65,1.97,3.69Z"/>
  <path class="cls-2" d="M291.98,580.34c0,2.04-.88,3.69-1.97,3.69s-1.97-1.65-1.97-3.69.89-3.69,1.97-3.69,1.97,1.65,1.97,3.69Z"/>
  <path class="cls-2" d="M300.42,580.34c0,2.04-.89,3.69-1.97,3.69s-1.97-1.65-1.97-3.69.88-3.69,1.97-3.69,1.97,1.65,1.97,3.69Z"/>
  <path class="cls-2" d="M308.85,580.34c0,2.04-.88,3.69-1.97,3.69s-1.97-1.65-1.97-3.69.88-3.69,1.97-3.69,1.97,1.65,1.97,3.69Z"/>
  <path class="cls-2" d="M317.28,579.34c0,2.04-.88,3.69-1.97,3.69s-1.97-1.65-1.97-3.69.88-3.69,1.97-3.69,1.97,1.65,1.97,3.69Z"/>
  <path class="cls-2" d="M325.71,579.34c0,2.04-.88,3.69-1.97,3.69s-1.97-1.65-1.97-3.69.88-3.69,1.97-3.69,1.97,1.65,1.97,3.69Z"/>
  <path class="cls-2" d="M333.14,579.34c0,2.04-.88,3.69-1.97,3.69s-1.97-1.65-1.97-3.69.89-3.69,1.97-3.69,1.97,1.65,1.97,3.69Z"/>
  <path class="cls-2" d="M341.58,578.34c0,2.04-.89,3.69-1.97,3.69s-1.97-1.65-1.97-3.69.88-3.69,1.97-3.69,1.97,1.65,1.97,3.69Z"/>
  <path class="cls-2" d="M351.01,578.34c0,2.04-.88,3.69-1.97,3.69s-1.97-1.65-1.97-3.69.88-3.69,1.97-3.69,1.97,1.65,1.97,3.69Z"/>
  <path class="cls-2" d="M359.44,578.34c0,2.04-.88,3.69-1.97,3.69s-1.97-1.65-1.97-3.69.88-3.69,1.97-3.69,1.97,1.65,1.97,3.69Z"/>
  <path class="cls-2" d="M367.87,577.34c0,2.04-.88,3.69-1.97,3.69s-1.97-1.65-1.97-3.69.88-3.69,1.97-3.69,1.97,1.65,1.97,3.69Z"/>
  <path class="cls-2" d="M376.3,577.34c0,2.04-.88,3.69-1.97,3.69s-1.97-1.65-1.97-3.69.89-3.69,1.97-3.69,1.97,1.65,1.97,3.69Z"/>
  <path class="cls-2" d="M384.73,576.34c0,2.04-.88,3.69-1.96,3.69s-1.97-1.65-1.97-3.69.88-3.69,1.97-3.69,1.96,1.65,1.96,3.69Z"/>
  <path class="cls-2" d="M394.17,576.34c0,2.04-.89,3.69-1.97,3.69s-1.97-1.65-1.97-3.69.88-3.69,1.97-3.69,1.97,1.65,1.97,3.69Z"/>
  <path class="cls-2" d="M403.6,576.34c0,2.04-.88,3.69-1.97,3.69s-1.97-1.65-1.97-3.69.88-3.69,1.97-3.69,1.97,1.65,1.97,3.69Z"/>
  <path class="cls-2" d="M412.03,575.34c0,2.04-.88,3.69-1.97,3.69s-1.97-1.65-1.97-3.69.88-3.69,1.97-3.69,1.97,1.65,1.97,3.69Z"/>
  <path class="cls-2" d="M420.46,575.34c0,2.04-.88,3.69-1.97,3.69s-1.97-1.65-1.97-3.69.88-3.69,1.97-3.69,1.97,1.65,1.97,3.69Z"/>
  <path class="cls-2" d="M429.89,575.34c0,2.04-.88,3.69-1.97,3.69s-1.97-1.65-1.97-3.69.89-3.69,1.97-3.69,1.97,1.65,1.97,3.69Z"/>
  <path class="cls-2" d="M439.33,574.34c0,2.04-.89,3.69-1.97,3.69s-1.97-1.65-1.97-3.69.88-3.69,1.97-3.69,1.97,1.65,1.97,3.69Z"/>
  <path class="cls-2" d="M447.76,574.34c0,2.04-.88,3.69-1.97,3.69s-1.97-1.65-1.97-3.69.88-3.69,1.97-3.69,1.97,1.65,1.97,3.69Z"/>
  <path class="cls-2" d="M457.19,574.34c0,2.04-.88,3.69-1.97,3.69s-1.97-1.65-1.97-3.69.88-3.69,1.97-3.69,1.97,1.65,1.97,3.69Z"/>
  <path class="cls-2" d="M465.62,573.34c0,2.04-.88,3.69-1.97,3.69s-1.97-1.65-1.97-3.69.88-3.69,1.97-3.69,1.97,1.65,1.97,3.69Z"/>
  <path class="cls-2" d="M475.05,573.34c0,2.04-.88,3.69-1.97,3.69s-1.97-1.65-1.97-3.69.89-3.69,1.97-3.69,1.97,1.65,1.97,3.69Z"/>
  <path class="cls-2" d="M484.49,572.34c0,2.04-.89,3.69-1.97,3.69s-1.97-1.65-1.97-3.69.88-3.69,1.97-3.69,1.97,1.65,1.97,3.69Z"/>
  <path class="cls-2" d="M493.92,572.34c0,2.04-.88,3.69-1.97,3.69s-1.97-1.65-1.97-3.69.88-3.69,1.97-3.69,1.97,1.65,1.97,3.69Z"/>
  <path class="cls-2" d="M503.35,572.34c0,2.04-.88,3.69-1.97,3.69s-1.97-1.65-1.97-3.69.88-3.69,1.97-3.69,1.97,1.65,1.97,3.69Z"/>
  <path class="cls-2" d="M512.78,571.34c0,2.04-.88,3.69-1.97,3.69s-1.97-1.65-1.97-3.69.88-3.69,1.97-3.69,1.97,1.65,1.97,3.69Z"/>
  <path class="cls-2" d="M521.21,571.34c0,2.04-.88,3.69-1.97,3.69s-1.97-1.65-1.97-3.69.88-3.69,1.97-3.69,1.97,1.65,1.97,3.69Z"/>
  <path class="cls-2" d="M531.64,570.34c0,2.04-.88,3.69-1.97,3.69s-1.97-1.65-1.97-3.69.89-3.69,1.97-3.69,1.97,1.65,1.97,3.69Z"/>
  <path class="cls-2" d="M541.08,570.34c0,2.04-.89,3.69-1.97,3.69s-1.97-1.65-1.97-3.69.88-3.69,1.97-3.69,1.97,1.65,1.97,3.69Z"/>
  <path class="cls-2" d="M550.51,570.34c0,2.04-.88,3.69-1.97,3.69s-1.97-1.65-1.97-3.69.88-3.69,1.97-3.69,1.97,1.65,1.97,3.69Z"/>
  <path class="cls-2" d="M560.94,569.34c0,2.04-.88,3.69-1.97,3.69s-1.97-1.65-1.97-3.69.88-3.69,1.97-3.69,1.97,1.65,1.97,3.69Z"/>
  <path class="cls-2" d="M571.37,569.34c0,2.04-.88,3.69-1.97,3.69s-1.97-1.65-1.97-3.69.88-3.69,1.97-3.69,1.97,1.65,1.97,3.69Z"/>
  <path class="cls-2" d="M581.8,568.34c0,2.04-.88,3.69-1.97,3.69s-1.97-1.65-1.97-3.69.89-3.69,1.97-3.69,1.97,1.65,1.97,3.69Z"/>
  <path class="cls-2" d="M590.98,589.46c0,2.03-.88,3.69-1.97,3.69s-1.97-1.66-1.97-3.69.88-3.69,1.97-3.69,1.97,1.65,1.97,3.69Z"/>
  <path class="cls-2" d="M601.41,589.46c0,2.03-.88,3.69-1.97,3.69s-1.97-1.66-1.97-3.69.89-3.69,1.97-3.69,1.97,1.65,1.97,3.69Z"/>
  <path class="cls-2" d="M611.85,588.46c0,2.03-.89,3.69-1.97,3.69s-1.97-1.66-1.97-3.69.88-3.69,1.97-3.69,1.97,1.65,1.97,3.69Z"/>
  <path class="cls-2" d="M622.28,588.46c0,2.03-.88,3.69-1.97,3.69s-1.97-1.66-1.97-3.69.88-3.69,1.97-3.69,1.97,1.65,1.97,3.69Z"/>
  <path class="cls-2" d="M632.71,587.46c0,2.03-.88,3.69-1.97,3.69s-1.97-1.66-1.97-3.69.88-3.69,1.97-3.69,1.97,1.65,1.97,3.69Z"/>
  <path class="cls-2" d="M643.14,587.46c0,2.03-.88,3.69-1.97,3.69s-1.97-1.66-1.97-3.69.88-3.69,1.97-3.69,1.97,1.65,1.97,3.69Z"/>
  <path class="cls-2" d="M654.57,587.46c0,2.03-.88,3.69-1.97,3.69s-1.97-1.66-1.97-3.69.88-3.69,1.97-3.69,1.97,1.65,1.97,3.69Z"/>
  <path class="cls-2" d="M665,586.46c0,2.03-.88,3.69-1.97,3.69s-1.97-1.66-1.97-3.69.89-3.69,1.97-3.69,1.97,1.65,1.97,3.69Z"/>
  <path class="cls-2" d="M675.89,586.46c0,2.03-.88,3.69-1.97,3.69s-1.97-1.66-1.97-3.69.88-3.69,1.97-3.69,1.97,1.65,1.97,3.69Z"/>
  <path class="cls-2" d="M686.97,586.46c0,2.03-.88,3.69-1.97,3.69s-1.97-1.66-1.97-3.69.89-3.69,1.97-3.69,1.97,1.65,1.97,3.69Z"/>
  <path class="cls-2" d="M697.75,585.9c0,2.04-.88,3.69-1.97,3.69s-1.97-1.65-1.97-3.69.88-3.68,1.97-3.68,1.97,1.65,1.97,3.68Z"/>
  <path class="cls-2" d="M709.34,585.51c0,2.04-.88,3.69-1.97,3.69s-1.97-1.65-1.97-3.69.89-3.69,1.97-3.69,1.97,1.65,1.97,3.69Z"/>
  <path class="cls-2" d="M590.04,611.56c0,2.04-.88,3.69-1.97,3.69s-1.97-1.65-1.97-3.69.88-3.69,1.97-3.69,1.97,1.65,1.97,3.69Z"/>
  <path class="cls-2" d="M600.47,611.56c0,2.04-.88,3.69-1.97,3.69s-1.97-1.65-1.97-3.69.88-3.69,1.97-3.69,1.97,1.65,1.97,3.69Z"/>
  <path class="cls-2" d="M610.9,610.56c0,2.04-.88,3.69-1.97,3.69s-1.97-1.65-1.97-3.69.89-3.69,1.97-3.69,1.97,1.65,1.97,3.69Z"/>
  <path class="cls-2" d="M621.34,610.56c0,2.04-.89,3.69-1.97,3.69s-1.97-1.65-1.97-3.69.88-3.69,1.97-3.69,1.97,1.65,1.97,3.69Z"/>
  <path class="cls-2" d="M631.77,609.56c0,2.04-.88,3.69-1.97,3.69s-1.97-1.65-1.97-3.69.88-3.69,1.97-3.69,1.97,1.65,1.97,3.69Z"/>
  <ellipse class="cls-2" cx="640.23" cy="609.56" rx="1.97" ry="3.69"/>
  <path class="cls-2" d="M653.63,609.56c0,2.04-.88,3.69-1.97,3.69s-1.97-1.65-1.97-3.69.88-3.69,1.97-3.69,1.97,1.65,1.97,3.69Z"/>
  <path class="cls-2" d="M664.06,608.56c0,2.04-.88,3.69-1.97,3.69s-1.97-1.65-1.97-3.69.88-3.69,1.97-3.69,1.97,1.65,1.97,3.69Z"/>
  <ellipse class="cls-2" cx="672.98" cy="608.56" rx="1.97" ry="3.69"/>
  <path class="cls-2" d="M686.03,608.56c0,2.04-.88,3.69-1.97,3.69s-1.97-1.65-1.97-3.69.88-3.69,1.97-3.69,1.97,1.65,1.97,3.69Z"/>
  <path class="cls-2" d="M696.81,608.01c0,2.03-.88,3.69-1.97,3.69s-1.97-1.66-1.97-3.69.88-3.69,1.97-3.69,1.97,1.65,1.97,3.69Z"/>
  <path class="cls-2" d="M708.4,607.61c0,2.04-.88,3.69-1.97,3.69s-1.97-1.65-1.97-3.69.88-3.69,1.97-3.69,1.97,1.65,1.97,3.69Z"/>
  <path class="cls-2" d="M120.73,605.53c0,2.04-.88,3.69-1.97,3.69s-1.97-1.65-1.97-3.69.88-3.69,1.97-3.69,1.97,1.65,1.97,3.69Z"/>
  <path class="cls-2" d="M128.16,605.53c0,2.04-.88,3.69-1.97,3.69s-1.97-1.65-1.97-3.69.88-3.69,1.97-3.69,1.97,1.65,1.97,3.69Z"/>
  <path class="cls-2" d="M135.59,605.53c0,2.04-.88,3.69-1.97,3.69s-1.97-1.65-1.97-3.69.89-3.69,1.97-3.69,1.97,1.65,1.97,3.69Z"/>
  <path class="cls-2" d="M143.03,605.53c0,2.04-.89,3.69-1.97,3.69s-1.97-1.65-1.97-3.69.88-3.69,1.97-3.69,1.97,1.65,1.97,3.69Z"/>
  <path class="cls-2" d="M150.46,604.74c0,2.04-.88,3.69-1.97,3.69s-1.97-1.65-1.97-3.69.88-3.68,1.97-3.68,1.97,1.65,1.97,3.68Z"/>
  <path class="cls-2" d="M157.89,604.74c0,2.04-.88,3.69-1.97,3.69s-1.97-1.65-1.97-3.69.88-3.68,1.97-3.68,1.97,1.65,1.97,3.68Z"/>
  <path class="cls-2" d="M165.32,603.53c0,2.04-.88,3.69-1.97,3.69s-1.97-1.65-1.97-3.69.88-3.69,1.97-3.69,1.97,1.65,1.97,3.69Z"/>
  <path class="cls-2" d="M172.75,603.53c0,2.04-.88,3.69-1.97,3.69s-1.97-1.65-1.97-3.69.89-3.69,1.97-3.69,1.97,1.65,1.97,3.69Z"/>
  <path class="cls-2" d="M180.18,603.53c0,2.04-.88,3.69-1.97,3.69s-1.97-1.65-1.97-3.69.89-3.69,1.97-3.69,1.97,1.65,1.97,3.69Z"/>
  <path class="cls-2" d="M188.75,602.53c0,2.04-.88,3.69-1.97,3.69s-1.97-1.65-1.97-3.69.88-3.69,1.97-3.69,1.97,1.65,1.97,3.69Z"/>
  <path class="cls-2" d="M196.36,602.53c0,2.04-.88,3.69-1.97,3.69s-1.97-1.65-1.97-3.69.88-3.69,1.97-3.69,1.97,1.65,1.97,3.69Z"/>
  <path class="cls-2" d="M203.48,602.53c0,2.04-.88,3.69-1.97,3.69s-1.97-1.65-1.97-3.69.88-3.69,1.97-3.69,1.97,1.65,1.97,3.69Z"/>
  <path class="cls-2" d="M211.91,602.53c0,2.04-.88,3.69-1.97,3.69s-1.97-1.65-1.97-3.69.88-3.69,1.97-3.69,1.97,1.65,1.97,3.69Z"/>
  <path class="cls-2" d="M219.34,602.53c0,2.04-.88,3.69-1.97,3.69s-1.97-1.65-1.97-3.69.89-3.69,1.97-3.69,1.97,1.65,1.97,3.69Z"/>
  <path class="cls-2" d="M226.78,602.53c0,2.04-.89,3.69-1.97,3.69s-1.97-1.65-1.97-3.69.88-3.69,1.97-3.69,1.97,1.65,1.97,3.69Z"/>
  <path class="cls-2" d="M235.21,601.53c0,2.04-.88,3.69-1.97,3.69s-1.97-1.65-1.97-3.69.88-3.69,1.97-3.69,1.97,1.65,1.97,3.69Z"/>
  <path class="cls-2" d="M119.1,624.29c0,2.04-.88,3.69-1.97,3.69s-1.97-1.65-1.97-3.69.88-3.68,1.97-3.68,1.97,1.65,1.97,3.68Z"/>
  <path class="cls-2" d="M126.53,624.29c0,2.04-.88,3.69-1.97,3.69s-1.97-1.65-1.97-3.69.88-3.68,1.97-3.68,1.97,1.65,1.97,3.68Z"/>
  <path class="cls-2" d="M133.96,624.29c0,2.04-.88,3.69-1.97,3.69s-1.97-1.65-1.97-3.69.89-3.68,1.97-3.68,1.97,1.65,1.97,3.68Z"/>
  <path class="cls-2" d="M141.39,624.29c0,2.04-.88,3.69-1.97,3.69s-1.97-1.65-1.97-3.69.89-3.68,1.97-3.68,1.97,1.65,1.97,3.68Z"/>
  <path class="cls-2" d="M148.83,623.51c0,2.04-.89,3.69-1.97,3.69s-1.97-1.65-1.97-3.69.88-3.69,1.97-3.69,1.97,1.65,1.97,3.69Z"/>
  <path class="cls-2" d="M156.26,623.51c0,2.04-.88,3.69-1.97,3.69s-1.97-1.65-1.97-3.69.88-3.69,1.97-3.69,1.97,1.65,1.97,3.69Z"/>
  <path class="cls-2" d="M163.69,622.29c0,2.04-.88,3.69-1.97,3.69s-1.97-1.65-1.97-3.69.88-3.68,1.97-3.68,1.97,1.65,1.97,3.68Z"/>
  <path class="cls-2" d="M171.12,622.29c0,2.04-.88,3.69-1.97,3.69s-1.97-1.65-1.97-3.69.88-3.68,1.97-3.68,1.97,1.65,1.97,3.68Z"/>
  <path class="cls-2" d="M178.55,622.29c0,2.04-.88,3.69-1.97,3.69s-1.97-1.65-1.97-3.69.89-3.68,1.97-3.68,1.97,1.65,1.97,3.68Z"/>
  <path class="cls-2" d="M187.12,621.29c0,2.04-.88,3.69-1.97,3.69s-1.97-1.65-1.97-3.69.88-3.68,1.97-3.68,1.97,1.65,1.97,3.68Z"/>
  <path class="cls-2" d="M194.73,621.29c0,2.04-.88,3.69-1.97,3.69s-1.97-1.65-1.97-3.69.88-3.68,1.97-3.68,1.97,1.65,1.97,3.68Z"/>
  <path class="cls-2" d="M201.85,621.29c0,2.04-.88,3.69-1.97,3.69s-1.97-1.65-1.97-3.69.88-3.68,1.97-3.68,1.97,1.65,1.97,3.68Z"/>
  <path class="cls-2" d="M210.28,621.29c0,2.04-.88,3.69-1.97,3.69s-1.97-1.65-1.97-3.69.88-3.68,1.97-3.68,1.97,1.65,1.97,3.68Z"/>
  <path class="cls-2" d="M217.71,621.29c0,2.04-.88,3.69-1.97,3.69s-1.97-1.65-1.97-3.69.89-3.68,1.97-3.68,1.97,1.65,1.97,3.68Z"/>
  <path class="cls-2" d="M225.15,621.29c0,2.04-.89,3.69-1.97,3.69s-1.97-1.65-1.97-3.69.88-3.68,1.97-3.68,1.97,1.65,1.97,3.68Z"/>
  <path class="cls-2" d="M326.68,559.02c0,3.15-1.23,5.71-2.74,5.71s-2.74-2.56-2.74-5.71,1.22-5.71,2.74-5.71,2.74,2.55,2.74,5.71Z"/>
  <path class="cls-2" d="M335.19,558.15c0,3.15-1.22,5.71-2.74,5.71s-2.74-2.56-2.74-5.71,1.23-5.71,2.74-5.71,2.74,2.55,2.74,5.71Z"/>
  <ellipse class="cls-2" cx="340.97" cy="558.15" rx="2.74" ry="5.71"/>
  <path class="cls-2" d="M360.63,557.02c0,3.16-1.23,5.71-2.74,5.71s-2.74-2.55-2.74-5.71,1.22-5.71,2.74-5.71,2.74,2.56,2.74,5.71Z"/>
  <ellipse class="cls-2" cx="366.4" cy="557.02" rx="2.74" ry="5.71"/>
  <ellipse class="cls-2" cx="374.92" cy="557.02" rx="2.74" ry="5.71"/>
  <path class="cls-2" d="M386.42,556.13c0,3.15-1.23,5.71-2.74,5.71s-2.74-2.56-2.74-5.71,1.23-5.72,2.74-5.72,2.74,2.56,2.74,5.72Z"/>
  <path class="cls-2" d="M394.94,556.13c0,3.15-1.23,5.71-2.74,5.71s-2.74-2.56-2.74-5.71,1.22-5.72,2.74-5.72,2.74,2.56,2.74,5.72Z"/>
  <path class="cls-2" d="M404.45,556.13c0,3.15-1.22,5.71-2.74,5.71s-2.74-2.56-2.74-5.71,1.23-5.72,2.74-5.72,2.74,2.56,2.74,5.72Z"/>
  <ellipse class="cls-2" cx="410.47" cy="555.23" rx="2.74" ry="5.71"/>
  <ellipse class="cls-2" cx="418.99" cy="554.23" rx="2.74" ry="5.71"/>
  <path class="cls-2" d="M431.25,554.23c0,3.15-1.23,5.71-2.74,5.71s-2.74-2.56-2.74-5.71,1.22-5.71,2.74-5.71,2.74,2.55,2.74,5.71Z"/>
  <path class="cls-2" d="M440.01,553.33c0,3.16-1.23,5.71-2.74,5.71s-2.74-2.55-2.74-5.71,1.23-5.71,2.74-5.71,2.74,2.56,2.74,5.71Z"/>
  <ellipse class="cls-2" cx="445.79" cy="553.33" rx="2.74" ry="5.71"/>
  <ellipse class="cls-2" cx="455.3" cy="553.33" rx="2.74" ry="5.71"/>
  <path class="cls-2" d="M466.8,552.43c0,3.16-1.22,5.72-2.74,5.72s-2.74-2.56-2.74-5.72,1.23-5.71,2.74-5.71,2.74,2.56,2.74,5.71Z"/>
  <path class="cls-2" d="M476.32,551.43c0,3.16-1.23,5.72-2.74,5.72s-2.74-2.56-2.74-5.72,1.23-5.71,2.74-5.71,2.74,2.56,2.74,5.71Z"/>
  <path class="cls-2" d="M485.84,551.43c0,3.16-1.23,5.72-2.74,5.72s-2.74-2.56-2.74-5.72,1.22-5.71,2.74-5.71,2.74,2.56,2.74,5.71Z"/>
  <ellipse class="cls-2" cx="491.86" cy="550.54" rx="2.74" ry="5.71"/>
  <ellipse class="cls-2" cx="501.37" cy="550.54" rx="2.74" ry="5.71"/>
  <path class="cls-2" d="M513.63,550.54c0,3.15-1.23,5.71-2.74,5.71s-2.74-2.56-2.74-5.71,1.23-5.71,2.74-5.71,2.74,2.55,2.74,5.71Z"/>
  <ellipse class="cls-2" cx="519.65" cy="549.64" rx="2.74" ry="5.71"/>
  <ellipse class="cls-2" cx="529.17" cy="549.64" rx="2.74" ry="5.71"/>
  <ellipse class="cls-2" cx="538.68" cy="548.64" rx="2.74" ry="5.71"/>
  <path class="cls-2" d="M551.19,547.74c0,3.16-1.23,5.72-2.74,5.72s-2.74-2.56-2.74-5.72,1.22-5.71,2.74-5.71,2.74,2.56,2.74,5.71Z"/>
  <path class="cls-2" d="M560.94,547.94c0,2.04-.88,3.69-1.97,3.69s-1.97-1.65-1.97-3.69.88-3.69,1.97-3.69,1.97,1.65,1.97,3.69Z"/>
  <path class="cls-2" d="M581.31,547.74c0,2.04-.89,3.69-1.97,3.69s-1.97-1.65-1.97-3.69.88-3.68,1.97-3.68,1.97,1.65,1.97,3.68Z"/>
  <polygon class="cls-2" points="95.99 618.61 94.99 627.2 76.73 627.2 77.73 618.61 95.99 618.61"/>
  <polygon class="cls-2" points="101.87 600.45 100.87 609.04 82.61 609.04 83.61 600.45 101.87 600.45"/>
  <polygon class="cls-2" points="108.92 582.26 107.92 590.85 89.66 590.85 90.66 582.26 108.92 582.26"/>
  <polygon class="cls-2" points="113.37 563.36 113.21 577.9 98.45 577.9 105.85 563.36 113.37 563.36"/>
  <rect class="cls-2" x="587.04" y="542.93" width="5.64" height="9.79"/>
  <rect class="cls-2" x="597.13" y="542.85" width="5.64" height="9.79"/>
  <rect class="cls-2" x="607.22" y="541.77" width="5.64" height="9.79"/>
  <rect class="cls-2" x="618.31" y="541.69" width="5.64" height="9.79"/>
  <rect class="cls-2" x="628.4" y="541.6" width="5.64" height="9.8"/>
  <rect class="cls-2" x="639.49" y="540.52" width="5.64" height="9.8"/>
  <rect class="cls-2" x="650.58" y="540.44" width="5.64" height="9.8"/>
  <rect class="cls-2" x="661.67" y="539.36" width="5.64" height="9.79"/>
  <rect class="cls-2" x="586.75" y="564.92" width="5.63" height="9.79"/>
  <rect class="cls-2" x="596.84" y="564.83" width="5.63" height="9.8"/>
  <rect class="cls-2" x="606.93" y="563.75" width="5.63" height="9.8"/>
  <rect class="cls-2" x="618.02" y="563.67" width="5.63" height="9.8"/>
  <rect class="cls-2" x="628.11" y="563.59" width="5.63" height="9.79"/>
  <rect class="cls-2" x="639.2" y="562.51" width="5.63" height="9.79"/>
  <rect class="cls-2" x="650.29" y="562.43" width="5.63" height="9.79"/>
  <rect class="cls-2" x="660.88" y="561.41" width="5.64" height="9.79"/>
  <rect class="cls-2" x="670.97" y="561.33" width="5.64" height="9.79"/>
  <rect class="cls-2" x="682.07" y="560.25" width="5.63" height="9.79"/>
  <rect class="cls-2" x="693.16" y="560.17" width="5.63" height="9.79"/>
  <polygon class="cls-3" points="577.37 601.06 240.75 610.57 243.39 594.24 569.4 583.34 577.37 601.06"/>
  <polygon class="cls-3" points="581.8 620.67 236.09 628.99 240.75 614.02 577.86 604.87 581.8 620.67"/>
  <polygon class="cls-3" points="865.32 487.39 887.64 499.08 666.52 499.26 656.22 501.42 639.2 501.69 637.76 501.77 636.49 486.15 853.8 486.15 865.32 487.39"/>
  <polygon class="cls-3" points="165.32 516.27 165.32 529.66 153 530.44 152.98 516.96 165.32 516.27"/>
  <polygon class="cls-2" points="199.29 514.37 199.29 528.15 166.37 529.59 165.32 529.66 165.32 516.27 199.29 514.37"/>
  <polygon class="cls-2" points="153 530.44 145.71 530.44 152.98 516.96 153 530.44"/>
  <polygon class="cls-3" points="249.77 513.42 249.77 526.94 199.29 528.15 199.29 514.37 249.77 513.42"/>
  <polygon class="cls-2" points="363.93 506.58 363.66 520.81 249.77 526.94 249.77 513.42 363.93 506.58"/>
  <polygon class="cls-3" points="421.73 503.74 421.73 517.16 363.66 520.81 363.93 506.58 421.73 503.74"/>
  <polygon class="cls-2" points="637.76 501.77 421.73 514.44 421.73 499.63 613.21 486.15 636.49 486.15 637.76 501.77"/>
  <polygon class="cls-3" points="895.33 511.09 909.61 525.61 895.33 525.61 850.9 524.01 751.57 523.85 670.14 524.16 668.89 526.24 639.76 526.24 638.52 510.98 639.49 510.93 753.42 508.29 852.5 508.29 887.64 509.69 895.33 511.09"/>
  <polygon class="cls-2" points="136.18 539.29 136.18 552.94 118.51 553.64 118.51 550.76 136.18 539.29"/>
  <polygon class="cls-2" points="153.7 539.29 153.7 552.24 136.18 552.94 136.18 539.29 153.7 539.29"/>
  <polygon class="cls-3" points="166.33 538.33 166.33 550.76 153.7 552.24 153.7 539.29 166.33 538.33"/>
  <polygon class="cls-2" points="199.54 550.76 166.33 550.76 166.33 538.33 166.79 538.29 199.29 536.45 199.54 550.76"/>
  <polygon class="cls-3" points="249.86 534.99 249.77 548.44 199.54 550.76 199.29 536.45 249.86 534.99"/>
  <polygon class="cls-3" points="421.73 525.89 421.73 540.35 363.93 543.07 363.66 528.99 421.73 525.89"/>
  <polygon class="cls-2" points="363.93 543.07 253.37 548.27 249.77 548.44 249.86 534.99 253.37 534.89 363.66 528.99 363.93 543.07"/>
  <polygon class="cls-2" points="639.76 526.24 421.73 538.48 421.73 522.86 638.52 510.98 639.76 526.24"/>
  <path class="cls-2" d="M409.14,478.51l-59.69,3.71c2.09-6.42,4.67-12.57,9.04-17.7,4.33-5.09,11.09-7.47,17.64-6.18,14.75,2.91,26.69,8.68,33.01,20.17Z"/>
  <path class="cls-3" d="M703.03,457.18h-43.99c1.37-6.12,1.85-13.12,8.03-14.34,1.06-.21,2.17-.18,3.24-.02,15.23,2.26,26.79,6.67,32.72,14.36Z"/>
  <path class="cls-3" d="M735.41,456.69l-11.64.49c-4.06-4.34-9.07-8.73-14.96-13.19-.95-.72-.72-2.2.4-2.61l5.14-1.87c4.15,2.12,7.81,4.52,11.09,7.16.03.02.06.04.08.06,4.72,4.07,8.55,8.4,9.6,9.62.19.22.29.34.29.34Z"/>
  <polygon class="cls-2" points="701.84 549.78 672.97 549.78 669.92 531.81 698.79 531.81 701.84 549.78"/>
  <polygon class="cls-3" points="959.35 537.67 955.44 551.4 701.85 549.78 701.84 549.78 698.79 531.81 959.35 537.67"/>
  <polygon class="cls-8" points="705.24 559.33 709.83 572.37 931.08 573.27 926.2 561.68 705.24 559.33"/>
  <polygon class="cls-8" points="712.54 579.71 717.12 592.74 939.8 593.78 934.92 582.19 712.54 579.71"/>
  <line class="cls-1" x1="697.81" y1="524.05" x2="697.78" y2="523.85"/>
</svg>