<?xml version="1.0" encoding="UTF-8"?>
<svg xmlns="http://www.w3.org/2000/svg" viewBox="0 0 1000 1000">
  <defs>
    <style>
      .cls-1 {
        fill: #fcf7eb;
      }

      .cls-1, .cls-2, .cls-3, .cls-4 {
        mix-blend-mode: multiply;
      }

      .cls-1, .cls-5, .cls-6, .cls-7, .cls-8, .cls-9, .cls-10, .cls-11, .cls-12, .cls-13, .cls-14, .cls-15, .cls-3, .cls-4 {
        stroke-width: 0px;
      }

      .cls-16 {
        isolation: isolate;
      }

      .cls-2, .cls-3, .cls-4 {
        opacity: .4;
      }

      .cls-5 {
        fill: #966d59;
      }

      .cls-6 {
        fill: #d1d4f2;
      }

      .cls-7 {
        fill: #dae8e8;
      }

      .cls-8, .cls-3 {
        fill: #bfd2d2;
      }

      .cls-9, .cls-4 {
        fill: #bcbff7;
      }

      .cls-10 {
        fill: #c1f2bb;
      }

      .cls-11 {
        fill: #b58774;
      }

      .cls-12 {
        fill: #93aeb1;
      }

      .cls-13 {
        fill: #fcf9f2;
      }

      .cls-14 {
        fill: #ffe8b5;
      }

      .cls-15 {
        fill: #e593b1;
      }
    </style>
  </defs>
  <g class="cls-16">
    <g id="Layer_1" data-name="Layer 1">
      <g>
        <polygon class="cls-13" points="724.64 173.63 724.64 844.74 522.06 949.39 133.03 949.39 133.03 173.63 724.64 173.63"/>
        <polygon class="cls-1" points="724.64 844.74 522.06 949.39 588.95 826.55 724.64 844.74"/>
        <path class="cls-9" d="M252.26,276.39c-2.5,47.26-8.68,76.92-34.63,83.11-41.75,9.96-92.45-64.84,7-132.6,48.41-32.98,72.96-26,82.4-10.95,14.78,23.55-51.81,4.5-54.77,60.44Z"/>
        <path class="cls-14" d="M678.81,657.35c3.31,28.9-1.06,56.23-19.4,80.7-8.72,11.63-18.99,20.16-30,25.37-34.1,16.11-65.82,25.42-89.29,11.11-5.53-3.37-9.46-11.28-9.77-20.44-1.05-31.29,39.19-45.08,77.14-59.85,14.79-5.76,27.1-21.54,33.53-42.89.11-.37.22-.75.34-1.12,8.08-27.11,34.1-22.2,37.46,7.13Z"/>
        <path class="cls-15" d="M294.75,902.56h0c-2.68-1.62-5.63-2.74-8.71-3.32l-26.6-4.98c-16.1-3.02-25.5-19.92-19.57-35.19l7.14-18.39c2.14-5.5,6.07-10.11,11.15-13.09l23.11-13.55c5.56-3.26,12.13-4.35,18.45-3.07l16.87,3.43c12.94,2.63,21.89,14.49,20.87,27.66l-3.11,40.13c-1.51,19.42-22.94,30.44-39.61,20.37Z"/>
        <path class="cls-10" d="M493.5,281.18l-30.46,7.49c-17.34,4.27-35.39-3.64-44-19.29l-2.23-4.05c-13.62-24.73,2.37-55.34,30.44-58.3l32.68-3.45c8.95-.94,17.95,1.2,25.52,6.07h0c29.11,18.76,21.68,63.24-11.95,71.51Z"/>
        <path class="cls-15" d="M181.39,524.03s32.93-51.3,91.75-47.87c58.82,3.43,76.37-15.04,85.59-24.95,9.22-9.91,76.24-12.04,85.54,28.85,9.3,40.89-62.62,6.52-63.29,41.04-.67,34.52-44.42,61.32-59.05,43.47-14.63-17.85-93.53-9.79-96.42,23.31-2.89,33.1-76.33-32.53-44.12-63.85Z"/>
        <g>
          <path class="cls-9" d="M795.44,98.28c-10.39,66.06-129.33,265.4-218.35,428.02-10.25-16.3-24.82-24.83-45.18-22.98,94.34-163.14,198.8-354.83,254.74-409.63,3.6-3.51,9.57-.36,8.79,4.6Z"/>
          <path class="cls-12" d="M572.62,559.28c-3.7-10.46-7.87-20.5-15.2-27.66-9.1-8.88-23.07-13.34-47.03-8.68-1.58-8.83-3.58-17.76,21.51-19.63,15.15-1.38,27.1,3,36.45,12.06,3.21,3.11,6.11,6.76,8.73,10.93,9.25,16.96,2.57,38.61-4.47,32.98Z"/>
          <path class="cls-8" d="M572.62,559.28c-26.64,46.41-57.14,88.74-91.81,126.65-1.23-1.8-2.52-3.49-3.9-5.06-7.32-8.37-17.04-13.23-31.62-11,17.17-48.92,39.33-97.9,65.11-146.93,23.96-4.66,37.93-.2,47.03,8.68,7.32,7.16,11.5,17.19,15.2,27.66Z"/>
          <path class="cls-12" d="M467.91,705.8c-.07,0-.14,0-.21.02-.03-.11-.07-.22-.11-.31-1-3.03-2.3-5.63-3.89-7.79-5.2-7.05-13.57-9.4-25.34-6.75-.09.02-.17.04-.27.06-.02-.04-.05-.08-.07-.12-4.33-7.75-4.2-15.01,7.25-21.02,14.57-2.23,24.3,2.63,31.62,11,1.38,1.57,2.68,3.26,3.9,5.06,4.33,12.16.36,18.99-12.9,19.86Z"/>
          <path class="cls-5" d="M475.36,751.76c-1,5.09-1.54,10.26-1.68,15.44-.65,24.27-17.14,54.36-28.88,60.62,15.34-15.63,25.98-42.65,26.65-63.79-5.14,13.6-10.44,26.16-16.5,33.9-2.92,3.73-5.34,7.81-7.42,12.06-7.35,14.97-20.91,28.96-32.46,37.12,9.08-9.87,25.35-24.64,31.89-40.09-7.33,7.54-14.74,14.09-22.23,19.44-2.22,1.57-4.53,3.01-6.9,4.33-17.61,9.92-35.3,19.94-43.15,18.27-2.58-.55-3.99-3.35-2.96-5.78l8.13-19.14c3.21-7.56,4.88-15.68,4.93-23.89,0-1.55.02-3.1.03-4.64.16-22.14.63-43.13,3.72-54.09-10.55,9.21-11.39,30.91-12.33,52.47-2.53-16.25-3.34-32.88,8.89-52.39,2.03-3.24,3.85-6.6,5.36-10.12,9.86-23.03,25.07-37.46,47.51-40.57.06,0,.04-.01.08-.01.09-.02.24.08.33.07,15.36-3.46,24.96,1.61,29.22,14.54.04.1.03.09.12.14.07.04.16.11.19.16,8.48,12.93,10.93,28.4,7.45,45.96Z"/>
          <path class="cls-15" d="M456.48,783.96c-.32,7.58-2.72,14.9-6.52,21.48-.9,1.55-1.73,3.14-2.52,4.75-7.35,14.97-20.91,28.96-32.46,37.12,9.08-9.87,25.35-24.64,31.89-40.09-7.33,7.54-14.74,14.09-22.23,19.44-2.22,1.57-4.53,3.01-6.9,4.33-17.61,9.92-35.3,19.94-43.15,18.27-2.58-.55-3.99-3.35-2.96-5.78l8.13-19.14c3.21-7.56,4.88-15.68,4.93-23.89v-.05c.02-3.01.64-5.98,1.84-8.74,5.81-13.37,11.7-27.15,14.5-24.8,3.02,2.93,4.2,9.5,3.72,21.63-.14,3.65,4.95,4.7,6.26,1.28,5.63-14.77,10.52-46.97,15.39-42.91,2.82,2.59,5.97,30.41,9.04,40.72.66,2.25,3.5,3.02,5.21,1.4,4.81-4.61,6.72-10.8,9.17-13.56,1.52-1.7,4.16-1.4,5.34.56,1.18,1.95,1.45,4.78,1.31,7.99Z"/>
          <path class="cls-11" d="M419.82,709.67s-20.94,30.63-14.92,50.26c0,0,2.88-30.1,14.92-50.26Z"/>
          <path class="cls-11" d="M467.2,734.8s3.14,18.06-6.02,36.39c0,0,7.59-28.01,6.02-36.39Z"/>
          <path class="cls-11" d="M454.11,714.38s-3.5,50-8.82,56.81c0,0,5.15-41.36,8.82-56.81Z"/>
          <path class="cls-4" d="M786.65,93.68c-2.03,1.98-4.12,4.15-6.27,6.49-6.97,72.71-119.65,262.44-212.03,415.19,3.21,3.11,6.12,6.76,8.74,10.93,89.02-162.61,207.96-361.95,218.35-428.02.78-4.96-5.2-8.11-8.79-4.6Z"/>
          <path class="cls-3" d="M572.62,559.28c-26.64,46.41-57.14,88.74-91.81,126.65-1.23-1.8-2.52-3.49-3.9-5.06l-2.12-2.26c64.74-58.51,82.2-106.82,82.64-146.99l10.93-16.26c3.21,3.11,6.11,6.76,8.73,10.93,9.25,16.96,2.57,38.61-4.47,32.98Z"/>
          <path class="cls-3" d="M467.91,705.8c-.07,0-.14,0-.21.02-.03-.11-.07-.22-.11-.31-1-3.03-2.3-5.63-3.89-7.79,19.6,2.11,11.08-19.09,11.08-19.09,1.38,1.57,4.8,5.52,6.03,7.32,4.33,12.16.36,18.99-12.9,19.86Z"/>
          <ellipse class="cls-7" cx="492.63" cy="592.72" rx="53.42" ry="5.86" transform="translate(-259.48 761.05) rotate(-62.88)"/>
          <ellipse class="cls-6" cx="594.52" cy="418.28" rx="74.45" ry="5.33" transform="translate(-64.98 724.01) rotate(-60)"/>
          <g class="cls-2">
            <path class="cls-15" d="M404.75,791.72c-.14,3.65,4.95,4.7,6.26,1.28,5.63-14.77,10.52-46.97,15.39-42.91,2.82,2.59,5.97,30.41,9.04,40.72.66,2.25,3.5,3.02,5.21,1.4,4.81-4.61,6.72-10.8,9.17-13.56,1.52-1.7,4.16-1.4,5.34.56.8,1.32,1.18,3.07,1.3,5.05,0-.1.01-.19.02-.29.14-3.2-.14-6.04-1.31-7.99-1.18-1.96-3.82-2.25-5.34-.56-2.45,2.75-4.36,8.95-9.17,13.56-1.71,1.62-4.55.85-5.21-1.4-3.07-10.31-6.22-38.12-9.04-40.72-4.87-4.06-9.77,28.14-15.39,42.91-1.2,3.15-5.59,2.51-6.18-.45-.02.78-.04,1.58-.07,2.4Z"/>
            <path class="cls-15" d="M443.48,813.84c-7.7,12.98-20.73,25.02-28.5,33.46,8.5-6,18.08-15.16,25.48-25.55,2.56-3.69,4.79-7.48,6.42-11.32-1.13,1.16-2.26,2.29-3.39,3.4Z"/>
            <path class="cls-15" d="M371.64,846.71l8.13-19.14c3.21-7.56,4.88-15.68,4.93-23.89v-.05c.02-3.01.64-5.98,1.84-8.74,5.81-13.37,11.7-27.15,14.5-24.8,2.42,2.36,3.66,7.07,3.81,15.12.15-10.04-1.08-15.69-3.81-18.35-2.8-2.36-8.69,11.43-14.5,24.8-1.2,2.76-1.83,5.73-1.84,8.74v.05c-.05,8.21-1.72,16.33-4.93,23.89l-8.13,19.14c-.46,1.1-.43,2.26-.02,3.27,0-.01,0-.03.02-.04Z"/>
          </g>
        </g>
      </g>
    </g>
  </g>
</svg>