<?xml version="1.0" encoding="utf-8"?>
<!-- Generator: Adobe Illustrator 28.2.0, SVG Export Plug-In . SVG Version: 6.00 Build 0)  -->
<svg version="1.1" id="Layer_1" xmlns="http://www.w3.org/2000/svg" xmlns:xlink="http://www.w3.org/1999/xlink" x="0px" y="0px"
	 viewBox="0 0 1000 1000" style="enable-background:new 0 0 1000 1000;" xml:space="preserve">
<style type="text/css">
	.st0{fill:#EA9B9B;}
	.st1{fill:none;stroke:#231F20;stroke-miterlimit:10;}
	.st2{fill:#E58383;}
	.st3{fill:#EFAFAF;}
	.st4{fill:#E26D6D;}
	.st5{fill:#F4CECE;}
	.st6{opacity:0.3;}
	.st7{fill:none;stroke:#F4CECE;stroke-width:4;stroke-linecap:round;stroke-miterlimit:10;}
	.st8{fill:#E8ACAC;}
	.st9{fill:#F4E4E4;}
	.st10{font-family:'TAN-NIMBUS';}
	.st11{font-size:12px;}
</style>
<g>
	
		<rect x="329.5" y="425.3" transform="matrix(0.7071 -0.7071 0.7071 0.7071 -288.4155 560.8178)" class="st0" width="406.5" height="406.5"/>
	<polygon class="st1" points="591.5,974.8 533.1,1033.2 533.1,1033.2 591.5,974.7 	"/>
	<polygon class="st0" points="802.6,299.4 744.2,357.8 441.8,53.7 500.2,-4.8 	"/>
	<polygon class="st2" points="838.1,618.9 535.8,314.7 441.8,53.7 744.2,357.8 	"/>
	<polygon class="st3" points="896.5,560.4 838.1,618.9 744.2,357.8 802.6,299.4 	"/>
	<polygon class="st2" points="532.8,1033.2 474.4,974.3 245.1,744.5 245.3,628.6 532.8,916 	"/>
	<polygon class="st4" points="446.5,911.8 423.1,888.3 331.4,796.3 331.5,749.9 446.5,864.9 	"/>
	<polygon class="st3" points="820.2,628.6 820,745.7 591.5,974.7 532.8,1033.2 532.8,916 	"/>
	
		<rect x="576.4" y="373" transform="matrix(0.7071 -0.7071 0.7071 0.7071 -97.2003 526.2259)" class="st4" width="20.5" height="14.8"/>
	
		<rect x="766.8" y="563.7" transform="matrix(0.7071 -0.7071 0.7071 0.7071 -176.3238 716.4711)" class="st4" width="19.8" height="14.8"/>
	<path class="st5" d="M307.5,632.6c0,7.6-6.1,13.7-13.7,13.7s-13.7-6.1-13.7-13.7c0-1.4,0.2-2.7,0.6-4c1.7-5.6,6.9-9.7,13.1-9.7
		s11.4,4.1,13.1,9.7C307.3,629.8,307.5,631.2,307.5,632.6L307.5,632.6z"/>
	<circle class="st4" cx="532.1" cy="628.6" r="143.4"/>
	<g class="st6">
		<path class="st7" d="M536.1,696.2c-39.6,0-71.7-32.1-71.7-71.7"/>
		<path class="st7" d="M536.1,710.6c-47.5,0-86-38.5-86-86"/>
		<path class="st7" d="M536.1,724.9c-55.4,0-100.4-44.9-100.4-100.4"/>
		<path class="st7" d="M536.1,739.3c-63.4,0-114.7-51.4-114.7-114.7"/>
		<path class="st7" d="M536.1,753.6c-71.3,0-129-57.8-129-129"/>
	</g>
	<path class="st8" d="M307.5,632.6v9.7c0,7.6-6.1,13.7-13.7,13.7s-13.7-6.1-13.7-13.7v-9.7c0,7.6,6.1,13.7,13.7,13.7
		S307.5,640.1,307.5,632.6z"/>
	<path class="st5" d="M340.4,659.5c0,7.6-6.1,13.7-13.7,13.7s-13.7-6.1-13.7-13.7c0-1.4,0.2-2.7,0.6-4c1.7-5.6,6.9-9.7,13.1-9.7
		s11.4,4.1,13.1,9.7C340.1,656.8,340.3,658.2,340.4,659.5L340.4,659.5z"/>
	<path class="st8" d="M340.4,659.5v9.7c0,7.6-6.1,13.7-13.7,13.7s-13.7-6.1-13.7-13.7v-9.7c0,7.6,6.1,13.7,13.7,13.7
		S340.4,667.1,340.4,659.5z"/>
	<circle class="st5" cx="532.5" cy="629" r="46.5"/>
	<circle class="st4" cx="532.5" cy="629" r="9.3"/>
	<g>
		<path class="st5" d="M749.8,591.2c0,17.7-14.3,32-32,32s-32-14.3-32-32c0-7.3,2.4-14,6.5-19.3c5.8-7.7,15.1-12.6,25.4-12.6
			s19.6,5,25.4,12.6C747.4,577.2,749.8,584,749.8,591.2L749.8,591.2z"/>
		<path class="st8" d="M749.8,591.2v17.7c0,17.7-14.3,32-32,32s-32-14.3-32-32v-17.7c0,17.7,14.3,32,32,32S749.8,608.9,749.8,591.2z
			"/>
		<polygon class="st2" points="623.1,703 592.6,733.6 592.6,733.6 573.3,714.3 603.8,683.7 		"/>
		<polygon class="st0" points="592.6,733.6 592.6,745 586.9,739.3 586.9,739.3 573.4,725.7 573.3,714.3 		"/>
		<polygon class="st3" points="623.2,703 623,714.3 598.3,739.2 593.5,744 592.6,745 592.6,733.6 592.6,733.6 		"/>
		<polygon class="st0" points="742.8,580 712.2,610.5 712.2,610.5 693,591.2 723.5,560.7 		"/>
		<polygon class="st2" points="712.2,610.5 712.2,621.9 706.5,616.2 706.5,616.2 693,602.7 693,591.2 		"/>
		<polygon class="st3" points="742.8,580 742.6,591.2 717.9,616.2 713.2,621 712.2,621.9 712.2,610.5 712.2,610.5 		"/>
		
			<rect x="595.1" y="642.2" transform="matrix(0.7071 -0.7071 0.7071 0.7071 -266.1764 655.3008)" class="st0" width="125.6" height="13.4"/>
		
			<rect x="598.7" y="650.8" transform="matrix(0.7071 -0.7071 0.7071 0.7071 -267.6457 658.8474)" class="st2" width="125.6" height="3.4"/>
	</g>
	<g>
		<path class="st9" d="M579,629h-93c0-25.7,20.8-46.5,46.5-46.5C558.2,582.5,579,603.3,579,629z"/>
		<path class="st5" d="M579,629c0,25.7-20.8,46.5-46.5,46.5S486,654.7,486,629H579z"/>
		<circle class="st4" cx="532.5" cy="629" r="9.3"/>
		<text transform="matrix(0.4526 -0.8917 0.8917 0.4526 507.1901 622.78)" class="st4 st10 st11">J</text>
		<text transform="matrix(0.6481 -0.7615 0.7615 0.6481 508.9299 618.7002)" class="st4 st10 st11">a</text>
		<text transform="matrix(0.8357 -0.5492 0.5492 0.8357 514.3099 612.36)" class="st4 st10 st11">z</text>
		<text transform="matrix(0.9514 -0.3079 0.3079 0.9514 520.3901 608.2601)" class="st4 st10 st11">z</text>
		<text transform="matrix(0.9993 3.751577e-02 -3.751577e-02 0.9993 531.34 605.67)" class="st4 st10 st11">l</text>
		<text transform="matrix(0.9651 0.262 -0.262 0.9651 535.1599 605.48)" class="st4 st10 st11">o</text>
		<text transform="matrix(0.8508 0.5255 -0.5255 0.8508 542.7502 607.3101)" class="st4 st10 st11">v</text>
		<text transform="matrix(0.6599 0.7514 -0.7514 0.6599 550.1299 611.8499)" class="st4 st10 st11">e</text>
		<text transform="matrix(0.431 0.9024 -0.9024 0.431 555.2404 617.5699)" class="st4 st10 st11">r</text>
	</g>
</g>
</svg>
