<?xml version="1.0" encoding="UTF-8"?>
<svg xmlns="http://www.w3.org/2000/svg" xmlns:xlink="http://www.w3.org/1999/xlink" viewBox="0 0 1000 1000">
  <defs>
    <style>
      .cls-1 {
        fill: #f5a9ca;
        stroke: #f5cce0;
        stroke-width: .05px;
      }

      .cls-1, .cls-2, .cls-3, .cls-4, .cls-5, .cls-6 {
        stroke-miterlimit: 10;
      }

      .cls-2 {
        opacity: .4;
        stroke: #e87f31;
      }

      .cls-2, .cls-4, .cls-5 {
        fill: none;
      }

      .cls-2, .cls-5 {
        mix-blend-mode: multiply;
      }

      .cls-7 {
        fill: url(#linear-gradient);
      }

      .cls-7, .cls-8, .cls-9, .cls-10, .cls-11, .cls-12, .cls-13, .cls-14, .cls-15, .cls-16, .cls-17, .cls-18, .cls-19, .cls-20, .cls-21, .cls-22, .cls-23, .cls-24, .cls-25, .cls-26, .cls-27, .cls-28, .cls-29, .cls-30, .cls-31, .cls-32, .cls-33, .cls-34, .cls-35, .cls-36, .cls-37, .cls-38, .cls-39, .cls-40, .cls-41, .cls-42, .cls-43, .cls-44, .cls-45, .cls-46, .cls-47, .cls-48, .cls-49, .cls-50, .cls-51, .cls-52, .cls-53, .cls-54, .cls-55, .cls-56, .cls-57, .cls-58, .cls-59, .cls-60, .cls-61, .cls-62, .cls-63, .cls-64, .cls-65, .cls-66, .cls-67, .cls-68, .cls-69, .cls-70, .cls-71, .cls-72 {
        stroke-width: 0px;
      }

      .cls-8 {
        fill: url(#linear-gradient-33);
      }

      .cls-9 {
        fill: url(#linear-gradient-29);
      }

      .cls-10 {
        fill: url(#linear-gradient-32);
      }

      .cls-11 {
        fill: url(#linear-gradient-30);
      }

      .cls-12 {
        fill: url(#linear-gradient-31);
      }

      .cls-13 {
        fill: url(#linear-gradient-34);
      }

      .cls-14 {
        fill: url(#linear-gradient-35);
      }

      .cls-15 {
        fill: url(#linear-gradient-28);
      }

      .cls-16 {
        fill: url(#linear-gradient-25);
      }

      .cls-17 {
        fill: url(#linear-gradient-11);
      }

      .cls-18 {
        fill: url(#linear-gradient-12);
      }

      .cls-19 {
        fill: url(#linear-gradient-13);
      }

      .cls-20 {
        fill: url(#linear-gradient-10);
      }

      .cls-21 {
        fill: url(#linear-gradient-17);
      }

      .cls-22 {
        fill: url(#linear-gradient-16);
      }

      .cls-23 {
        fill: url(#linear-gradient-19);
      }

      .cls-24 {
        fill: url(#linear-gradient-15);
      }

      .cls-25 {
        fill: url(#linear-gradient-23);
      }

      .cls-26 {
        fill: url(#linear-gradient-21);
      }

      .cls-27 {
        fill: url(#linear-gradient-18);
      }

      .cls-28 {
        fill: url(#linear-gradient-14);
      }

      .cls-29 {
        fill: url(#linear-gradient-22);
      }

      .cls-30 {
        fill: url(#linear-gradient-20);
      }

      .cls-31 {
        fill: url(#linear-gradient-27);
      }

      .cls-32 {
        fill: url(#linear-gradient-24);
      }

      .cls-33 {
        fill: url(#linear-gradient-26);
      }

      .cls-3 {
        stroke: #d38675;
      }

      .cls-3, .cls-50 {
        fill: #d38675;
      }

      .cls-4 {
        stroke: #231f20;
      }

      .cls-34 {
        fill: url(#linear-gradient-4);
      }

      .cls-35 {
        fill: url(#linear-gradient-2);
      }

      .cls-36 {
        fill: url(#linear-gradient-3);
      }

      .cls-37 {
        fill: url(#linear-gradient-8);
      }

      .cls-38 {
        fill: url(#linear-gradient-9);
      }

      .cls-39 {
        fill: url(#linear-gradient-7);
      }

      .cls-40 {
        fill: url(#linear-gradient-5);
      }

      .cls-41 {
        fill: url(#linear-gradient-6);
      }

      .cls-73 {
        isolation: isolate;
      }

      .cls-5 {
        stroke: #f4ad78;
        stroke-width: .5px;
      }

      .cls-6 {
        fill: #50acc1;
        stroke: #438a95;
        stroke-width: .01px;
      }

      .cls-42 {
        fill: #f4ad78;
      }

      .cls-43 {
        fill: #f4a28c;
      }

      .cls-44 {
        fill: #f9ece8;
      }

      .cls-45 {
        fill: #60371c;
      }

      .cls-46 {
        fill: #771f1f;
      }

      .cls-47 {
        fill: #879e75;
      }

      .cls-48 {
        fill: #3d292d;
      }

      .cls-49 {
        fill: #581413;
      }

      .cls-51 {
        fill: #ccc;
      }

      .cls-52 {
        fill: #e0e0e0;
      }

      .cls-53 {
        fill: #c8806e;
      }

      .cls-54 {
        fill: #d3d3d3;
      }

      .cls-55 {
        fill: #995855;
      }

      .cls-56 {
        fill: #97a577;
      }

      .cls-57 {
        fill: #91afa8;
      }

      .cls-58 {
        fill: #edc26e;
      }

      .cls-59 {
        fill: #f2d9bf;
      }

      .cls-60 {
        fill: #f2cab9;
      }

      .cls-61 {
        fill: #f49547;
      }

      .cls-62 {
        fill: #e88977;
      }

      .cls-63 {
        fill: #e87f31;
      }

      .cls-64 {
        fill: #ea8744;
      }

      .cls-65 {
        fill: #e75b33;
      }

      .cls-66 {
        fill: #efe0d8;
      }

      .cls-67 {
        fill: #efb784;
      }

      .cls-68 {
        fill: #ed7b4c;
      }

      .cls-69 {
        fill: #ed7145;
      }

      .cls-70 {
        fill: #eac971;
      }

      .cls-71 {
        fill: #f4eff0;
      }

      .cls-72 {
        fill: #f6a690;
      }
    </style>
    <linearGradient id="linear-gradient" x1="760.49" y1="482.91" x2="760.49" y2="473.28" gradientTransform="translate(1367.09 -806.39) rotate(98.6) scale(1.3 1.15)" gradientUnits="userSpaceOnUse">
      <stop offset="0" stop-color="#f08021"/>
      <stop offset=".05" stop-color="#f08622"/>
      <stop offset=".27" stop-color="#f2a025"/>
      <stop offset=".5" stop-color="#f3b328"/>
      <stop offset=".74" stop-color="#f4be2a"/>
      <stop offset="1" stop-color="#f5c22b"/>
    </linearGradient>
    <linearGradient id="linear-gradient-2" x1="830.71" y1="523.57" x2="830.71" y2="513.94" gradientTransform="translate(1692.78 -603.05) rotate(116.66) scale(1.3 1.15)" xlink:href="#linear-gradient"/>
    <linearGradient id="linear-gradient-3" x1="611.27" y1="155.81" x2="611.27" y2="146.18" gradientTransform="translate(138.42 -271.91) rotate(19.76)" xlink:href="#linear-gradient"/>
    <linearGradient id="linear-gradient-4" x1="628.34" y1="123.21" x2="628.34" y2="113.58" gradientTransform="translate(70.73 -167.14) rotate(11.73)" gradientUnits="userSpaceOnUse">
      <stop offset="0" stop-color="#f08021"/>
      <stop offset=".14" stop-color="#f19724"/>
      <stop offset=".35" stop-color="#f3b128"/>
      <stop offset=".55" stop-color="#f4c42a"/>
      <stop offset=".77" stop-color="#f5cf2c"/>
      <stop offset="1" stop-color="#f6d32d"/>
    </linearGradient>
    <linearGradient id="linear-gradient-5" x1="827.12" y1="40.62" x2="827.12" y2="30.99" gradientTransform="translate(-128.22 772.9) rotate(-43.75) scale(1.26 1.08)" xlink:href="#linear-gradient-4"/>
    <linearGradient id="linear-gradient-6" x1="699.54" y1="70.75" x2="699.54" y2="61.11" gradientTransform="translate(-200.17 176.55) rotate(-11.33) scale(1.23 1.08)" xlink:href="#linear-gradient"/>
    <linearGradient id="linear-gradient-7" x1="1131.08" y1="100.38" x2="1131.08" y2="90.75" gradientTransform="translate(70.14 1436.8) rotate(-71.05) scale(1.3 1.13)" xlink:href="#linear-gradient"/>
    <linearGradient id="linear-gradient-8" x1="1134.28" y1="92.44" x2="1134.28" y2="82.81" gradientTransform="translate(49.1 1216.1) rotate(-66.5) scale(1.13)" xlink:href="#linear-gradient-4"/>
    <linearGradient id="linear-gradient-9" x1="1175.82" y1="138.77" x2="1175.82" y2="129.14" gradientTransform="translate(443.52 1548.45) rotate(-87.59) scale(1.25 1.07)" xlink:href="#linear-gradient"/>
    <linearGradient id="linear-gradient-10" x1="1229.52" y1="319.05" x2="1229.52" y2="309.42" gradientTransform="translate(1345.13 1377.53) rotate(-130.98) scale(1.16 1)" xlink:href="#linear-gradient-4"/>
    <linearGradient id="linear-gradient-11" x1="1211.18" y1="377.19" x2="1211.18" y2="367.56" gradientTransform="translate(1538.46 1252.71) rotate(-142.43) scale(1.16 1)" xlink:href="#linear-gradient"/>
    <linearGradient id="linear-gradient-12" x1="1032" y1="519.24" x2="1032" y2="509.61" gradientTransform="translate(2356.73 284.25) rotate(164.89) scale(1.53 1.2)" xlink:href="#linear-gradient"/>
    <linearGradient id="linear-gradient-13" x1="852.38" y1="501.9" x2="852.38" y2="492.27" gradientTransform="translate(1802.88 -406.4) rotate(122.75) scale(1.21 1.37)" xlink:href="#linear-gradient"/>
    <linearGradient id="linear-gradient-14" x1="660.18" y1="81.59" x2="660.18" y2="71.96" gradientTransform="matrix(1,0,0,1,0,0)" xlink:href="#linear-gradient"/>
    <linearGradient id="linear-gradient-15" x1="700.26" y1="72.07" x2="700.26" y2="62.43" gradientTransform="translate(-136.3 162.55) rotate(-11.33) scale(1.14 1.08)" xlink:href="#linear-gradient-4"/>
    <linearGradient id="linear-gradient-16" x1="654.8" y1="226.61" x2="654.8" y2="216.98" gradientTransform="translate(77.07 -596.61) rotate(32.86) scale(1.31 1.11)" xlink:href="#linear-gradient"/>
    <linearGradient id="linear-gradient-17" x1="652.63" y1="165.01" x2="652.63" y2="155.38" gradientTransform="translate(-10.62 -328.92) rotate(18.35) scale(1.18 1.08)" xlink:href="#linear-gradient"/>
    <linearGradient id="linear-gradient-18" x1="696.68" y1="304.59" x2="696.68" y2="294.96" gradientTransform="translate(230.36 -1013.73) rotate(50.57) scale(1.61 1.19)" xlink:href="#linear-gradient"/>
    <linearGradient id="linear-gradient-19" x1="653.8" y1="360.71" x2="653.8" y2="351.08" gradientTransform="translate(715.46 -789.63) rotate(64.79) scale(1.18 1.15)" xlink:href="#linear-gradient"/>
    <linearGradient id="linear-gradient-20" x1="823.56" y1="505.74" x2="823.56" y2="496.1" gradientTransform="translate(1696.66 -604.6) rotate(115.64) scale(1.3 1.24)" xlink:href="#linear-gradient-4"/>
    <linearGradient id="linear-gradient-21" x1="758.44" y1="441.8" x2="758.44" y2="432.16" gradientTransform="translate(1165.84 -1132.2) rotate(86.9) scale(1.57 1.28)" xlink:href="#linear-gradient-4"/>
    <linearGradient id="linear-gradient-22" x1="937.15" y1="499.06" x2="937.15" y2="489.43" gradientTransform="translate(2073.48 -249.39) rotate(139.56) scale(1.38 1.31)" xlink:href="#linear-gradient-4"/>
    <linearGradient id="linear-gradient-23" x1="844.9" y1="517.42" x2="844.9" y2="507.78" gradientTransform="translate(1723.85 -533.48) rotate(119.08) scale(1.25 1.2)" gradientUnits="userSpaceOnUse">
      <stop offset="0" stop-color="#f08021"/>
      <stop offset=".19" stop-color="#f19323"/>
      <stop offset=".45" stop-color="#f3a626"/>
      <stop offset=".71" stop-color="#f4b128"/>
      <stop offset="1" stop-color="#f5b529"/>
    </linearGradient>
    <linearGradient id="linear-gradient-24" x1="1035.14" y1="553.42" x2="1035.14" y2="543.78" gradientTransform="translate(2105.16 309.17) rotate(164.89) scale(1.29 1.05)" xlink:href="#linear-gradient-4"/>
    <linearGradient id="linear-gradient-25" x1="1092.33" y1="516.41" x2="1092.33" y2="506.77" gradientTransform="translate(2072.26 638.52) rotate(-180) scale(1.29 1.05)" xlink:href="#linear-gradient-4"/>
    <linearGradient id="linear-gradient-26" x1="1166.08" y1="419.67" x2="1166.08" y2="410.04" gradientTransform="translate(1811.59 1162.39) rotate(-153.51) scale(1.29 1.05)" xlink:href="#linear-gradient"/>
    <linearGradient id="linear-gradient-27" x1="1116.16" y1="494.64" x2="1116.16" y2="485.01" gradientTransform="translate(2026.8 790.49) rotate(-172.92) scale(1.29 1.05)" xlink:href="#linear-gradient"/>
    <linearGradient id="linear-gradient-28" x1="1171.89" y1="415.88" x2="1171.89" y2="406.24" gradientTransform="translate(1794.2 1186.07) rotate(-152.26) scale(1.29 1.05)" xlink:href="#linear-gradient-4"/>
    <linearGradient id="linear-gradient-29" x1="1192.3" y1="320.19" x2="1192.3" y2="310.55" gradientTransform="translate(1477.59 1530.88) rotate(-130.98) scale(1.36 1.01)" xlink:href="#linear-gradient"/>
    <linearGradient id="linear-gradient-30" x1="1188.88" y1="267.31" x2="1188.88" y2="257.68" gradientTransform="translate(1272.87 1666.02) rotate(-120.89) scale(1.4 1.03)" xlink:href="#linear-gradient"/>
    <linearGradient id="linear-gradient-31" x1="1207.91" y1="225.76" x2="1207.91" y2="216.13" gradientTransform="translate(911.11 1602.32) rotate(-109.19) scale(1.25 1.13)" xlink:href="#linear-gradient"/>
    <linearGradient id="linear-gradient-32" x1="1131.35" y1="130.31" x2="1131.35" y2="120.68" gradientTransform="translate(225.29 1742.84) rotate(-80.64) scale(1.5 1.19)" xlink:href="#linear-gradient-4"/>
    <linearGradient id="linear-gradient-33" x1="1087.23" y1="78.76" x2="1087.23" y2="69.13" gradientTransform="translate(-228.31 1306.83) rotate(-57.51) scale(1.38 1.13)" xlink:href="#linear-gradient"/>
    <linearGradient id="linear-gradient-34" x1="773.85" y1="43.77" x2="773.85" y2="34.14" gradientTransform="translate(-230.07 493.15) rotate(-27.61) scale(1.26 1.08)" xlink:href="#linear-gradient"/>
    <linearGradient id="linear-gradient-35" x1="652.72" y1="89.03" x2="668.87" y2="89.03" gradientUnits="userSpaceOnUse">
      <stop offset=".03" stop-color="#000"/>
      <stop offset=".04" stop-color="#020101"/>
      <stop offset=".13" stop-color="#170f11"/>
      <stop offset=".22" stop-color="#281b1d"/>
      <stop offset=".35" stop-color="#342326"/>
      <stop offset=".52" stop-color="#3b272b"/>
      <stop offset="1" stop-color="#3d292d"/>
    </linearGradient>
  </defs>
  <g class="cls-73">
    <g id="Layer_1" data-name="Layer 1">
      <g>
        <g>
          <circle class="cls-59" cx="104.71" cy="953.06" r="18.47"/>
          <circle class="cls-59" cx="252.82" cy="953.06" r="18.47"/>
          <rect class="cls-59" x="46.8" y="903.93" width="263.17" height="30.66" rx="5.64" ry="5.64"/>
        </g>
        <rect class="cls-59" x="159.15" y="596.58" width="424.57" height="30.66" rx="5.64" ry="5.64"/>
        <rect class="cls-59" x="332.92" y="778.18" width="529.05" height="30.66" rx="5.64" ry="5.64"/>
        <rect class="cls-60" x="192.23" y="249.17" width="149.5" height="168.93" rx="16.19" ry="16.19"/>
        <rect class="cls-49" x="227.23" y="227.59" width="75.33" height="52.64" rx="8.92" ry="8.92"/>
        <circle class="cls-59" cx="240.2" cy="645.72" r="18.47"/>
        <circle class="cls-59" cx="371.43" cy="645.72" r="18.47"/>
        <circle class="cls-59" cx="490.88" cy="645.72" r="18.47"/>
        <circle class="cls-59" cx="378.67" cy="827.32" r="18.47"/>
        <circle class="cls-59" cx="517.16" cy="827.32" r="18.47"/>
        <circle class="cls-59" cx="655.64" cy="827.32" r="18.47"/>
        <circle class="cls-59" cx="779.7" cy="827.32" r="18.47"/>
        <circle class="cls-59" cx="655.35" cy="304.37" r="18.47"/>
        <circle class="cls-59" cx="803.46" cy="304.37" r="18.47"/>
        <rect class="cls-59" x="424.89" y="424.93" width="424.57" height="30.66" rx="5.64" ry="5.64"/>
        <circle class="cls-59" cx="505.94" cy="474.06" r="18.47"/>
        <circle class="cls-59" cx="637.17" cy="474.06" r="18.47"/>
        <circle class="cls-59" cx="756.61" cy="474.06" r="18.47"/>
        <ellipse class="cls-1" cx="684.73" cy="156.11" rx="13.33" ry="3.67"/>
        <path class="cls-6" d="M670.48,157.19c1.24,2.16,7.15,3.79,14.25,3.79s12.96-1.62,14.23-3.76"/>
        <path class="cls-50" d="M698.97,157.23c-3.12,12-3.61,23.31-.5,33.7,9.25,23.59,10.24,44.62-4.35,60.81-.51.57-1.14,1.01-1.85,1.29-5.82,2.26-11.3,2.67-16.23.02-.5-.27-.94-.62-1.32-1.04-12.34-13.62-16.6-31.68-4.41-58.79,3.7-9.51,2.86-22.13.19-36.01"/>
        <path class="cls-3" d="M697.64,153.77c-1.06-.67-2.56-1.24-4.37-1.68-.64-.15-1.31-.29-2.02-.41-.3-.05-.6-.1-.92-.14-.09-.01-.18-.02-.27-.04-.22-.03-.45-.06-.68-.09-.06,0-.13-.01-.19-.02-.99-.11-2.04-.18-3.11-.21-.45-.01-.9-.02-1.36-.02-.56,0-1.12.01-1.67.03-2.75.11-5.27.47-7.35,1.02l-.16.04c-.24.07-.47.13-.7.2-1.64.51-2.95,1.14-3.78,1.85-.65.56-1.01,1.17-1.01,1.81,0,2.73,6.56,4.95,14.66,4.95s14.66-2.22,14.66-4.95c0-.85-.63-1.65-1.74-2.34ZM676.23,158.94c.26.06.53.12.81.17-.2.29-.75.27-.81-.17Z"/>
        <path class="cls-72" d="M696.1,178.49c-5.44-12.47-12.51-14.73-16.79-6.32-1.19,2.33-1.94,4.87-2.29,7.47-1.11,8.17-2.5,14.67-4.23,19.05-1.73,4.38-2.95,8.94-3.61,13.6-1.83,12.89-.25,22.89,5.57,29.31,5.59,6.52,12.43,8.95,20.22,8.27,1.11.11,6.41-8.35,8.09-14.42.71-2.26,1.19-4.8,1.54-7.5.44-3.87.43-7.38.19-10.68l-1.28-8.81-2.16-8.43c-.73-2.47-1.58-4.98-2.59-7.54-.49-1.2-.92-2.5-1.27-3.94-.49-1.99-.84-3.93-1.04-5.84l-.35-4.23Z"/>
        <path class="cls-60" d="M696.58,183.45c-.26-1.69-1.12-3.6-2.21-4.96-5.36-6.73-9.92-6.27-13.28,1.91-9.75,21.49-7.91,35.86-1.47,47.41,3.31,5.93,8.99,10.39,15.76,12.3,1.38.39,2.81.73,4.27,1.05.3.06,1.03.28,1.16.02,5.04-10.41,4.67-20.66,3.09-30.91-.61-3.93-1.83-7.55-3.02-11.9-1.52-5.55-2.92-5.74-4.31-14.91Z"/>
        <path class="cls-72" d="M698.06,156.11c0,1.32-2.53,2.48-6.33,3.13h-.01c-.13.02-.25.04-.39.06-.65.1-1.33.19-2.05.26-1.1.11-2.28.18-3.5.2-.35.02-.7.02-1.05.02h-.7c-.14,0-.28,0-.42-.01-.14,0-.28,0-.41,0-1.59-.05-3.09-.18-4.46-.37-.59-.08-1.16-.17-1.7-.28-.12-.02-.24-.04-.35-.07-.04-.01-.08-.01-.12-.03-.12-.02-.23-.04-.34-.07-.59-.14-1.13-.28-1.63-.45-2-.63-3.21-1.47-3.21-2.38,0-.65.62-1.26,1.71-1.79.46-.23,1.01-.44,1.63-.63.15-.05.3-.1.46-.14.28-.08.56-.15.86-.22,1.03-.24,2.19-.45,3.46-.59.72-.09,1.47-.16,2.25-.21.26-.01.52-.03.79-.04.71-.03,1.44-.05,2.18-.05.57,0,1.14.02,1.69.03.59.02,1.17.05,1.73.1h0c.21,0,.42.03.62.05h.02c.08.01.16.01.24.02.16.02.32.03.48.05.04,0,.08.01.12.01h.01c.12,0,.22.03.33.04h.02c.26.03.52.06.77.1.19.03.38.05.56.09.13.01.25.03.37.05.21.04.42.08.63.11.02.01.03.01.04.01.28.06.55.12.81.18.43.09.84.2,1.23.31.77.22,1.44.48,1.99.75.89.45,1.46.94,1.61,1.47h0c.04.11.05.2.05.3Z"/>
        <path class="cls-44" d="M693.33,160.4l1.58-.4c-.61,7.33-1.05,14.28-1.1,20.37,0,.38-.53.47-.66.11-1.01-2.76-.91-9.6.18-20.09Z"/>
        <path class="cls-44" d="M692.47,192.88c.37,5.18,3.24,11.34,7.3,17.96.17.28.59.19.64-.13.54-4.19.33-8.98-4.31-17.35-.36-.64-.82-1.23-1.4-1.68-.01,0-.03-.02-.04-.03-.94-.71-2.28.05-2.19,1.23Z"/>
        <g>
          <path class="cls-56" d="M676.57,159.01c-.12-.02-.23-.04-.34-.07-.59-.14-1.13-.28-1.63-.45-.45-1.41-.95-2.8-1.5-4.17-.19-.46-.37-.92-.57-1.37-.15-.35-.3-.69-.46-1.03-.15-.35-.31-.69-.47-1.03-.34-.72-.69-1.43-1.06-2.13-1.09-2.09-2.31-4.11-3.63-6.06-.56-.83-1.14-1.64-1.74-2.45h-.01c-.21-.28-.4-.54-.61-.8h-.01c-.24-.33-.49-.63-.74-.95,0,0-.01,0-.01-.01-.06-.07-.11-.13-.17-.21-2.06-2.51-4.31-4.87-6.73-7.03-.09-.08-.17-.16-.27-.23h-.01c-.39-.37-.81-.73-1.23-1.07t-.01-.01c-.06-.06-.12-.11-.2-.16-1.24-1.05-2.53-2.03-3.86-2.97-1.32-.92-2.68-1.79-4.07-2.62-1.01-.6-2.05-1.16-3.1-1.7-1.15-.59-2.33-1.14-3.53-1.65-.11-.05-.22-.1-.33-.14-.43-.18-.73-.61-.58-1.09.13-.41.65-.76,1.09-.58.16.06.31.13.46.2,1.49.64,2.92,1.33,4.35,2.08h.01c.95.5,1.9,1.04,2.83,1.59,2.31,1.38,4.53,2.91,6.65,4.58,1.08.85,2.13,1.73,3.15,2.65.59.54,1.18,1.08,1.75,1.64,1.2,1.16,2.35,2.38,3.45,3.63,1.01,1.13,1.97,2.3,2.88,3.5,1.88,2.47,3.59,5.06,5.09,7.78v.02c.61,1.09,1.18,2.2,1.71,3.34.03.05.06.11.09.16.05.11.1.21.14.31.28.59.54,1.19.8,1.79.2.46.39.93.58,1.39.69,1.75,1.31,3.52,1.84,5.32Z"/>
          <path class="cls-56" d="M635.2,114.91h0c-1.32-.54-2.86-.71-3.93-.13-1.21.66-1.56,2.2-.97,3.55.59,1.35,1.99,2.47,3.5,3.02,1.52.55,3.13.58,4.56.27,1.28-.27,3.99-.99,2.68-2.74-.56-.75-1.76-1.37-2.54-1.94-1.04-.76-2.1-1.53-3.31-2.03Z"/>
          <path class="cls-56" d="M639.26,123.34h0c-1.35.48-2.61,1.38-3.02,2.52-.47,1.3.31,2.67,1.65,3.29,1.34.61,3.13.52,4.62-.09,1.5-.6,2.72-1.66,3.58-2.84.77-1.05,2.31-3.4.17-3.83-.91-.18-2.23.15-3.19.24-1.28.12-2.59.26-3.81.7Z"/>
          <path class="cls-56" d="M645.41,115.66h0c.2-1.42.83-2.83,1.87-3.46,1.18-.71,2.68-.24,3.55.96.87,1.19,1.13,2.96.84,4.55-.29,1.59-1.08,2.99-2.06,4.08-.88.97-2.87,2.95-3.72.93-.36-.86-.3-2.22-.4-3.17-.14-1.28-.26-2.59-.08-3.88Z"/>
          <path class="cls-56" d="M648.82,130.77h0c-1.35.48-2.61,1.38-3.02,2.52-.47,1.3.31,2.67,1.65,3.29,1.34.61,3.13.52,4.62-.09,1.5-.6,2.72-1.66,3.58-2.84.77-1.05,2.31-3.4.17-3.83-.91-.18-2.23.15-3.19.24-1.28.12-2.59.26-3.81.7Z"/>
          <path class="cls-56" d="M654.97,123.1h0c.2-1.42.83-2.83,1.87-3.46,1.18-.71,2.68-.24,3.55.96.87,1.19,1.13,2.96.84,4.55-.29,1.59-1.08,2.99-2.06,4.08-.88.97-2.87,2.95-3.72.93-.36-.86-.3-2.22-.4-3.17-.14-1.28-.26-2.59-.08-3.88Z"/>
          <path class="cls-56" d="M657.23,139.27h0c-1.35.48-2.61,1.38-3.02,2.52-.47,1.3.31,2.67,1.65,3.29,1.34.61,3.13.52,4.62-.09,1.5-.6,2.72-1.66,3.58-2.84.77-1.05,2.31-3.4.17-3.83-.91-.18-2.23.15-3.19.24-1.28.12-2.59.26-3.81.7Z"/>
          <path class="cls-56" d="M663.37,131.6h0c.2-1.42.83-2.83,1.87-3.46,1.18-.71,2.68-.24,3.55.96.87,1.19,1.13,2.96.84,4.55-.29,1.59-1.08,2.99-2.06,4.08-.88.97-2.87,2.95-3.72.93-.36-.86-.3-2.22-.4-3.17-.14-1.28-.26-2.59-.08-3.88Z"/>
          <path class="cls-56" d="M664.9,149.22h0c-1.39.36-2.71,1.15-3.22,2.26-.57,1.25.08,2.69,1.36,3.42,1.28.72,3.07.78,4.62.31,1.54-.47,2.85-1.42,3.81-2.52.86-.99,2.59-3.19.49-3.8-.9-.26-2.23-.04-3.2-.03-1.29.01-2.6.04-3.86.37Z"/>
          <path class="cls-56" d="M671.67,142.1h0c.32-1.4,1.06-2.75,2.16-3.29,1.23-.61,2.69,0,3.46,1.25.77,1.26.88,3.05.45,4.6-.42,1.56-1.33,2.89-2.4,3.89-.96.89-3.11,2.69-3.78.61-.29-.89-.11-2.23-.13-3.2-.03-1.29-.04-2.6.25-3.87Z"/>
        </g>
        <g>
          <path class="cls-65" d="M699.3,92.37c.86-.95,1.31-2.38.77-3.54-.45-.96-1.43-1.52-2.36-2.02-.92-.49-1.83-.99-2.75-1.48-.08-.04-.18-.09-.27-.06-.12.05-.14.21-.14.33,0,1.29,0,2.59.01,3.88h0c0,1.32-.01,3.55,1.33,4.33,1.13.66,2.68-.66,3.4-1.46Z"/>
          <path class="cls-65" d="M700.19,94.35c.73,1.05,2.02,1.82,3.27,1.55,1.03-.22,1.8-1.05,2.5-1.84.69-.78,1.38-1.56,2.07-2.34.06-.07.13-.16.11-.25-.02-.13-.17-.18-.29-.21-1.26-.29-2.52-.58-3.78-.87h0c-1.28-.29-3.46-.82-4.52.31-.9.95.03,2.76.65,3.64Z"/>
          <path class="cls-65" d="M697.36,94.92c-.82-.98-2.18-1.63-3.4-1.25-1.01.31-1.7,1.21-2.32,2.06-.62.84-1.23,1.68-1.85,2.52-.06.08-.11.17-.09.26.03.12.18.16.31.18,1.28.17,2.56.35,3.85.52h0c1.3.18,3.52.5,4.48-.72.81-1.03-.28-2.75-.97-3.57Z"/>
          <path class="cls-47" d="M720.3,107.86s-.01.03-.01.05c-.04.08-.08.15-.13.22-.1.13-.24.24-.42.31-.01,0-.02,0-.03.01-.17.07-.34.14-.5.21-.23.1-.45.2-.67.3-.12.05-.24.11-.36.17-.08.03-.17.08-.25.12-.22.11-.44.22-.66.33-.19.1-.38.2-.56.31-.69.38-1.36.79-2.01,1.23-1.98,1.34-3.79,2.93-5.43,4.68-5.45,5.84-8.87,13.22-11.32,20.75-.05.15-.09.29-.14.44-.18.56-.36,1.12-.52,1.69-.95,3.06-1.79,6.16-2.63,9.26-.28,1.02-.55,2.03-.84,3.04-.21.77-.42,1.54-.64,2.3-.01.05-.02.09-.04.13-.53,1.86-1.09,3.71-1.7,5.55-.03.12-.07.23-.11.34-.65.1-1.33.19-2.05.26.28-.81.55-1.62.8-2.44.39-1.2.75-2.41,1.09-3.62.06-.19.11-.38.16-.57.02-.06.04-.12.05-.18.25-.86.49-1.73.73-2.59.21-.76.41-1.52.62-2.28,1.84-6.79,3.66-13.66,6.56-20.07t0-.01s.03-.08.06-.11c.33-.76.69-1.52,1.07-2.27.27-.53.55-1.07.85-1.6.01-.01,0-.01,0-.01.24-.44.49-.88.74-1.31,2.63-4.49,5.97-8.62,10.07-11.77.75-.59,1.52-1.13,2.32-1.63.12-.08.24-.16.36-.22.14-.1.29-.19.43-.27.93-.55,1.88-1.05,2.87-1.49.04-.03.09-.05.13-.06.14-.07.29-.13.43-.18.12-.06.24-.11.37-.16.07-.03.14-.06.21-.09.02-.01.03-.01.05-.01.8-.28,1.28.58,1.05,1.24Z"/>
          <path class="cls-47" d="M701.22,127.83c1.21-4.42-2.01-8.23-2.24-12.52-.22-4.03,1.72-7.81,2.58-11.66.5-2.22.64-4.51,0-6.72-.34-1.17-2.15-.63-1.81.54,1.1,3.79-.57,7.67-1.63,11.27-.55,1.87-1.01,3.8-1.05,5.76-.04,2.13.58,4.13,1.28,6.12.76,2.16,1.66,4.45,1.03,6.76-.32,1.18,1.51,1.63,1.83.46h0Z"/>
          <path class="cls-47" d="M701.15,127.54c-.14-1.89-1.45-3.33-3.09-4.17-1.82-.92-3.88-.98-5.79-1.63-3.09-1.05-4.89-4.52-4.05-7.65.32-1.18-1.52-1.63-1.83-.46-.91,3.38.58,7.1,3.48,9.03,1.75,1.17,3.88,1.32,5.86,1.85,1.48.4,3.41,1.32,3.55,3.07.09,1.21,1.98,1.17,1.89-.04h0Z"/>
          <g>
            <path class="cls-68" d="M697.44,91.99c-.36-1.23-1.33-2.37-2.6-2.52-1.05-.12-2.05.42-2.96.94-.9.52-1.8,1.04-2.71,1.55-.08.05-.17.11-.19.2-.02.13.1.23.21.29,1.1.68,2.2,1.36,3.31,2.04h0c1.12.69,3.01,1.88,4.39,1.15,1.16-.62.85-2.63.56-3.66Z"/>
            <path class="cls-69" d="M697.67,91.92c-.46-1.5-1.75-2.86-3.43-2.69-.96.1-1.81.6-2.63,1.07-.47.27-.95.55-1.42.82-.24.14-.47.27-.71.41-.2.11-.48.22-.63.4-.15.19-.13.42.03.59.13.15.33.24.49.34.29.18.57.35.86.53.84.52,1.67,1.04,2.51,1.55,1.19.72,2.98,1.74,4.35.88,1.23-.78.91-2.72.58-3.89-.08-.3-.55-.16-.46.14.25.9.54,2.27-.09,3.08-.85,1.1-2.68.2-3.59-.31-1.34-.75-2.62-1.6-3.93-2.4,0,0-.28-.16-.29-.18-.02-.13.04-.08.13-.16.16-.13.39-.23.57-.33.38-.22.76-.44,1.14-.65.74-.43,1.49-.92,2.3-1.21.84-.3,1.72-.28,2.47.25.64.46,1.07,1.16,1.3,1.91.09.3.55.16.46-.14Z"/>
          </g>
          <g>
            <path class="cls-68" d="M698.27,91.47c-.53-1.16-.54-2.66.33-3.61.71-.78,1.82-1.02,2.86-1.22,1.02-.2,2.04-.39,3.06-.59.09-.02.2-.03.27.03.1.08.07.24.03.36-.39,1.23-.78,2.47-1.18,3.7h0c-.4,1.25-1.05,3.39-2.57,3.74-1.28.29-2.36-1.43-2.81-2.41Z"/>
            <path class="cls-69" d="M698.5,91.4c-.61-1.38-.48-3.1.95-3.9.66-.36,1.42-.5,2.15-.64.9-.17,1.8-.35,2.7-.52.06-.01.3-.07.32-.06,0,0-.03.1-.03.1.03.14-.16.5-.2.64-.14.45-.29.9-.43,1.35-.23.71-.45,1.43-.68,2.14-.34,1.05-.79,2.4-1.82,2.96-1.39.76-2.49-1.09-2.98-2.14-.13-.28-.54-.03-.41.25.51,1.09,1.53,2.75,2.96,2.54,1.43-.22,2.13-1.82,2.56-3.02.27-.77.51-1.55.75-2.33.17-.52.33-1.04.5-1.57.1-.32.44-.93.17-1.26-.24-.28-.68-.11-.99-.05-.54.1-1.07.21-1.61.31-.95.18-1.95.31-2.84.7-.83.36-1.47.97-1.75,1.84s-.16,1.92.22,2.78c.12.28.59.15.46-.14Z"/>
          </g>
          <path class="cls-65" d="M699.79,95.58c-1.1.65-1.96,1.88-1.8,3.15.14,1.05.91,1.88,1.65,2.63.73.75,1.45,1.49,2.18,2.24.07.07.15.14.24.13.13-.01.19-.16.23-.28.38-1.24.77-2.47,1.15-3.71h0c.39-1.26,1.08-3.39.03-4.53-.88-.97-2.75-.18-3.68.37Z"/>
          <path class="cls-65" d="M686.08,110.95c.86-.95,1.31-2.38.77-3.54-.45-.96-1.43-1.52-2.36-2.02-.92-.49-1.83-.99-2.75-1.48-.08-.04-.18-.09-.27-.06-.12.05-.14.21-.14.33,0,1.29,0,2.59.01,3.88h0c0,1.32-.01,3.55,1.33,4.33,1.13.66,2.68-.66,3.4-1.46Z"/>
          <path class="cls-65" d="M686.97,112.92c.73,1.05,2.02,1.82,3.27,1.55,1.03-.22,1.8-1.05,2.5-1.84.69-.78,1.38-1.56,2.07-2.34.06-.07.13-.16.11-.25-.02-.13-.17-.18-.29-.21-1.26-.29-2.52-.58-3.78-.87h0c-1.28-.29-3.46-.82-4.52.31-.9.95.03,2.76.65,3.64Z"/>
          <path class="cls-65" d="M684.13,113.49c-.82-.98-2.18-1.63-3.4-1.25-1.01.31-1.7,1.21-2.32,2.06-.62.84-1.23,1.68-1.85,2.52-.06.08-.11.17-.09.26.03.12.18.16.31.18,1.28.17,2.56.35,3.85.52h0c1.3.18,3.52.5,4.48-.72.81-1.03-.28-2.75-.97-3.57Z"/>
          <path class="cls-65" d="M686.57,114.15c-1.1.65-1.96,1.88-1.8,3.15.14,1.05.91,1.88,1.65,2.63.73.75,1.45,1.49,2.18,2.24.07.07.15.14.24.13.13-.01.19-.16.23-.28.38-1.24.77-2.47,1.15-3.71h0c.39-1.26,1.08-3.39.03-4.53-.88-.97-2.75-.18-3.68.37Z"/>
          <path class="cls-65" d="M721.59,104.49c.86-.95,1.31-2.38.77-3.54-.45-.96-1.43-1.52-2.36-2.02-.92-.49-1.83-.99-2.75-1.48-.08-.04-.18-.09-.27-.06-.12.05-.14.21-.14.33,0,1.29,0,2.59.01,3.88h0c0,1.32-.01,3.55,1.33,4.33,1.13.66,2.68-.66,3.4-1.46Z"/>
          <path class="cls-65" d="M722.48,106.46c.73,1.05,2.02,1.82,3.27,1.55,1.03-.22,1.8-1.05,2.5-1.84.69-.78,1.38-1.56,2.07-2.34.06-.07.13-.16.11-.25-.02-.13-.17-.18-.29-.21-1.26-.29-2.52-.58-3.78-.87h0c-1.28-.29-3.46-.82-4.52.31-.9.95.03,2.76.65,3.64Z"/>
          <path class="cls-65" d="M719.65,107.03c-.82-.98-2.18-1.63-3.4-1.25-1.01.31-1.7,1.21-2.32,2.06-.62.84-1.23,1.68-1.85,2.52-.06.08-.11.17-.09.26.03.12.18.16.31.18,1.28.17,2.56.35,3.85.52h0c1.3.18,3.52.5,4.48-.72.81-1.03-.28-2.75-.97-3.57Z"/>
          <path class="cls-65" d="M722.09,107.69c-1.1.65-1.96,1.88-1.8,3.15.14,1.05.91,1.88,1.65,2.63.73.75,1.45,1.49,2.18,2.24.07.07.15.14.24.13.13-.01.19-.16.23-.28.38-1.24.77-2.47,1.15-3.71h0c.39-1.26,1.08-3.39.03-4.53-.88-.97-2.75-.18-3.68.37Z"/>
          <g>
            <path class="cls-68" d="M700.05,99.43c.18,1.27-.24,2.71-1.34,3.37-.9.54-2.04.46-3.09.35-1.04-.1-2.07-.2-3.11-.31-.09,0-.2-.03-.25-.1-.07-.11,0-.25.07-.35.73-1.07,1.45-2.14,2.18-3.21h0c.74-1.09,1.97-2.96,3.52-2.85,1.31.09,1.86,2.04,2.01,3.11Z"/>
            <path class="cls-69" d="M699.81,99.44c.18,1.43-.37,3.02-1.88,3.43-.77.21-1.6.11-2.38.04-.93-.09-1.86-.18-2.79-.27-.32-.03-.28.01-.11-.25.11-.17.23-.34.35-.51.26-.39.52-.77.78-1.16.42-.62.84-1.25,1.27-1.87.65-.94,1.65-2.35,2.96-2.27,1.24.07,1.67,1.89,1.81,2.87.05.3.53.3.48-.01-.17-1.13-.56-2.73-1.73-3.22-1.42-.6-2.78.83-3.54,1.84-.5.66-.95,1.36-1.41,2.04-.32.47-.64.94-.96,1.41-.21.31-.7.79-.65,1.19.05.35.4.38.68.41.62.06,1.24.12,1.86.18,1.01.1,2.06.28,3.08.13,1.96-.29,2.91-2.14,2.67-3.99-.04-.3-.52-.3-.48.01Z"/>
          </g>
          <g>
            <path class="cls-68" d="M700.94,98.07c.37,1.23,1.35,2.36,2.63,2.5,1.05.12,2.04-.44,2.95-.97.9-.53,1.8-1.05,2.69-1.58.08-.05.17-.11.19-.2.02-.13-.1-.22-.21-.29-1.11-.67-2.22-1.34-3.32-2.01h0c-1.13-.68-3.03-1.86-4.4-1.12-1.15.63-.83,2.63-.52,3.66Z"/>
            <path class="cls-69" d="M700.7,98.14c.47,1.5,1.77,2.85,3.46,2.67.96-.1,1.81-.61,2.62-1.09.47-.28.94-.55,1.42-.83.24-.14.47-.28.71-.42.2-.12.48-.22.62-.41.15-.19.12-.42-.03-.59-.13-.15-.33-.23-.49-.33-.29-.17-.58-.35-.87-.52-.84-.51-1.68-1.02-2.53-1.53-1.19-.71-3-1.72-4.36-.85-1.23.79-.89,2.73-.55,3.89.09.3.55.16.46-.14-.26-.9-.55-2.24.04-3.06.82-1.14,2.69-.25,3.61.26,1.34.74,2.64,1.58,3.95,2.37,0,0,.29.15.29.17.02.13-.03.08-.12.16-.16.13-.39.23-.57.33-.38.22-.76.44-1.13.66-.74.43-1.48.93-2.29,1.23-.84.31-1.72.3-2.47-.22-.65-.45-1.08-1.15-1.31-1.9-.09-.3-.56-.16-.46.14Z"/>
          </g>
          <circle class="cls-70" cx="699.18" cy="94.88" r="2.6"/>
          <g>
            <path class="cls-68" d="M683.93,110.06c-.36-1.23-1.34-2.36-2.61-2.51-1.05-.12-2.04.43-2.96.95-.9.52-1.8,1.04-2.7,1.56-.08.05-.17.11-.19.2-.02.13.1.22.21.29,1.1.67,2.21,1.35,3.31,2.02h0c1.12.69,3.02,1.87,4.39,1.14,1.16-.62.85-2.63.54-3.66Z"/>
            <path class="cls-69" d="M684.16,109.99c-.46-1.5-1.76-2.86-3.44-2.68-.96.1-1.81.6-2.63,1.07-.47.27-.95.55-1.42.82-.24.14-.47.27-.71.41-.2.12-.48.22-.62.4s-.12.42.03.59c.13.15.33.24.49.34.29.18.58.35.86.53.84.51,1.68,1.03,2.52,1.54,1.19.71,2.99,1.73,4.35.87,1.23-.78.9-2.72.57-3.89-.09-.3-.55-.16-.46.14.26.9.55,2.27-.08,3.08-.85,1.1-2.67.21-3.59-.3-1.34-.74-2.63-1.59-3.94-2.39,0,0-.29-.15-.29-.18-.02-.13.04-.08.13-.16.16-.13.39-.23.57-.33.38-.22.76-.44,1.14-.66.74-.43,1.48-.92,2.29-1.21.84-.3,1.72-.29,2.47.24.64.45,1.07,1.16,1.3,1.9.09.3.55.16.46-.14Z"/>
          </g>
          <g>
            <path class="cls-68" d="M684.76,109.54c-.54-1.16-.54-2.66.32-3.61.71-.78,1.82-1.02,2.85-1.23,1.02-.2,2.04-.4,3.06-.6.09-.02.2-.03.27.03.1.08.07.24.03.36-.39,1.23-.78,2.47-1.16,3.7h0c-.39,1.26-1.04,3.4-2.56,3.74-1.28.29-2.37-1.42-2.82-2.4Z"/>
            <path class="cls-69" d="M684.99,109.47c-.61-1.37-.49-3.1.94-3.9.63-.35,1.37-.5,2.07-.64.9-.18,1.8-.35,2.7-.53.08-.02.23-.08.31-.06l.09-.02c-.02.08-.05.16-.08.24-.06.19-.12.38-.18.57-.15.47-.3.95-.45,1.42-.21.68-.42,1.36-.64,2.04-.34,1.04-.79,2.41-1.84,2.95-1.38.71-2.46-1.12-2.95-2.15-.13-.28-.54-.03-.41.25.51,1.09,1.54,2.75,2.97,2.53,1.43-.22,2.13-1.83,2.55-3.03.27-.77.5-1.56.74-2.33.16-.52.33-1.04.49-1.57.1-.32.44-.94.16-1.26-.24-.28-.68-.1-.99-.05-.53.1-1.07.21-1.6.31-.95.19-1.95.31-2.84.71-.82.36-1.47.98-1.74,1.85-.29.91-.15,1.92.23,2.78.12.28.59.14.46-.14Z"/>
          </g>
          <g>
            <path class="cls-68" d="M686.57,117.5c.19,1.27-.23,2.71-1.33,3.37-.9.55-2.04.46-3.09.37-1.04-.1-2.07-.2-3.11-.29-.09,0-.2-.02-.25-.1-.07-.11,0-.25.07-.35.72-1.07,1.44-2.15,2.17-3.22h0c.73-1.09,1.96-2.96,3.52-2.86,1.31.08,1.86,2.04,2.02,3.1Z"/>
            <path class="cls-69" d="M686.32,117.5c.19,1.43-.36,3.02-1.87,3.44-.77.21-1.6.12-2.38.05-.93-.09-1.86-.17-2.8-.27-.32-.03-.28.01-.11-.25.11-.17.23-.34.35-.52.26-.39.52-.77.78-1.16.42-.63.84-1.26,1.27-1.88.65-.94,1.64-2.35,2.95-2.28,1.24.07,1.67,1.89,1.82,2.87.05.3.53.3.48-.01-.17-1.13-.57-2.73-1.74-3.22-1.42-.59-2.77.84-3.53,1.86-.5.66-.94,1.36-1.4,2.05-.32.47-.64.94-.95,1.42-.21.31-.7.8-.65,1.2.05.35.4.38.68.41.62.06,1.24.12,1.86.18,1.01.1,2.06.27,3.08.12,1.96-.29,2.9-2.15,2.66-4-.04-.3-.52-.3-.48.01Z"/>
          </g>
          <g>
            <path class="cls-68" d="M687.45,116.13c.37,1.23,1.36,2.35,2.63,2.49,1.05.11,2.04-.44,2.95-.98.9-.53,1.79-1.06,2.69-1.59.08-.05.17-.11.19-.2.02-.13-.11-.22-.22-.29-1.11-.67-2.22-1.33-3.33-2h0c-1.13-.68-3.04-1.85-4.4-1.1-1.15.63-.82,2.64-.51,3.67Z"/>
            <path class="cls-69" d="M687.21,116.2c.48,1.5,1.78,2.84,3.46,2.65.96-.11,1.81-.62,2.62-1.1.47-.28.94-.56,1.41-.83.24-.14.47-.28.71-.42.2-.12.48-.22.62-.41s.12-.42-.03-.59c-.13-.15-.33-.23-.5-.33-.29-.17-.58-.35-.87-.52-.84-.51-1.68-1.02-2.53-1.52-1.19-.7-3.01-1.71-4.36-.83-1.22.79-.88,2.73-.54,3.89.09.3.55.16.46-.14-.26-.9-.56-2.23.03-3.06.82-1.15,2.69-.26,3.61.24,1.35.73,2.64,1.57,3.96,2.36,0,0,.29.15.29.17.02.13-.03.08-.12.16-.15.13-.39.23-.57.33-.38.22-.75.45-1.13.67-.74.44-1.48.94-2.28,1.24-.84.31-1.71.31-2.47-.21-.65-.45-1.08-1.15-1.32-1.89-.09-.3-.56-.16-.46.14Z"/>
          </g>
          <circle class="cls-70" cx="685.68" cy="112.95" r="2.6"/>
          <g>
            <path class="cls-68" d="M722.88,103.98c1.09-.68,1.91-1.93,1.71-3.19-.17-1.04-.96-1.85-1.72-2.59-.74-.73-1.49-1.45-2.23-2.18-.07-.07-.15-.14-.24-.13-.13.01-.19.16-.22.28-.35,1.25-.7,2.49-1.06,3.74h0c-.36,1.27-.99,3.41.09,4.53.91.95,2.76.11,3.67-.46Z"/>
            <path class="cls-69" d="M723,104.19c1.37-.88,2.3-2.54,1.61-4.14-.36-.85-1.05-1.5-1.69-2.13-.35-.34-.71-.69-1.06-1.03-.2-.19-.39-.38-.59-.57-.18-.18-.37-.43-.59-.56-.78-.47-.95,1.08-1.07,1.51-.27.96-.55,1.92-.81,2.88-.36,1.3-.84,3.07.05,4.27,1.01,1.36,3.01.48,4.15-.22.26-.16.01-.57-.25-.41-.82.51-2.34,1.31-3.25.61-1.04-.79-.64-2.55-.37-3.61.16-.62.34-1.24.52-1.86.23-.83.41-1.71.71-2.52.11-.3.15-.16.35.03.14.13.27.27.41.4.33.32.67.65,1,.97.56.55,1.16,1.08,1.63,1.71.51.69.78,1.5.53,2.34-.23.81-.83,1.48-1.53,1.93-.26.17,0,.58.25.41Z"/>
          </g>
          <g>
            <path class="cls-68" d="M723.6,104.65c.97-.83,2.42-1.24,3.56-.67.94.47,1.48,1.48,1.95,2.42.47.93.94,1.86,1.4,2.79.04.08.09.18.05.27-.05.12-.21.13-.34.13-1.29-.04-2.59-.08-3.88-.12h0c-1.32-.04-3.55-.09-4.3-1.45-.63-1.15.73-2.66,1.55-3.36Z"/>
            <path class="cls-69" d="M723.77,104.81c1.17-.97,2.89-1.24,4.01-.06.48.51.81,1.15,1.12,1.77.41.81.81,1.61,1.22,2.42.03.06.1.15.11.22.04.27-.04.14-.18.17-.2.04-.47-.01-.67-.02-.48-.01-.96-.03-1.43-.04-.7-.02-1.4-.04-2.1-.07-1.07-.04-2.41-.11-3.24-.88-1.22-1.13.27-2.73,1.17-3.51.23-.2-.12-.53-.35-.33-.94.81-2.3,2.32-1.58,3.65.67,1.24,2.36,1.45,3.62,1.53.86.05,1.72.06,2.58.09l1.69.05c.31,0,.83.12,1.03-.21.19-.31-.12-.71-.26-.98-.27-.54-.54-1.08-.81-1.61-.41-.81-.78-1.66-1.36-2.37-1.31-1.59-3.41-1.38-4.9-.16-.24.2.11.53.35.33Z"/>
          </g>
          <g>
            <path class="cls-68" d="M716.43,108.53c-1.17.52-2.67.51-3.6-.37-.77-.72-1-1.83-1.18-2.87-.18-1.02-.37-2.05-.55-3.07-.02-.09-.03-.2.03-.27.08-.1.24-.07.36-.03,1.23.41,2.46.81,3.69,1.22h0c1.25.41,3.38,1.09,3.71,2.61.27,1.28-1.46,2.34-2.44,2.78Z"/>
            <path class="cls-69" d="M716.36,108.3c-1.36.58-3.07.45-3.85-.95-.37-.65-.5-1.41-.63-2.13-.16-.9-.33-1.8-.49-2.71-.01-.07-.1-.36-.07-.4-.02.03.42.04.1.04.19,0,.46.15.64.21.45.15.9.3,1.35.44.72.24,1.45.47,2.17.72,1.04.36,2.44.84,2.94,1.92.63,1.37-1.2,2.41-2.22,2.87-.28.13-.03.54.25.41,1.09-.49,2.75-1.49,2.57-2.9-.18-1.43-1.77-2.16-2.96-2.6-.78-.29-1.58-.53-2.37-.8-.52-.17-1.04-.34-1.56-.52-.33-.11-.92-.45-1.25-.18-.29.23-.11.69-.06.99.11.58.21,1.17.32,1.75.17.92.28,1.89.66,2.76s1,1.47,1.87,1.74,1.87.15,2.71-.21c.28-.12.15-.58-.14-.46Z"/>
          </g>
          <g>
            <path class="cls-68" d="M717.97,109.01c-1.08.69-1.9,1.94-1.68,3.21.18,1.04.98,1.84,1.74,2.57.75.72,1.5,1.44,2.25,2.16.07.07.15.14.24.13.13-.01.19-.16.22-.29.34-1.25.68-2.5,1.02-3.74h0c.35-1.27.96-3.42-.13-4.53-.92-.94-2.76-.08-3.67.5Z"/>
            <path class="cls-69" d="M717.85,108.81c-1.35.89-2.28,2.54-1.59,4.13.36.83,1.03,1.47,1.67,2.09.38.36.75.72,1.13,1.08s.74.82,1.16,1.11c.78.52.94-1,1.06-1.42.27-.97.54-1.95.8-2.92.36-1.32.84-3.11-.08-4.32-1.02-1.35-3.01-.46-4.14.25-.26.16-.01.58.25.41.83-.52,2.39-1.36,3.3-.6.99.83.6,2.55.34,3.62-.16.63-.34,1.26-.51,1.89-.11.41-.22.81-.33,1.22-.05.19-.1.38-.16.57s-.09.57-.2.73c-.13.18-.17.04-.32-.1s-.32-.3-.47-.45c-.32-.3-.63-.61-.95-.91-.56-.54-1.17-1.07-1.64-1.69-.52-.68-.79-1.49-.56-2.34.23-.81.82-1.48,1.51-1.94.26-.17,0-.58-.25-.41Z"/>
          </g>
          <circle class="cls-70" cx="720.57" cy="106.46" r="2.6"/>
        </g>
        <g>
          <path class="cls-57" d="M730.15,134.53c0,.5-.42.81-.88.85-.12.01-.25.02-.37.04-1.3.12-2.59.28-3.87.49-1.17.19-2.32.42-3.48.68-1.57.36-3.14.78-4.68,1.26-1.56.48-3.09,1.03-4.6,1.64-.08.03-.16.06-.24.1-.51.2-1.01.41-1.51.63-.11.05-.23.1-.34.15-2.98,1.32-5.85,2.88-8.58,4.65-.08.05-.16.1-.24.16-.34.22-.67.44-1,.66-.28.2-.56.39-.84.59-.82.58-1.62,1.17-2.41,1.79-1.13.88-2.23,1.8-3.29,2.76-.69.62-1.37,1.26-2.03,1.91l-.09.09c-.18.17-.36.35-.53.52-.62.63-1.23,1.28-1.82,1.94-1.26,1.38-2.45,2.82-3.57,4.32-.35.02-.7.02-1.05.02h-.7c-.14,0-.28,0-.42-.01,1.51-2.13,3.17-4.16,4.95-6.07.12-.13.24-.26.36-.38.2-.22.4-.42.6-.63.67-.7,1.36-1.38,2.07-2.05.17-.16.34-.32.52-.48.83-.76,1.68-1.5,2.55-2.22,1.35-1.11,2.75-2.17,4.18-3.16,1.24-.87,2.51-1.69,3.81-2.47,1.44-.86,2.91-1.66,4.41-2.4.72-.35,1.44-.69,2.17-1.02,1.26-.57,2.54-1.09,3.83-1.57,2.53-.95,5.12-1.73,7.75-2.33,1.06-.25,2.12-.46,3.19-.65,1.58-.28,3.18-.5,4.78-.65.17-.02.35-.03.52-.05.47-.04.86.45.85.89Z"/>
          <path class="cls-57" d="M735.9,131.42h0c1.43-.11,2.95.2,3.79,1.08.95,1,.81,2.57-.17,3.68-.98,1.11-2.65,1.75-4.27,1.81-1.62.06-3.16-.41-4.44-1.14-1.14-.65-3.51-2.17-1.72-3.44.76-.54,2.1-.77,3.02-1.08,1.23-.41,2.47-.82,3.78-.92Z"/>
          <path class="cls-57" d="M729.43,138.22h0c1.14.87,2.07,2.11,2.11,3.33.05,1.38-1.11,2.46-2.58,2.63-1.47.17-3.14-.47-4.39-1.5-1.24-1.03-2.08-2.42-2.55-3.81-.42-1.24-1.17-3.95,1.01-3.71.93.11,2.08.83,2.97,1.21,1.19.51,2.39,1.04,3.43,1.83Z"/>
          <path class="cls-57" d="M725.92,129.01h0c.25-1.41.08-2.95-.72-3.88-.9-1.04-2.49-1.05-3.68-.18-1.19.87-1.99,2.48-2.2,4.08-.21,1.6.11,3.19.72,4.52.54,1.19,1.83,3.69,3.26,2.03.61-.71.96-2.02,1.35-2.91.52-1.18,1.04-2.39,1.27-3.68Z"/>
          <path class="cls-57" d="M718.03,142.38h0c1.14.87,2.07,2.11,2.11,3.33.05,1.38-1.11,2.46-2.58,2.63-1.47.17-3.14-.47-4.39-1.5-1.24-1.03-2.08-2.42-2.55-3.81-.42-1.24-1.17-3.95,1.01-3.71.93.11,2.08.83,2.97,1.21,1.19.51,2.39,1.04,3.43,1.83Z"/>
          <path class="cls-57" d="M714.52,133.17h0c.25-1.41.08-2.95-.72-3.88-.9-1.04-2.49-1.05-3.68-.18-1.19.87-1.99,2.48-2.2,4.08-.21,1.6.11,3.19.72,4.52.54,1.19,1.83,3.69,3.26,2.03.61-.71.96-2.02,1.35-2.91.52-1.18,1.04-2.39,1.27-3.68Z"/>
          <path class="cls-57" d="M707.4,147.92h0c1.14.87,2.07,2.11,2.11,3.33.05,1.38-1.11,2.46-2.58,2.63-1.47.17-3.14-.47-4.39-1.5-1.24-1.03-2.08-2.42-2.55-3.81-.42-1.24-1.17-3.95,1.01-3.71.93.11,2.08.83,2.97,1.21,1.19.51,2.39,1.04,3.43,1.83Z"/>
          <path class="cls-57" d="M703.89,138.71h0c.25-1.41.08-2.95-.72-3.88-.9-1.04-2.49-1.05-3.68-.18-1.19.87-1.99,2.48-2.2,4.08-.21,1.6.11,3.19.72,4.52.54,1.19,1.83,3.69,3.26,2.03.61-.71.96-2.02,1.35-2.91.52-1.18,1.04-2.39,1.27-3.68Z"/>
          <path class="cls-57" d="M697.03,155.06h0c1.21.77,2.24,1.93,2.38,3.14.16,1.37-.9,2.54-2.35,2.84-1.45.3-3.17-.2-4.5-1.12-1.33-.92-2.28-2.23-2.86-3.58-.52-1.2-1.5-3.84.69-3.78.93.03,2.14.65,3.06.96,1.23.41,2.47.83,3.57,1.54Z"/>
          <path class="cls-57" d="M692.75,146.18h0c.12-1.43-.17-2.95-1.05-3.8-.99-.96-2.57-.83-3.68.14-1.12.97-1.77,2.64-1.84,4.26-.07,1.62.38,3.17,1.1,4.45.64,1.14,2.14,3.52,3.42,1.75.55-.76.79-2.1,1.1-3.01.42-1.22.84-2.47.95-3.77Z"/>
        </g>
        <g>
          <path class="cls-48" d="M681.76,152.53c-.18.5-.37.99-.58,1.48-.77,1.82-1.7,3.58-2.44,5.38-.59-.08-1.16-.17-1.7-.28-.12-.02-.24-.04-.35-.07.06-.15.12-.3.18-.45.83-1.98,1.87-3.93,2.64-5.85.07-.18.14-.36.21-.54,1.58-4.22,2.12-8.57,1.68-13.05-.1-1.08-.26-2.06-.5-3.18-.23-1.08-.52-2.14-.87-3.19-.72-2.13-1.69-4.11-2.91-6.07-2.49-4.02-5.67-7.55-8.23-11.53-2.31-3.58-4.16-7.66-4.35-11.96,0-.24-.02-.48-.02-.72,0-.17,0-.34.01-.51.02-.56.45-1.02,1.02-1.02.06,0,.12.01.18.02.46.08.86.51.84,1,0,.06-.01.12,0,.18-.02.51,0,1.03.04,1.54.03.49.08.81.14,1.25.02.07.03.15.05.24.1.56.24,1.12.39,1.67.31,1.09.7,2.14,1.15,3.11.96,2.09,2.17,4.05,3.49,5.93,2.73,3.86,5.89,7.45,8.14,11.63,2.16,4.04,3.36,8.54,3.58,13.11.19,4.03-.42,8.09-1.79,11.88Z"/>
          <g>
            <path class="cls-7" d="M679.43,86.8c-2.07-1.39-5.09-1.75-8.38-1.33-.44.06-.88.18-1.3.38-2.21,1.05-1.87,1.95,0,2.75.34.14.69.24,1.05.28,3.23.4,6.38.05,8.62-1.78.09-.07.09-.23,0-.29Z"/>
            <path class="cls-35" d="M679.26,93.35c-1.54-1.96-4.29-3.25-7.55-3.87-.44-.08-.89-.1-1.35-.04-2.43.32-2.38,1.27-.85,2.62.28.24.58.44.91.6,2.95,1.38,6.04,2.03,8.75.98.11-.04.16-.19.09-.28Z"/>
            <path class="cls-36" d="M663.34,72.02c-1.43,1.56-2.26,4.06-2.53,6.9-.04.38-.02.77.05,1.15.4,2.01,1.14,1.85,2.09.37.17-.26.31-.55.41-.85.89-2.68,1.2-5.38.21-7.53-.04-.09-.16-.11-.22-.04Z"/>
            <path class="cls-34" d="M661.87,71.71c-1.2,1.75-1.67,4.34-1.54,7.19.02.38.08.77.21,1.13.68,1.94,1.39,1.67,2.12.07.13-.29.23-.59.28-.9.51-2.78.43-5.49-.85-7.49-.05-.08-.17-.08-.23,0Z"/>
            <path class="cls-40" d="M646.87,77.4c.71,2.24,2.74,4.23,5.45,5.78.36.21.76.36,1.19.45,2.28.45,2.56-.43,1.64-2.11-.17-.3-.37-.58-.61-.81-2.17-2.14-4.72-3.66-7.49-3.54-.11,0-.2.13-.17.23Z"/>
            <path class="cls-41" d="M653.3,72.85c-.57,2.26.07,5.03,1.5,7.79.19.37.44.72.75,1.02,1.65,1.61,2.33,1.02,2.44-.89.02-.34,0-.68-.08-1.01-.68-2.97-1.99-5.62-4.35-7-.09-.06-.23,0-.26.1Z"/>
            <path class="cls-39" d="M642.5,85.46c1.74,1.72,4.57,2.6,7.82,2.75.44.02.88-.02,1.32-.15,2.32-.65,2.16-1.59.5-2.7-.3-.2-.62-.35-.96-.46-3.04-.95-6.12-1.15-8.62.26-.1.06-.13.21-.05.29Z"/>
            <path class="cls-37" d="M643.67,83.86c1.66,1.73,4.42,2.84,7.6,3.37.43.07.87.08,1.3.03,2.3-.3,2.16-1.15.56-2.32-.29-.21-.6-.39-.93-.52-2.96-1.2-5.98-1.75-8.48-.8-.1.04-.13.17-.06.25Z"/>
            <path class="cls-38" d="M642.8,91.98c2.04,1.11,4.85,1.14,7.84.39.4-.1.79-.26,1.16-.5,1.93-1.24,1.53-2.06-.28-2.62-.32-.1-.66-.16-1-.16-3.01-.04-5.87.62-7.76,2.61-.08.08-.06.23.03.28Z"/>
            <path class="cls-20" d="M646.16,99.61c2.1-.57,4.04-2.36,5.6-4.79.21-.33.37-.69.47-1.08.53-2.08-.27-2.38-1.86-1.59-.29.14-.55.32-.78.53-2.08,1.91-3.61,4.2-3.63,6.76,0,.1.11.19.2.17Z"/>
            <path class="cls-17" d="M652.02,105.79c1.95-.97,3.49-3.11,4.54-5.81.14-.36.23-.75.25-1.15.1-2.15-.74-2.28-2.14-1.19-.25.19-.47.42-.66.68-1.66,2.29-2.71,4.84-2.22,7.35.02.1.14.17.23.12Z"/>
            <path class="cls-18" d="M670.19,104.59c.6-2.6-.33-5.62-2.23-8.56-.26-.39-.58-.76-.98-1.06-2.12-1.62-2.94-.89-2.99,1.26,0,.38.04.76.15,1.13.98,3.25,2.74,6.07,5.73,7.37.12.05.29-.02.32-.14Z"/>
            <path class="cls-19" d="M678.32,98.96c-1.71-2.28-4.77-4.15-8.41-5.48-.49-.18-1-.3-1.51-.34-2.72-.22-2.67.74-.96,2.4.31.3.65.56,1.01.79,3.28,2.02,6.74,3.33,9.76,2.89.12-.02.17-.16.1-.26Z"/>
            <path class="cls-28" d="M659.19,72.04c-.82,1.95-.75,4.59-.05,7.35.09.37.24.73.44,1.06,1.06,1.76,1.7,1.35,2.09-.36.07-.31.1-.62.09-.94-.07-2.82-.69-5.47-2.35-7.16-.07-.07-.19-.05-.22.04Z"/>
            <path class="cls-24" d="M655.41,72.91c-.5,2.26.14,5.03,1.51,7.81.18.37.42.72.71,1.03,1.55,1.63,2.18,1.05,2.25-.85.01-.34-.02-.68-.09-1.02-.67-2.98-1.94-5.65-4.14-7.07-.09-.06-.22,0-.24.09Z"/>
            <path class="cls-22" d="M668.01,72.62c-2.09,1.24-3.6,3.75-4.49,6.84-.12.42-.18.86-.16,1.3.11,2.4,1.06,2.48,2.53,1.16.26-.24.49-.51.67-.81,1.63-2.69,2.54-5.61,1.72-8.37-.03-.11-.18-.18-.27-.12Z"/>
            <path class="cls-21" d="M664.72,72.55c-1.58,1.71-2.4,4.44-2.56,7.54-.02.42.02.84.13,1.25.58,2.2,1.44,2.02,2.46.4.18-.29.33-.6.43-.93.89-2.93,1.09-5.88-.19-8.23-.05-.09-.19-.12-.26-.04Z"/>
            <path class="cls-27" d="M672.69,74.82c-2.63.45-4.97,2.52-6.78,5.47-.24.4-.43.85-.53,1.34-.53,2.64.5,3.14,2.48,2.34.35-.14.68-.34.96-.59,2.51-2.21,4.3-4.98,4.14-8.32,0-.13-.15-.27-.27-.25Z"/>
            <path class="cls-23" d="M676.12,78.56c-2.45.09-5.17,1.45-7.7,3.56-.34.28-.65.61-.89.99-1.31,1.99-.56,2.48,1.43,2.05.36-.08.7-.2,1.03-.36,2.91-1.46,5.36-3.43,6.29-6.02.04-.1-.05-.22-.16-.22Z"/>
            <path class="cls-30" d="M679.28,91.5c-1.73-2.01-4.71-3.34-8.2-4.01-.47-.09-.95-.11-1.43-.06-2.56.29-2.47,1.26-.77,2.65.3.25.64.45,1,.61,3.19,1.44,6.51,2.13,9.33,1.09.11-.04.16-.19.08-.28Z"/>
            <path class="cls-26" d="M678.83,82.71c-2.56-1.15-5.91-.86-9.38.43-.47.17-.91.42-1.32.76-2.15,1.78-1.58,2.75.64,3.25.4.09.8.12,1.2.08,3.59-.3,6.91-1.46,8.93-4.17.08-.11.04-.29-.07-.35Z"/>
            <path class="cls-29" d="M675.22,101.67c-.79-2.68-3.1-5.23-6.18-7.36-.41-.29-.87-.52-1.36-.67-2.6-.8-2.93.18-1.89,2.23.19.37.42.71.7,1.02,2.46,2.75,5.36,4.82,8.54,5.01.13,0,.23-.12.2-.24Z"/>
            <path class="cls-25" d="M677.68,95.5c-1.55-2.04-4.35-3.49-7.67-4.34-.45-.11-.91-.17-1.38-.14-2.49.13-2.45,1.08-.9,2.51.28.26.59.47.92.65,3,1.57,6.15,2.42,8.93,1.59.11-.03.16-.18.09-.27Z"/>
            <path class="cls-32" d="M667.3,104.98c.49-2.26-.32-4.91-1.95-7.48-.22-.35-.5-.66-.84-.93-1.8-1.43-2.49-.8-2.51,1.07,0,.34.04.67.14.98.86,2.84,2.36,5.32,4.89,6.47.1.05.24-.02.27-.12Z"/>
            <path class="cls-16" d="M663.48,105.55c1.06-2.05.97-4.82.07-7.73-.12-.39-.31-.77-.56-1.12-1.37-1.85-2.2-1.42-2.7.38-.09.32-.13.66-.12.99.09,2.97.9,5.75,3.04,7.52.09.07.24.05.29-.04Z"/>
            <path class="cls-33" d="M657.91,105.65c1.92-1.34,3.07-3.86,3.51-6.89.06-.41.05-.84-.04-1.27-.47-2.3-1.46-2.31-2.74-.94-.23.25-.42.52-.56.82-1.24,2.7-1.71,5.57-.47,8.18.05.11.21.16.29.1Z"/>
            <path class="cls-31" d="M661.05,106.98c1.3-1.91,1.55-4.67,1.02-7.66-.07-.4-.21-.8-.42-1.18-1.13-2-2-1.68-2.73.04-.13.31-.21.63-.24.96-.28,2.95.18,5.82,2.09,7.84.08.08.23.08.29,0Z"/>
            <path class="cls-15" d="M655.28,104.42c1.89-1.33,3.1-3.82,3.66-6.81.07-.4.09-.83.02-1.25-.35-2.27-1.28-2.28-2.57-.92-.23.24-.42.52-.57.82-1.3,2.67-1.88,5.51-.82,8.07.04.1.19.15.28.09Z"/>
            <path class="cls-9" d="M650.44,102.22c2.22-.45,4.15-2.25,5.63-4.8.2-.34.34-.73.42-1.15.39-2.25-.49-2.64-2.14-1.91-.3.13-.56.31-.8.52-2.08,1.93-3.53,4.32-3.34,7.14,0,.11.13.22.23.2Z"/>
            <path class="cls-11" d="M647.28,100.45c2.33-.05,4.61-1.53,6.57-3.84.26-.31.48-.68.63-1.09.8-2.21-.02-2.76-1.83-2.33-.32.08-.63.21-.9.38-2.46,1.58-4.36,3.74-4.66,6.63-.01.12.09.25.2.25Z"/>
            <path class="cls-12" d="M645.21,96.5c2.42.24,5.19-.81,7.85-2.66.36-.25.68-.55.95-.91,1.44-1.9.74-2.51-1.25-2.34-.36.03-.71.11-1.04.24-2.98,1.12-5.54,2.85-6.65,5.43-.05.1.03.24.14.25Z"/>
            <path class="cls-10" d="M643.19,88.87c2.09,1.59,5.18,2,8.59,1.49.46-.07.92-.21,1.35-.44,2.32-1.23,2-2.26.09-3.18-.34-.16-.7-.27-1.07-.32-3.32-.44-6.57-.03-8.95,2.11-.1.09-.1.27,0,.34Z"/>
            <path class="cls-8" d="M644.74,81.17c1.25,2.14,3.8,3.65,6.95,4.51.42.12.87.17,1.33.13,2.46-.17,2.55-1.17,1.21-2.66-.24-.27-.52-.5-.82-.68-2.73-1.63-5.72-2.5-8.55-1.59-.11.04-.18.19-.13.29Z"/>
            <path class="cls-13" d="M649.91,74.66c.06,2.35,1.46,4.83,3.62,7.07.29.3.63.56,1.02.76,2.06,1.07,2.58.3,2.16-1.57-.07-.33-.2-.66-.36-.95-1.49-2.66-3.51-4.83-6.21-5.48-.11-.03-.23.06-.23.17Z"/>
            <circle class="cls-14" cx="660.79" cy="89.03" r="8.07"/>
          </g>
        </g>
        <path class="cls-55" d="M841.33,158.43v96.65h-28.21v-96.65c0-3.85,3.12-6.98,6.97-6.98h14.26c3.85,0,6.98,3.13,6.98,6.98Z"/>
        <path class="cls-60" d="M813.12,175.15v79.93h-20.91v-79.93c0-3.85,3.12-6.97,6.97-6.97h6.97c3.85,0,6.97,3.12,6.97,6.97Z"/>
        <path class="cls-60" d="M792.21,196.88c0,.83-.15,1.68-.47,2.5l-21.48,55.7h-20.28l24.11-62.51c1.38-3.59,5.42-5.38,9.01-4l4.64,1.79c2.77,1.07,4.47,3.71,4.47,6.52Z"/>
        <rect class="cls-59" x="597.44" y="255.24" width="263.17" height="30.66" rx="5.64" ry="5.64"/>
        <path class="cls-53" d="M389.83,511.61v84.97s22.26,0,22.26,0v-84.97c0-2.75-2.23-4.98-4.97-4.98h-12.32c-2.74,0-4.97,2.23-4.97,4.98Z"/>
        <path class="cls-58" d="M367.58,515.18v81.4s22.25,0,22.25,0v-81.4c0-3.05-2.46-5.51-5.51-5.51h-11.24c-3.04,0-5.5,2.46-5.5,5.51Z"/>
        <path class="cls-67" d="M345.32,525.87v70.71s22.26,0,22.26,0v-70.71c0-2.69-2.19-4.87-4.88-4.87h-12.51c-2.69,0-4.87,2.18-4.87,4.87Z"/>
        <path class="cls-60" d="M323.06,502.9v93.68s22.26,0,22.26,0v-93.68c0-2.71-2.2-4.91-4.92-4.91h-12.43c-2.71,0-4.91,2.2-4.91,4.91Z"/>
        <path class="cls-72" d="M300.8,498.2v98.38s22.26,0,22.26,0v-98.38c0-2.31-1.87-4.19-4.18-4.19h-13.89c-2.31,0-4.19,1.88-4.19,4.19Z"/>
        <path class="cls-42" d="M278.55,510.98v85.6s22.25,0,22.25,0v-85.6c0-2.4-1.94-4.35-4.34-4.35h-13.57c-2.4,0-4.34,1.95-4.34,4.35Z"/>
        <path class="cls-58" d="M256.29,472.43v124.15s22.26,0,22.26,0v-124.15c0-2.6-2.1-4.7-4.7-4.7h-12.86c-2.6,0-4.7,2.1-4.7,4.7Z"/>
        <path class="cls-60" d="M234.03,473.32v123.26s22.26,0,22.26,0v-123.26c0-3.09-2.5-5.59-5.58-5.59h-11.09c-3.09,0-5.59,2.5-5.59,5.59Z"/>
        <path class="cls-55" d="M211.78,464.12v132.46s22.25,0,22.25,0v-132.46c0-3.25-2.63-5.88-5.87-5.88h-10.51c-3.24,0-5.87,2.63-5.87,5.88Z"/>
        <path class="cls-55" d="M189.52,463.95v132.63s22.26,0,22.26,0v-132.63c0-3.15-2.56-5.71-5.71-5.71h-10.84c-3.15,0-5.71,2.56-5.71,5.71Z"/>
        <path class="cls-53" d="M167.26,484.44v112.14s22.26,0,22.26,0v-112.14c0-3.15-2.56-5.71-5.71-5.71h-10.83c-3.16,0-5.72,2.56-5.72,5.71Z"/>
        <rect class="cls-67" x="739.68" y="607.74" width="91.8" height="17.46" rx="4.2" ry="4.2"/>
        <rect class="cls-72" x="734.07" y="625.2" width="107.11" height="19.12" rx="4.2" ry="4.2"/>
        <rect class="cls-60" x="743.83" y="644.32" width="96.35" height="19.12" rx="4.2" ry="4.2"/>
        <rect class="cls-53" x="734.07" y="663.45" width="96.35" height="19.12" rx="4.2" ry="4.2"/>
        <rect class="cls-42" x="738.21" y="682.57" width="107.58" height="19.12" rx="4.2" ry="4.2"/>
        <rect class="cls-60" x="738.21" y="701.69" width="107.58" height="19.12" rx="4.2" ry="4.2"/>
        <rect class="cls-55" x="747.17" y="720.81" width="102.22" height="19.12" rx="4.65" ry="4.65"/>
        <rect class="cls-55" x="734.07" y="739.93" width="107.58" height="19.12" rx="4.2" ry="4.2"/>
        <rect class="cls-42" x="742.77" y="759.06" width="107.58" height="19.12" rx="4.2" ry="4.2"/>
        <rect class="cls-67" x="647.84" y="677.92" width="91.8" height="17.46" rx="4.2" ry="4.2" transform="translate(-272.9 551.1) rotate(-36.72)"/>
        <rect class="cls-42" x="614.73" y="720.81" width="107.11" height="19.12" rx="4.2" ry="4.2"/>
        <rect class="cls-53" x="607.47" y="739.93" width="96.35" height="19.12" rx="4.2" ry="4.2"/>
        <rect class="cls-72" x="623.43" y="759.06" width="96.35" height="19.12" rx="4.2" ry="4.2"/>
        <path class="cls-42" d="M320.55,725.34h84.01c2.32,0,4.2,1.88,4.2,4.2v9.06c0,2.32-1.88,4.2-4.2,4.2h-84.01v-17.46h0Z" transform="translate(-369.42 1098.73) rotate(-90)"/>
        <path class="cls-60" d="M350.24,716.78h99.46c2.32,0,4.2,1.88,4.2,4.2v10.72c0,2.32-1.88,4.2-4.2,4.2h-99.46v-19.12h0Z" transform="translate(-324.27 1128.42) rotate(-90)"/>
        <path class="cls-58" d="M336.68,722.35h88.33c2.32,0,4.2,1.88,4.2,4.2v10.72c0,2.32-1.88,4.2-4.2,4.2h-88.33v-19.12h0Z" transform="translate(-348.96 1114.86) rotate(-90)"/>
        <path class="cls-72" d="M372.99,720.42h92.2c2.32,0,4.2,1.88,4.2,4.2v10.72c0,2.32-1.88,4.2-4.2,4.2h-92.2v-19.12h0Z" transform="translate(-308.78 1151.17) rotate(-90)"/>
        <path class="cls-67" d="M453.03,693.21v84.97s22.26,0,22.26,0v-84.97c0-2.75-2.23-4.98-4.97-4.98h-12.32c-2.74,0-4.97,2.23-4.97,4.98Z"/>
        <path class="cls-42" d="M497.54,696.78v81.4s22.25,0,22.25,0v-81.4c0-3.05-2.46-5.51-5.51-5.51h-11.24c-3.04,0-5.5,2.46-5.5,5.51Z"/>
        <path class="cls-60" d="M430.76,707.47v70.71s22.26,0,22.26,0v-70.71c0-2.69-2.19-4.87-4.88-4.87h-12.51c-2.69,0-4.87,2.18-4.87,4.87Z"/>
        <path class="cls-53" d="M475.29,692.58v85.6s22.25,0,22.25,0v-85.6c0-2.4-1.94-4.35-4.34-4.35h-13.57c-2.4,0-4.34,1.95-4.34,4.35Z"/>
        <path class="cls-72" d="M552.48,312.25l19.23,112.68h22.54l-19.78-115.92c-.42-2.46-2.83-4.15-5.4-3.77l-12.7,1.87c-2.57.38-4.3,2.67-3.88,5.14Z"/>
        <path class="cls-67" d="M485.62,309.02v115.91s22.26,0,22.26,0v-115.91c0-2.91-2.5-5.26-5.58-5.26h-11.09c-3.09,0-5.59,2.35-5.59,5.26Z"/>
        <path class="cls-60" d="M530.14,300.36v124.56s22.25,0,22.25,0v-124.56c0-3.06-2.63-5.53-5.87-5.53h-10.51c-3.24,0-5.87,2.47-5.87,5.53Z"/>
        <path class="cls-42" d="M441.1,287.22v137.7s22.26,0,22.26,0v-137.7c0-3.27-2.56-5.93-5.71-5.93h-10.84c-3.15,0-5.71,2.66-5.71,5.93Z"/>
        <path class="cls-60" d="M463.36,287.22v137.7s22.26,0,22.26,0v-137.7c0-3.27-2.56-5.93-5.71-5.93h-10.84c-3.15,0-5.71,2.66-5.71,5.93Z"/>
        <path class="cls-55" d="M507.88,322.51v102.41s22.26,0,22.26,0v-102.41c0-2.57-2.5-4.64-5.58-4.64h-11.09c-3.09,0-5.59,2.08-5.59,4.64Z"/>
        <path class="cls-67" d="M576.73,320.81l17.51,104.12h22.8l-18.32-107.36c-.42-2.46-2.83-4.15-5.4-3.77l-12.7,1.87c-2.57.38-4.3,2.67-3.88,5.14Z"/>
        <path class="cls-53" d="M602.08,331.31l29.98,93.62,23.19-.1-31.83-99.42c-.77-2.39-3.4-3.77-5.89-3.08l-12.33,3.41c-2.49.69-3.89,3.18-3.12,5.57Z"/>
        <rect class="cls-60" x="719.31" y="388.34" width="91.8" height="17.46" rx="4.2" ry="4.2"/>
        <rect class="cls-58" x="698.48" y="405.8" width="107.11" height="19.12" rx="4.2" ry="4.2"/>
        <rect class="cls-42" x="454.58" y="558.34" width="107.11" height="19.12" rx="4.2" ry="4.2"/>
        <rect class="cls-60" x="459.97" y="577.46" width="96.35" height="19.12" rx="4.2" ry="4.2"/>
        <g>
          <path class="cls-42" d="M213.7,781.78h0c-.82.9-1.71,1.79-2.62,2.67-1.05,1.02-1.91,2.25-2.37,3.64-1.13,3.36-4.54,5.43-9.65,6.51-.72.15-1.34.61-1.72,1.25-1.03,1.71-3.4,2.46-6.84,2.43-.6,0-1.08.4-1.32.95-.57,1.29-4.68.01-6.88-.1-.09.01-.18.02-.26.03-.03,0-.07.01-.1.02-.04.01-.07.02-.1.03-1.66.4-2.48,2.37-1.47,3.86,3.09,4.55,5.24,8.7,5.48,12.06.11,1.61.5,3.19,1.07,4.7,1.63,4.31,1.91,8.47.52,12.44-.36,1.02-.63,2.06-.82,3.13-.67,3.69-2.55,6.63-5.67,8.79-.98.67-1.69,1.65-2.17,2.74-1.4,3.21-3.31,6.17-6.17,8.64-.72.62-1.37,1.31-1.84,2.14-1.78,3.16-4.65,4.7-8.13,5.31-3.76-2.11-6.34-5.02-7.7-8.78-.42-1.16-1.13-2.21-2.08-3-2.31-1.91-3.9-4.27-4.75-7.08-.42-1.39-1.23-2.62-2.32-3.58-3.36-2.99-4.79-7.05-4.58-12.02.06-1.55-.1-3.1-.54-4.58-1.47-4.92-1.77-9.54.52-13.47,1.01-1.73,1.35-3.77,1.18-5.77-.31-3.76-.21-7.38.42-10.81,1.13-.94,1.21-1.71-.87-2.37-5.06-1.05-9.27-2.84-11.02-6.76-.82-1.83-2.14-3.38-3.85-4.43-4.21-2.61-6.8-5.88-6.42-10.33.1-1.26-.18-2.53-.7-3.68-.82-1.81-1.31-3.56-1.48-5.27,2.83-4.02,6.64-5.75,11.85-4.29,1.97.55,4.1.26,5.86-.79,9.58-5.75,17.6-5.55,22.25,7.49.4,1.14,1.55,1.85,2.75,1.67,5.18-.79,9.9-.3,13.82,2.41.98.67,2.27.65,3.23-.05,8.8-6.34,16.93-7.42,23.85,1.28,1.05,1.31,2.53,2.2,4.16,2.58,5.07,1.2,7.2,4.98,7.48,10.39Z"/>
          <path class="cls-64" d="M196.95,819.64c-.52,1.09-.79,2.29-.82,3.51-.11,4.31-.91,9.37-2.21,14.98-1.68,7.24-4.18,15.37-7.08,23.94h-.01c-1.57,4.66-3.27,9.43-5.01,14.26h-37.45c-1.73-5.01-3.46-9.93-5.23-14.51-3.11-8.1-6.32-15.14-9.76-19.76-1.29-1.73-2.31-3.66-2.87-5.73-.13-.47-.23-.95-.31-1.43-.73-4.44.04-9.62,1.71-15.23.49-1.65.85-3.34.89-5.06.09-3.58,2.1-7.22,7.52-10.96,1.03-2.17-4.66.78-4.07-1.06,1.34-4.01,8.2-6.7,10.54-8.66-.63,3.43-.73,7.05-.42,10.81.17,2-.17,4.04-1.18,5.77-2.29,3.93-1.99,8.55-.52,13.47.44,1.48.6,3.03.54,4.58-.21,4.97,1.22,9.03,4.58,12.02,1.09.96,1.9,2.19,2.32,3.58.85,2.81,2.44,5.17,4.75,7.08.95.79,1.66,1.84,2.08,3,1.36,3.76,3.94,6.67,7.7,8.78,3.48-.61,6.35-2.15,8.13-5.31.47-.83,1.12-1.52,1.84-2.14,2.86-2.47,4.77-5.43,6.17-8.64.48-1.09,1.19-2.07,2.17-2.74,3.12-2.16,5-5.1,5.67-8.79.19-1.07.46-2.11.82-3.13,1.39-3.97,1.11-8.13-.52-12.44-.57-1.51-.96-3.09-1.07-4.7-.24-3.36-2.39-7.51-5.48-12.06-.3-.45-.44-.94-.44-1.42,0-.14.01-.29.04-.43,0-.04.01-.09.04-.14.04-.22.11-.43.22-.62.05-.09.11-.18.18-.27.24-.36.59-.66,1.02-.84.13-.06.27-.11.41-.14-1.61.74,13.48,5.34,9.66,8.3-.5.38-.36,1.17.24,1.36,5.95,1.93,7.76,5.49,5.21,10.77Z"/>
          <path class="cls-61" d="M224.77,761.23c-1.08.84-1.91,1.95-2.35,3.24-.19.56-.62.98-1.34,1.21-.95.3-1.44,1.31-1.14,2.26.51,1.64-.26,2.66-1.73,3.33-.87.4-1.25,1.4-1.03,2.33.67,2.87-1.06,5.56-3.48,8.18-.28-5.41-2.41-9.19-7.48-10.39-1.63-.38-3.11-1.27-4.16-2.58-6.92-8.7-15.05-7.62-23.85-1.28-.96.7-2.25.72-3.23.05-3.92-2.71-8.64-3.2-13.82-2.41-1.2.18-2.35-.53-2.75-1.67-4.65-13.04-12.67-13.24-22.25-7.49-1.76,1.05-3.89,1.34-5.86.79-5.21-1.46-9.02.27-11.85,4.29-.46-4.4,1.16-8.49,4.69-12.29.88-.95.76-2.44-.27-3.24-1.16-.9-1.96-1.85-2.13-2.87-.19-1.16-.77-2.21-1.76-2.86-2.07-1.36-3.39-2.71-3.25-4.01.06-.6.04-1.2-.18-1.76-8.3-20.95-16.45-60.11.43-72.04,1.96-1.39,4.69-.77,5.79,1.36l5.99,11.53c2.32,4.47,5.28,8.59,8.8,12.2,9.43,9.69,17.37,19.12,19.55,27.55.43,1.66,2.33,2.46,3.81,1.6,4.07-2.37,7.34-3.22,9.02-1.04.65.84,1.66,1.32,2.71,1.18,7.11-.97,11.93-.57,11.91,2.73,0,1.34.98,2.45,2.31,2.67,2.5.42,4.34,1.48,5.84,2.88.88.8,2.24.81,3.07-.05,11.69-12.07,34.22-18.6,50.89-32.86,5.31-4.47,9.12-12.18,12.83-9.36,15.85,14.96-11.01,61.04-33.73,78.82Z"/>
          <path class="cls-42" d="M146.68,907.57c-1.66,3.56-4.34,5.69-8.31,6.04-5.17.36-8.88-1.87-11.83-5.44-.46-.55-.98-1.03-1.55-1.44.77-.75,1.88-1.24,3.41-1.42.86-.09,1.7-.33,2.49-.68,1.33-.59,2.78-.58,4.31-.16,1.3.35,2.7.35,3.98-.07,1.6-.51,2.77-.32,3.51.65.51.66,1.24,1.09,2.07,1.21.89.14,1.55.55,1.92,1.31Z"/>
          <path class="cls-42" d="M201.21,908.42c-3.81,3.22-8.23,5-13.82,4.13-4.3-.82-6.74-2.32-7.67-4.38.76-.73,1.84-1.22,3.34-1.42.86-.11,1.7-.36,2.48-.73,1.32-.61,2.77-.62,4.31-.23,1.31.33,2.7.3,3.98-.14,1.58-.54,2.76-.36,3.51.59.53.66,1.27,1.07,2.1,1.18.78.1,1.38.42,1.77,1Z"/>
          <path class="cls-63" d="M225.02,887.24c-1,11.29-7.02,18.04-19.61,18.87-1.19.08-2.31.58-3.18,1.4-.31.29-.62.56-.93.83-.03.03-.06.05-.09.08-.39-.58-.99-.9-1.77-1-.83-.11-1.57-.52-2.1-1.18-.75-.95-1.93-1.13-3.51-.59-1.28.44-2.67.47-3.98.14-1.54-.39-2.99-.38-4.31.23-.78.37-1.62.62-2.48.73-1.5.2-2.58.69-3.34,1.42-.11-.23-.19-.47-.26-.72-.32-1.19-1.34-2.05-2.58-2.05h-26.74c-1.48,0-2.84.83-3.46,2.17-.37-.76-1.03-1.17-1.92-1.31-.83-.12-1.56-.55-2.07-1.21-.74-.97-1.91-1.16-3.51-.65-1.28.42-2.68.42-3.98.07-1.53-.42-2.98-.43-4.31.16-.79.35-1.63.59-2.49.68-1.53.18-2.64.67-3.41,1.42-1.28-.94-2.8-1.51-4.4-1.68-2.18-.23-4.25-.64-6.19-1.24-1.2-.37-2.35-.81-3.46-1.34-.28-.12-.56-.26-.83-.4-1.04-.71-2.2-1.43-3.46-2.17-.65-.48-1.28-1.01-1.88-1.57-12.43-14.25,3.25-27.62,13.74-42.76.1-.14.2-.27.29-.41,4.08-5.95,7.32-12.17,7.71-18.83.56,2.07,1.58,4,2.87,5.73,3.44,4.62,6.65,11.66,9.76,19.76,1.77,4.58,3.5,9.5,5.23,14.51h37.45c1.74-4.83,3.44-9.6,5.01-14.25h.01c2.9-8.58,5.4-16.71,7.08-23.95,9.64,22.48,32.56,36.53,31.1,49.11Z"/>
          <path class="cls-61" d="M110.11,902.07c.27.14.55.28.83.4-.05.01-.09.02-.14.03-1.78.49-3.88,2.98-4.88,4.7-.5.88-.8,1.81-.92,2.75-.12,1.02-1,1.74-2.03,1.78-1.54.07-3.02.9-3.85,2.34-.38.65-1.2.83-1.85.46-.96-.56-2.07-.88-3.26-.88-2.61,0-4.86,1.52-5.9,3.73-.4.86-1.27,1.34-2.22,1.27-.15-.01-.3-.01-.45-.01-2.34,0-4.36,1.39-5.27,3.4-.31.69-1.13,1.28-1.89,1.28h-.02c-1.55,0-2.94.67-3.89,1.75-.91,1.03-2.18,1.68-3.56,1.68h-.34c-3.54,0-6.53,2.36-7.48,5.59-.32,1.1.19,2.28,1.17,2.88-12.12-7.75-21.26-17.95-19.88-30.32,2.33-35.73,44.07-36.46,74.23-49.33-10.49,15.14-26.17,28.51-13.74,42.76.6.56,1.23,1.09,1.88,1.57,1.26.74,2.42,1.46,3.46,2.17Z"/>
          <path class="cls-2" d="M186.84,862.07c.44-.24,10.92-6.05,16.25.01"/>
          <path class="cls-2" d="M139.65,862.08s-10.83-6.19-16.26,0"/>
          <path class="cls-4" d="M118.45,761.09s-.01.01-.01.01"/>
          <path class="cls-42" d="M134.77,956.39c-.59.15-1.06-.53-.68-1.02l1.31-1.75c-.14-8.31-12.82-11.23-26.35-10.55-1.71.08-3.37.6-4.88,1.41-3.64,1.95-7.51,2.27-11.58,1.16-.93-.26-1.91-.31-2.84-.06-2.69.71-5.32.28-7.88-1.37-2.4-1.05-4.75-2.12-7.02-3.22-3.81-1.84-7.4-3.76-10.69-5.77-.98-.6-1.49-1.78-1.17-2.88.95-3.23,3.94-5.59,7.48-5.59h.34c1.38,0,2.65-.65,3.56-1.68.95-1.08,2.34-1.75,3.89-1.75h.02c.76,0,1.58-.59,1.89-1.28.91-2.01,2.93-3.4,5.27-3.4.15,0,.3,0,.45.01.95.07,1.82-.41,2.22-1.27,1.04-2.21,3.29-3.73,5.9-3.73,1.19,0,2.3.32,3.26.88.65.37,1.47.19,1.85-.46.83-1.44,2.31-2.27,3.85-2.34,1.03-.04,1.91-.76,2.03-1.78.12-.94.42-1.87.92-2.75,1-1.72,3.1-4.21,4.88-4.7.05-.01.09-.02.14-.03,1.03-.23,2.12.06,2.9.79.2.19.39.37.56.55.42.42.77.83,1.08,1.24,1.16,1.57,2.21,4.13,3.96,4.96.39.2.79.36,1.19.51,7.6,2.79,13.69,5.77,15.88,9.29.49.81,1.12,1.52,1.77,2.22,3.02,3.22,4.7,6.26,4.56,9.04-.08,1.59-.06,3.2.25,4.77,2.01,10.42.56,18.26-8.32,20.55Z"/>
          <path class="cls-42" d="M128.96,741.84c-1.18-.25-1.84-1.08-1.69-2.76.07-.82-.39-1.56-1.13-1.91-1.87-.87-2.85-3.12-3.65-5.64-5.6-19.53-17.85-44.15-7.9-55.28.85-.95,2.38-.65,2.78.56,1.45,4.33,3.62,8.49,6.36,11.88,1.99,2.47,4.52,4.41,7.24,6.05,6.34,3.81,16.93,15.02,21.56,25.57.6,1.52.88,3.17.65,4.73-.33,2.3-2,4.11-4.16,4.96-1.47.58-3.08.75-4.76.75-2.32.62-3.01,1.54-2.6,3.17.66,2.63-1.36,5.21-4.06,5.45-1.9.17-4.07.49-6.11,1.89-.73.5-1.64.76-2.52.57Z"/>
          <path class="cls-42" d="M217.77,756.49c1.19.16,2.1-.41,2.51-2.05.2-.8.88-1.34,1.7-1.43,2.06-.21,3.72-2.01,5.31-4.12,11.72-16.59,31.4-35.81,25.67-49.59-.49-1.17-2.03-1.39-2.81-.39-2.79,3.62-6.21,6.82-9.92,9.12-2.69,1.67-5.72,2.68-8.82,3.32-7.24,1.51-20.94,8.61-28.78,17.04-1.06,1.24-1.87,2.71-2.18,4.25-.45,2.28.53,4.54,2.29,6.05,1.2,1.03,2.66,1.73,4.24,2.28,1.98,1.35,2.34,2.45,1.41,3.85-1.49,2.27-.43,5.36,2.04,6.49,1.73.79,3.68,1.8,5.15,3.79.53.72,1.3,1.26,2.19,1.37Z"/>
          <path class="cls-46" d="M161.28,774.19l8.9,1.58c1.18.21,1.59,1.69.68,2.47l-5.28,4.57c-.67.58-1.7.41-2.15-.35l-3.62-6.14c-.62-1.04.28-2.33,1.47-2.12Z"/>
          <path class="cls-45" d="M150.37,758.87c-2-3.07-4.33-3.21-6.87-1.52-2.88,1.92-4.73,5.17-4.59,8.62.1,2.54,1.26,4.52,3.72,5.81.99.52,2.08.83,3.19.97,5,.62,6.57-2.19,6.17-8.66-.11-1.84-.62-3.67-1.63-5.22Z"/>
          <path class="cls-45" d="M188.21,767.11c3.19-1.79,5.32-.85,6.79,1.83,1.66,3.03,1.8,6.77.08,9.77-1.27,2.2-3.2,3.43-5.98,3.43-1.12,0-2.23-.23-3.28-.62-4.72-1.76-4.81-4.98-1.47-10.53.95-1.58,2.24-2.97,3.85-3.87Z"/>
          <circle class="cls-66" cx="146.59" cy="767.93" r="1.74"/>
          <circle class="cls-66" cx="187.44" cy="777.35" r="1.74"/>
          <g>
            <path class="cls-4" d="M155.61,822.11c-.05-.15-.15-.31-.3-.47"/>
            <path class="cls-4" d="M156.91,820.24c-.04-.12-.12-.25-.23-.37"/>
            <g>
              <path class="cls-43" d="M154.75,820.66l-5.1,67.68-39.74-12.6,5.34-70.85s0,0,.03.01l38.66,15.44.81.32Z"/>
              <path class="cls-43" d="M208.13,811.88l-5.53,73.4-40.77,3.97,5.61-67.62.15-.04,40.41-9.69h.08s.04-.02.04-.02Z"/>
              <path class="cls-71" d="M160.72,817.82l-2.53-.19h-.02c-6.1-6.4-42.91-12.74-42.91-12.74,0,0,37.54,1.57,45.47,12.93Z"/>
              <path class="cls-71" d="M208.13,811.88s-34.28.77-42.66,6.66c-.51-.28-1.08-.45-1.7-.5l-.8-.06c9.54-8.68,45.16-6.11,45.16-6.11Z"/>
              <path class="cls-54" d="M208.01,811.9l-40.41,9.69c-.06-.45-.2-.87-.4-1.25,9.78-4.03,38.75-8.15,40.81-8.44Z"/>
              <path class="cls-52" d="M208.13,811.88s0,0-.04,0h-.08c-2.06.3-31.03,4.43-40.81,8.45-.37-.76-.98-1.39-1.73-1.79,8.38-5.9,42.66-6.66,42.66-6.66Z"/>
              <path class="cls-52" d="M158.17,817.62c-.94-.07-1.83.18-2.56.65-3.11-3.96-38-12.79-40.24-13.36-.04,0-.07-.02-.09-.02-.02-.01-.03-.01-.03-.01,0,0,36.82,6.34,42.91,12.74Z"/>
              <path class="cls-54" d="M155.61,818.27c-.63.4-1.16.98-1.5,1.66-3.35-4.37-36.52-14.35-38.74-15.02,2.24.57,37.13,9.4,40.24,13.36Z"/>
              <path class="cls-51" d="M154.11,819.94c-.06.13-.12.26-.17.4l-38.66-15.44s.05.01.09.02c2.23.67,35.39,10.65,38.74,15.02Z"/>
              <path class="cls-62" d="M167.64,822.56l-4.86,64.46c-.06.85-.37,1.62-.86,2.24-.83,1.08-2.18,1.74-3.64,1.63l-5.58-.42c-1.47-.11-2.7-.97-3.36-2.16-.39-.69-.58-1.5-.52-2.35l4.86-64.46c.03-.41.12-.8.26-1.17.05-.14.11-.27.17-.4.34-.69.87-1.26,1.5-1.66.73-.47,1.62-.72,2.56-.65h.02s5.58.42,5.58.42c.62.05,1.19.22,1.7.5.75.41,1.36,1.03,1.73,1.79.2.39.34.81.4,1.25.06.32.07.64.05.97Z"/>
            </g>
            <path class="cls-63" d="M107.5,834.44c.94-2.66,3.24-5.86,6.23-9.34l-.4,5.25-5.83,4.08Z"/>
            <ellipse class="cls-42" cx="113.88" cy="836.33" rx="5.92" ry="6.66" transform="translate(-720.37 708.11) rotate(-73.51)"/>
            <path class="cls-63" d="M210.85,848.33c-.51-2.78-2.28-6.3-4.69-10.2l-.43,5.25,5.12,4.95Z"/>
            <ellipse class="cls-42" cx="204.25" cy="849.2" rx="6.66" ry="5.92" transform="translate(-109.03 33.9) rotate(-7.5)"/>
            <path class="cls-5" d="M113.26,833.64s.98,2.74,7.02,2"/>
            <path class="cls-5" d="M111.62,836.94s-.19,2.9,5.64,4.63"/>
            <path class="cls-5" d="M113.15,836.26s.83,2.79,6.89,2.39"/>
          </g>
        </g>
        <circle class="cls-60" cx="263.46" cy="219.67" r="18.47"/>
      </g>
    </g>
  </g>
</svg>