<?xml version="1.0" encoding="UTF-8"?>
<svg xmlns="http://www.w3.org/2000/svg" viewBox="0 0 1000 1000">
  <defs>
    <style>
      .cls-1 {
        mix-blend-mode: multiply;
        opacity: .7;
      }

      .cls-1, .cls-2, .cls-3, .cls-4, .cls-5, .cls-6, .cls-7, .cls-8, .cls-9, .cls-10, .cls-11, .cls-12, .cls-13, .cls-14, .cls-15 {
        stroke-width: 0px;
      }

      .cls-1, .cls-15 {
        fill: #fcdd7c;
      }

      .cls-16 {
        stroke: #0f1838;
      }

      .cls-16, .cls-17, .cls-18 {
        fill: none;
        stroke-miterlimit: 10;
      }

      .cls-17 {
        stroke: #231f20;
      }

      .cls-18 {
        stroke: #dda62c;
      }

      .cls-19 {
        isolation: isolate;
      }

      .cls-2 {
        fill: #f4d1ae;
      }

      .cls-3 {
        fill: #f7d166;
      }

      .cls-4 {
        fill: #f9e4b2;
      }

      .cls-5 {
        fill: #44270c;
      }

      .cls-6 {
        fill: #152654;
      }

      .cls-7 {
        fill: #1e160e;
      }

      .cls-8 {
        fill: #16140d;
      }

      .cls-9 {
        fill: #d39009;
      }

      .cls-10 {
        fill: #dda62c;
      }

      .cls-11 {
        fill: #dd733e;
      }

      .cls-12 {
        fill: #6d2d11;
      }

      .cls-13 {
        fill: #efe9df;
      }

      .cls-14 {
        fill: #edbf94;
      }
    </style>
  </defs>
  <g class="cls-19">
    <g id="Layer_1" data-name="Layer 1">
      <g>
        <path class="cls-3" d="M752.33,471.59v280.35c0,16.22-13.14,29.36-29.36,29.36H250.91c-16.22,0-29.36-13.14-29.36-29.36v-280.35c0-16.22,13.14-29.37,29.36-29.37h472.06c16.22,0,29.36,13.15,29.36,29.37Z"/>
        <rect class="cls-9" x="250.04" y="466.74" width="330.21" height="294.16" rx="27.88" ry="27.88"/>
        <rect class="cls-4" x="596.39" y="466.74" width="130.78" height="290.05" rx="28.19" ry="28.19"/>
        <rect class="cls-10" x="633.26" y="781.31" width="57.67" height="22.68"/>
        <rect class="cls-10" x="283.76" y="781.31" width="57.67" height="22.68"/>
        <circle class="cls-10" cx="662.58" cy="517.57" r="36.1"/>
        <circle class="cls-10" cx="662.58" cy="608.6" r="36.1"/>
        <circle class="cls-10" cx="623.75" cy="681.96" r="11.08"/>
        <circle class="cls-10" cx="661.93" cy="681.96" r="11.08"/>
        <circle class="cls-10" cx="700.1" cy="681.96" r="11.08"/>
        <line class="cls-18" x1="612.67" y1="715.57" x2="711.19" y2="715.57"/>
        <line class="cls-18" x1="612.67" y1="735.47" x2="711.19" y2="735.47"/>
        <path class="cls-10" d="M450.98,398.82c-3.68,2.57-7.01,5.61-9.91,9.02l-67.72-101.64c-1.38-2.06-3.7-3.27-6.18-3.23-7.34.13-7.25-8.06-3.21-11.27,5.56-4.09,10.71,1.23,10.39,5.71-.17,2.36.43,4.71,1.89,6.56l74.74,94.85Z"/>
        <path class="cls-3" d="M534.47,442.22h-106.06c0-13.11,4.76-25.12,12.66-34.37h0c2.9-3.42,6.23-6.46,9.91-9.03,8.62-6.07,19.13-9.63,30.46-9.63,6.79,0,13.29,1.28,19.26,3.61,4.37,1.7,8.45,3.97,12.16,6.71,13.11,9.65,21.61,25.19,21.61,42.71Z"/>
        <path class="cls-10" d="M530.38,273.74c-1.79,1.55-3.03,3.63-3.3,5.98l-14.22,119.79c-3.71-2.74-7.79-5.01-12.16-6.71l22.75-113.55c.49-2.43-.3-4.93-2.08-6.65-5.28-5.1.58-10.83,5.69-10.24,6.83,1.04,6.71,8.44,3.32,11.38Z"/>
        <g>
          <path class="cls-17" d="M374.81,670.99c-.44-.74-.87-1.48-1.26-2.21l1.26,2.21Z"/>
          <path class="cls-17" d="M375.47,671.96h-.08c-.2-.33-.4-.65-.59-.97l.66.97Z"/>
          <path class="cls-2" d="M379.06,595.88c.05.85.28,1.69.7,2.43l-5.1-3.45c-5.1-3.06-9.65-6.58-13.58-10.62l-2.55-2.6c-1.52-1.54-2.89-3.22-4.11-5.01-2.76-4.05-5.69-8.44-6.79-9.42-.17-.15-.34-.29-.5-.45-.75-.78-1.38-1.57-1.84-2.39-.55-.97-1.28-1.83-2.14-2.54-.45-.37-.89-.72-1.26-1.08-.17-.17-.01-.46.22-.41l1.29.29c.27.06.49-.21.38-.46-.96-2.18-1.76-4.22-1.63-5.51.02-.17.25-.2.32-.04.38.91,1.2,2.52,2.15,4.1.01.03.05,0,.04-.02-.69-1.38-1.3-2.69-1.36-3.48,0-.1.13-.14.18-.05,1.48,2.69,3.53,5.68,5.54,8.66.61.9,1.33,1.74,2.12,2.49l10.38,9.8c.36.34.72.67,1.1.98.82.66,1.63,1.53,2.42,2.51.86,1.06,1.92,1.94,3.09,2.64,1.43.84,2.92,1.76,4.47,2.73,1.67,1.04,3.45,1.89,5.32,2.51l4.63,1.55c-2.84,1.92-3.65,4.29-3.49,6.86Z"/>
          <path class="cls-17" d="M375.47,671.96h-.08c-.2-.33-.4-.65-.59-.97l.66.97Z"/>
          <path class="cls-2" d="M379.31,677.57c-3.42-.4-6.39.25-8.61,2.63l4.11-9.2c.19.32.39.64.59.96h.08s2.2.13,2.2.13c.54.03.98.42,1.08.95.3,1.56.49,3.08.55,4.53Z"/>
          <path class="cls-5" d="M364.51,671.57c-.35-.07-.6-.39-.57-.74.11-1.39.47-2.68,1.43-3.69.25-.26.63-.37.98-.3,0,0,.85,2.41-1.85,4.74Z"/>
          <path class="cls-5" d="M363.33,679.97c-1.13,2.72-1.66,4.55-1.66,4.55l-.95.05c-.47.02-.88-.34-.91-.81-.15-2.36-.24-4.61.28-5.95.38-1.32,1.87-2.7,3.84-4.11,0,0,.53,3.56-.6,6.28Z"/>
          <path class="cls-7" d="M374.81,671l-4.11,9.2c-.42-.43-.95-.63-1.56-.66-1.09-.07-2.14.43-2.86,1.24l-2.39,2.69c-.57.64-1.36,1.02-2.21,1.05,0,0,.53-1.83,1.66-4.55,1.13-2.72.6-6.28.6-6.28.65-.47,1.36-.94,2.09-1.41.18-.12.13-.39-.08-.43l-1.43-.27c2.69-2.32,1.85-4.74,1.85-4.74l1.01.18c.24.04.48.08.72.11,2.49.28,4.33.83,5.47,1.65l1.26,2.21h0Z"/>
          <path class="cls-2" d="M411.08,684.6l-.45,3.4c-.24,1.85-.66,3.67-1.25,5.44-1.6,4.8-2.89,10.81-4.09,17.22-.12.66-.15,1.34-.04,2,.21,1.32.7,2.39,1.51,3.15.27.25.46.6.48.97.02.44-.17.73-.53.91-.25.13-.53.16-.81.15-3.3-.18-6.21-1.21-8.7-3.2l1.45-3.77c.37-.96.57-1.97.6-2.99l.43-13.47c.07-2.08.38-4.15.93-6.16l2.02-7.36c.53-.15,1.11-.08,1.59.2l3.43,2,1.79,1.04c.5.29,1.06.46,1.63.47Z"/>
          <path class="cls-14" d="M416.09,621.7l-17.19,9.01v-.03c.9-2.89,2.46-5.89,4.61-8.98h0s6.15-6.22,6.15-6.22l6.43,6.21Z"/>
          <path class="cls-13" d="M488.2,584.21c-1.47,1.49-3.45,3-5.65,4.51-.16.12-.35.19-.55.21-.37.05-.71.2-1.01.43-1.7,1.33-4.24,2.83-6.97,4.37-.31.17-.64.3-.99.39l-.26.07c-.59.15-1.15.42-1.62.8l-3.88,3.08c-.7.55-1.16,1.35-1.3,2.23l-3.58,23.52c-.1.64-.17,1.29-.21,1.94l-.09,1.41c-.06.85-.26,1.68-.61,2.46l-1.76,3.96-14.61-.53c-1.92-.07-3.81-.39-5.64-.95l-6.73-2.07c0-.22.01-.45.03-.69l3.06,1.09h0s2.32.83,2.32.83c1.07.38,2.2.55,3.33.5,1.06-.05,2.12-.1,3.11-.18h0c1.83-.15,3.46-.4,4.66-.87.29-.11.37-.69-.04-.61l-2.99.29c-.36.05-.4-.35.25-.48l3.77-.52c.33-.13.38-.36-.14-.43l-3.57.03c-.25,0-.27-.21-.02-.22l3.34-.37c.27-.09.13-.27-.08-.27l-8.7-.58c-1.02-.07-2.01-.34-2.92-.79l-3.43-1.71c-.34-.17-.68-.36-1.01-.56.31-1.11.67-2.28,1.07-3.49.56-1.68.6-3.5.1-5.2-.54-1.84-1.27-3.45-2.19-4.85-.4-.61-1.23-.74-1.8-.28l-8.34,6.72h-.01s-1.52-.68-1.52-.68c-1.07-.47-2.04-1.15-2.85-2-1.28-1.33-2.42-2.65-3.33-3.93.69-.45,1.41-.85,2.16-1.15.61-.24,1.18-.57,1.69-.98.27-.21.55-.42.83-.61,1.26-.87,2.28-2.05,3.01-3.39.73-1.33,1.43-2.49,2.07-3.31.98-1.27,2.07-2.51,3.3-3.7.22-.21.43-.44.63-.67,1.1-1.29,2.25-2.42,3.63-2.93.12-.04.25-.04.36.01.12.05.25.08.38.08.36,0,.71-.2.88-.55l.4-.81c.11-.23.33-.38.58-.41l.51-.06,1.79-.21c.07,0,.14,0,.2,0,.21.02.41.11.56.25l.76.71c.38.36.89.56,1.41.56h.04c.39,0,.77.13,1.09.36l.88.66c.19.14.45.07.55-.15l1.16-2.68c.21-.49.53-.93.93-1.3.32-.3.62-.63.9-.98,1.23-1.52,2.16-3.49,2.9-5.73l2.14,2.26c.43.45,1.06.66,1.67.52.96-.22,1.92-.32,2.86-.24.58.05,1.16-.06,1.69-.29,1.44-.65,2.82-1.06,4.08-.86.58.1,1.17.09,1.75-.02,2.01-.36,3.9-.66,5.51-.84.96-.11,1.88-.42,2.72-.88.48-.26.96-.46,1.44-.57.94-.21,1.81-.67,2.57-1.27l5.76-4.52c.32-.25.72-.39,1.12-.39h.75l-.55.83c-.44.67-.45,1.54,0,2.2.69,1.02,1.56,2.03,2.56,3.04.72.72,1.66,1.18,2.67,1.3l.97.12Z"/>
          <path class="cls-2" d="M450.28,629.41l-3.78.52c-.73.18-.57.5-.25.49l2.99-.29c.36-.08.35.5.04.61-1.22.43-2.83.72-4.66.87h0c-1,.08-2.05.14-3.11.18-1.13.05-2.26-.12-3.33-.5l-2.32-.83h0s-3.06-1.1-3.06-1.1l-10.9-3.91c-1.99-.71-3.81-1.84-5.33-3.31l-.45-.44-6.43-6.21-3.63-3.51-.22-.21c-.43-.36-.67-.89-.67-1.44,0-.08,0-.16.02-.25.24-1.79.78-2.99,3.01-4.34.38-.23.77-.44,1.18-.6,1.39-.56,2.45-.57,3.37.11-.06,1.74.78,3.61,2.16,5.56.91,1.28,2.05,2.6,3.33,3.93.81.84,1.78,1.53,2.85,2l1.52.67h0s0,0,0,0l1.13.5c.59.26,1.15.57,1.68.93l7.88,5.36c.15.11.31.2.47.3.33.2.66.39,1.01.56l3.43,1.71c.91.45,1.91.73,2.92.79l8.7.58c.27,0,.28.26.03.28l-3.29.36c-.31.05-.22.22.01.22l3.57-.03c.66.07.35.4.14.43Z"/>
          <path class="cls-17" d="M387.83,593.04c-.39.59-.76,1.23-1.13,1.91,0-.02.01-.04.02-.06l1.26-2.52c.03.23-.02.47-.16.68Z"/>
          <path class="cls-8" d="M460.22,637.06l-14.66-.21c-2.01-.03-4-.34-5.92-.92l-6.88-2.09c-.43-1.2-.52-2.46,0-3.79l6.73,2.07c1.83.56,3.73.88,5.64.95l14.61.53c.62.93.65,2.15.49,3.47Z"/>
          <path class="cls-7" d="M416.44,724.39c.04,1.07-.75,1.98-1.82,2.08-1.39.13-2.91.09-4.49-.06-1.29-.12-2.51-.66-3.48-1.51-1.56-1.37-3.1-2.7-4.41-3.46-.6-.35-1.35.08-1.35.77v2.45c0,.56-.45,1.01-1.01,1.01h-2.78c-.51,0-.94-.4-.97-.91l-.37-6.37c-.02-1.51.3-2.84,1.44-3.76,2.48,1.99,5.4,3.02,8.7,3.2.28.02.56-.02.81-.15.36-.18.55-.47.53-.91,1.78,1.84,3.68,3.36,5.75,4.44.55.29,1.11.54,1.68.76.45.17.84.45,1.13.8.04.04.08.09.11.14.31.42.49.92.52,1.46Z"/>
          <path class="cls-7" d="M438.49,717.16v3.79c0,1.02-.82,1.84-1.84,1.84h-20.84c-.29-.35-.68-.63-1.13-.8-.57-.22-1.13-.48-1.68-.76-.12-.29-.18-.6-.18-.93,0-.71.54-1.3,1.24-1.36l2.75-.25c.96-.09,1.88-.4,2.69-.92l6.28-4c-.38.38-.18,1.04.34,1.15,3.62.75,7.08,1.03,10.29.61.58-.08.99-.56,1.03-1.09l.14.17c.59.73.91,1.63.91,2.56Z"/>
          <path class="cls-6" d="M460.28,645.64c-.06,1.79-.68,3.52-1.71,4.98l-12.98,18.37c-.66.94-.89,2.13-.55,3.23.77,2.48.35,5.03-1.56,7.65-.17.24-.34.48-.51.72-1.55,2.25-3.32,3.3-5.37,3.58-.48.07-.94-.02-1.34-.23h0c-.55-.28-.99-.78-1.21-1.39l-.72-1.52-2.02-3.03c-2.1-2.46-2.7-5.26-2.05-8.37-1,3.69-1.25,7.23-.49,10.59.18.79.32,1.59.38,2.39.51,6.57,2.15,14.21,4.37,22.4.15.54.26,1.09.37,1.63.49,2.5,1.28,4.89,2.43,7.18.1.2.14.41.12.6-.04.53-.44,1.01-1.03,1.09-3.22.43-6.67.15-10.29-.61-.53-.11-.73-.76-.34-1.15l.44-.44c.7-.71.87-1.77.44-2.67-1.92-3.95-4.04-10.52-6.21-17.64-1.09-3.6-1.84-7.3-2.22-11.04.82-.52,1.58-1.07,2.27-1.67.61-.52.66-1.45.14-2.06l-2.86-3.27c0-2.14.25-4.27.77-6.35l2.02-8.07c.29-1.15.66-2.28,1.11-3.37l4.76-11.53c.52-1.27.83-2.62.86-3.99.03-1.66.59-3.13,2.06-4.25.49-.38.93-.84,1.19-1.4.4-.86,1.17-1.57,2.2-2.17l6.88,2.09c1.92.59,3.92.9,5.92.92l14.66.21-.11,2.6c-.04.91,0,1.81.09,2.71.1,1.09.13,2.18.09,3.27Z"/>
          <path class="cls-7" d="M436.26,683.94c-.24.21-.48.42-.73.6-1.8,1.37-4.43.28-4.8-1.95l-.12-.74c-.17-1.76.29-3.11,1.7-3.85l2.02,3.03.72,1.52c.22.61.65,1.11,1.21,1.39h0Z"/>
          <path class="cls-14" d="M514.88,558.23c-1.11.76-1.87,1.27-3.38,1.99-.56.19-1.04.4-2.15.97.87-.38,1.57-.69,2.15-.97.53-.19,1.14-.36,2.41-.8.35-.12.63.25.38.52-1.27,1.35-4.01,2.4-7.23,3.36-.5.15-.36.89.15.84.4-.04.81-.09,1.24-.15.15-.02.3.07.32.22.18,1.05-1.78,1.54-4.13,1.93-.47.08-.96.12-1.44.13l-3.17.05c-1.25.02-2.35.81-2.79,1.98-1.82,4.83-5.16,10.26-9.05,15.92l-.97-.12c-1.01-.12-1.95-.58-2.67-1.3-1.01-1.01-1.87-2.02-2.56-3.04-.45-.67-.44-1.54,0-2.2l.55-.83c2.46-2.63,4.91-5.03,7.37-7.01.96-.77,1.82-1.65,2.57-2.62l3.05-3.89c.68-.86,1.55-1.56,2.57-1.96,2.34-.94,5.09-1.24,8.07-1.17,1.57.03,3.13-.22,4.58-.8l3.85-1.52c.31-.12.53.3.26.48Z"/>
          <path class="cls-14" d="M443.89,580.65c-.03.19-.05.39-.05.59v1.08c0,.16,0,.32-.03.47h0c-.09.7-.38,1.36-.83,1.9-1.96,2.34-3.67,4.55-4.58,6.33-.24.48-.63.85-1.1,1.06-.32.15-.67.23-1.03.22-.33,0-.65,0-.96,0-.44,0-.84.01-1.19.04-.46.04-.86-.3-.91-.75-.05-.49-.06-.96,0-1.38.04-.27-.16-.52-.43-.56l-.25-.04c-.29-.04-.52-.29-.52-.59,0-.27.09-.6.22-.94.1-.26-.05-.55-.33-.62-.1-.02-.19-.05-.29-.08-.23-.08-.39-.3-.39-.54,0-.27.03-.53.09-.78.07-.28-.16-.54-.45-.53-.39.01-.78-.04-1.16-.16-.24-.08-.43-.29-.44-.54-.04-.76.27-1.64.78-2.59.32-.59.26-1.31-.16-1.82v-.02c-.37-.44-.59-.97-.64-1.53-.14-1.58-.27-3.14.04-4.34.14-.52.45-.96.87-1.26.33-.24.73-.38,1.15-.42l2.6-.22c.78-.06,1.47.48,1.62,1.25.11.55.14,1.13.12,1.74-.03.73.26,1.42.77,1.93l1.37,1.34c.48.47,1.25.52,1.78.09.57-.47,1.27-.88,2.09-1.21.34-.14.73-.13,1.06.04.99.49,1.39,1.43,1.2,2.82Z"/>
          <path class="cls-12" d="M449.24,577.88l-.76,5.93-.58.32c-1.42.79-3.21.27-3.99-1.15l-.11-.18h0c.02-.16.03-.32.03-.47v-1.08c0-.2.02-.4.05-.59.19-1.39-.21-2.34-1.2-2.82-.33-.16-.72-.17-1.06-.04-.83.33-1.52.74-2.09,1.21-.52.43-1.29.38-1.78-.09l-1.37-1.34c-.51-.5-.8-1.2-.77-1.93.02-.61-.01-1.19-.12-1.74-.15-.77-.84-1.31-1.62-1.25l-2.6.22c-.42.04-.82.18-1.15.42-.41-.61-.63-1.29-.68-2.05-.04-.7.37-1.35,1-1.67,4.9-2.51,12.46-2.59,15.42-.05,1.05.96,1.91,2.01,2.51,3.17.83,1.59,1.09,3.41.86,5.19Z"/>
          <path class="cls-15" d="M420.5,680.31c-.69.59-1.44,1.15-2.27,1.67-.82.51-1.7,1-2.65,1.44-.12.06-.24.08-.36.08-.24,0-.48-.11-.65-.31-.14-.17-.4-.18-.55-.02-.62.66-1.31,1.09-2.05,1.31-.29.09-.59.13-.9.12-.57,0-1.13-.18-1.63-.47l-1.79-1.04-3.43-2c-.48-.28-1.05-.35-1.59-.2-4.74,1.3-9.23,2.11-13.3,2.12-1.29,0-2.56-.35-3.6-1.1-.83-.61-1.28-1.26-1.31-1.94.1-2.83-5.01,1.49-5.13-.48.03-.63.03-1.26,0-1.91-.06-1.46-.25-2.97-.55-4.53-.1-.53-.55-.92-1.08-.95l-2.2-.12-.66-.97h0s-1.26-2.22-1.26-2.22c-1.69-3.14-2.75-6.59-3.13-10.14-.33-3.02-.64-5.99-.76-8.44-.13-2.62.32-5.23,1.3-7.66,1.82-4.53,3.69-8.79,5.68-12.49.65-1.21,1.2-2.46,1.64-3.75.21-.63.41-1.27.57-1.92.28-1.09.49-2.2.64-3.32.6-4.77.95-9.48,1.01-14.11.21-3.44.31-6.76-.72-8.62-.42-.74-.65-1.58-.7-2.43-.15-2.57.65-4.93,3.49-6.86l4.92,2.57c.3.16.48.45.52.76l-1.26,2.52s-.02.04-.02.06c-1.43,2.68-2.7,6.05-3.92,9.62-.53,1.55.05,3.28,1.44,4.15,2.46,1.54,5.13,2.48,8.06,2.76,1.62.16,3.19-.68,3.98-2.11l2.9-5.29c.69-1.04,1.39-2.03,2.17-2.85h0c.83-.88,1.75-1.57,2.81-1.92.27-.09.57-.1.84-.03.1.02.19.05.28.09,2.94,1.26,5.61,2.93,7.45,5.87-.92-.68-1.97-.66-3.37-.11-.41.16-.8.37-1.18.6-2.22,1.35-2.77,2.55-3.01,4.34,0,.08-.02.16-.02.25,0,.55.24,1.08.67,1.44l.22.21c.35.38.59.86.65,1.38.15,1.18-.15,2.43-.66,3.72-.36.9-.8,1.77-1.3,2.6l-1.21,2.02h0s-1.4,2.34-1.4,2.34c-1.27,2.11-2.34,4.34-3.19,6.64v.03c-.13.32-.25.64-.36.96l-.4,1.17-.39,1.12c-.72,2.09-.71,4.36.03,6.45l1.52,4.29c1.04,2.95,2.42,5.76,4.12,8.39,2.92,4.51,5.57,8.96,7.9,13.33.64,1.19,1.64,2.14,2.84,2.76,1.12.58,2.17,1.23,3.09,1.98.43.35.54.95.28,1.43-.08.15-.17.3-.26.44-.31.47-.28,1.08.09,1.51l.39.44,2.86,3.27c.53.6.47,1.53-.14,2.06Z"/>
          <path class="cls-2" d="M401.33,601.23c-.78.82-1.48,1.81-2.17,2.85l-2.9,5.29c-.79,1.43-2.35,2.27-3.98,2.11-2.92-.29-5.6-1.23-8.06-2.76-1.39-.87-1.97-2.6-1.44-4.15,1.22-3.57,2.49-6.94,3.92-9.62-.09.26.06.54.33.61h.01c.42.15.7.54.71.98,0,.51.07,1.07.15,1.67.07.46.48.8.95.78.21,0,.43-.02.65-.05.38-.04.71.23.77.61.03.17.07.33.12.49.22.66.99.96,1.63.69.42-.18.85-.4,1.3-.64.29-.16.64-.1.89.11.07.06.13.11.2.15.43.28.97.3,1.45.12.38-.15.77-.35,1.18-.58.49-.28,1.1-.2,1.51.17.45.41.93.75,1.43.99.42.2.89.25,1.34.17Z"/>
          <path class="cls-11" d="M417.75,592.45l-1.06.09c-1.44.13-2.84-.43-3.8-1.48.04.08.07.17.09.26.53,1.86,1.2,3.47,2.28,4.32-.68,0-1.29-.25-1.75-1-.11-.18-.4-.17-.45.03-.14.45.32,1.01.81,1.57-1.31-.3-2.6-1.27-3.89-2.76-.1-.12-.3-.02-.27.13.21,1.06.51,1.99.87,2.69.61,1.3,1.8,1.14,3.09.73-1.6,1.47-3.03,1.25-4.34-.14-.28-.3-.8-.17-.91.23-.09.33-.12.7-.14,1.08-.34-.49-.62-1.03-.78-1.65-.17-.63-.5-1.21-1-1.63l-.08-.07c-.18-.16-.47,0-.43.24.19,1.07.92,2.46,1.7,3.87.14.25-.17.51-.39.33-.47-.4-.92-.88-1.33-1.43-.23-.3-.71-.15-.71.23v.28c0,.33-.1.64-.28.9-.28-.07-.57-.06-.84.03-1.06.35-1.98,1.03-2.81,1.92h0c-.45.08-.92.03-1.34-.17-.51-.24-.99-.58-1.43-.99-.42-.38-1.02-.45-1.51-.17-.41.23-.8.43-1.18.58-.47.18-1.02.17-1.45-.12-.07-.05-.14-.1-.2-.15-.25-.21-.6-.27-.89-.11-.44.25-.88.46-1.3.64-.64.27-1.41-.03-1.63-.69-.05-.16-.09-.32-.12-.49-.06-.38-.39-.65-.77-.61-.22.02-.44.04-.65.05-.47.02-.88-.32-.95-.78-.09-.59-.15-1.16-.15-1.67,0-.44-.29-.83-.71-.98h-.01c-.27-.07-.42-.36-.33-.61,0-.02.01-.04.02-.06l1.26-2.52h0c2.14-3.42,1.7-14.67,5.97-17.7,2.14-1.56,4.64-1.46,8.42-1.12,3.03.12,5.33,1.09,6.85,2.82.78.89,1.25,2.02,1.39,3.19l.52,4.33c-.29-.3-.64-.6-1.04-.91-.07-2.55-.87-4.57-2.06-6.3-.29-.42-.89-.44-1.2-.03l-.02.03c-.55.72-.61,1.7-.15,2.48l.5.85c.62,1.06,1.01,2.25,1.08,3.47.02.39.06.78.11,1.18.2,1.61,1.02,3.04,2.21,4.1h0c.28.25.57.47.89.68.18.12.36.25.53.4-.31-.51-.59-1.04-.83-1.6.2-.29.23-.65-.09-1.11-.29-.43-.16-1.01.3-1.25l.11.93c.24,2,1.41,3.8,3.19,4.73.85.44,1.86.76,3.07.92Z"/>
          <path class="cls-2" d="M411.73,585.7c-.12.06-.23.11-.34.16,0,0,0,0,0,0-.45.24-.59.82-.3,1.25.32.46.29.82.09,1.11-.14.19-.35.36-.59.51h0c-1.2-1.06-2.02-2.49-2.21-4.1-.05-.4-.09-.79-.11-1.18-.08-1.23-.46-2.42-1.08-3.47l-.5-.85c-.46-.78-.4-1.76.15-2.48l.02-.03c.31-.4.91-.38,1.2.03,1.19,1.73,1.98,3.75,2.06,6.3.4.31.74.61,1.04.91.33.34.6.67.82,1,.19.29.08.68-.23.82Z"/>
          <path class="cls-1" d="M378.84,624.37c7.64,1.56,14.48,3.59,20.06,6.34l-.74,2.13c-6.12-2.97-12.75-5.15-19.9-6.55l.58-1.92Z"/>
          <path class="cls-16" d="M439.04,652.96c-4.15,4.93-7.23,10.41-8.78,16.67"/>
          <path class="cls-14" d="M448.48,583.81c-.75,2.23-1.67,4.21-2.9,5.73-.28.35-.58.68-.9.98-.39.37-.71.81-.93,1.3l-1.16,2.68c-.09.21-.36.29-.55.15l-.88-.66c-.31-.24-.7-.36-1.09-.36h-.04c-.52,0-1.03-.2-1.41-.56l-.76-.71c-.15-.15-.36-.23-.56-.25.47-.22.86-.59,1.1-1.06.91-1.79,2.61-3.99,4.58-6.33.46-.54.74-1.2.83-1.9l.11.18c.78,1.42,2.57,1.93,3.99,1.15l.58-.32Z"/>
          <path class="cls-8" d="M453.47,626.39c-2.73-1.82-4.17-4.76-5.6-7.28-.58-1.02-.88-1.57-.98-2.74l-.05-.59c-.04-.51-.18-1.02-.42-1.47l-2.94-5.72c-.16-.32-.31-.65-.43-.99-1.01-2.86-1.48-5.67-1.25-8.4.13-1.56-.66-3.06-1.99-3.88-.29-.17-.58-.33-.89-.48-.43-.2-.66-.68-.51-1.13l.21-.65c.38.36.89.56,1.41.56h.04c.39,0,.77.13,1.09.36l.88.66c.19.14.45.07.55-.15l1.16-2.68c.21-.49.53-.93.93-1.3.32-.3.62-.63.9-.98l1.81,1.15c.53.34.6,1.08.15,1.51-1.16,1.09-2.09,2.29-2.87,3.55-.77,1.25-.74,2.84.08,4.07l.97,1.45c.58.86,1,1.81,1.26,2.82l1.49,5.78c.07.28.12.57.17.86.26,1.71.99,3.69,1.96,5.79.66,1.44,1.57,2.75,2.68,3.88,2.01,2.04,4.25,3.58,6.97,4.22,2.7.63-2.99,4.29-6.78,1.75Z"/>
        </g>
      </g>
    </g>
  </g>
</svg>