<?xml version="1.0" encoding="UTF-8"?>
<svg xmlns="http://www.w3.org/2000/svg" viewBox="0 0 1000 1000">
  <defs>
    <style>
      .cls-1 {
        opacity: .1;
      }

      .cls-1, .cls-2 {
        mix-blend-mode: multiply;
      }

      .cls-3 {
        fill: none;
        stroke: #ddceca;
        stroke-miterlimit: 10;
      }

      .cls-2 {
        opacity: .15;
      }

      .cls-2, .cls-4, .cls-5, .cls-6, .cls-7, .cls-8, .cls-9 {
        stroke-width: 0px;
      }

      .cls-2, .cls-8 {
        fill: #5b3f3b;
      }

      .cls-10 {
        isolation: isolate;
      }

      .cls-4 {
        fill: #2b211e;
      }

      .cls-5 {
        fill: #705148;
      }

      .cls-6 {
        fill: #46352e;
      }

      .cls-7 {
        fill: #3a2923;
      }

      .cls-9 {
        fill: #ad6936;
      }
    </style>
  </defs>
  <g class="cls-10">
    <g id="Layer_1" data-name="Layer 1">
      <g>
        <path class="cls-8" d="M406.84,227.86c-.8,18.65-4.63,35.7-16.8,48.38-4.13,4.31-7.33,9.46-9.31,15.09-2.45,7-8.17,12.83-17.02,17.53-4.71,2.51-9.01,5.77-12.62,9.69-1.91,2.06-4.26,3.91-6.96,5.58-3.38,2.09-7.03,3.63-10.81,4.65-1.02.27-2.05.51-3.08.7-.41.09-.82.16-1.23.22-.42.07-.83.13-1.25.19-.27.04-.54.07-.81.1-.29.03-.58.06-.87.09-.46.04-.92.08-1.38.11-.38.03-.77.05-1.15.06-.64.03-1.28.04-1.92.04-.39,0-.79-.01-1.18-.02-1-.02-1.99-.07-2.99-.16-15.16-1.32-28.97-5.17-41.02-12.3-8.42-4.98-17.6-8.51-27.22-10.27-7.99-1.46-16.33-2.59-24.95-3.46-8.71-.87-17.29-2.98-25.25-6.61-17.02-7.76-29.37-20.61-38.3-37.16-.26-.45-.52-.91-.77-1.37-.17-.29-.33-.59-.49-.89-.08-.16-.16-.32-.24-.48-.35-.66-.68-1.33-1-2-.64-1.31-1.23-2.65-1.78-4.02-.17-.41-.34-.83-.5-1.25-.18-.46-.35-.92-.52-1.39-.22-.59-.43-1.18-.62-1.78-.26-.76-.51-1.53-.75-2.3-.35-1.15-.69-2.31-.99-3.49-.16-.59-.31-1.19-.45-1.78-.09-.34-.17-.67-.24-1.01-.11-.48-.22-.96-.32-1.45-.09-.39-.17-.78-.25-1.17-.14-.67-.27-1.35-.39-2.03-.08-.39-.15-.78-.21-1.17-.14-.79-.27-1.58-.39-2.38-.11-.7-.21-1.4-.3-2.1-.07-.51-.14-1.03-.2-1.54-.11-.92-.21-1.85-.3-2.78-.09-.86-.17-1.72-.23-2.59-.09-1-.16-2.02-.22-3.04-.03-.39-.05-.79-.06-1.18-.05-.83-.09-1.66-.12-2.5-.7-18.68,1.65-39.45,5.2-61.04,1.23-7.48.3-15.17-2.78-22.09-7.95-17.93-13.35-36.2-.85-56.89,4.43-7.34,13.3-10.72,21.46-8.08,8.4,2.71,17.33,9.03,27.96,15.78,8.49,5.38,18.7,7.39,28.6,5.63l93.25-16.55c20.57-4.78,34.45-20.8,45.01-26.83,6.2-3.53,14.08.09,15.39,7.1,2.16,11.61-3.38,30.62-9.33,50.02-2.05,6.69-1.9,13.86.38,20.47,1.95,5.63,3.28,11.51,4.11,17.59,1.01,7.47,4.46,14.36,9.77,19.71,5.58,5.61,10.42,12.13,13.95,20.29,3.14,7.26,4.75,15.08,5.09,22.97.37,8.54.6,17,.25,25.16Z"/>
        <path class="cls-5" d="M158.88,175.74c-.28-5.99.7-13.13,2.22-20.77,1.62-8.13.38-16.59-3.55-23.89-9.4-17.48-11.12-38.62-3.92-51.88,4.03-7.42,13.14-10.44,20.85-7.01,12.46,5.54,28.33,18.34,43.61,24.05,12.08,7.56,16.36,18.39,15.7,31.3-.07,1.43-1.79,2.1-2.8,1.09-5.12-5.09-9.39-7.21-15.71-5.21-2.14,1.21.24,3.87,3.85,6.78,1.92,1.55.17,4.6-2.13,3.72-4.22-1.61-9.97-4.16-15.57-3.15-2.35.42-2.51,3.8-.22,4.45,3.42.98,8.38,1.56,12.25,4.22,1.86,1.27,1.26,4.16-.95,4.58-3.09.59-5.63,1.13-6.14,5.21-.17,1.33,1.06,2.4,2.37,2.12,3.92-.84,9.67-5.59,16.04-6.74.89-.16,1.34,1.04.57,1.51-17.68,11.89-40.57,29.48-53.93,36.64-5.49,2.94-12.26-.8-12.55-7.02Z"/>
        <path class="cls-5" d="M364.96,123.57c.7,1.88,3.51,1.46,3.61-.55.31-6.07-2.12-13.91-.91-17.53,6.2-20.27,14.32-42.29,10.74-53.62-1.11-3.52-5.15-5.23-8.43-3.55-10.01,5.14-26.8,25.54-39.92,35.11-9.09,6.32-8.31,10.94-5.19,15.14,2.61,3.4,8.52-5.38,11.43-5.07.48.05.83.48.91.95.38,2.31-1.71,6.79,2.38,4.98,4.26-1.5,6.16-8.06,11.13-8.99,1.08-.2,2.06.71,1.95,1.8-.36,3.4-4.43,7.58-2.57,9.35,1.07,1.07,4.74-2.22,6.94-3.01.8-.29,1.55.54,1.16,1.3-.76,1.51-1.78,3.63-2.14,5.56-.3,1.56.56,3.11,2.05,3.67,3.46,1.3,5.03,9.53,6.86,14.46Z"/>
        <g class="cls-1">
          <path class="cls-8" d="M406.59,202.7c-.34-7.89-1.95-15.71-5.09-22.97-3.53-8.16-8.37-14.68-13.95-20.29-5.31-5.35-8.76-12.24-9.77-19.71-.83-6.08-2.16-11.96-4.11-17.59-2.28-6.61-2.43-13.78-.38-20.47,5.95-19.4,11.49-38.41,9.33-50.02-1.31-7.01-9.19-10.63-15.39-7.1-10.56,6.03-24.44,22.05-45.01,26.83l-9.39,1.67c-1.02,11.07-5.17,25.15-9.56,39.45-2.05,6.69-1.9,13.86.38,20.47,1.95,5.63,3.28,11.51,4.11,17.59,1.01,7.47,4.46,14.36,9.77,19.71,5.58,5.61,10.42,12.13,13.95,20.29,3.14,7.26,4.75,15.08,5.09,22.97.37,8.54.6,17,.25,25.16-.8,18.65-4.63,35.7-16.8,48.38-4.13,4.31-7.33,9.46-9.31,15.09-2.45,7-8.17,12.83-17.02,17.53-2.05,1.09-4.01,2.33-5.88,3.7,9.13,3.65,19.06,5.81,29.65,6.73,1,.09,1.99.14,2.99.16.39.01.79.02,1.18.02.64,0,1.28-.01,1.92-.04.38-.01.77-.03,1.15-.06.46-.03.92-.07,1.38-.11.29-.03.58-.06.87-.09.27-.03.54-.06.81-.1.42-.06.83-.12,1.25-.19.41-.06.82-.13,1.23-.22,1.03-.19,2.06-.43,3.08-.7,3.78-1.02,7.43-2.56,10.81-4.65,2.7-1.67,5.05-3.52,6.96-5.58,3.61-3.92,7.91-7.18,12.62-9.69,8.85-4.7,14.57-10.53,17.02-17.53,1.98-5.63,5.18-10.78,9.31-15.09,12.17-12.68,16-29.73,16.8-48.38.35-8.16.12-16.62-.25-25.16Z"/>
        </g>
        <path class="cls-8" d="M363.71,308.86l-34.33,66.07h-.01l-19.81,38.13c-16.87,33.14-34.24,86.3-51.67,141.32-20.39-29.31-39.9-57.6-56.64-82.76-11.31-16.98-21.35-32.52-29.56-45.99-7.09-11.62-12.28-24.2-15.46-37.26-3.18-13.07-4.35-26.64-3.38-40.22.61-8.59,1.41-17.71,2.25-26.96.77-8.47.17-17.02-1.88-25.27-2.19-8.88-4.03-17.55-5.36-25.91-3.31-20.75-3.53-39.65,1.52-55.39.03.84.07,1.67.12,2.5.01.39.03.79.06,1.18.06,1.02.13,2.04.22,3.04.06.87.14,1.73.23,2.59.09.93.19,1.86.3,2.78.06.51.13,1.03.2,1.54.09.7.19,1.4.3,2.1.12.8.25,1.59.39,2.38.06.39.13.78.21,1.17.12.68.25,1.36.39,2.03.08.39.16.78.25,1.17.1.49.21.97.32,1.45.07.34.15.67.24,1.01.14.59.29,1.19.45,1.78.3,1.18.64,2.34.99,3.49.24.77.49,1.54.75,2.3.19.6.4,1.19.62,1.78.17.47.34.93.52,1.39.16.42.33.84.5,1.25.55,1.37,1.14,2.71,1.78,4.02.32.67.65,1.34,1,2,.08.16.16.32.24.48.16.3.32.6.49.89.25.46.51.92.77,1.37,8.93,16.55,21.28,29.4,38.3,37.16,7.96,3.63,16.54,5.74,25.25,6.61,8.62.87,16.96,2,24.95,3.46,9.62,1.76,18.8,5.29,27.22,10.27,12.05,7.13,25.86,10.98,41.02,12.3,1,.09,1.99.14,2.99.16.39.01.79.02,1.18.02.64,0,1.28-.01,1.92-.04.38-.01.77-.03,1.15-.06.46-.03.92-.07,1.38-.11.29-.03.58-.06.87-.09.27-.03.54-.06.81-.1.42-.06.83-.12,1.25-.19.41-.06.82-.13,1.23-.22,1.03-.19,2.06-.43,3.08-.7,3.78-1.02,7.43-2.56,10.81-4.65,2.7-1.67,5.05-3.52,6.96-5.58,3.61-3.92,7.91-7.18,12.62-9.69Z"/>
        <path class="cls-8" d="M985.85,1243.86c.33,23.98-15.18,38.85-34.13,43.49-19.56,4.79-42.79-1.32-56.08-19.56-59.81-86.06-125.33-185.86-174.12-245.33-21.12-25.75-49.23-44.93-81.07-54.67-6.39-1.96-12.8-4.04-19.23-6.24-13.73-4.71-27.55-9.98-41.45-15.77-19.4-8.08-40.15-12.43-61.17-12.62-18.76-.17-39.05-3.3-60.17-8.02-29.62-6.62-56.55-22.22-76.69-44.9-.15-.16-.3-.33-.45-.5-18.99-21.57-34.51-45.03-47.12-70.06-.53-1.04-1.04-2.08-1.56-3.13-9.8-19.92-22.75-38.07-38.23-53.98-.62-.64-1.24-1.29-1.85-1.95-16.66-17.82-27.16-40.53-30.58-64.68-5.77-40.77-6.5-85.06-4.06-131.56,17.43-55.02,34.8-108.18,51.67-141.32l19.82-38.13,34.33-66.07c8.85-4.7,14.57-10.53,17.02-17.53,1.98-5.63,5.18-10.78,9.31-15.09,12.17-12.68,16-29.73,16.8-48.38l12.62,11.15c10.99,9.71,24.21,16.55,38.49,19.9l3.27.77c13.82,3.25,26.72,9.65,37.63,18.73,64.53,53.73,123.61,112.67,160.52,192.78,5.05,10.97,10.32,21.84,15.9,32.54,34.18,65.52,58.12,130.24,47.01,192.22-2.32,12.93-3.3,26.05-3.43,39.18-.08,7.96-.63,15.71-1.62,23.26-1.33,10.33-3.48,20.31-6.3,29.99-.41,1.41-.68,2.84-.8,4.26-.73,8.03,2.94,15.99,9.92,20.43,31.3,19.91,62.17,53.23,92.73,95.91,5.51,7.69,11.24,15.23,17.14,22.64,74.03,92.93,133.45,191.05,154.89,302.64.61,3.16.99,6.37,1.04,9.6Z"/>
        <path class="cls-6" d="M319.47,294.63c6.34,7.36,18.58,2.13,23.96-3.99,1.51-1.86,3.74-3.33,6.22-3.36,5.71.05,16.34,4.21,18.01-3.99-1.1,8.54-12.2,5.02-17.96,4.9-2.29.08-4.13,1.39-5.53,3.13-1.6,1.73-3.46,3.22-5.48,4.42-5.62,3.43-14.92,5.13-19.21-1.1h0Z"/>
        <path class="cls-9" d="M291.07,227.56c-.04,1.74-.51,3.48-1.35,5.07-1.41,2.65-3.16,4.69-5.18,6.22-4.13,3.15-9.4,4.22-15.28,4.17-3.81-.03-7.61-.75-11.02-2.45-7.28-3.64-10.55-10.09-8.61-20.18.49-2.56,2.44-4.57,4.94-5.29,16.71-4.81,30.44-4.96,35.71,8.08.57,1.41.83,2.9.79,4.38Z"/>
        <path class="cls-4" d="M292.03,236.42l-7.49,2.43c2.02-1.53,3.77-3.57,5.18-6.22.84-1.59,1.31-3.33,1.35-5.07l2.54,5.08c.74,1.48,0,3.27-1.58,3.78Z"/>
        <path class="cls-9" d="M350.12,218.08c-.54-9.69,4.26-17.55,17.18-22.63,5.37-2.11,11.28,1.63,11.68,7.38.17,2.54-.17,5.41-.85,8.51-1.27,5.76-4.64,10.94-9.66,14.05-3.79,2.35-7.44,3-10.95,2.04-4.22-1.15-7.16-4.99-7.4-9.35Z"/>
        <path class="cls-4" d="M358.63,200.09l.35,5.6c.14,2.25.91,4.41,2.23,6.23l1.87,2.58c.57.79,1.8.53,2.01-.41l.94-4.23c.43-1.94.24-3.97-.55-5.79l-2.82-6.5-4.03,2.53Z"/>
        <path class="cls-4" d="M269.05,212.11l-1.4,8.5c-.26,1.57-.06,3.18.58,4.64l1.94,4.45c.39.9,1.67.86,2.02-.05l2.15-5.68c.6-1.6.57-3.37-.11-4.95l-2.96-6.91h-2.21Z"/>
        <path class="cls-2" d="M985.85,1243.86c.33,23.98-15.18,38.85-34.13,43.49-138.41-404.42-323.03-287.03-330.51-546.68-5.71-198.12-112.23-229.67-209.91-220.82-61.98,5.61-119.34-61.85-95.28-119.24,39.88-95.11,59.09-95.94,61.93-102.78,3.6-8.66,7.95-17.28,12.08-21.59,12.17-12.68,16-29.73,16.8-48.38l12.62,11.15c10.99,9.71,24.21,16.55,38.49,19.9l3.27.77c13.82,3.25,26.72,9.65,37.63,18.73,64.53,53.73,123.61,112.67,160.52,192.78,5.05,10.97,10.32,21.84,15.9,32.54,34.18,65.52,58.12,130.24,47.01,192.22-2.32,12.93-3.3,26.05-3.43,39.18-.08,7.96-.63,15.71-1.62,23.26-1.33,10.33-3.48,20.31-6.3,29.99-.41,1.41-.68,2.84-.8,4.26-.73,8.03,2.94,15.99,9.92,20.43,31.3,19.91,62.17,53.23,92.73,95.91,5.51,7.69,11.24,15.23,17.14,22.64,74.03,92.93,133.45,191.05,154.89,302.64.61,3.16.99,6.37,1.04,9.6Z"/>
        <path class="cls-7" d="M323.34,260.68l26.41-5.49c1.59-.33,2.96,1.15,2.51,2.71l-5.92,20.5c-.42,1.44-2.14,2.03-3.35,1.14l-20.5-15c-1.51-1.1-.99-3.47.83-3.85Z"/>
        <g>
          <path class="cls-3" d="M270.07,298.51s-54,44.52-112.37,43.32"/>
          <path class="cls-3" d="M190.47,435.93c0-70.88,84.29-130.43,84.29-130.43,0,0-50.94,64.92-47.96,113.16"/>
          <path class="cls-3" d="M280.44,309.03s-26.54,74.09-20.66,105.26"/>
          <path class="cls-3" d="M289.22,320.18s-19.04,48.24-13.95,85.87"/>
          <path class="cls-3" d="M296.83,320.18s-14.09,47.65-2.93,85.87"/>
          <path class="cls-3" d="M380.2,283.29s26.61,20.74,43.91,22.2"/>
          <path class="cls-3" d="M373.99,294.4s44.8,17.89,50.12,38.29"/>
          <path class="cls-3" d="M409.92,370.72c-1.33-58.23-35.93-72.21-35.93-72.21,0,0,49.68,49.27,6.21,98.06"/>
          <path class="cls-3" d="M365.56,389.02c26.61-36.37,2.1-82.48,2.1-82.48,0,0-.41,64.29-24.1,86.02"/>
        </g>
        <path class="cls-2" d="M363.71,308.86l-34.33,66.07h-.01l-19.81,38.13c-16.87,33.14-34.24,86.3-51.67,141.32-20.39-29.31-39.9-57.6-56.64-82.76-11.31-16.98-21.35-32.52-29.56-45.99-7.09-11.62-12.28-24.2-15.46-37.26-3.18-13.07-4.35-26.64-3.38-40.22.61-8.59,1.41-17.71,2.25-26.96.77-8.47.17-17.02-1.88-25.27-2.19-8.88-4.03-17.55-5.36-25.91-3.31-20.75-3.53-39.65,1.52-55.39.03.84.07,1.67.12,2.5.01.39.03.79.06,1.18.06,1.02.13,2.04.22,3.04.06.87.14,1.73.23,2.59.09.93.19,1.86.3,2.78.06.51.13,1.03.2,1.54.09.7.19,1.4.3,2.1.12.8.25,1.59.39,2.38.06.39.13.78.21,1.17.12.68.25,1.36.39,2.03.08.39.16.78.25,1.17.1.49.21.97.32,1.45.07.34.15.67.24,1.01.14.59.29,1.19.45,1.78.3,1.18.64,2.34.99,3.49.24.77.49,1.54.75,2.3.19.6.4,1.19.62,1.78.17.47.34.93.52,1.39.16.42.33.84.5,1.25.55,1.37,1.14,2.71,1.78,4.02.32.67.65,1.34,1,2,.08.16.16.32.24.48.16.3.32.6.49.89.25.46.51.92.77,1.37,8.93,16.55,21.28,29.4,38.3,37.16,7.96,3.63,16.54,5.74,25.25,6.61,8.62.87,16.96,2,24.95,3.46,9.62,1.76,18.8,5.29,27.22,10.27,12.05,7.13,25.86,10.98,41.02,12.3,1,.09,1.99.14,2.99.16.39.01.79.02,1.18.02.64,0,1.28-.01,1.92-.04.38-.01.77-.03,1.15-.06.46-.03.92-.07,1.38-.11.29-.03.58-.06.87-.09.27-.03.54-.06.81-.1.42-.06.83-.12,1.25-.19.41-.06.82-.13,1.23-.22,1.03-.19,2.06-.43,3.08-.7,3.78-1.02,7.43-2.56,10.81-4.65,2.7-1.67,5.05-3.52,6.96-5.58,3.61-3.92,7.91-7.18,12.62-9.69Z"/>
        <path class="cls-2" d="M510.4,825.63c-30.19,19.47-79.52,46.8-128.66,54.61h-.01c-19.19-21.71-34.85-45.34-47.56-70.56,36.08,9.79,123.19,30.07,175.31,13.96,1.23-.38,2,1.3.92,2Z"/>
      </g>
    </g>
  </g>
</svg>