<?xml version="1.0" encoding="UTF-8"?>
<svg xmlns="http://www.w3.org/2000/svg" viewBox="0 0 1000 1000">
  <defs>
    <style>
      .cls-1 {
        fill: #fff;
        opacity: .7;
      }

      .cls-1, .cls-2, .cls-3, .cls-4, .cls-5, .cls-6, .cls-7, .cls-8, .cls-9, .cls-10, .cls-11, .cls-12, .cls-13, .cls-14, .cls-15, .cls-16, .cls-17, .cls-18, .cls-19, .cls-20, .cls-21 {
        stroke-width: 0px;
      }

      .cls-2 {
        fill: #e0e2e2;
        opacity: .8;
      }

      .cls-3 {
        fill: #f4f9f9;
      }

      .cls-3, .cls-21 {
        opacity: .4;
      }

      .cls-4, .cls-5, .cls-6, .cls-7, .cls-22 {
        opacity: .3;
      }

      .cls-4, .cls-5, .cls-6, .cls-7, .cls-22, .cls-21 {
        mix-blend-mode: multiply;
      }

      .cls-4, .cls-15 {
        fill: #b7bcbc;
      }

      .cls-5, .cls-13 {
        fill: #d5dbdb;
      }

      .cls-6, .cls-10 {
        fill: #6472a0;
      }

      .cls-23 {
        fill: none;
        stroke: #231f20;
        stroke-miterlimit: 10;
      }

      .cls-7, .cls-8 {
        fill: #f4a4bb;
      }

      .cls-24 {
        isolation: isolate;
      }

      .cls-9 {
        fill: #495fba;
      }

      .cls-11 {
        fill: #302c2d;
      }

      .cls-12 {
        fill: #cccece;
      }

      .cls-14 {
        fill: #bfbfbf;
      }

      .cls-16, .cls-21 {
        fill: #f2c0d1;
      }

      .cls-17 {
        fill: #e8e8e8;
      }

      .cls-18 {
        fill: #ef84a8;
      }

      .cls-19 {
        fill: #f4f2f3;
      }

      .cls-20 {
        fill: #f4f4f4;
      }
    </style>
  </defs>
  <g class="cls-24">
    <g id="Layer_1" data-name="Layer 1">
      <g>
        <path class="cls-13" d="M599.72,161.45c-12.29-38.86-10.72-76.76,10.48-113.3,12.31-21.23,39.79-28.05,60.79-15.35l73.3,44.3c9.73,5.88,19.87,11.02,30.25,15.65,6,2.67,11.72,5.55,17.08,8.7,20.58,12.06,35.29,32,41.56,55.01,9.2,33.76,9.69,67.77,1.36,102.03-7.75,31.86-25.67,60.32-50.53,81.69-37.44,32.18-74.71,66.49-111.86,102.57-5.46,5.3-12.7,8.41-20.3,8.59-21.29.48-42.24-7.88-47.45-28.61-.73-2.89-1.03-5.86-1.07-8.84l-3.61-252.44Z"/>
        <path class="cls-16" d="M614.67,168.36c-5.01-25.65-1.81-50.73,12.25-75.05,9.86-17.06,31.86-22.64,48.73-12.45l58.64,35.44c7.78,4.7,15.9,8.82,24.2,12.52,4.6,2.05,9,4.26,13.14,6.65,16.7,9.67,28.7,25.7,33.77,44.32,7.36,27,7.75,54.21,1.09,81.62-6.17,25.39-20.39,48.13-40.2,65.16-30.07,25.84-60,53.39-89.83,82.37-4.34,4.21-10.11,6.61-16.15,6.75-17.21.38-34.15-6.47-38.06-23.47h0c-.7-3.04-.78-6.18-.25-9.25l10.68-61.67c6.74-38.9,4.19-78.83-7.42-116.56-4.99-16.23-9.45-30.62-10.58-36.37Z"/>
        <path class="cls-5" d="M834.54,250.48c-7.75,31.86-25.67,60.32-50.53,81.69-37.44,32.18-74.71,66.49-111.86,102.57-5.46,5.3-12.7,8.41-20.3,8.59-21.29.48-42.24-7.88-47.45-28.61-.73-2.89-1.03-5.86-1.07-8.84l-3.61-252.44c-4.58-14.49-7.23-28.84-7.66-43.04-.5,16.8,2.22,33.83,7.66,51.04l3.61,252.44c.04,2.98.34,5.95,1.07,8.84,5.21,20.73,26.16,29.09,47.45,28.61,7.61-.17,14.84-3.28,20.3-8.59,37.15-36.09,74.42-70.39,111.86-102.57,24.86-21.37,42.79-49.83,50.53-81.69,4.26-17.51,6.2-34.95,5.86-52.33-.31,14.73-2.26,29.5-5.86,44.33Z"/>
        <path class="cls-21" d="M621.52,383.32c-.28,1.62-.39,3.27-.33,4.91.05,1.47.25,2.92.57,4.35,3.07,13.42,14.26,20.53,27.29,22.76,3.48.59,7.11.84,10.74.77,6.04-.13,11.82-2.52,16.16-6.72,29.88-28.94,59.86-56.44,89.96-82.23,4.02-3.44,7.8-7.11,11.33-10.99-6.41,5.66-38.21,26.51-66.73,41.13-24.04,12.31-52.24-6.93-49.52-33.8,1.85-18.27,5.23-38.44,7.96-54.45,9.62-64.54,2.39-113.83-42.02-175.37-14.1,24.31-17.34,49.38-12.37,75.04,1.43,7.33,8.25,28.75,14.7,50.1,1.06,3.5,2.11,7.01,3.12,10.44,4.79,16.28,6.82,33.18,6.06,50.04-.29,6.51-1.01,13.04-2.13,19.5l-14.78,84.52Z"/>
        <path class="cls-13" d="M398.41,164.16c10.81-39.3,7.8-77.11-14.77-112.82-13.11-20.75-40.82-26.52-61.33-13.04l-71.56,47.05c-9.5,6.24-19.44,11.77-29.64,16.78-5.89,2.9-11.5,6-16.74,9.34-20.11,12.83-34.05,33.31-39.44,56.55-7.91,34.08-7.11,68.08,2.51,102.01,8.95,31.54,27.94,59.3,53.6,79.71,38.63,30.74,77.18,63.6,115.67,98.26,5.65,5.09,13.01,7.93,20.61,7.81,21.29-.33,41.91-9.48,46.33-30.39.62-2.91.8-5.9.73-8.87l-5.97-252.39Z"/>
        <path class="cls-16" d="M379.33,379.18c.34,1.61.51,3.25.51,4.89,0,1.47-.14,2.93-.41,4.37-2.58,13.52-13.5,21.03-26.45,23.74-3.46.72-7.07,1.1-10.7,1.16-6.04.09-11.9-2.09-16.39-6.13-30.91-27.84-61.87-54.23-92.89-78.91-4.14-3.29-8.05-6.82-11.72-10.57-.4-.4-.8-.81-1.19-1.22h-.01v-.02c-5.16-5.41-9.82-11.25-13.93-17.46-6.96-10.51-12.32-22.06-15.8-34.32-7.7-27.14-8.34-54.34-2.01-81.6,4.36-18.8,15.74-35.28,32.06-45.57,4.05-2.56,8.36-4.93,12.88-7.15,8.16-4.01,16.12-8.43,23.71-13.43l42.23-27.76,15.02-9.87c16.47-10.83,38.67-6.09,49.17,10.59,14.97,23.78,19.12,48.72,15.09,74.54-1.16,7.38-7.2,29.03-12.87,50.6-.93,3.54-1.85,7.08-2.74,10.55-4.2,16.44-5.61,33.41-4.24,50.23.53,6.5,1.48,12.99,2.84,19.41l17.84,83.93Z"/>
        <g class="cls-22">
          <path class="cls-13" d="M404.27,411.98c-.11,1.49-.32,2.98-.63,4.44-4.42,20.91-25.04,30.06-46.33,30.39-7.61.12-14.96-2.72-20.61-7.81-38.49-34.65-77.04-67.52-115.67-98.26-25.65-20.41-44.65-48.17-53.6-79.71-4.8-16.91-7.4-33.84-7.83-50.79-.41,19.96,2.18,39.88,7.83,59.79,8.95,31.54,27.94,59.3,53.6,79.71,38.63,30.74,77.18,63.6,115.67,98.26,5.65,5.09,13.01,7.93,20.61,7.81,21.29-.33,41.91-9.48,46.33-30.39.62-2.91.8-5.9.73-8.87l-.11-4.57Z"/>
          <path class="cls-13" d="M398.41,155.16l.2,8.26c4.23-15.62,6.27-31,5.76-46.11-.39,12.44-2.44,25.07-5.95,37.85Z"/>
        </g>
        <path class="cls-21" d="M379.33,379.18c.34,1.61.51,3.25.51,4.89,0,1.47-.14,2.93-.41,4.37-2.58,13.52-13.5,21.03-26.45,23.74-3.46.72-7.07,1.1-10.7,1.16-6.04.09-11.9-2.09-16.39-6.13-30.91-27.84-61.87-54.23-92.89-78.91-4.14-3.29-8.05-6.82-11.72-10.57,6.61,5.42,39.15,25.1,68.18,38.68,24.47,11.43,51.95-8.82,48.26-35.58-2.51-18.19-6.62-38.22-9.93-54.13-11.96-64.15-6.52-113.67,35.62-176.78,14.97,23.78,19.12,48.72,15.09,74.54-1.16,7.38-7.2,29.03-12.87,50.6-.93,3.54-1.85,7.08-2.74,10.55-4.2,16.44-5.61,33.41-4.24,50.23.53,6.5,1.48,12.99,2.84,19.41l17.84,83.93Z"/>
        <path class="cls-14" d="M625.28,582.37c6.11,2.07,12.31,3.77,18.57,5.1,28.06,6.02,57.31,4.74,84.9-3.87l26.74-8.34c6.93-2.16,10.9-9.42,8.97-16.42l-7.69-27.9c-2.14-7.78-9.7-12.84-17.7-11.78-25.51,3.37-49.33,3.98-74.26-7.71-21.67-10.16-36.51-31.4-51.38-51.4l-17.14-23.07"/>
        <g>
          <path class="cls-10" d="M737.45,492.04c-.77,1.12-1.96,1.94-3.39,2.21l-1.49.28h-.01l-50.06,9.36h-.03s-.01.01-.02.01l-.99.19c-2.72.51-5.51-1.02-6.27-3.68-.87-3.04,1.07-6.1,4.11-6.67l5.56-1.04,2.33-.44,41.06-7.67,3.62-.68c2.96-.56,6,1.39,6.44,4.37.21,1.36-.13,2.69-.86,3.76Z"/>
          <path class="cls-10" d="M728.29,484.62l-43.46,8.14.03-.06,2.66-5.6c.64-1.35,1.89-2.31,3.36-2.58l25.82-4.83,2.97-.56c1.47-.27,2.98.17,4.06,1.19l4.52,4.27.04.03Z"/>
          <path class="cls-10" d="M739.42,504.6c-.94,1.38-2.41,2.39-4.19,2.73l-9.63,1.8-31.46,5.89-.16.03-8.89,1.66c-3.27.61-6.62-1.19-7.63-4.36-1.23-3.81,1.18-7.72,4.99-8.45h.05s50.06-9.37,50.06-9.37h.01c3.62-.68,7.33,1.7,7.91,5.33.28,1.72-.14,3.4-1.06,4.74Z"/>
          <path class="cls-10" d="M754.38,604.21l-3.62.68-41.61,7.79-1.79.33-5.33,1c-2.71.5-5.51-1.03-6.27-3.68-.88-3.04,1.06-6.1,4.1-6.67l1.49-.28h.01l49.82-9.32,1.5-.28c1.43-.27,2.84.07,3.96.83,1.07.73,1.87,1.85,2.17,3.2.66,2.94-1.47,5.85-4.43,6.4Z"/>
          <path class="cls-10" d="M750.78,604.84l-.02.05-2.67,5.6c-.64,1.35-1.89,2.31-3.36,2.58l-28.79,5.39c-1.47.28-2.98-.17-4.06-1.19l-4.52-4.26-.04-.04,43.46-8.13Z"/>
          <path class="cls-10" d="M751.18,594.06l-49.82,9.32h-.01c-.26.05-.51.08-.76.1-3.26.24-6.38-1.84-7.08-5.08-.79-3.62,1.57-7.14,5.18-7.82l9.11-1.7h.05s.02-.02.03-.02.02,0,.04,0l17.56-3.28,13.93-2.61,9.64-1.8c1.77-.33,3.51.09,4.89,1.03,1.34.92,2.34,2.33,2.7,4.03.77,3.6-1.84,7.16-5.46,7.84Z"/>
          <path class="cls-10" d="M739.41,582.96l-13.93,2.61-17.6,3.29s-.02.01-.03.01h-.05c-.06-.29-.09-.6-.09-.91,0-2.43,1.89-4.91,4.99-6.9l-11.32-60.49c-4.06-.83-6.93-2.8-7.4-5.52h0s31.62-5.92,31.62-5.92c.06.3.09.6.09.9,0,2.38-1.82,4.82-4.8,6.8l11.34,60.57-.21.04c4.06.83,6.92,2.8,7.39,5.52Z"/>
        </g>
        <path class="cls-13" d="M668.67,684.69c-5.28-26.89-13.94-60.02-24.82-97.22-13.25-45.37-29.81-96.83-47.56-150.49-4.65,3.2-9.74,5.82-15.15,7.78-10.81,3.9-21.58,7.08-32.32,9.54-10.13,41.67-12.18,92.43-11.55,146.2.08,6.87-5.45,12.48-12.31,12.48h-10.32c-6.29,0-11.56-4.74-12.24-11-5.89-54.05-15.83-102.4-31.62-142.51-14.48-1.42-28.9-4.2-43.25-8.32-3.49-1.01-6.86-2.31-10.06-3.88-16.8,37.88-28.63,83.52-37.42,133.9,6.47-4.45,18.09-6.57,28-7.83l-1.4-3.19c-.11-1.09.69-1.83,1.4-2.66,1.38-1.6.08-4.26.08-6.54,0-2.93,3.48-6.26,1.35-7.94-.86-.68-2.73-1.78-2.83-2.86l-4.86-23.79c-.2-2.14.29-3.82,2.43-4.03l1.9-.2-.72-2.97,38.68-3.3-.33,2.61,1.48-.15c2.14-.2,4.05,1.37,4.26,3.51l1.3,23.02c.11,1.1-.12,1.84-.86,2.67-1.42,1.62-1.49,4.02-1.49,6.33,0,2.96,1.41,5.59,3.58,7.27.88.67,1.47,1.65,1.58,2.74l2.26,23.17c3.22,3.83,5.04,8.17,5.04,12.77,0,3.42-1,6.69-2.84,9.72l2.01,20.63c.07.77-.08,1.51-.41,2.16-.41.8-1.08,1.45-1.95,1.82-14.12,6.01-28.58,7.21-43.32,4.22-.59-.12-1.12-.37-1.57-.71-.85-.64-1.42-1.63-1.53-2.74l-.69-7.11c-6.68-.34-12.96-1.56-18.52-3.47-6.37-.58-12.53-1.3-18.4-2.24-2.44,17.49-4.59,35.41-6.54,53.66-3.43,32.12-2.35,64.62,3.81,96.33,5.07,26.07,13.09,50.02,24.75,71.37,9.12,16.72,15.05,35.07,16.36,54.08,1.07,15.56-.06,31.04-3.96,46.41-1.9,7.52,1.81,15.38,8.79,18.77,2.72,1.32,5.45,2.52,8.2,3.62,6.16,2.44,12.41,4.31,18.76,5.54,1.04.2,2.09.39,3.13.55,6.29,1,12.67,1.38,19.16,1.08.99-.05,1.99-.11,2.99-.2,6.24-.49,12.58-1.62,19.02-3.44,2.6-.73,5.22-1.57,7.86-2.53,5.15-1.87,8.37-7,7.96-12.47-3.22-42.15-2.18-80.85,9.14-111.22,1.94-5.2,9.43-4.88,10.83.49,7.56,29.02,9.94,64.67,10.38,102.82.08,6.9,4.18,13.15,10.5,15.92.85.37,1.69.73,2.54,1.06,6.22,2.53,12.39,4.31,18.51,5.29,1.14.18,2.27.34,3.4.46,6.33.71,12.59.54,18.79-.54,1.16-.2,2.31-.43,3.47-.7,6.17-1.43,12.28-3.79,18.33-7.13,1.57-.86,3.14-1.8,4.7-2.8,4.95-3.18,7.29-9.22,5.77-14.9-8.08-30.25-3.57-60.99,12.36-92.16,30.3-58.77,43.88-114.97,35.98-166.75ZM441.43,515.6l-34.12,2.19c-2.25.22-4.89.25-5.11-2l-.43-4.44c-.22-2.25,1.43-4.26,3.68-4.48l27.69-2.7c.55-4.34-.27-7.3-4.61-6.73-.1.36-.33.71-.65,1.03l.6,6.12-11.01,1.08-.59-6.12c-.61-.41-.97-.91-1.03-1.48-.17-1.72,2.55-3.4,6.07-3.74,2.57-.25,4.86.28,5.97,1.26h.01c5.5-1.83,9.55,1.14,8.88,8.22l3.83-.37c2.25-.22,4.25,1.43,4.47,3.68l.43,4.44c.22,2.26-1.83,3.82-4.08,4.04Z"/>
        <path class="cls-23" d="M373.68,622.08c.37-2.69.75-5.36,1.14-8.02,1.61-11.16,3.35-22.14,5.23-32.89"/>
        <path class="cls-12" d="M373.68,622.08c-16.67-2.67-30.87-7.11-40.1-15.09-6.32-5.48-7.62-14.78-3.16-21.85l87.05-137.87-43.79,174.81Z"/>
        <path class="cls-23" d="M392.14,624.33s-.04,0-.06,0"/>
        <path class="cls-13" d="M642.81,275.83c-1.66,17.96-5.56,36.31-11.38,55-2.83,9.07-4.21,18.56-3.94,28.06.47,16.34-1.52,31.66-6.43,45.76-3.21,9.22-8.42,17.44-15.1,24.23-2.95,3-6.19,5.71-9.67,8.1-4.65,3.2-9.74,5.82-15.15,7.78-10.81,3.9-21.58,7.08-32.32,9.54-26.23,6.02-52.24,7.73-78.04,5.17-14.48-1.42-28.9-4.2-43.25-8.32-3.49-1.01-6.86-2.31-10.06-3.88-10.75-5.25-19.73-13.53-25.79-23.76h0c-2.5-4.22-4.51-8.76-5.94-13.56-3.96-13.3-7-28.93-9.98-44.74-1.51-8.06-4.28-15.85-8.32-22.99-12.01-21.18-20.23-43.31-23.7-66.61-2.94-19.73-.05-39.89,7.78-58.23,8.94-20.97,20.93-41.28,36.5-60.81,6.09-7.65,12.73-15.18,19.95-22.58,16.39-16.81,38.5-26.86,61.96-28.05l40.71-2.06c26.13-1.32,51.64,8.41,70.17,26.89,9.42,9.39,18.16,19.42,26.14,30.14,4.5,6.02,8.76,12.26,12.78,18.73,17.84,28.75,26.19,62.48,23.08,96.19Z"/>
        <g class="cls-22">
          <path class="cls-13" d="M621.06,404.65c-3.21,9.22-8.42,17.44-15.1,24.23-2.95,3-6.19,5.71-9.67,8.1-4.65,3.2-9.74,5.82-15.15,7.78-8.85,3.19-17.66,5.9-26.46,8.12-1.95.5-3.91.97-5.86,1.42-26.23,6.02-52.24,7.73-78.04,5.17-4.98-.49-9.94-1.14-14.9-1.95-9.48-1.54-18.93-3.67-28.35-6.37-3.49-1.01-6.86-2.31-10.06-3.88-10.75-5.25-19.73-13.53-25.79-23.76h0c-2.5-4.22-4.51-8.76-5.94-13.56-3.96-13.3-7-28.93-9.98-44.74-1.51-8.06-4.28-15.85-8.32-22.99-12.01-21.18-20.23-43.31-23.7-66.61-1.03-6.91-1.33-13.86-.97-20.78.17,3.27.49,6.53.97,9.78,3.47,23.3,11.69,45.43,23.7,66.61,4.04,7.14,6.81,14.93,8.32,22.99,2.98,15.81,6.02,31.44,9.98,44.74,1.43,4.8,3.44,9.34,5.94,13.55h0c6.06,10.24,15.04,18.52,25.79,23.77,3.2,1.57,6.57,2.87,10.06,3.88,12.8,3.68,25.66,6.28,38.56,7.81,1.56.19,3.13.36,4.69.51,24.29,2.41,48.77,1.04,73.45-4.16,1.53-.32,3.06-.66,4.59-1.01,10.74-2.46,21.51-5.64,32.32-9.54,5.41-1.96,10.5-4.58,15.15-7.78,3.48-2.39,6.72-5.1,9.67-8.1,6.68-6.79,11.89-15.01,15.1-24.23,3.96-11.36,6.01-23.51,6.42-36.35,0,.53-.01,1.06.01,1.59.47,16.34-1.52,31.66-6.43,45.76Z"/>
          <path class="cls-13" d="M642.81,264.83c-1.66,17.96-5.56,36.31-11.38,55-2.83,9.07-4.21,18.56-3.94,28.06.05,1.71.07,3.41.06,5.1.32-7.52,1.64-14.97,3.88-22.16,5.82-18.69,9.72-37.04,11.38-55,.6-6.48.77-12.97.53-19.42-.1,2.8-.27,5.61-.53,8.42Z"/>
        </g>
        <path class="cls-5" d="M632.69,851.44c-15.93,31.17-20.44,61.91-12.36,92.16,1.52,5.68-.82,11.72-5.77,14.9-1.56,1-3.13,1.94-4.7,2.8-6.05,3.34-12.16,5.7-18.33,7.13-1.16.27-2.31.5-3.47.7-6.2,1.08-12.46,1.25-18.79.54-1.13-.12-2.26-.28-3.4-.46-6.12-.98-12.29-2.76-18.51-5.29-.85-.33-1.69-.69-2.54-1.06,26.79.54,39.86-5.38,53.77-20.08,7.64-8.07,7.82-19.46,6.69-29.78-1.69-15.33-.03-30.84,4.42-45.6,15.93-52.83,31.1-104.61,33.44-138.32,1.8-80.63-18.03-182.04-46.85-292.1,17.75,53.66,34.31,105.12,47.56,150.49,10.88,37.2,19.54,70.33,24.82,97.22,7.9,51.78-5.68,107.98-35.98,166.75Z"/>
        <path class="cls-20" d="M565.87,969.21c-6.12-.98-12.29-2.76-18.51-5.29l.69-13.44c.23-4.49,3.93-8.02,8.43-8.02,2.25,0,4.3.88,5.82,2.33,1.51,1.44,2.5,3.44,2.61,5.69l.96,18.73Z"/>
        <path class="cls-20" d="M588.06,969.13c-6.2,1.08-12.46,1.25-18.79.54l.98-19.19c.23-4.49,3.94-8.02,8.43-8.02,2.25,0,4.3.88,5.82,2.33,1.51,1.44,2.5,3.44,2.61,5.69l.95,18.65Z"/>
        <path class="cls-20" d="M609.86,961.3c-6.05,3.34-12.16,5.7-18.33,7.13l.92-17.95c.23-4.49,3.94-8.02,8.43-8.02,2.25,0,4.3.88,5.82,2.33,1.51,1.44,2.5,3.44,2.61,5.69l.55,10.82Z"/>
        <path class="cls-3" d="M608.5,612.98c0,99.95-45.18,180.98-100.92,180.98s-100.93-81.03-100.93-180.98c0-66.07,19.74-123.87,49.23-155.46,4.96.81,9.92,1.46,14.9,1.95,25.8,2.56,51.81.85,78.04-5.17,1.95-.45,3.91-.92,5.86-1.42,32.01,30.34,53.82,90.65,53.82,160.1Z"/>
        <path class="cls-5" d="M503.97,954.85c.41,5.47-2.81,10.6-7.96,12.47-2.64.96-5.26,1.8-7.86,2.53-6.44,1.82-12.78,2.95-19.02,3.44-1,.09-2,.15-2.99.2-6.49.3-12.87-.08-19.16-1.08-1.04-.16-2.09-.35-3.13-.55-6.35-1.23-12.6-3.1-18.76-5.54-2.75-1.1-5.48-2.3-8.2-3.62l52.24-8.86c10.12-2.2,24.07-7.14,23.01-21.85-.18-32.84,3.02-73.02,20.97-88.36-11.32,30.37-12.36,69.07-9.14,111.22Z"/>
        <path class="cls-20" d="M443.85,971.86c-6.35-1.23-12.6-3.1-18.76-5.54l.81-15.84c.23-4.49,3.94-8.02,8.43-8.02,2.25,0,4.3.88,5.82,2.33,1.51,1.44,2.49,3.44,2.61,5.69l1.09,21.38Z"/>
        <path class="cls-20" d="M466.14,973.49c-6.49.3-12.87-.08-19.16-1.08l1.12-21.93c.23-4.49,3.94-8.02,8.43-8.02,2.25,0,4.3.88,5.82,2.33,1.51,1.44,2.49,3.44,2.61,5.69l1.18,23.01Z"/>
        <path class="cls-20" d="M488.15,969.85c-6.44,1.82-12.78,2.95-19.02,3.44l1.17-22.81c.23-4.49,3.94-8.02,8.43-8.02,2.25,0,4.3.88,5.82,2.33,1.51,1.44,2.49,3.44,2.61,5.69l.99,19.37Z"/>
        <path class="cls-2" d="M507.58,784.96c-54.82,0-99.44-78.39-100.89-176.07-.02,1.36-.04,2.72-.04,4.09,0,99.95,45.19,180.98,100.93,180.98s100.92-81.03,100.92-180.98c0-1.35-.02-2.68-.04-4.02-1.47,97.65-46.07,176-100.88,176Z"/>
        <path class="cls-17" d="M442.76,950.48c-.12-2.25-1.1-4.25-2.61-5.69-.29-.28-.61-.53-.93-.76.89,1.26,1.45,2.79,1.54,4.45l.74,14.42c.18,3.54-3.14,6.28-6.57,5.36-3.29-.88-6.54-1.94-9.78-3.15l-.06,1.21c6.16,2.44,12.41,4.31,18.76,5.54l-1.09-21.38Z"/>
        <path class="cls-17" d="M464.96,950.48c-.12-2.25-1.1-4.25-2.61-5.69-.29-.28-.61-.53-.93-.76.89,1.26,1.45,2.79,1.54,4.45l.85,16.53c.18,3.61-2.73,6.64-6.34,6.55s-6.96-.37-10.4-.84l-.09,1.69c6.29,1,12.67,1.38,19.16,1.08l-1.18-23.01Z"/>
        <path class="cls-17" d="M487.16,950.48c-.12-2.25-1.1-4.25-2.61-5.69-.29-.28-.61-.53-.93-.76.89,1.26,1.45,2.79,1.54,4.45l.63,12.26c.22,4.21-2.64,8-6.77,8.85-3.29.68-6.54,1.18-9.78,1.5l-.11,2.19c6.24-.49,12.58-1.62,19.02-3.44l-.99-19.37Z"/>
        <path class="cls-17" d="M564.91,950.48c-.11-2.25-1.1-4.25-2.61-5.69-.29-.28-.6-.52-.93-.76.9,1.26,1.46,2.79,1.54,4.45l.65,12.62c.16,3.17-2.77,5.62-5.85,4.86-3.41-.84-6.84-1.92-10.29-3.23l-.06,1.19c6.22,2.53,12.39,4.31,18.51,5.29l-.96-18.73Z"/>
        <path class="cls-17" d="M587.11,950.48c-.11-2.25-1.1-4.25-2.61-5.69-.29-.28-.6-.52-.93-.76.9,1.26,1.46,2.79,1.54,4.45l.61,12.06c.2,3.87-2.76,7.17-6.64,7.42-3.22.21-6.47.18-9.73-.09l-.09,1.8c6.33.71,12.59.54,18.79-.54l-.95-18.65Z"/>
        <path class="cls-17" d="M609.31,950.48c-.11-2.25-1.1-4.25-2.61-5.69-.29-.28-.6-.52-.93-.76.9,1.26,1.46,2.79,1.54,4.45l.26,5.19c.18,3.53-1.8,6.83-5.02,8.3-3.61,1.64-7.24,2.95-10.9,3.92l-.13,2.53c6.17-1.43,12.28-3.79,18.33-7.13l-.55-10.82Z"/>
        <g>
          <g>
            <path class="cls-19" d="M456.38,320.03c0,4.11-.46,8.05-1.28,11.75v.02c-2.71,12.06-9.48,21.44-17.96,24.75-2.15.85-4.4,1.28-6.72,1.28-.99,0-1.96-.07-2.9-.24-12.98-2.08-23.08-18.11-23.08-37.56,0-20.88,11.63-37.83,25.99-37.83,12.71,0,23.28,13.32,25.53,30.89.29,2.25.44,4.57.44,6.94Z"/>
            <path class="cls-9" d="M456.38,320.03c0,4.11-.46,8.05-1.28,11.75v.02c-2.71,12.06-9.48,21.44-17.96,24.75-2.15.85-4.4,1.28-6.72,1.28-.99,0-1.96-.07-2.9-.24-9.16-4.18-15.62-14.24-15.62-26.01,0-9.11,3.87-17.21,9.89-22.36,4.23-3.6,9.5-5.75,15.23-5.75,1.47,0,2.93.15,4.33.41,5.78,1.14,10.88,4.47,14.6,9.21.29,2.25.44,4.57.44,6.94Z"/>
            <path class="cls-11" d="M455.1,331.78v.02c-2.71,12.06-9.48,21.44-17.96,24.75-.43.02-.85.05-1.28.05-10.64,0-19.24-11.12-19.24-24.83s8.61-24.85,19.24-24.85,19.24,11.12,19.24,24.85Z"/>
            <path class="cls-1" d="M442.95,309.44c0,5.85-4.74,10.59-10.56,10.59s-10.59-4.74-10.59-10.59v-.22c4.23-3.6,9.5-5.75,15.23-5.75,1.47,0,2.93.15,4.33.41,1.02,1.62,1.6,3.53,1.6,5.56Z"/>
            <circle class="cls-1" cx="420.58" cy="323.64" r="4.75"/>
          </g>
          <g>
            <path class="cls-19" d="M549.22,320.03c0,4.11.46,8.05,1.28,11.75v.02c2.71,12.06,9.48,21.44,17.96,24.75,2.15.85,4.4,1.28,6.72,1.28.99,0,1.96-.07,2.9-.24,12.98-2.08,23.08-18.11,23.08-37.56,0-20.88-11.63-37.83-25.99-37.83-12.71,0-23.28,13.32-25.53,30.89-.29,2.25-.44,4.57-.44,6.94Z"/>
            <path class="cls-9" d="M549.22,320.03c0,4.11.46,8.05,1.28,11.75v.02c2.71,12.06,9.48,21.44,17.96,24.75,2.15.85,4.4,1.28,6.72,1.28.99,0,1.96-.07,2.9-.24,9.16-4.18,15.62-14.24,15.62-26.01,0-9.11-3.87-17.21-9.89-22.36-4.23-3.6-9.5-5.75-15.23-5.75-1.47,0-2.93.15-4.33.41-5.78,1.14-10.88,4.47-14.6,9.21-.29,2.25-.44,4.57-.44,6.94Z"/>
            <path class="cls-11" d="M550.5,331.78v.02c2.71,12.06,9.48,21.44,17.96,24.75.43.02.85.05,1.28.05,10.64,0,19.24-11.12,19.24-24.83,0-13.73-8.61-24.85-19.24-24.85-10.61,0-19.24,11.12-19.24,24.85Z"/>
            <path class="cls-1" d="M562.66,309.44c0,5.85,4.74,10.59,10.56,10.59s10.59-4.74,10.59-10.59v-.22c-4.23-3.6-9.5-5.75-15.23-5.75-1.47,0-2.93.15-4.33.41-1.02,1.62-1.6,3.53-1.6,5.56Z"/>
            <circle class="cls-1" cx="585.02" cy="323.64" r="4.75"/>
          </g>
        </g>
        <path class="cls-15" d="M391.27,294.36c-1.82-26.28,10.65-36.72,41.45-26.82-25.51-.33-38.06,9.6-41.45,26.82Z"/>
        <path class="cls-15" d="M610.41,294.36c1.82-26.28-10.65-36.72-41.45-26.82,25.51-.33,38.06,9.6,41.45,26.82Z"/>
        <g>
          <path class="cls-8" d="M459.78,631.79c-.41.8-1.08,1.45-1.95,1.82-14.12,6.02-28.58,7.23-43.32,4.25-.59-.12-1.12-.37-1.57-.71-.85-.64-1.42-1.63-1.53-2.74l-.69-7.11-5.22-52.99,48.76-4.99,1.69,17.19,2.22,22.49,2.02,20.63c.07.77-.08,1.51-.41,2.16Z"/>
          <path class="cls-16" d="M405.5,574.31h0s-.25-2.52-.25-2.52l-.23-2.37c-.11-1.09.27-2.16.98-2.99,1.38-1.6,2.21-3.69,2.21-5.97,0-2.93-1.36-5.53-3.49-7.21-.86-.68-1.44-1.64-1.54-2.72l-2.41-24.43c-.2-2.14,1.37-4.05,3.51-4.26l.47-.05,39.64-3.9.9-.09c2.14-.2,4.05,1.37,4.26,3.51l2.27,22.96c.11,1.1-.28,2.18-1.02,3.01-1.42,1.62-2.28,3.74-2.28,6.05,0,2.96,1.41,5.59,3.58,7.27.88.67,1.47,1.65,1.58,2.74l.58,5.98-48.76,4.99Z"/>
          <path class="cls-10" d="M443.17,515.45l.52-.05c.24-.02.44.15.48.39l.17,1.69c.02.24-.15.44-.39.48l-38.78,3.81c-.24.02-.45-.15-.48-.39l-.1-1.07-.06-.62c-.02-.24.15-.45.39-.48l.48-.05c-1.66-.39-2.97-1.79-3.15-3.58l-.43-4.44c-.22-2.25,1.42-4.26,3.67-4.48l12-1.18-.58-5.92v-.05s10.99-1.09,10.99-1.09v.05s.59,5.93.59,5.93l4.68-.46,3.64-.36,3.83-.37c2.25-.22,4.25,1.43,4.47,3.68l.43,4.44c.17,1.79-.82,3.42-2.37,4.13Z"/>
          <path class="cls-10" d="M428.62,496.81c.02.21,0,.42-.06.62-.1.36-.33.71-.65,1.03v-.05s-11.01,1.09-11.01,1.09v.05c-.6-.41-.96-.91-1.02-1.48-.17-1.72,2.55-3.4,6.07-3.74,2.58-.25,4.87.28,5.98,1.26.4.35.65.77.69,1.23Z"/>
          <path class="cls-10" d="M436.87,502.8c-.01.32-.03.66-.06,1l-3.63.36c.04-.35.07-.69.09-1.02.29-3.78-.72-6.23-4.71-5.71l-.64-1.85h0c5.23-1.74,9.15.86,8.94,7.22Z"/>
          <polygon class="cls-18" points="426.59 533.07 420.01 549.39 427.47 546.08 427.48 559.79 430.88 541.58 424.71 544.3 426.59 533.07"/>
          <path class="cls-7" d="M459.78,631.79c-.41.8-1.08,1.45-1.95,1.82-14.12,6.02-28.58,7.23-43.32,4.25-.59-.12-1.12-.37-1.57-.71,2.67-3.06,11.9-6.1,23.1-7.31,10.8-1.17,20.17-.29,23.74,1.94Z"/>
          <path class="cls-6" d="M428.47,496.44c-.17.99-.66.98-.66.98l-11,1.09s-.46-.01-.89-.96c-.04.18-.06.35-.04.53.06.57.42,1.07,1.03,1.48v-.05s10.99-1.09,10.99-1.09v.05c.33-.32.56-.67.66-1.03.06-.2.08-.41.06-.62-.01-.16-.06-.32-.13-.47,0,.03-.01.06-.02.09Z"/>
          <path class="cls-6" d="M436.87,502.8c-.01.32-.03.66-.06,1l-3.63.36c.04-.35.07-.69.09-1.02l3.45-.34c.08,0,.13-.01.15,0Z"/>
          <path class="cls-6" d="M443.17,515.45l.52-.05c.24-.02.44.15.48.39l.17,1.69c.02.24-.15.44-.39.48l-38.78,3.81c-.24.02-.45-.15-.48-.39l-.1-1.07,2.05-.18,35.94-3.56c.27-.49.15-.7-.1-1.14-.31-.93,1.44-.85,1.56-2.57.16-4.03-.24-7.7-3.39-9.65,2.25-.22,4.25,1.43,4.47,3.68l.43,4.44c.17,1.79-.82,3.42-2.37,4.13Z"/>
        </g>
        <g>
          <path class="cls-12" d="M464.29,641.37c-4.43,2.24-9.6,3.07-14.86,2.04l-75.76-21.32,10.84-53.11,77.34,10.71c5.77,1.13,10.62,4.3,13.95,8.62,3.83,4.95,5.63,11.42,4.5,18.04l-.02.09c-.02.16-.05.33-.08.49l-.23,1.18-3.29,16.85-.02.09c-.1.54-.23,1.07-.37,1.6-1.76,6.59-6.26,11.83-12.01,14.72Z"/>
          <path class="cls-20" d="M480.29,606.44l-29.82-7.19c-4.48-1.08-7.41-4.99-6.64-8.87.08-.4.2-.78.35-1.15,1.3-3.2,5.1-5.13,9.19-4.48l22.43,3.56c3.83,4.95,5.63,11.42,4.5,18.04l-.02.09Z"/>
          <path class="cls-20" d="M476.69,625.06l-29.81-7.19c-4.49-1.08-7.41-4.99-6.64-8.86h0c.77-3.88,4.97-6.36,9.53-5.63l30.29,4.8-3.37,16.88Z"/>
          <path class="cls-20" d="M464.29,641.37l-20.21-4.88c-4.49-1.08-7.42-4.98-6.64-8.86.08-.4.19-.8.34-1.17,1.3-3.2,5.1-5.11,9.18-4.47l29.34,4.65c-1.76,6.59-6.26,11.83-12.01,14.72Z"/>
          <path class="cls-17" d="M475.8,588.32l-.68-.11c2.37,4.81,3.15,8.89,3.35,11.77.16,2.28-1.98,4.04-4.2,3.5l-25.8-6.22c-1.28-.31-2.43-.85-3.41-1.56,1.19,1.68,3.09,3,5.41,3.56l29.82,7.19.02-.09c1.13-6.62-.68-13.09-4.5-18.04Z"/>
          <path class="cls-17" d="M477.73,607.81l-1.82,9.12c-.67,3.35-3.99,5.47-7.3,4.67l-23.73-5.72c-1.29-.31-2.44-.86-3.42-1.56,1.19,1.68,3.09,3,5.42,3.56l29.81,7.19,3.37-16.88-2.33-.37Z"/>
          <path class="cls-17" d="M473.81,626.26c-.25.73-.54,1.44-.86,2.13-3.31,7.17-11.42,10.8-19.1,8.95l-11.77-2.84c-1.29-.31-2.44-.86-3.42-1.57,1.19,1.68,3.09,3,5.42,3.57l20.21,4.88c5.75-2.88,10.25-8.13,12.01-14.72l-2.5-.4Z"/>
        </g>
        <path class="cls-6" d="M754.38,604.21l-3.62.68-2.67,5.6c-.64,1.35-1.89,2.31-3.36,2.58l-28.79,5.39,27.59-7.37c.73-.2,1.35-.61,1.81-1.16.46-.56.74-1.25.8-2,.26-.53-.19-1.14-.78-1.05l-36.21,5.8-1.83.29,46.99-11.39c.81-.24,1.38-.8,1.83-1.43,1.43-2.04-.12-4.92-2.59-4.61-.02,0-.04,0-.06,0l-53.63,8.12.73-.18,50.89-12.83c4.45-1.49,2.94-5.04,2.94-5.04-.52-1.46-3.49-2.59-5.03-2.39l-41.54,5.65s.02-.01.03-.01.02,0,.04,0c1.57-.35,18.52-4.19,25.18-5.71.62-.14.97-.67.97-1.22,0-.37-.16-.75-.51-1.01-1.08-.8-1.84-1.97-2.14-3.29l-13.16-57.95c-.4-1.75-.45-3.64.79-4.94l3.71-3.15c.5-.52.05-1.39-.67-1.29l-27.95,4.74-.16.02,40-9.87c1.23-.25,2.23-1.34,2.96-2.42,1.34-2,.62-4.87-1.62-5.74-.63-.24-1.32-.32-2.05-.21l-50.77,7.09c1.27-.31,41.93-10.45,51.87-12.82,1-.24,2.82-1.55,1.46-3.88-1.02-1.74-3.94-1.17-5.21-.99l-45.79,6.56,2.36-.5,35.85-7.52c.86-.18,2.25-.23,1.63-1.39-1.74-3.53-5.43-3.59-7.97-3.66l2.97-.56c1.47-.27,2.98.17,4.06,1.19l4.52,4.27,3.62-.68c2.96-.56,6,1.39,6.44,4.37.21,1.36-.13,2.69-.86,3.76-.77,1.12-1.96,1.94-3.39,2.21l-1.49.28c3.62-.68,7.33,1.7,7.91,5.33.28,1.72-.14,3.4-1.06,4.74-.94,1.38-2.41,2.39-4.19,2.73l-9.63,1.8c.06.3.09.6.09.9,0,2.38-1.82,4.82-4.8,6.8l11.34,60.57-.21.04c4.06.83,6.92,2.8,7.39,5.52l9.64-1.8c1.77-.33,3.51.09,4.89,1.03,1.34.92,2.34,2.33,2.7,4.03.77,3.6-1.84,7.16-5.46,7.84l1.5-.28c1.43-.27,2.84.07,3.96.83,1.07.73,1.87,1.85,2.17,3.2.66,2.94-1.47,5.85-4.43,6.4Z"/>
        <g>
          <path class="cls-12" d="M718.59,526.21c3.26-3.74,7.74-6.46,12.99-7.49l11.55-1.62c13-1.83,25.16,6.83,27.68,19.71l2.29,11.67c2.8,14.31-6.12,28.29-20.27,31.79l-8.73,2.15c-5.77,1.13-11.46.02-16.17-2.73-5.41-3.14-9.52-8.45-10.97-15.01l-.02-.09c-.04-.16-.08-.32-.11-.48l-.22-1.12v-.06s-3.32-16.83-3.32-16.83v-.02l-.02-.09c-.11-.54-.19-1.08-.26-1.62-.85-6.77,1.34-13.32,5.58-18.16Z"/>
          <path class="cls-20" d="M716.93,564.56l30.33-4.58c4.56-.69,8.74,1.83,9.49,5.71.08.4.11.8.11,1.2,0,3.45-2.79,6.67-6.82,7.61l-22.12,5.16c-5.41-3.14-9.52-8.45-10.97-15.01l-.02-.09Z"/>
          <path class="cls-20" d="M713.27,546.11l30.32-4.58c4.57-.69,8.75,1.82,9.49,5.71h0c.74,3.88-2.21,7.76-6.71,8.81l-29.87,6.97-3.24-16.91Z"/>
          <path class="cls-20" d="M718.59,526.18l20.56-3.1c4.57-.69,8.75,1.82,9.49,5.7.08.4.12.81.12,1.21,0,3.45-2.8,6.66-6.82,7.6l-28.93,6.75c-.85-6.77,1.34-13.32,5.58-18.16Z"/>
          <path class="cls-17" d="M748.64,528.78c-.34-1.8-1.44-3.3-2.96-4.33.46.7.8,1.48.96,2.33.08.4.12.81.12,1.21,0,3.45-2.8,6.66-6.82,7.6l-27.1,6.32c.02.8.07,1.61.17,2.43l28.93-6.75c4.02-.94,6.82-4.15,6.82-7.6,0-.4-.04-.81-.12-1.21Z"/>
          <path class="cls-17" d="M756.75,565.69c-.35-1.8-1.44-3.31-2.97-4.34.46.7.8,1.48.97,2.34.08.4.11.8.11,1.2,0,3.45-2.79,6.67-6.82,7.61l-22.12,5.16c-1.32-.77-2.56-1.66-3.7-2.67,1.64,1.85,3.57,3.43,5.7,4.67l22.12-5.16c4.03-.94,6.82-4.16,6.82-7.61,0-.4-.03-.8-.11-1.2Z"/>
          <path class="cls-17" d="M753.09,547.23c-.35-1.8-1.44-3.31-2.96-4.33.46.7.8,1.48.96,2.33.74,3.88-2.21,7.76-6.71,8.81l-28.32,6.61.45,2.36,29.87-6.97c4.5-1.05,7.45-4.93,6.71-8.81Z"/>
        </g>
        <path class="cls-15" d="M556.12,431.28c-2.73,7.42-5.31,15.19-6.98,21.73h0c-.11.44-.22.87-.32,1.29-9.79,40.27-12.03,89.02-11.6,140.78.01,1.8.03,3.61.05,5.42.08,6.87-5.45,12.48-12.31,12.48h-10.32c-.28,0-.56-.01-.84-.03-.05,0-.11-.01-.16-.01-.28-.02-.56-.06-.84-.1-.27-.04-.54-.09-.8-.15-.08-.01-.15-.03-.22-.05-.25-.05-.49-.12-.72-.2-.02,0-.04,0-.06-.01-.27-.08-.54-.18-.8-.28-.01,0-.02-.01-.03-.01-.27-.11-.53-.22-.79-.34-.26-.13-.53-.26-.78-.41-.26-.14-.51-.3-.75-.46-.24-.16-.48-.33-.71-.51-.23-.18-.46-.37-.68-.56-.01-.02-.03-.03-.04-.03-.64-.58-1.22-1.22-1.72-1.92-.18-.24-.34-.49-.5-.74-.16-.25-.3-.5-.44-.77-.14-.26-.27-.53-.39-.8-.5-1.13-.83-2.34-.97-3.62-5.89-54.05-15.83-102.4-31.62-142.51-3.25-8.24-6.74-16.13-10.49-23.65-7.63-15.28-.04-33.82,16.21-39.09,18.81-6.1,42.98-7.05,61.36-1.78,15.47,4.43,23.82,21.23,18.26,36.33Z"/>
        <path class="cls-4" d="M549.14,453.02c-.11.43-.22.86-.32,1.28-9.79,40.27-12.03,89.02-11.6,140.78.01,1.8.03,3.61.05,5.42.08,6.87-5.45,12.48-12.31,12.48h-10.32c-.28,0-.56-.01-.84-.03-.05,0-.11-.01-.16-.01-.28-.02-.56-.06-.84-.1-.27-.04-.54-.09-.8-.15-.08-.01-.15-.03-.22-.05-.25-.05-.49-.12-.72-.2-.02,0-.04,0-.06-.01-.27-.08-.54-.18-.8-.28-.01,0-.02-.01-.03-.01-.27-.11-.53-.22-.79-.34-.26-.13-.53-.26-.78-.41-.26-.14-.51-.3-.75-.46-.24-.16-.48-.33-.71-.51-.23-.18-.46-.37-.68-.56-.01-.02-.03-.03-.04-.03-.64-.59-1.22-1.23-1.72-1.92-.18-.24-.34-.49-.5-.74-.16-.25-.3-.5-.44-.77-.14-.26-.27-.53-.39-.8,2.05,1.5,4.56,2.38,7.27,2.38h10.32c6.86,0,12.39-5.61,12.31-12.48-.6-51.15,3.06-101.78,15.87-142.48Z"/>
        <g>
          <g class="cls-22">
            <path class="cls-15" d="M460.29,435.82c28.26-18.72,66.18-19.73,94.2,0-33.44-13.1-60.7-12.07-94.2,0h0Z"/>
          </g>
          <g class="cls-22">
            <path class="cls-15" d="M472.47,463.88c22.2-13.31,51.97-14.39,74.43-1.11-27.2-6.49-47.44-5.55-74.43,1.11h0Z"/>
          </g>
          <g class="cls-22">
            <path class="cls-15" d="M482.26,493.49c17.95-10.08,41.37-11.12,59.76-1.6-10.1-1-19.87-1.88-29.92-1.51-10.05.26-19.79,1.76-29.84,3.11h0Z"/>
          </g>
          <g class="cls-22">
            <path class="cls-15" d="M489.99,524.11c14.55-8.15,33.98-9.17,49.07-1.9-8.34.1-16.32-.19-24.55.21-8.23.29-16.19,1.25-24.52,1.69h0Z"/>
          </g>
          <g class="cls-22">
            <path class="cls-15" d="M496.03,555.36c6.21-3.74,13.36-5.42,20.52-5.87,7.17-.34,14.5.57,21.02,3.75-3.62.42-7.08.56-10.52.74-9.72.33-21.28,1.43-31.02,1.38h0Z"/>
          </g>
          <g class="cls-22">
            <path class="cls-15" d="M500.65,587.04c10.45-6.38,25.35-7.5,36.52-2.37-6.17,1.15-12.07,1.44-18.2,1.9-6.14.36-12.05.86-18.32.47h0Z"/>
          </g>
        </g>
      </g>
    </g>
  </g>
</svg>