<?xml version="1.0" encoding="UTF-8"?>
<svg id="Layer_1" data-name="Layer 1" xmlns="http://www.w3.org/2000/svg" xmlns:xlink="http://www.w3.org/1999/xlink" viewBox="0 0 1000 1000">
  <defs>
    <style>
      .cls-1 {
        letter-spacing: -.04em;
      }

      .cls-2 {
        font-size: 13.32px;
      }

      .cls-2, .cls-3 {
        font-family: AnalogScriptCleanPERSONAL-Personal, 'Analog Script Clean PERSONAL';
      }

      .cls-4 {
        clip-path: url(#clippath);
      }

      .cls-5 {
        letter-spacing: -.02em;
      }

      .cls-6, .cls-7, .cls-8, .cls-9, .cls-10, .cls-11, .cls-12, .cls-13, .cls-14, .cls-15, .cls-16, .cls-17, .cls-18, .cls-19, .cls-20, .cls-21, .cls-22, .cls-23, .cls-24 {
        stroke-width: 0px;
      }

      .cls-6, .cls-25, .cls-26 {
        fill: none;
      }

      .cls-3 {
        font-size: 22.54px;
      }

      .cls-3, .cls-27 {
        fill: #40434f;
      }

      .cls-28 {
        letter-spacing: -.13em;
      }

      .cls-29 {
        letter-spacing: -.03em;
      }

      .cls-7 {
        fill: url(#linear-gradient);
      }

      .cls-30 {
        letter-spacing: -.06em;
      }

      .cls-31 {
        clip-path: url(#clippath-1);
      }

      .cls-32 {
        letter-spacing: -.16em;
      }

      .cls-33 {
        font-family: Comfortaa-Regular, Comfortaa;
        font-size: 5.51px;
        font-variation-settings: 'wght' 400;
      }

      .cls-25 {
        stroke: #c9bda9;
      }

      .cls-25, .cls-26 {
        stroke-miterlimit: 10;
      }

      .cls-26 {
        stroke: #d6c9b6;
      }

      .cls-34 {
        letter-spacing: -.05em;
      }

      .cls-35 {
        opacity: .56;
      }

      .cls-36 {
        opacity: .8;
      }

      .cls-37 {
        opacity: .7;
      }

      .cls-8 {
        fill-rule: evenodd;
      }

      .cls-8, .cls-23 {
        fill: #e8ceb3;
      }

      .cls-9 {
        fill: #f4a590;
      }

      .cls-10 {
        fill: #c9c4c0;
      }

      .cls-11 {
        fill: #e2dfdc;
      }

      .cls-12 {
        fill: #d6c9b6;
      }

      .cls-13 {
        fill: #d8d4d0;
      }

      .cls-14 {
        fill: #ce6e75;
      }

      .cls-15 {
        fill: #efbfa8;
      }

      .cls-16 {
        fill: #ede9e4;
      }

      .cls-17 {
        fill: #ead2b5;
      }

      .cls-18 {
        fill: #f4dec6;
      }

      .cls-19 {
        fill: #efe8df;
      }

      .cls-20 {
        fill: #e5dbcc;
      }

      .cls-21 {
        fill: #efa89c;
      }

      .cls-22 {
        fill: #ed8588;
      }

      .cls-24 {
        fill: #f4ece6;
      }

      .cls-38 {
        letter-spacing: -.07em;
      }
    </style>
    <linearGradient id="linear-gradient" x1="500" y1="296.91" x2="500" y2="708.02" gradientUnits="userSpaceOnUse">
      <stop offset="0" stop-color="#b1d3e6"/>
      <stop offset=".12" stop-color="#b5d4e3"/>
      <stop offset=".27" stop-color="#c4d7dd"/>
      <stop offset=".43" stop-color="#dbdcd2"/>
      <stop offset=".55" stop-color="#f3e2c8"/>
    </linearGradient>
    <clipPath id="clippath">
      <path class="cls-6" d="M658.24,353.23v293.55c0,33.82-27.42,61.24-61.25,61.24h-193.98c-33.83,0-61.25-27.42-61.25-61.24v-293.55c0-25.27,15.3-46.96,37.14-56.32,33.04,6.03,75.19,9.65,121.1,9.65s88.06-3.62,121.1-9.65c21.84,9.36,37.14,31.05,37.14,56.32Z"/>
    </clipPath>
    <clipPath id="clippath-1">
      <rect class="cls-6" x="1019.52" y="-.28" width="1000.95" height="1000.95"/>
    </clipPath>
  </defs>
  <g>
    <rect class="cls-13" x="282.93" y="214.65" width="434.13" height="570.71" rx="131.27" ry="131.27"/>
    <path class="cls-11" d="M695.36,337.36v325.28c0,52.01-42.17,94.18-94.18,94.18h-202.36c-52.02,0-94.18-42.17-94.18-94.18v-325.28c0-23.8,8.83-45.54,23.39-62.11,17.26-19.66,42.57-32.07,70.79-32.07h202.36c28.99,0,54.92,13.1,72.19,33.71,13.73,16.36,21.99,37.45,21.99,60.47Z"/>
    <path class="cls-16" d="M675.82,341.98v316.04c0,40.38-32.73,73.12-73.11,73.12h-205.42c-40.38,0-73.11-32.74-73.11-73.12v-316.04c0-20.66,8.57-39.32,22.34-52.61,9.4,2.8,20.28,5.33,32.38,7.54,33.04,6.03,75.19,9.65,121.1,9.65s88.06-3.62,121.1-9.65c12.1-2.21,22.98-4.74,32.38-7.54,13.77,13.29,22.34,31.95,22.34,52.61Z"/>
    <g>
      <path class="cls-7" d="M658.24,353.23v293.55c0,33.82-27.42,61.24-61.25,61.24h-193.98c-33.83,0-61.25-27.42-61.25-61.24v-293.55c0-25.27,15.3-46.96,37.14-56.32,33.04,6.03,75.19,9.65,121.1,9.65s88.06-3.62,121.1-9.65c21.84,9.36,37.14,31.05,37.14,56.32Z"/>
      <g class="cls-4">
        <path class="cls-17" d="M598.38,530.8c-4.73-1-8.28-4.77-12.12-7.71s-9.21-5.16-13.39-2.71c-1.46.86-2.58,2.2-4.04,3.06-3.9,2.31-8.94.59-12.77-1.84-3.82-2.43-7.4-5.62-11.87-6.4-7.86-1.38-15,5.14-22.95,5.81-5.36.45-10.74-1.8-16.06-1.02-2.87.42-7.85-5.99-11.51-10.93-2.02-2.72-5.43-4-8.74-3.3h0c-7.47,1.58-15.28,3.32-21.11,8.27-5.35,4.55-10.71,12.15-17.34,9.82-4.61-1.62-7.49-7.91-13.07-5.14-2.23,1.11-3.79,3.21-4.48,5.6-2.5,8.63-11.32,11.58-19.39,12.8-4.64.7-9.54,1-13.86-.82-4.32-1.82-7.84-6.31-7.12-10.94-8.98-.77-13.84,10.55-21.93,14.52-11.46,5.62-25.82-4.93-37.56,1.65-2.02,1.13-4.5,1.33-6.53.21-5.9-3.28,1.11-12.13-3.15-16.05-5.43,1.42-10.18-5.09-15.77-4.71-4.42.3-7.36,4.75-8.64,8.99s-1.7,8.91-4.33,12.47c-4.78,6.49-15.1,6.34-21.83,1.9-1.98-1.31-3.81-2.93-6.06-3.64-5.58-1.76-11.1,2.53-15.39,6.51v43.89h505.25v-36.49c-2.56-5.2-8.99-7.17-14.77-7.51-5.78-.34-11.8.37-17.21-1.71-5.83-2.24-10.08-7.39-15.66-10.2-3.56-1.79-7.53-2.57-11.44-3.32-8.96-1.73-19.08-3.25-26.2,3.07-1.11.99-2.59,1.55-4.07,1.35-3.67-.49-3.61-4.7-2.3-7.45,1.39-2.91,3.73-5.76,2.06-9.15-.95-1.91-2.83-3.18-4.92-3.6-11.93-2.38-20.84,8.02-31.25,13.07-8.68,4.22-19.47,5.12-28.48,1.65"/>
        <path class="cls-15" d="M523.56,563.42c-10.41,4.2-22.57-3.95-33.21-.39-3.95,1.32-7.28,4.17-11.29,5.29-11.29,3.15-23-8.22-34.21-4.8-4.06,1.24-7.51,4.34-11.73,4.82-4.42.5-8.76-2.11-11.41-5.68s-3.37-8.13-4.85-12.33c-3.62-10.28-18.21-11.82-15.42,1.13,1.08,5,1.53,10.39-.99,14.85-2.51,4.46-7.32,7.63-12.43,7.88-2.51.12-5.05-.42-7.53-.04-5.07.77-8.8,5.1-13.52,7.1-.96.41-2.01.72-3.04.55-2.67-.46-3.7-3.82-3.44-6.51.26-2.69,1.22-5.47.33-8.03-1.36-3.93-6.72-5.24-10.5-3.49-3.77,1.74-6.14,5.57-7.73,9.4-1.36,3.28-3.38,7.44-6.91,7.04v48.94l340.15-17.06c3.79-12.51,5.03-25.79,3.62-38.79-.09-.82-.2-1.67-.58-2.4-.45-.88-1.25-1.51-2.03-2.12-5.46-4.29-11.23-8.72-18.08-9.86-6.61-1.1-14.13.87-19.6-3.01-3.06-2.16-4.75-5.72-6.33-9.11-1.58-3.39-3.31-6.94-6.41-9.05s-7.97-2.08-10.02,1.05c-1.65,2.52-.9,5.82-1.09,8.82-.3,4.56-2.86,8.61-5.35,12.44-1.24,1.9-2.53,3.86-4.45,5.07-6.11,3.83-14.85-1.78-21.12,1.78-2.4,1.36-4,3.89-6.49,5.09-1.55.75-3.33.91-5.04.8-7.17-.49-13.64-6.26-14.96-13.33-1.08-5.82.77-12.72-3.19-17.12-3.13-3.48-8.83-3.57-12.95-1.35-4.12,2.22-6.96,6.21-9.36,10.23-2.39,4.02-4.54,8.28-7.86,11.58"/>
        <path class="cls-21" d="M319.47,615.01c7.28.91,14.66-2.21,20.16-7.06,5.51-4.85,9.37-11.29,12.56-17.9,4.34-8.98,8.81-19.6,18.39-22.39,5.5-1.6,11.4-.07,15.46,3.98,5.55,5.52,5.07,12.87,4.95,19.81-.11,6.26.3,13.05,5.45,17.39,2.67,2.25,6.43,2.93,9.51,1.28,7.06-3.77,2.54-14.76,10.38-17.99,1.4-.58,2.95-.73,4.46-.56,5.25.57,9.23,4.06,13.97,5.82,5.71,2.11,12.37,1.44,17.55-1.75,10.24-6.32,12.65-19.77,17.48-30.79,2.38-5.42,5.91-10.82,11.55-12.81,3.51-1.23,7.47-.67,10.35,1.68,7.76,6.33-2.83,16.65,2.65,22.18,4.09,4.12,11.93-.46,16.66,2.9,7.23,5.14-2.67,19.63,5.38,24.44,1.35.81,2.94,1.11,4.5,1.04,14.43-.65,28.04-12.75,41.85-8.45,9.88,3.07,17,14.09,27.33,13.61,3.07-.14,6.01-1.35,8.63-2.97,3.92-2.41,7.27-5.77,9.67-9.69,1.81-2.96,3.12-6.26,5.35-8.93s5.8-4.63,9.14-3.67c1.3.37,2.48,1.16,3.82,1.29,1.7.16,3.29-.75,4.75-1.62,5.75-3.46,11.5-6.92,17.26-10.37,0,0,13.13-4.53,18.16,15.08,5.03,19.61,10.56,68.38,10.56,68.38h-367.05l9.12-41.91Z"/>
        <path class="cls-22" d="M341.01,654.67c-.81-6.97,5.4-13.01,12.04-15.3s13.86-2.03,20.74-3.41c10.41-2.08,19.83-7.91,27.39-15.37,5.16-5.08,10.71-11.45,17.93-10.92,2.51.19,4.89,1.24,7.39,1.48,11.21,1.09,21.57-13.66,31.48-8.31,1.52.82,2.82,2.13,3.34,3.77,1.39,4.37-3,8.32-7.05,10.45-4.05,2.13-8.92,4.62-9.43,9.17-.61,5.47,5.45,9.04,10.56,11.1,7.35,2.97,14.69,5.94,22.04,8.91,7.69,3.11,18.17,5.49,22.9-1.33,3.34-4.81,1.44-11.44-1.22-16.66-2.66-5.22-6.08-10.59-5.46-16.41,1.19-11.21,15.36-15.34,22.48-24.09,3.88-4.76,5.88-11.28,11.1-14.51,4.82-2.99,11.73-2.01,15.52,2.21s4.05,11.19.57,15.67c-1.3,1.67-3.13,3.25-3.12,5.36.01,2.99,3.7,4.56,6.69,4.4s6.05-1.25,8.9-.33c9.48,3.07,3.55,21.33,12.71,25.27,4.06,1.74,8.55-.66,12.7-2.17,2.81-1.03,5.84-1.69,8.23-3.48,6.96-5.23,4.82-16.21,8.54-24.08,3.51-7.41,12.38-12.25,13.08-20.42.24-2.79-.57-5.56-.52-8.36.05-2.8,1.35-5.95,4.05-6.67,3.32-.9,6.35,2.39,7.49,5.63,2.4,6.81.61,14.49,2.64,21.42,3.59,12.27,17.19,17.96,27.47,25.56,14.93,11.05,24.46,29.06,25.21,47.62.05,1.36,0,2.89-.99,3.83-.89.85-10.99,32.67-12.22,32.7-109.93,2.87-208.89-12.05-318.85-12.61-2.34-.01-7.12-14.04-8.93-15.53-4.41-3.64-.36-10.63,3.69-14.66"/>
        <path class="cls-14" d="M321.09,663.22c5.09-12.41,19.85-19.97,32.9-16.84,9.17,2.2,18.82,8.87,27.07,4.31,4.36-2.41,6.75-7.39,10.95-10.07,6.3-4.04,15.96-.9,18.69,6.07.97,2.49,1.21,5.37,2.97,7.38,5.12,5.84,14.55-1.86,22.22-.63,6.69,1.07,10.11,8.53,15.67,12.39,10.96,7.62,26.34-.39,39.22,3.12,5.57,1.52,10.38,5.15,15.93,6.76s12.87.18,14.8-5.27c1.64-4.63-1.27-10.41,1.58-14.41.76-1.07,1.85-1.86,2.92-2.62,10.72-7.65,21.44-15.29,32.17-22.94,4.72-3.37,11.35-6.72,15.81-3.02,3.78,3.14,2.98,8.99,2.42,13.87-.56,4.88.52,11.24,5.31,12.29,5.28,1.15,9.19-5.42,14.53-6.26,5.29-.83,9.5,4.01,13.5,7.58,7.4,6.6,19.54,9.54,27.03,3.05,4.31-3.74,6.05-9.64,9.7-14.03,6.95-8.36,19.08-9.65,29.94-10.32,1.84-.11,3.99-.1,5.13,1.36.74.95.81,2.24.85,3.44.52,16.63.83,33.26.92,49.9.1,17.69-.12,35.77-6.06,52.43-8.37,23.45-27.58,41.92-49.61,53.53-22.03,11.61-46.79,17.01-71.45,20.43-14.74,2.05-29.76,3.43-44.46,1.07-12.4-1.99-24.2-6.59-36.2-10.3-30.45-9.41-62.33-13.15-93.34-20.5-17.09-4.05-34.57-9.56-47.46-21.5-10.29-9.52-16.8-22.35-22.58-35.12-3.23-7.14-6.33-14.48-7.37-22.25-2.02-15.08,4.5-31.01,16.5-40.36"/>
      </g>
      <g class="cls-36">
        <path class="cls-18" d="M516.14,406.09c-1.2.15-2.59.17-4.16.03,0,0-93.85-.01-140.73-.08-.73,0-1.46,0-2.17,0-7.39-1.75-.64-12.58,9.28-8.88,0,0,1.18-5.7,5.01-7.14,4.39-1.65,8.39-1.97,8.02-5.7-11.56-9.28,1.44-29.57,22.17-21.31,5.33-17.49,27.92-9.57,27.13,2.45,0,0,4.93-.23,6.53,1.96,2.88-7.87,10.04-10.98,16.82-10.26,8.47.9,16.35,7.77,14.56,18.8,0,0,6.17-.42,7.05,3.3,8.29-3.57,12.77,1.78,11.56,9.79,0,0,4.75.98,5.63,4.35,0,0,2.84-.68,3.97.49,0,0,4.52-1.18,4.84,2.3,11.46-3.56,15.69,8.55,4.49,9.91Z"/>
        <path class="cls-8" d="M398.17,393.99c-10.29-1.79-19.48-.71-19.48,12.21,45.39-.39,90.64,0,136.03,0,7.92,0,9.92-7.55.44-7.38-4.01.07-4.57,2.89-4.57,2.89-3.85-2.95-7.13-1.53-6.95.33-.66-1.1-5.18-9.16-11.19-8.44-3.8.46-5.12,4.15-3.91,7.39-1.07-2.48-6.57-1.51-9.48,2.14-1.62-10.36-16.59-14.4-23.38-4.26,1.75-8.09-7.67-5.87-7.67-5.87,1.18-8.51-10.47-8.91-14.77-3.74.22-2.94,3.24-6.52,9.28-5.55-2.02-1.29-3.95-2.06-3.95-2.06-6.04-16.68-30.63-1.97-20.67,12.94-3.15-.25-7.22,3.3-7.22,4.28-1.18-1.79-4.07-3.95-4.07-3.95,3.77-6.58-1.23-11.04-1.23-11.04,0,0-.39,11.28-7.21,10.09ZM434.72,383.73c-6.72-5.48-20.13,3.26-14.21,10.27,2.89-8.76,6.89-9.38,14.21-10.27Z"/>
        <path class="cls-23" d="M469.48,358.55s6.69,6.03,1.63,11.28c0,0-7.64-1.65-9.18,5.77,0,0-10.06,1.82-4.26,12.03,0,0,1.47,1.4,2.27-1.39.81-2.79,1.41-4.31,4.49-4.13,3.07.18-1.02-5.27,5.64-4.97,6.66.3,4.49,1.66,5.16,1.85,1.03-.2,2.27-.63,2.92-1.85,2.06-4.8-.17-15.54-8.69-18.59h.01Z"/>
        <path class="cls-23" d="M489.57,388.88c-3.19.45-8.38-3.2-11.16-1.17-.37.27,5.24,3.13,4.26,7.8,0,0,.74-.82,2.52-.3,1.78.53,4.48-4.31,6.04-4.8,4-1.77,6.05-1.32,5.97-1.37-.08-.05,1.33-6.4-2.37-9.34,0,4.36.2,8-5.26,9.16Z"/>
      </g>
      <g class="cls-37">
        <path class="cls-18" d="M540.41,441.26c.63-.11,1.28.09,1.74.53.03.03.06.06.09.09,0,0,.01.01.01.02,1.43,1.53,5.07,4.44,11.61,3.69.89-.1,3.57-1.33,5.54-2.52,1.21-.74,2.77-.56,3.78.45,1.87,1.86,5.87,4.7,13,2.59,4.27-1.27,7.32-3.15,8.76-4.57.2-.2.46-.29.72-.29.26,0,.53.11.72.33,1.34,1.49,4.75,4.31,11.67,4.65,2.7.13,5.38-.52,7.73-1.86.97-.55,2.02-1.18,2.98-1.81,1.24-.82,2.84-.8,4.09,0,.53.34,1.23.65,2.16.86,3.67.81,7.41-.94,9.45-4.1,1.5-2.32,2.34-5.29-.11-8.03-4.81-5.38-12.56,1.03-12.66-.76,0-.11.02-.21.07-.31.2-.45.95-2.1.95-2.1h0s3.89-8.07-3.35-11.59c-.53-.26-3.34-1.46-6.15.07-1.29.71-2.91.27-3.62-1.01-1.65-2.98-5.01-7.04-10.99-6.74-.74.04-1.52.14-2.34.32-.17.04-.35.08-.52.12-10.69,2.54-10.26,8.68-10.61,8.73-.72.11-2.43-1.02-4.61-1.08-2.41-.05-4.7,1.03-6.37,2.79-.89.94-1.98,2.16-2.72,3.2-.65.91-1.68,1.45-2.79,1.5-1.79.07-4.42.79-6.09,3.99,0,0-.31.71-.59,1.66-.27.92-1.12,1.56-2.08,1.56-1.46,0-3.63.31-5.52,1.85-.77.63-1.75.96-2.75.89-2.22-.16-5.95,0-6.44,2.79,0,0-.76,5.18,5.27,4.09Z"/>
        <path class="cls-23" d="M574.92,421.45c1.14,8.67,10.6,14.04,12.05,11.56,1.45-2.48,4.46-2.97,5.98-2.35,1.52.61,1.75,3.05,5.02,3.01,3.26-.04,3.87,4.84,3.87,4.84,4.74-5.7-1.34-6.42-1.72-9.62-.58-4.92-5.11-6.52-9.18-6.07-4.35.48-7.91-3.47-6.86-7.72.66-2.68,2.28-5.15,4.48-6.26-.74.04-1.52.14-2.34.32-.17.04-.35.08-.52.12-10.69,2.54-10.26,8.68-10.61,8.73-.26,1.27-.31,2.47-.18,3.44Z"/>
        <path class="cls-23" d="M542.14,441.78s.06.06.09.09c0,0,.01.01.01.02,1.43,1.53,5.07,4.44,11.61,3.69.89-.1,3.57-1.33,5.54-2.52,1.21-.74,2.77-.56,3.78.45,1.87,1.86,5.87,4.7,13,2.59,4.27-1.27,7.32-3.15,8.76-4.57.2-.2.46-.29.72-.29.02-.05.04-.09.05-.14,0,0-14.55,7.22-20.85-1.82-.71-1.01-1.97-1.48-3.15-1.12-2.01.61-5.19.87-8-2.02-1.63-1.66-4.14-2.11-6.23-1.08-3.93,1.94-5.48,4.47-5.33,6.73Z"/>
      </g>
    </g>
    <path class="cls-20" d="M658.94,610.73v36.05c0,17.42-7.28,33.15-18.96,44.3l-171.89-94.83c-4.06-2.23-7.27-5.73-9.16-9.96l-45.72-102.26c-.99-2.22.63-4.73,3.07-4.73h11.49c3.78,0,7.34,1.82,9.56,4.89l59.48,82.23c2.14,2.95,5.26,5.04,8.8,5.87l152.53,36.09c.28.79.55,1.57.8,2.35Z"/>
    <path class="cls-12" d="M430.13,484.01l-.33.42c-1.34,1.72-1.42,4.1-.21,5.91l54.53,81.39c1.54,2.3.45,5.44-2.19,6.29l-23.35,7.49-45.68-102.18c-.85-1.9.54-4.04,2.62-4.04h12.3c2.43,0,3.8,2.79,2.3,4.71Z"/>
    <line class="cls-25" x1="663.43" y1="647" x2="662.87" y2="646.79"/>
    <path class="cls-20" d="M551.12,642.06c-29.38,8.85-56.7,13.2-78.24,4.93-.59-.23-1.06-.69-1.31-1.26-.15-.31-.23-.67-.23-1.03v-3.24c0-.98.59-1.88,1.49-2.27,16.19-6.96,31.72-12.09,46.37-14.74l12.07,6.66,6.18,3.41,4.26,2.35,9.41,5.19Z"/>
    <path class="cls-19" d="M531.27,631.11c-2.38-.51-59.93,10.35-59.93,10.35,0-.98.59-1.88,1.49-2.27,16.19-6.96,31.72-12.09,46.37-14.74l12.07,6.66Z"/>
    <polygon class="cls-12" points="519.2 624.45 535.53 646.34 551.12 642.06 519.2 624.45"/>
    <path class="cls-20" d="M637.25,689.58c-7.92,2.49-15.87,4.56-23.84,6.23-28.92,6.05-58.13,6.77-87.59,2.61-1.85-.26-3.22-1.86-3.22-3.73v-4.7c0-1.41.79-2.71,2.04-3.35,20.94-10.72,42.15-18.97,63.71-24.04l48.9,26.98Z"/>
    <path class="cls-19" d="M611.3,675.26s-.1-.03-.15-.05c-16.05-5.74-88.55,16.18-88.55,16.18v-1.4c0-1.41.79-2.71,2.04-3.35,20.94-10.72,42.15-18.97,63.71-24.04l22.95,12.66Z"/>
    <path class="cls-12" d="M637.25,689.58c-7.92,2.49-15.87,4.56-23.84,6.23l-25.06-33.21,48.9,26.98Z"/>
    <g>
      <line class="cls-26" x1="658.94" y1="645.29" x2="481.94" y2="578.03"/>
      <line class="cls-26" x1="474.54" y1="580.4" x2="564.15" y2="629.45"/>
      <line class="cls-26" x1="591.06" y1="619.49" x2="541.71" y2="636.87"/>
      <line class="cls-26" x1="641.78" y1="638.77" x2="588.35" y2="662.6"/>
    </g>
    <path class="cls-11" d="M673.37,276.89c-13.91,19.93-85.7,35.11-172.16,35.11s-162.17-16.02-173.18-36.75c17.26-19.66,42.57-32.07,70.79-32.07h202.36c28.99,0,54.92,13.1,72.19,33.71Z"/>
    <ellipse class="cls-10" cx="501.85" cy="289.37" rx="40.65" ry="7.57"/>
  </g>
  <g class="cls-31">
    <g>
      <polygon class="cls-24" points="1240.14 576.71 1189.11 515.14 902.46 741.09 1088.65 987.81 1363.34 774.41 1240.14 576.71"/>
      <text class="cls-27" transform="translate(954.36 769.33) rotate(-37.61)"><tspan class="cls-33"><tspan x="0" y="0">Service design is the activity of p</tspan><tspan class="cls-29" x="94.06" y="0">l</tspan><tspan x="95.45" y="0">anning and ar</tspan><tspan class="cls-1" x="136.53" y="0">r</tspan><tspan x="138.83" y="0">anging p</tspan><tspan class="cls-5" x="164.59" y="0">e</tspan><tspan x="167.86" y="0">op</tspan><tspan class="cls-29" x="175.49" y="0">l</tspan><tspan x="176.87" y="0">e, inf</tspan><tspan class="cls-1" x="190.46" y="0">r</tspan><tspan x="192.76" y="0">astructu</tspan><tspan class="cls-1" x="217.15" y="0">r</tspan><tspan x="219.45" y="0">e, communication and </tspan></tspan><tspan class="cls-33"><tspan x="0" y="6.61">material components of a service in o</tspan><tspan class="cls-1" x="108.22" y="6.61">r</tspan><tspan x="110.52" y="6.61">der to imp</tspan><tspan class="cls-1" x="140.2" y="6.61">r</tspan><tspan class="cls-29" x="142.5" y="6.61">o</tspan><tspan class="cls-5" x="146.07" y="6.61">v</tspan><tspan x="149.01" y="6.61">e its quality, and the inte</tspan><tspan class="cls-1" x="219.82" y="6.61">r</tspan><tspan x="222.13" y="6.61">action bet</tspan><tspan class="cls-5" x="251.51" y="6.61">we</tspan><tspan x="258.75" y="6.61">en the </tspan></tspan><tspan class="cls-33"><tspan x="0" y="13.22">service p</tspan><tspan class="cls-1" x="25.69" y="13.22">r</tspan><tspan class="cls-29" x="27.99" y="13.22">o</tspan><tspan x="31.55" y="13.22">vider and its users. Service design may function as a </tspan><tspan class="cls-5" x="183.61" y="13.22">w</tspan><tspan x="187.58" y="13.22">ay to in</tspan><tspan class="cls-5" x="208.83" y="13.22">f</tspan><tspan x="210.73" y="13.22">orm changes to an </tspan><tspan class="cls-29" x="266.62" y="13.22">e</tspan><tspan x="269.83" y="13.22">xisting </tspan></tspan><tspan class="cls-33"><tspan x="0" y="19.84">service or c</tspan><tspan class="cls-1" x="32.94" y="19.84">r</tspan><tspan class="cls-5" x="35.24" y="19.84">e</tspan><tspan x="38.51" y="19.84">ate a n</tspan><tspan class="cls-5" x="58.53" y="19.84">e</tspan><tspan x="61.8" y="19.84">w service enti</tspan><tspan class="cls-1" x="100.21" y="19.84">r</tspan><tspan x="102.51" y="19.84">ely.</tspan></tspan><tspan class="cls-33"><tspan x="0" y="33.06">The purpose of service design methodo</tspan><tspan class="cls-29" x="114.05" y="33.06">l</tspan><tspan x="115.44" y="33.06">ogies is to establish the most e</tspan><tspan class="cls-5" x="203.92" y="33.06">ffe</tspan><tspan x="211.11" y="33.06">cti</tspan><tspan class="cls-5" x="218.2" y="33.06">v</tspan><tspan x="221.13" y="33.06">e p</tspan><tspan class="cls-1" x="230.03" y="33.06">r</tspan><tspan x="232.33" y="33.06">actices </tspan><tspan class="cls-5" x="254.39" y="33.06">f</tspan><tspan x="256.3" y="33.06">or designing </tspan></tspan><tspan class="cls-33"><tspan x="0" y="39.67">services, acco</tspan><tspan class="cls-1" x="40.02" y="39.67">r</tspan><tspan x="42.33" y="39.67">ding to both the n</tspan><tspan class="cls-5" x="94.3" y="39.67">ee</tspan><tspan x="100.85" y="39.67">ds of users and the competencies and capabilities of service </tspan></tspan><tspan class="cls-33"><tspan x="0" y="46.28">p</tspan><tspan class="cls-1" x="3.9" y="46.28">r</tspan><tspan class="cls-29" x="6.2" y="46.28">o</tspan><tspan x="9.76" y="46.28">viders. If a successful method of service design is adapt</tspan><tspan class="cls-5" x="169.47" y="46.28">e</tspan><tspan x="172.75" y="46.28">d then the service will be user-friendly and </tspan></tspan><tspan class="cls-33"><tspan class="cls-1" x="0" y="52.89">r</tspan><tspan x="2.3" y="52.89">e</tspan><tspan class="cls-29" x="5.69" y="52.89">l</tspan><tspan class="cls-5" x="7.07" y="52.89">ev</tspan><tspan x="13.28" y="52.89">ant to the users, whi</tspan><tspan class="cls-29" x="70.91" y="52.89">l</tspan><tspan x="72.3" y="52.89">e being sustainab</tspan><tspan class="cls-29" x="123.8" y="52.89">l</tspan><tspan x="125.19" y="52.89">e and competiti</tspan><tspan class="cls-5" x="170.28" y="52.89">v</tspan><tspan x="173.22" y="52.89">e </tspan><tspan class="cls-5" x="178.21" y="52.89">f</tspan><tspan x="180.12" y="52.89">or the service p</tspan><tspan class="cls-1" x="224.62" y="52.89">r</tspan><tspan class="cls-29" x="226.92" y="52.89">o</tspan><tspan x="230.48" y="52.89">vide</tspan><tspan class="cls-28" x="242.4" y="52.89">r</tspan><tspan x="244.21" y="52.89">. For this purpose, </tspan></tspan><tspan class="cls-33"><tspan x="0" y="59.51">service design uses methods and tools deri</tspan><tspan class="cls-5" x="124.31" y="59.51">ve</tspan><tspan x="130.52" y="59.51">d f</tspan><tspan class="cls-1" x="138.04" y="59.51">r</tspan><tspan x="140.34" y="59.51">om di</tspan><tspan class="cls-5" x="156.39" y="59.51">ff</tspan><tspan x="160.32" y="59.51">e</tspan><tspan class="cls-1" x="163.7" y="59.51">r</tspan><tspan x="166" y="59.51">ent disciplines, </tspan><tspan class="cls-1" x="210.26" y="59.51">r</tspan><tspan x="212.56" y="59.51">anging f</tspan><tspan class="cls-1" x="236.43" y="59.51">r</tspan><tspan x="238.74" y="59.51">om ethnog</tspan><tspan class="cls-1" x="269.82" y="59.51">r</tspan><tspan x="272.12" y="59.51">aphy to </tspan></tspan><tspan class="cls-33"><tspan x="0" y="66.12">in</tspan><tspan class="cls-5" x="5.32" y="66.12">f</tspan><tspan x="7.23" y="66.12">ormation and management scienceto inte</tspan><tspan class="cls-1" x="128.06" y="66.12">r</tspan><tspan x="130.36" y="66.12">action design</tspan></tspan><tspan class="cls-33"><tspan x="0" y="79.34">Service design concepts and id</tspan><tspan class="cls-5" x="89.94" y="79.34">e</tspan><tspan x="93.21" y="79.34">as a</tspan><tspan class="cls-1" x="105.25" y="79.34">r</tspan><tspan x="107.56" y="79.34">e typically port</tspan><tspan class="cls-1" x="150.39" y="79.34">r</tspan><tspan x="152.69" y="79.34">a</tspan><tspan class="cls-5" x="156.42" y="79.34">ye</tspan><tspan x="162.6" y="79.34">d visually, using di</tspan><tspan class="cls-5" x="215.02" y="79.34">ff</tspan><tspan x="218.95" y="79.34">e</tspan><tspan class="cls-1" x="222.33" y="79.34">r</tspan><tspan x="224.63" y="79.34">ent </tspan><tspan class="cls-1" x="235.58" y="79.34">r</tspan><tspan x="237.88" y="79.34">ep</tspan><tspan class="cls-1" x="245.16" y="79.34">r</tspan><tspan x="247.46" y="79.34">esentation </tspan></tspan><tspan class="cls-33"><tspan x="0" y="85.95">t</tspan><tspan class="cls-5" x="2.21" y="85.95">e</tspan><tspan x="5.49" y="85.95">chniques acco</tspan><tspan class="cls-1" x="47.43" y="85.95">r</tspan><tspan x="49.73" y="85.95">ding to the cultu</tspan><tspan class="cls-1" x="97.3" y="85.95">r</tspan><tspan x="99.61" y="85.95">e, skill and </tspan><tspan class="cls-29" x="131.25" y="85.95">l</tspan><tspan class="cls-5" x="132.64" y="85.95">ev</tspan><tspan x="138.85" y="85.95">el of understanding of the sta</tspan><tspan class="cls-34" x="224.45" y="85.95">k</tspan><tspan x="227.33" y="85.95">eho</tspan><tspan class="cls-29" x="238.17" y="85.95">l</tspan><tspan x="239.56" y="85.95">ders i</tspan><tspan class="cls-29" x="255.54" y="85.95">n</tspan><tspan class="cls-5" x="259.1" y="85.95">v</tspan><tspan x="262.04" y="85.95">o</tspan><tspan class="cls-29" x="265.77" y="85.95">l</tspan><tspan class="cls-5" x="267.16" y="85.95">ve</tspan><tspan x="273.37" y="85.95">d in the </tspan></tspan><tspan class="cls-33"><tspan x="0" y="92.57">service p</tspan><tspan class="cls-1" x="25.69" y="92.57">r</tspan><tspan x="27.99" y="92.57">ocesses (</tspan><tspan class="cls-29" x="53.7" y="92.57">K</tspan><tspan x="57.14" y="92.57">ruc</tspan><tspan class="cls-34" x="66.67" y="92.57">k</tspan><tspan x="69.55" y="92.57">en and Me</tspan><tspan class="cls-1" x="100.04" y="92.57">r</tspan><tspan x="102.34" y="92.57">oni, 2006). With the a</tspan><tspan class="cls-29" x="160.14" y="92.57">d</tspan><tspan class="cls-5" x="163.87" y="92.57">v</tspan><tspan x="166.81" y="92.57">ent of eme</tspan><tspan class="cls-1" x="197.1" y="92.57">r</tspan><tspan x="199.4" y="92.57">ging t</tspan><tspan class="cls-5" x="216.01" y="92.57">e</tspan><tspan x="219.28" y="92.57">chno</tspan><tspan class="cls-29" x="233.75" y="92.57">l</tspan><tspan x="235.14" y="92.57">ogies f</tspan><tspan class="cls-1" x="254.18" y="92.57">r</tspan><tspan x="256.48" y="92.57">om the </tspan></tspan><tspan class="cls-33"><tspan x="0" y="99.18">Fourth Industrial R</tspan><tspan class="cls-5" x="53.48" y="99.18">ev</tspan><tspan x="59.69" y="99.18">olution, the significance of Service Design has inc</tspan><tspan class="cls-1" x="201.48" y="99.18">r</tspan><tspan class="cls-5" x="203.78" y="99.18">e</tspan><tspan x="207.05" y="99.18">as</tspan><tspan class="cls-5" x="213.75" y="99.18">e</tspan><tspan x="217.02" y="99.18">d, as it is beli</tspan><tspan class="cls-5" x="254.12" y="99.18">eve</tspan><tspan x="263.6" y="99.18">d to </tspan></tspan><tspan class="cls-33"><tspan class="cls-5" x="0" y="105.79">f</tspan><tspan x="1.91" y="105.79">acilitate a mo</tspan><tspan class="cls-1" x="41.1" y="105.79">r</tspan><tspan x="43.41" y="105.79">e </tspan><tspan class="cls-5" x="48.4" y="105.79">fe</tspan><tspan x="53.58" y="105.79">asib</tspan><tspan class="cls-29" x="65.77" y="105.79">l</tspan><tspan x="67.16" y="105.79">e p</tspan><tspan class="cls-1" x="76.05" y="105.79">r</tspan><tspan x="78.35" y="105.79">oducti</tspan><tspan class="cls-5" x="96.8" y="105.79">z</tspan><tspan x="99.71" y="105.79">ation of these n</tspan><tspan class="cls-5" x="144.71" y="105.79">e</tspan><tspan x="147.98" y="105.79">w t</tspan><tspan class="cls-5" x="155.89" y="105.79">e</tspan><tspan x="159.16" y="105.79">chno</tspan><tspan class="cls-29" x="173.63" y="105.79">l</tspan><tspan x="175.02" y="105.79">ogies into the mar</tspan><tspan class="cls-34" x="227.33" y="105.79">k</tspan><tspan x="230.21" y="105.79">et.</tspan></tspan><tspan class="cls-2"><tspan x="0" y="128.38">Definition</tspan></tspan><tspan class="cls-33"><tspan x="0" y="141.6">Service design p</tspan><tspan class="cls-1" x="47.28" y="141.6">r</tspan><tspan x="49.58" y="141.6">actice is the sp</tspan><tspan class="cls-5" x="92.66" y="141.6">e</tspan><tspan x="95.93" y="141.6">cification and construction of p</tspan><tspan class="cls-1" x="186.59" y="141.6">r</tspan><tspan x="188.9" y="141.6">ocesses which deli</tspan><tspan class="cls-5" x="241.64" y="141.6">v</tspan><tspan x="244.58" y="141.6">er </tspan><tspan class="cls-5" x="252.1" y="141.6">v</tspan><tspan x="255.04" y="141.6">aluab</tspan><tspan class="cls-29" x="271.67" y="141.6">l</tspan><tspan x="273.06" y="141.6">e </tspan></tspan><tspan class="cls-33"><tspan x="0" y="148.22">capacities </tspan><tspan class="cls-5" x="31.28" y="148.22">f</tspan><tspan x="33.19" y="148.22">or action to a particu</tspan><tspan class="cls-29" x="94.81" y="148.22">l</tspan><tspan x="96.2" y="148.22">ar use</tspan><tspan class="cls-28" x="114.15" y="148.22">r</tspan><tspan x="115.96" y="148.22">. Service design p</tspan><tspan class="cls-1" x="166.04" y="148.22">r</tspan><tspan x="168.34" y="148.22">actice can be both tangib</tspan><tspan class="cls-29" x="242.76" y="148.22">l</tspan><tspan x="244.15" y="148.22">e and intangib</tspan><tspan class="cls-29" x="286.33" y="148.22">l</tspan><tspan x="287.72" y="148.22">e, </tspan></tspan><tspan class="cls-33"><tspan x="0" y="154.83">and can i</tspan><tspan class="cls-29" x="26.92" y="154.83">n</tspan><tspan class="cls-5" x="30.48" y="154.83">v</tspan><tspan x="33.42" y="154.83">o</tspan><tspan class="cls-29" x="37.15" y="154.83">l</tspan><tspan class="cls-5" x="38.54" y="154.83">v</tspan><tspan x="41.47" y="154.83">e arti</tspan><tspan class="cls-5" x="56.53" y="154.83">f</tspan><tspan x="58.44" y="154.83">acts or other e</tspan><tspan class="cls-29" x="100.69" y="154.83">l</tspan><tspan x="102.08" y="154.83">ements such as communication, e</tspan><tspan class="cls-29" x="199.24" y="154.83">n</tspan><tspan x="202.81" y="154.83">vi</tspan><tspan class="cls-1" x="207.45" y="154.83">r</tspan><tspan x="209.75" y="154.83">onment and beh</tspan><tspan class="cls-29" x="257.35" y="154.83">a</tspan><tspan x="260.91" y="154.83">viou</tspan><tspan class="cls-28" x="273.01" y="154.83">r</tspan><tspan x="274.82" y="154.83">. </tspan></tspan><tspan class="cls-33"><tspan x="0" y="161.44">S</tspan><tspan class="cls-5" x="3.65" y="161.44">ev</tspan><tspan x="9.86" y="161.44">e</tspan><tspan class="cls-1" x="13.24" y="161.44">r</tspan><tspan x="15.54" y="161.44">al of the authors of service design th</tspan><tspan class="cls-5" x="121" y="161.44">e</tspan><tspan x="124.27" y="161.44">ory including Pier</tspan><tspan class="cls-1" x="174.48" y="161.44">r</tspan><tspan x="176.78" y="161.44">e Eiglie</tspan><tspan class="cls-32" x="197.44" y="161.44">r</tspan><tspan x="199.08" y="161.44">, Richa</tspan><tspan class="cls-1" x="217.68" y="161.44">r</tspan><tspan x="219.98" y="161.44">d Normann, Nico</tspan><tspan class="cls-29" x="268.71" y="161.44">l</tspan><tspan x="270.09" y="161.44">a Mo</tspan><tspan class="cls-1" x="284.57" y="161.44">r</tspan><tspan x="286.88" y="161.44">elli, </tspan></tspan><tspan class="cls-33"><tspan x="0" y="168.05">p</tspan><tspan class="cls-1" x="3.9" y="168.05">r</tspan><tspan x="6.2" y="168.05">opose that services come to </tspan><tspan class="cls-29" x="88.57" y="168.05">e</tspan><tspan x="91.79" y="168.05">xistence at the same moment they a</tspan><tspan class="cls-1" x="195.19" y="168.05">r</tspan><tspan x="197.49" y="168.05">e both p</tspan><tspan class="cls-1" x="221.57" y="168.05">r</tspan><tspan class="cls-29" x="223.87" y="168.05">o</tspan><tspan x="227.44" y="168.05">vid</tspan><tspan class="cls-5" x="235.97" y="168.05">e</tspan><tspan x="239.25" y="168.05">d and us</tspan><tspan class="cls-5" x="264.42" y="168.05">e</tspan><tspan x="267.7" y="168.05">d. In </tspan></tspan><tspan class="cls-33"><tspan x="0" y="174.66">cont</tspan><tspan class="cls-1" x="12.95" y="174.66">r</tspan><tspan x="15.26" y="174.66">ast, p</tspan><tspan class="cls-1" x="30.93" y="174.66">r</tspan><tspan x="33.23" y="174.66">oducts a</tspan><tspan class="cls-1" x="58.39" y="174.66">r</tspan><tspan x="60.7" y="174.66">e c</tspan><tspan class="cls-1" x="68.97" y="174.66">r</tspan><tspan class="cls-5" x="71.27" y="174.66">e</tspan><tspan x="74.55" y="174.66">at</tspan><tspan class="cls-5" x="80.49" y="174.66">e</tspan><tspan x="83.77" y="174.66">d and </tspan><tspan class="cls-38" x="102.24" y="174.66">&quot;</tspan><tspan class="cls-29" x="103.36" y="174.66">e</tspan><tspan x="106.58" y="174.66">xis</tspan><tspan class="cls-30" x="114.16" y="174.66">t</tspan><tspan x="116.05" y="174.66">&quot; be</tspan><tspan class="cls-5" x="126.44" y="174.66">f</tspan><tspan x="128.35" y="174.66">o</tspan><tspan class="cls-1" x="132.08" y="174.66">r</tspan><tspan x="134.38" y="174.66">e being pu</tspan><tspan class="cls-1" x="164.95" y="174.66">r</tspan><tspan x="167.25" y="174.66">chas</tspan><tspan class="cls-5" x="180.96" y="174.66">e</tspan><tspan x="184.24" y="174.66">d and us</tspan><tspan class="cls-5" x="209.42" y="174.66">e</tspan><tspan x="212.69" y="174.66">d. Whi</tspan><tspan class="cls-29" x="229.88" y="174.66">l</tspan><tspan x="231.27" y="174.66">e a designer can </tspan></tspan><tspan class="cls-33"><tspan x="0" y="181.28">p</tspan><tspan class="cls-1" x="3.9" y="181.28">r</tspan><tspan x="6.2" y="181.28">escribe the </tspan><tspan class="cls-29" x="39.78" y="181.28">e</tspan><tspan class="cls-34" x="43" y="181.28">x</tspan><tspan x="45.74" y="181.28">act configu</tspan><tspan class="cls-1" x="78.12" y="181.28">r</tspan><tspan x="80.42" y="181.28">ation of a p</tspan><tspan class="cls-1" x="113.63" y="181.28">r</tspan><tspan x="115.94" y="181.28">oduct, they cannot p</tspan><tspan class="cls-1" x="175.53" y="181.28">r</tspan><tspan x="177.83" y="181.28">escribe in the same </tspan><tspan class="cls-5" x="235.27" y="181.28">w</tspan><tspan x="239.23" y="181.28">ay the </tspan><tspan class="cls-1" x="258.54" y="181.28">r</tspan><tspan x="260.84" y="181.28">esult of the </tspan></tspan><tspan class="cls-33"><tspan x="0" y="187.89">inte</tspan><tspan class="cls-1" x="10.92" y="187.89">r</tspan><tspan x="13.22" y="187.89">action bet</tspan><tspan class="cls-5" x="42.61" y="187.89">we</tspan><tspan x="49.85" y="187.89">en users and service p</tspan><tspan class="cls-1" x="114.42" y="187.89">r</tspan><tspan class="cls-29" x="116.72" y="187.89">o</tspan><tspan x="120.29" y="187.89">viders, nor can they p</tspan><tspan class="cls-1" x="182.37" y="187.89">r</tspan><tspan x="184.67" y="187.89">escribe the </tspan><tspan class="cls-5" x="218.25" y="187.89">f</tspan><tspan x="220.16" y="187.89">orm and cha</tspan><tspan class="cls-1" x="256.95" y="187.89">r</tspan><tspan x="259.26" y="187.89">acteristics of </tspan></tspan><tspan class="cls-33"><tspan x="0" y="194.5">any emotional </tspan><tspan class="cls-5" x="42.59" y="194.5">v</tspan><tspan x="45.53" y="194.5">alue p</tspan><tspan class="cls-1" x="63.43" y="194.5">r</tspan><tspan x="65.74" y="194.5">oduc</tspan><tspan class="cls-5" x="80.37" y="194.5">e</tspan><tspan x="83.64" y="194.5">d </tspan><tspan class="cls-29" x="89.15" y="194.5">b</tspan><tspan x="92.88" y="194.5">y the service.</tspan></tspan><tspan class="cls-33"><tspan class="cls-1" x="0" y="207.72">C</tspan><tspan x="4.01" y="207.72">onsequently, service design is an activity that, among other things, suggests beh</tspan><tspan class="cls-29" x="235.32" y="207.72">a</tspan><tspan x="238.88" y="207.72">viou</tspan><tspan class="cls-1" x="250.98" y="207.72">r</tspan><tspan x="253.28" y="207.72">al patterns or </tspan></tspan><tspan class="cls-33"><tspan class="cls-30" x="0" y="214.33">&quot;</tspan><tspan x="1.17" y="214.33">scripts&quot; </tspan><tspan class="cls-5" x="23.74" y="214.33">f</tspan><tspan x="25.64" y="214.33">or the actors inte</tspan><tspan class="cls-1" x="75.43" y="214.33">r</tspan><tspan x="77.74" y="214.33">acting in the service. Understanding h</tspan><tspan class="cls-29" x="187.47" y="214.33">o</tspan><tspan x="191.03" y="214.33">w these patterns inter</tspan><tspan class="cls-5" x="253.74" y="214.33">we</tspan><tspan class="cls-29" x="260.98" y="214.33">a</tspan><tspan class="cls-5" x="264.55" y="214.33">v</tspan><tspan x="267.48" y="214.33">e and </tspan></tspan><tspan class="cls-33"><tspan x="0" y="220.95">support </tspan><tspan class="cls-5" x="24.57" y="220.95">e</tspan><tspan x="27.85" y="220.95">ach other a</tspan><tspan class="cls-1" x="61.13" y="220.95">r</tspan><tspan x="63.43" y="220.95">e important asp</tspan><tspan class="cls-5" x="109.48" y="220.95">e</tspan><tspan x="112.76" y="220.95">cts of the cha</tspan><tspan class="cls-1" x="151.88" y="220.95">r</tspan><tspan x="154.18" y="220.95">acter of design and service. This al</tspan><tspan class="cls-29" x="253.95" y="220.95">lo</tspan><tspan x="258.9" y="220.95">ws g</tspan><tspan class="cls-1" x="271.29" y="220.95">r</tspan><tspan class="cls-5" x="273.6" y="220.95">e</tspan><tspan x="276.87" y="220.95">ater </tspan></tspan><tspan class="cls-33"><tspan x="0" y="227.56">user f</tspan><tspan class="cls-1" x="16.24" y="227.56">r</tspan><tspan class="cls-5" x="18.54" y="227.56">ee</tspan><tspan x="25.09" y="227.56">dom, and better p</tspan><tspan class="cls-1" x="76.88" y="227.56">r</tspan><tspan class="cls-29" x="79.19" y="227.56">o</tspan><tspan x="82.75" y="227.56">vider adaptability to the users&apos; n</tspan><tspan class="cls-5" x="175.77" y="227.56">ee</tspan><tspan x="182.31" y="227.56">ds.</tspan></tspan></text>
      <text class="cls-3" transform="translate(999.19 707.26) rotate(-37.61)"><tspan x="0" y="0">Service design </tspan></text>
      <g class="cls-35">
        <path class="cls-9" d="M1004.59,681.07c7.02-6.28,15.43-12.47,23.93-18.56,8.51-6.08,17.08-12.1,24.43-18.14,17.53-14.65,37.96-28.56,57.08-40.96.49.76-.35,2.94,1.48,2.28,7.1-2.99,8.09-1.44,9.07.08.49.76-4.77,3.07-2.69,2.81-4.76,3.09-12.42,8.64-7.17,6.29,2.08-.27,7.9-5.17,10.24-5.03,2.33.12-.11,3.31,2.22,3.43,1.59-1.02,4.75-3.06,6.34-4.07,2.07-.25-.12,3.31,1.47,2.3,5.24-2.27,11.35-6.67,17.72-10.64.49.77,2.55.54-.39,2.92-27.63,17.77-54.99,36.77-81.93,56.31-13.47,9.77-26.83,19.69-40.09,29.64-6.64,4.98-13.15,9.96-19.99,15.02-6.84,5.02-13.98,9.99-21.67,14.39-1.79.94-2.9,1.33-3.43,1.34-.5-.01-.53-.35-.15-.96.76-1.22,2.96-3.4,5.08-5.56-1.43,1.43-2.14.27-3.6,1.68-.7-1.2,1.54-5.05,7.58-9.73-1.58,1.08-3.17,2.15-4.78,3.18-1.85.66-.73-1.15-1.23-1.91,1.6-1.02,3.16-2.09,2.91-2.46-.25-.38-.76-1.13-1.01-1.51-1.55,1.05-4.69,3.08-6.29,4.05,1.59-.98,3.16-1.99,2.91-2.38-.25-.38-.74-1.15-.98-1.53,2.86-2.36,7.94-4.79,10.69-7.37l-.8-1.1c-3.27,1.83-7.54,5.36-10.63,7.33,1.3-1.37,1.04-1.76.54-2.52,4.29-3.37,9.57-5.51,13.22-9.95l-4.47,3.3c1.64-3.96,10.11-8.13,14.38-11.97Z"/>
      </g>
      <g class="cls-35">
        <path class="cls-9" d="M970.21,758.25c7.14-5.79,16.99-10.85,24.15-16.2,4.29-3.21,8.65-6.73,13.09-10.26,4.43-3.53,8.9-7.02,13.18-10.36.14.18-.37,1.01.42.54,3.07-1.96,3.35-1.61,3.63-1.25.14.18-2.14,1.67-1.29,1.3-2.14,1.67-5.65,4.56-3.36,3.06.85-.38,3.57-2.79,4.5-3.08.93-.29-.29,1.09.63.8.72-.56,2.15-1.68,2.86-2.23.85-.38-.29,1.09.42.54,2.28-1.5,5.07-3.82,7.93-6.05.14.18,1-.2-.36,1-6.21,4.94-12.48,9.91-18.76,14.9-6.3,4.97-12.5,10.08-19.2,14.83-6.71,4.72-13.67,8.8-20.21,13.22-6.53,4.41-12.66,9.19-17.45,15.01-2.24,2.61-1.02.33.41-1.92-.49.73-.73.53-1.2,1.28-.13-.11-.03-.59.37-1.41.45-.78,1.18-1.93,2.4-3.24-.65.62-1.23,1.3-1.83,1.96-.69.59-.26-.23-.42-.38.61-.67,1.21-1.35,1.13-1.42-.08-.08-.25-.23-.33-.31-.6.68-1.86,2.02-2.42,2.73.57-.72,1.21-1.37,1.12-1.45-.08-.08-.25-.23-.34-.3.57-.73,1.36-1.57,2.21-2.35.42-.4.83-.8,1.22-1.18.41-.37.78-.72,1.1-1.05l-.23-.25c-.36.29-.75.63-1.16,1-.39.39-.8.8-1.2,1.21-.82.81-1.58,1.7-2.19,2.39.54-.77.46-.84.29-1,.89-1.09,1.95-2.01,2.96-2.98,1.05-.91,2.05-1.89,3.02-2.89-.72.59-1.41,1.21-2.09,1.84.96-1.73,4.87-4.34,7.03-6.04Z"/>
      </g>
    </g>
  </g>
</svg>