<?xml version="1.0" encoding="UTF-8"?>
<svg xmlns="http://www.w3.org/2000/svg" xmlns:xlink="http://www.w3.org/1999/xlink" viewBox="0 0 1000 1000">
  <defs>
    <style>
      .cls-1 {
        clip-path: url(#clippath);
      }

      .cls-2, .cls-3, .cls-4, .cls-5, .cls-6, .cls-7, .cls-8, .cls-9, .cls-10, .cls-11, .cls-12, .cls-13, .cls-14, .cls-15, .cls-16, .cls-17, .cls-18, .cls-19, .cls-20, .cls-21, .cls-22, .cls-23, .cls-24, .cls-25, .cls-26, .cls-27, .cls-28 {
        stroke-width: 0px;
      }

      .cls-2, .cls-29, .cls-30, .cls-31 {
        fill: none;
      }

      .cls-3 {
        fill: #df1919;
        opacity: .7;
      }

      .cls-3, .cls-4, .cls-32, .cls-33, .cls-34 {
        mix-blend-mode: multiply;
      }

      .cls-35 {
        clip-path: url(#clippath-1);
      }

      .cls-29 {
        stroke: #425d1c;
        stroke-linecap: round;
        stroke-linejoin: round;
        stroke-width: .5px;
      }

      .cls-4, .cls-33 {
        opacity: .3;
      }

      .cls-4, .cls-8 {
        fill: #7b4b2c;
      }

      .cls-30 {
        stroke: #1f471f;
      }

      .cls-30, .cls-31 {
        stroke-miterlimit: 10;
      }

      .cls-31 {
        stroke: #704519;
      }

      .cls-36 {
        isolation: isolate;
      }

      .cls-32 {
        opacity: .4;
      }

      .cls-34 {
        opacity: .6;
      }

      .cls-5 {
        fill: #5e9e59;
      }

      .cls-6 {
        fill: #60892f;
      }

      .cls-7 {
        fill: #74aa70;
      }

      .cls-9 {
        fill: #499244;
      }

      .cls-10 {
        fill: #59ad50;
      }

      .cls-11 {
        fill: #704519;
      }

      .cls-12 {
        fill: #6dba67;
      }

      .cls-13 {
        fill: #896fb7;
      }

      .cls-14 {
        fill: #9ab644;
      }

      .cls-15 {
        fill: #2d6628;
      }

      .cls-16 {
        fill: #415c1f;
      }

      .cls-17 {
        fill: #d3d678;
      }

      .cls-18 {
        fill: #e29696;
      }

      .cls-19 {
        fill: #ac6944;
      }

      .cls-20 {
        fill: #c0c063;
      }

      .cls-21 {
        fill: #add348;
      }

      .cls-22 {
        fill: #a7c6af;
      }

      .cls-23 {
        fill: #ef882a;
      }

      .cls-24 {
        fill: #ea9d57;
      }

      .cls-25 {
        fill: #e85d5d;
      }

      .cls-26 {
        fill: #ebe5dd;
      }

      .cls-27 {
        fill: #efafaf;
      }

      .cls-28 {
        fill: #e8dccf;
      }
    </style>
    <clipPath id="clippath">
      <circle class="cls-2" cx="500" cy="486.04" r="374.68"/>
    </clipPath>
    <clipPath id="clippath-1">
      <path class="cls-2" d="M402.81,792.95c-38.01-44.53-56.56-115.54-49.38-153.43,2.17-11.43,11.07-20.49,22.49-22.74,4.26-.84,8.56-1.05,12.86-.83,10.05.49,18.93,6.78,22.71,16.1,19.92,49.15,12.52,111.17-8.68,160.91Z"/>
    </clipPath>
  </defs>
  <g class="cls-36">
    <g id="Layer_1" data-name="Layer 1">
      <g>
        <circle class="cls-22" cx="500" cy="486.04" r="374.68"/>
        <g class="cls-1">
          <polygon class="cls-28" points="677.03 971.95 327.23 971.95 386.81 615.02 609.8 615.02 677.03 971.95"/>
        </g>
        <path class="cls-28" d="M688.62,759.78c3.76-19.91-62.24-84.96-113.03-140.17l21.11,161.54,91.92-21.37Z"/>
        <path class="cls-28" d="M310.08,773.19c-3.76-19.91,62.24-84.96,113.03-140.17l-21.11,161.54-91.92-21.37Z"/>
        <path class="cls-26" d="M490.66,638.8c-25.62,8.62-53.65,8.09-76.65-5.87-48.97-26.26-67.24-59.98-52.73-102.34,1.71-4.98,3.04-10.09,3.78-15.3,8.03-56.56,36.94-95.04,88.83-113.62,22.58-8.09,46.84-10.79,70.48-6.71,20.03,3.46,38.4,11.21,54.53,24.76,15.49,13.01,26.92,30.19,33.67,49.26,6.75,19.1,11.69,39.91,15.66,61.61,1.04,5.68,2.8,11.22,5.25,16.45,17.33,37.15-6.78,59.39-36.51,79.61-21.77,10.35-46.33,12.2-72.59,8.89-11.34-1.43-22.9-.38-33.73,3.27Z"/>
        <path class="cls-26" d="M453.9,401.66c4.99-27.7,7.12-55.1,6.17-82.19-.23-6.64-1.1-13.25-2.45-19.76-13.05-62.84-33.63-106.62-67.5-116.78-22.7-1.3-29.5,14.13-25.96,40.46l4.78,48.52c.32,3.23.54,6.48.6,9.72.93,52.42,17.12,98.97,45.3,140.91"/>
        <path class="cls-26" d="M532.38,396.59c-.54-41.67,4.19-81.22,18.19-117.02,7.99-20.44,20.72-38.66,37.12-53.25,18.62-16.56,37.97-27.63,58.9-27.02,7.43.22,14.51,3.66,18.94,9.63,5.54,7.47,4.67,15.35-.21,23.48-6.08,9.05-23.62,22.77-31.28,36.76-12.05,18.86-15.6,46.18-18.77,75.86-5.01,32.16-17.92,59.61-36.35,74.68"/>
        <path class="cls-27" d="M422.21,417.3l-25.94-66.37c-9.13-23.37-14.68-47.99-16.45-73.02l-4.2-59.45c-.26-3.63,1.31-7.16,4.18-9.4h0c7.05-5.51,17.24-4.07,22.51,3.16,17.98,24.66,34.19,54.99,42.62,90.48,6.36,28.99.42,62.44-.84,102.83-7.59,2.56-14.88,6.52-21.89,11.77Z"/>
        <path class="cls-27" d="M540.25,398.74c4.93-54.21,10.7-107.29,33.5-137.18,18.35-20.98,37.78-38.5,60.08-46.92,4.81-1.82,10.25-.2,13.3,3.94h0c1.53,2.08,1.41,4.96-.32,6.87-10.1,11.18-18.86,22.2-26.36,32.86s-12.1,21.61-14.65,33.74c-4.23,20.07-7.47,47.56-10.77,74.66-3.51,20.19-15.67,32.38-28.47,43.98-9.95-5.52-18.98-9.84-26.29-11.96Z"/>
        <ellipse class="cls-11" cx="449.36" cy="521.72" rx="12.57" ry="21.24" transform="translate(-25.9 23.48) rotate(-2.91)"/>
        <ellipse class="cls-11" cx="554.62" cy="516.37" rx="12.57" ry="21.24" transform="translate(-25.49 28.81) rotate(-2.91)"/>
        <path class="cls-27" d="M501.63,567.42c-10.44,1.26-18.88-3.48-26.28-11.35,9.93.35,18.85,3.63,26.28,11.35Z"/>
        <path class="cls-27" d="M501.63,567.42c5.22-9.13,14.06-13.07,24.79-14.31-6.2,7.76-14.17,12.96-24.79,14.31Z"/>
        <path class="cls-31" d="M501.78,567.42l1.26,25.45c-12.76,12.91-23.18,14.87-31.4,6.54"/>
        <path class="cls-31" d="M452.94,568.79s-73.15-.04-102.91,18.79"/>
        <path class="cls-30" d="M447.83,582.71s-83.17,31.78-87.21,40.86"/>
        <path class="cls-30" d="M447.83,598.37s-58.77,34.78-72.23,52.94"/>
        <path class="cls-31" d="M557.91,572.81s75.06-22.42,106.34-7.08"/>
        <path class="cls-31" d="M557.91,583.08s91.21-.29,106.34,23.06"/>
        <path class="cls-31" d="M561.84,597.03s58.52,15.31,70.62,35.99"/>
        <path class="cls-31" d="M502.79,592.88c14.11,11.43,24.68,12.22,31.93,3.04"/>
        <g>
          <g>
            <path class="cls-13" d="M588.19,652.01c11.67-10.34,27-10.55,36.89,1.45,3.88,4.7,6.17,10.52,6.73,16.59,3.22,35.45-14.27,85.71-44.44,109.42-8.13,6.39-18.05,10.17-28.39,10.56-22.27.83-38.85-13.18-41.27-36.53-1.53-13.55,5.16-26.96,25.14-40.15,1.3-.86,2.55-1.81,3.74-2.81,15.03-12.71,26.08-27.96,32.96-45.88,1.86-4.84,4.77-9.21,8.65-12.64Z"/>
            <g class="cls-34">
              <path class="cls-13" d="M631.81,670.04c-.55-6.07-2.84-11.88-6.73-16.59-.07-.08-.13-.16-.2-.24.81,2.36,1.35,4.83,1.57,7.35,3.22,35.45-14.27,85.71-44.44,109.42-8.13,6.39-18.05,10.17-28.39,10.56-13.82.52-25.46-4.69-32.87-14.3,6.18,15.57,20.38,24.45,38.22,23.78,10.34-.39,20.25-4.16,28.39-10.56,30.17-23.71,47.66-73.97,44.44-109.42Z"/>
            </g>
            <path class="cls-7" d="M578.99,660.19c5.67-10.01,13.96-17,26.97-18.57,1.35-.16,2.41-1.24,2.57-2.6.42-3.64.26-7.08-1.53-9.95-2.45-3.98,1.79-6.21,4.4-2.95.83,1.03,1.23,2.34,1.21,3.66l-.15,9.62c-.02,1.53.91,2.9,2.34,3.45,8.95,3.48,15.59,10.33,18.27,22.92-3.59-.37-6.83-2.09-9.77-4.99-1.95-1.92-5.21-1.5-6.58.87-3.39,5.83-7.59,9.67-13.46,9.39,1.28-3.45,1.15-7.06-.12-10.8-.67-1.99-2.92-2.97-4.85-2.14-7.44,3.21-14.2,4.74-19.29,2.08Z"/>
          </g>
          <g>
            <path class="cls-15" d="M423.02,711.83c-3.84,4.86-9.67,8.2-18.6,9.17-15.76,1.7-30.87-4.79-32.63-14.24-.55-2.95.18-5.96,2.4-8.63.9-1.09,1-2.35.28-3.49-7.07-11.21,3.33-21.26,22.9-22.94,2.59-.22,4.95-1.03,6.49-2.28,6.55-5.35,15.61-7.21,26.58-6.44,2.02.14,4.05-.25,5.56-1.06,9.86-5.28,24.95-5.21,34.23,0,1.41.79,3.3,1.2,5.24,1.16,7.3-.15,13.42,2.23,18.39,7.05,1.19,1.15,3.25,1.87,5.52,1.95,18.1.63,30.75,10.13,23.48,22.08-.59.97-.56,2.05.13,3,6.08,8.38-.33,24.17-30.51,22.37-3.02-.18-5.96-.68-8.65-1.52-3.65-1.13-6.42-2.58-7.8-4.51-.48-.67-1.69-1.03-2.89-.89-6.57.76-13.54.1-20.68-1.15-.76-.13-1.57-.12-2.31.04-8.62,1.82-16.67,2.22-23.57-.29-1.27-.46-2.93-.17-3.56.63Z"/>
            <path class="cls-21" d="M403.83,707.21s17.59,48.03,14.14,75.23c-.42,3.31,1.67,6.42,4.89,7.29,10.27,2.79,31.72,6.67,47.46-3.78,1.99-1.32,3.14-3.59,2.99-5.98-.74-12.38-1.28-54.28,23.17-75.5l-14.14-18.86-19.2,23.07c-.66.8-1.95.12-1.66-.88l6.9-24.3h-24.77l-4.32,21.6c-.47,2.34-3.58,2.86-4.79.8l-14.95-25.59-15.71,26.88Z"/>
            <g class="cls-32">
              <path class="cls-21" d="M473.27,779.19c-15.55,9.11-35.86,5.41-45.77,2.72-3.22-.88-5.31-3.98-4.89-7.29,3.46-27.21-14.14-75.23-14.14-75.23l11.11-19-.03-.06-15.71,26.88s17.59,48.03,14.14,75.23c-.42,3.31,1.67,6.42,4.89,7.29,10.27,2.79,31.72,6.67,47.46-3.78,1.99-1.32,3.14-3.59,2.99-5.98-.02-.25-.03-.52-.04-.79Z"/>
            </g>
            <g class="cls-32">
              <path class="cls-21" d="M422.4,685.31l14.95,25.59c1.21,2.06,4.32,1.54,4.79-.8l4.32-21.6-2.86-4.98-4.32,21.6c-.47,2.34-3.59,2.86-4.79.8l-12.09-20.61Z"/>
            </g>
            <g class="cls-32">
              <path class="cls-21" d="M461.44,708.08l-1.78,6.25c-.28,1,1,1.67,1.66.88l19.2-23.07,12.07,16.1c1.22-1.31,2.51-2.57,3.88-3.76l-14.14-18.86-19.2,23.07c-.6.72-1.71.23-1.7-.61Z"/>
            </g>
            <path class="cls-9" d="M417.93,693.58c-4.61,9.83-11.61,16.59-22.34,18.54-18.93,3.44-37.07-9.68-39.19-28.81-.66-5.96.22-12.05,2.88-17.45,1.09-2.2,1.2-4.76.34-7.05-8.49-22.67,4-43,27.5-46.41,3.11-.45,5.94-2.08,7.79-4.62,7.86-10.82,18.75-14.59,31.92-13.03,2.43.29,4.86-.51,6.68-2.15,11.84-10.68,29.97-10.53,41.11-.01,1.7,1.6,3.96,2.44,6.3,2.36,8.77-.3,16.12,4.52,22.09,14.26,1.43,2.32,3.91,3.79,6.63,3.95,21.74,1.27,36.93,20.49,28.2,44.66-.71,1.97-.68,4.15.15,6.07,7.3,16.95-.4,48.9-36.64,45.24-3.62-.37-7.16-1.38-10.39-3.07-4.39-2.29-7.71-5.22-9.37-9.13-.57-1.35-2.03-2.08-3.47-1.8-7.89,1.53-16.26.2-24.84-2.32-.91-.27-1.88-.24-2.78.08-10.35,3.68-20.02,4.48-28.3-.58-1.52-.93-3.52-.34-4.28,1.28Z"/>
            <g class="cls-33">
              <path class="cls-9" d="M413.91,700.06c-18.93,3.44-37.07-9.68-39.19-28.81-.66-5.96.22-12.05,2.88-17.45,1.09-2.2,1.2-4.76.34-7.05-4.73-12.62-2.95-24.52,3.61-33.17-19.84,5.59-29.72,24.43-21.93,45.23.86,2.3.75,4.85-.34,7.05-2.66,5.4-3.54,11.48-2.88,17.45,2.12,19.13,20.25,32.25,39.19,28.81,8.2-1.49,14.22-5.79,18.66-12.13-.11.02-.23.05-.34.07Z"/>
            </g>
          </g>
          <g>
            <path class="cls-25" d="M485,698.07c-6.57-.03-12.44.49-17.73,1.52-22.97,4.46-40.27,23.27-43.49,46.45-2.68,19.31,2.69,37.33,15.53,54.14,8.1,10.6,19.42,18.37,32.33,21.73,19.87,5.16,43.78,2.49,63.19-9.07,10.8-6.43,19.44-16.01,24.65-27.45,8.4-18.44,6.8-38.45-7.85-60.51-7.16-10.78-17.76-18.81-30.13-22.59-10.84-3.31-23.61-4.8-36.49-4.21Z"/>
            <path class="cls-3" d="M559.47,777.72c-5.21,11.44-13.85,21.01-24.65,27.45-19.41,11.56-43.32,14.23-63.19,9.07-12.91-3.35-24.23-11.12-32.33-21.73-9.82-12.86-15.27-26.43-16.09-40.74-.98,17.16,4.53,33.27,16.09,48.4,8.1,10.6,19.42,18.37,32.33,21.73,19.87,5.16,43.78,2.49,63.19-9.07,10.8-6.43,19.44-16.01,24.65-27.45,3.87-8.49,5.61-17.32,4.94-26.53-.48,6.47-2.15,12.76-4.94,18.87Z"/>
            <path class="cls-7" d="M445.13,709.47c9.97-13.48,21.77-18.32,34.89-16.9,2.05.22,3.67-1.65,3.18-3.65-1.14-4.57-5.37-9.04-12.6-13.41-.89-.54-.62-1.88.4-2.05,3.57-.6,6.3-2.7,7.55-5.79.49-1.2,1.97-1.61,3-.83,7.89,5.97,12.31,13.33,13.57,21.95.29,2.01,2.15,3.39,4.17,3.16,12.92-1.42,23.76,5.24,33.72,15.36-9.11-2.83-15.69-4.11-19-2.28-1.36.75-1.88,2.44-1.29,3.87,1.68,4.09,4.57,7.15,10.59,13.28-11.28-3.35-22.62-8.71-28.15-13.76-1.82-1.66-4.64-1.48-6.3.34-5.2,5.68-16.24,10.53-27.39,13.18,3.34-4.7,6.97-7.94,9.24-10.99,2.15-2.89.26-7.02-3.33-7.27-4.11-.29-9.94.71-22.24,5.78Z"/>
            <g>
              <path class="cls-5" d="M467.37,703.69c1.8.13,3.17,1.22,3.82,2.65,1.3-2.79-.56-6.22-3.82-6.44-3.53-.25-8.34.46-17.44,3.88-1.64,1.69-3.25,3.59-4.8,5.69,12.31-5.07,18.14-6.07,22.24-5.78Z"/>
              <path class="cls-5" d="M527.05,701.8c-6.05-1.55-10.5-1.97-13.04-.57-1.36.75-1.88,2.44-1.29,3.87.11.26.22.52.34.77.25-.34.56-.64.95-.85,3.31-1.83,9.89-.55,19,2.28-1.95-1.98-3.93-3.82-5.96-5.5Z"/>
              <path class="cls-5" d="M495.16,704.63c-1.82-1.66-4.64-1.48-6.3.34-4.6,5.02-13.77,9.4-23.54,12.18-1.26,1.44-2.58,3.01-3.85,4.8,11.15-2.64,22.19-7.5,27.39-13.18,1.66-1.82,4.48-2,6.3-.34,5.52,5.05,16.87,10.41,28.15,13.76-2.11-2.15-3.84-3.93-5.26-5.5-9.41-3.31-18.22-7.79-22.89-12.05Z"/>
            </g>
          </g>
          <g>
            <path class="cls-14" d="M564.6,657.5c-8.07,1.47-13.34,5.63-17.07,11.26-1.64,2.48-2.9,5.19-3.82,8.02-5.97,18.19-13.22,33.46-21.49,46.43-3.3,5.18-5.76,10.85-7.1,16.84-2.94,13.18-.47,26.11,7.38,38.79,8.9,14.38,24.59,23.28,41.5,22.87,6.35-.15,12.74-1.51,19.17-4.06,11.2-4.45,20.51-12.78,25.72-23.65,3.62-7.55,5.12-15.8,4.78-24.65-.3-7.76-2.18-15.37-5.26-22.49-6.85-15.84-10.05-33.69-11.62-44.64-.9-6.25-3.58-12.14-7.89-16.75-3.38-3.62-7.45-6.3-12.53-7.64-3.84-1.01-7.87-1.04-11.78-.33Z"/>
            <path class="cls-20" d="M564.86,660.65c-7.48,1.4-12.36,5.36-15.83,10.71-1.52,2.35-2.69,4.93-3.56,7.6-5.56,17.25-12.31,31.74-19.98,44.05-3.06,4.91-5.35,10.3-6.6,15.98-2.75,12.5-.48,24.74,6.76,36.75,8.22,13.62,22.73,22.02,38.39,21.6,5.88-.16,11.8-1.45,17.76-3.88,10.38-4.24,19.02-12.15,23.86-22.46,3.37-7.17,4.77-14.98,4.48-23.37-.26-7.35-1.99-14.56-4.83-21.31-6.32-15-9.24-31.92-10.68-42.29-.82-5.92-3.3-11.49-7.27-15.86-3.12-3.42-6.89-5.96-11.59-7.21-3.56-.95-7.29-.98-10.91-.3Z"/>
            <path class="cls-17" d="M565.22,667.64c-6.42,1.31-10.63,4.92-13.62,9.78-1.32,2.14-2.33,4.48-3.08,6.92-4.84,15.68-10.69,28.86-17.32,40.06-2.65,4.47-4.63,9.37-5.73,14.53-2.41,11.35-.52,22.46,5.64,33.33,6.99,12.32,19.4,19.89,32.83,19.44,5.04-.17,10.13-1.37,15.25-3.6,8.92-3.89,16.36-11.11,20.56-20.49,2.92-6.52,4.16-13.62,3.94-21.23-.19-6.67-1.64-13.21-4.05-19.32-5.35-13.59-7.79-28.93-8.97-38.34-.68-5.37-2.78-10.42-6.17-14.36-2.66-3.09-5.88-5.38-9.91-6.5-3.05-.85-6.24-.85-9.35-.22Z"/>
            <path class="cls-8" d="M561.43,719.58c-11.59,3.24-16.97,13.87-19.21,28.25-.52,3.33-.49,6.73.17,10.04,1.5,7.46,5.61,12.59,12.42,15.3,3.44,1.37,7.15,1.9,10.85,1.69,9.29-.52,15.46-5.41,18.52-14.64,1.04-3.13,1.55-6.41,1.63-9.71.36-14.92-4.52-24.65-14.07-29.76-3.17-1.69-6.86-2.13-10.32-1.16Z"/>
            <path class="cls-4" d="M585.82,750.51c.17-6.89-.79-12.68-2.81-17.41.97,3.9,1.39,8.39,1.25,13.49-.09,3.3-.59,6.58-1.57,9.71-2.89,9.24-8.61,14.17-17.19,14.75-3.41.23-6.84-.28-10-1.62-6.27-2.66-10.03-7.76-11.36-15.21-.59-3.3-.6-6.7-.1-10.03.69-4.58,1.67-8.78,3.04-12.49-2.36,4.5-3.9,9.97-4.86,16.13-.52,3.33-.49,6.73.17,10.04,1.5,7.46,5.61,12.59,12.42,15.3,3.44,1.37,7.15,1.9,10.85,1.69,9.29-.52,15.46-5.41,18.52-14.64,1.04-3.13,1.55-6.41,1.63-9.71Z"/>
            <ellipse class="cls-19" cx="574.75" cy="737.57" rx="8.03" ry="4.08" transform="translate(-208.82 1247.83) rotate(-85.14)"/>
            <g>
              <path class="cls-16" d="M573.23,657.19c-.09.42,1.4-16.56,2.53-17.77,0,0-1.17.99-2.43.88s-3.02-.45-3.02-.45c1.6,4.04,1.72,10.44,1.6,17.23l1.33.11Z"/>
              <path class="cls-6" d="M572.16,655.31s-3.34-9.92-7.55-11.36c-4.22-1.44-12.11-.84-13.38-1.71,0,0-1.25,5,1.39,6.88,2.65,1.88,8.46,4.74,12.4,5.01,3.93.27,7.14,1.18,7.14,1.18Z"/>
              <path class="cls-29" d="M556.77,646.1s3.98,2.36,8.32,3.45c2.31.58,7.07,5.77,7.07,5.77"/>
            </g>
          </g>
          <g>
            <g>
              <path class="cls-24" d="M402.81,792.95c-38.01-44.53-56.56-115.54-49.38-153.43,2.17-11.43,11.07-20.49,22.49-22.74,4.26-.84,8.56-1.05,12.86-.83,10.05.49,18.93,6.78,22.71,16.1,19.92,49.15,12.52,111.17-8.68,160.91Z"/>
              <path class="cls-12" d="M346.46,611.06c-2.2-3.13-3.5-6.29-3.63-9.46-.08-2.08,1.13-4.01,3.01-4.9,7.89-3.72,13.26.67,20.46,5.52.9.61,2.1-.09,2.04-1.17-.46-7.64-.12-15.18,4.2-18.52,1.81-1.4,4.23-1.83,6.35-.97,3.67,1.51,7.47,6.43,9.68,16.88.17.78,1.14,1.06,1.69.49,6.89-7.09,13.76-13.46,20.43-9.53.32.19.61.44.84.72,3.48,4.21,1.94,9.99-1.66,16.41-4.57,8.15-12.75,13.65-22.02,14.83l-13.65,1.74c-10.76,1.37-21.5-3.18-27.73-12.05Z"/>
              <path class="cls-10" d="M409.43,603.12c-4.57,8.15-12.75,13.65-22.02,14.83l-13.65,1.74c-10.76,1.37-21.5-3.18-27.73-12.05-1.52-2.17-2.61-4.34-3.18-6.53,0,.16-.01.32,0,.48.12,3.18,1.42,6.33,3.63,9.46,6.23,8.87,16.98,13.42,27.73,12.05l13.65-1.74c9.27-1.18,17.45-6.68,22.02-14.83,2.88-5.14,4.44-9.86,3.17-13.7-.14,3.1-1.53,6.58-3.61,10.28Z"/>
            </g>
            <g class="cls-35">
              <rect class="cls-23" x="386.26" y="624.61" width="29.56" height="5.15" rx="2.58" ry="2.58" transform="translate(-76.2 55.84) rotate(-7.28)"/>
              <rect class="cls-23" x="339.57" y="641.3" width="29.56" height="5.15" rx="2.58" ry="2.58" transform="translate(-78.69 50.06) rotate(-7.28)"/>
              <rect class="cls-23" x="396.4" y="644.37" width="29.56" height="5.15" rx="2.58" ry="2.58" transform="translate(-78.62 57.28) rotate(-7.28)"/>
              <rect class="cls-23" x="332.3" y="663.05" width="29.56" height="5.15" rx="2.58" ry="2.58" transform="translate(-81.5 49.31) rotate(-7.28)"/>
              <rect class="cls-23" x="400.84" y="679.18" width="29.56" height="5.15" rx="2.58" ry="2.58" transform="translate(-82.99 58.12) rotate(-7.28)"/>
              <rect class="cls-23" x="352.83" y="696.05" width="29.56" height="5.15" rx="2.58" ry="2.58" transform="translate(-85.51 52.18) rotate(-7.28)"/>
              <rect class="cls-23" x="399.62" y="699.04" width="29.56" height="5.15" rx="2.58" ry="2.58" transform="translate(-85.51 58.13) rotate(-7.28)"/>
              <rect class="cls-23" x="355.4" y="716.15" width="29.56" height="5.15" rx="2.58" ry="2.58" transform="translate(-88.04 52.66) rotate(-7.28)"/>
              <rect class="cls-23" x="361.39" y="737.55" width="29.56" height="5.15" rx="2.58" ry="2.58" transform="translate(-90.7 53.59) rotate(-7.28)"/>
              <rect class="cls-23" x="400.19" y="720.82" width="29.56" height="5.15" rx="2.58" ry="2.58" transform="translate(-88.27 58.37) rotate(-7.28)"/>
              <rect class="cls-23" x="405.11" y="742.05" width="29.56" height="5.15" rx="2.58" ry="2.58" transform="translate(-90.92 59.17) rotate(-7.28)"/>
              <rect class="cls-23" x="364.17" y="759.35" width="29.56" height="5.15" rx="2.58" ry="2.58" transform="translate(-93.44 54.12) rotate(-7.28)"/>
              <rect class="cls-23" x="399.45" y="764.62" width="29.56" height="5.15" rx="2.58" ry="2.58" transform="translate(-93.82 58.63) rotate(-7.28)"/>
              <rect class="cls-23" x="340.74" y="680.42" width="29.56" height="5.15" rx="2.58" ry="2.58" transform="translate(-83.63 50.52) rotate(-7.28)"/>
              <rect class="cls-23" x="403.65" y="662" width="29.56" height="5.15" rx="2.58" ry="2.58" transform="translate(-80.79 58.34) rotate(-7.28)"/>
            </g>
          </g>
          <path class="cls-27" d="M367.19,727.62c-13.55,54.33-4.87,93.69,14.16,126.08,4.81,8.19,12.52,14.29,21.56,17.21,67.96,21.95,132.3,25.35,190.96-.27,8.26-3.61,15.63-9.01,21.31-16,22.48-27.67,23.52-72,10.81-127.01-77.85,21.09-165.51,17.58-258.81,0Z"/>
          <path class="cls-18" d="M522.1,794.32c4.26,4.26,4.26,11.16,0,15.42l-7.3,7.3-15.42,15.42-22.72-22.72c-4.26-4.26-4.26-11.16,0-15.42h0c4.26-4.26,11.16-4.26,15.42,0l7.3,7.3,7.29-7.29c4.26-4.26,11.16-4.26,15.42,0h0Z"/>
          <path class="cls-18" d="M367.19,727.62c88.22,15.58,172.2,22.96,258.81,0l3.43,16.41c-84.99,25.35-178.77,20.77-265.56-1.01l3.32-15.4Z"/>
        </g>
        <ellipse class="cls-26" cx="645.68" cy="773.19" rx="47.65" ry="29.96" transform="translate(-286.75 392.01) rotate(-27.9)"/>
        <ellipse class="cls-26" cx="356.45" cy="780.55" rx="29.96" ry="47.65" transform="translate(-494.4 891.73) rotate(-72.9)"/>
      </g>
    </g>
  </g>
</svg>