<svg width="60" height="70" viewBox="0 0 60 70" fill="none" xmlns="http://www.w3.org/2000/svg">
<path d="M42 0C46.1561 7.59743 52.4026 13.8439 60 18C52.4026 22.1561 46.1561 28.4026 42 36C37.8439 28.4067 31.5974 22.1561 24 18C31.5974 13.8439 37.8439 7.59743 42 0Z" fill="#F2DDA6"/>
<path d="M12 29C14.7707 34.065 18.935 38.2293 24 41C18.935 43.7707 14.7707 47.935 12 53C9.22929 47.9378 5.06495 43.7707 0 41C5.06495 38.2293 9.22929 34.065 12 29Z" fill="#F2DDA6"/>
<path d="M32.3785 53C34.3131 56.5364 37.2207 59.444 40.7571 61.3785C37.2207 63.3131 34.3131 66.2207 32.3785 69.7571C30.444 66.2226 27.5364 63.3131 24 61.3785C27.5364 59.444 30.444 56.5364 32.3785 53Z" fill="#F2DDA6"/>
</svg>
