<?xml version="1.0" encoding="UTF-8"?>
<svg xmlns="http://www.w3.org/2000/svg" viewBox="0 0 1000 1000">
  <defs>
    <style>
      .cls-1 {
        opacity: .65;
      }

      .cls-1, .cls-2, .cls-3, .cls-4, .cls-5, .cls-6, .cls-7, .cls-8, .cls-9, .cls-10, .cls-11, .cls-12, .cls-13, .cls-14, .cls-15, .cls-16, .cls-17, .cls-18, .cls-19, .cls-20, .cls-21 {
        stroke-width: 0px;
      }

      .cls-1, .cls-4, .cls-6, .cls-7, .cls-10, .cls-11 {
        fill: #fff;
      }

      .cls-2, .cls-3, .cls-22, .cls-5, .cls-8, .cls-12, .cls-23, .cls-24 {
        mix-blend-mode: multiply;
      }

      .cls-2, .cls-5, .cls-12, .cls-19 {
        fill: #edc599;
      }

      .cls-3, .cls-8, .cls-20 {
        fill: #ffe2c5;
      }

      .cls-4 {
        opacity: .7;
      }

      .cls-5, .cls-9, .cls-10, .cls-24 {
        opacity: .6;
      }

      .cls-6, .cls-25, .cls-8, .cls-23 {
        opacity: .5;
      }

      .cls-26 {
        fill: none;
        stroke: #000;
        stroke-miterlimit: 10;
      }

      .cls-7 {
        opacity: .55;
      }

      .cls-27 {
        isolation: isolate;
      }

      .cls-9, .cls-18 {
        fill: #fdf3e0;
      }

      .cls-11 {
        opacity: .3;
      }

      .cls-12 {
        opacity: .8;
      }

      .cls-13 {
        fill: #f8a45f;
      }

      .cls-14 {
        fill: #f8e7c5;
      }

      .cls-15 {
        fill: #895c0e;
      }

      .cls-16 {
        fill: #e27b3c;
      }

      .cls-17 {
        fill: #9c7224;
      }

      .cls-21 {
        fill: #edbf98;
      }
    </style>
  </defs>
  <g class="cls-27">
    <g id="Layer_1" data-name="Layer 1">
      <g>
        <path class="cls-26" d="M780.63,491.06c0,1.87-.31,3.71-.91,5.52-2.15-3.68-5.52-7.2-9.96-10.5-20.22-15.03-62.5-25.37-111.38-25.37s-91.16,10.34-111.38,25.37c-6.02,4.47-10.08,9.36-11.79,14.51-1.8-3.07-2.74-6.26-2.74-9.53,0-1.68.25-3.35.74-4.98,6.78-22.73,59.42-40.42,123.34-40.42s116.56,17.69,123.34,40.42c.49,1.63.74,3.3.74,4.98Z"/>
        <path class="cls-18" d="M799.61,489.92c0,.2,0,.41-.01.61-.08,3.82-.98,7.56-2.61,11.19-5.78,12.81-20.78,24.21-41.92,32.85h0c-25.51,10.44-59.96,16.87-97.89,16.95-.67,0-1.33-.01-1.99-.01-76.65-.28-138.91-26.5-141.75-59.25-.02-.25-.04-.51-.05-.76-.02-.23-.03-.46-.03-.69-.02-.29-.02-.59-.02-.89,0-1.29.09-2.57.28-3.84,4.61-32.22,66.8-57.75,142.86-57.75,23.3,0,45.3,2.39,64.74,6.65,38.57,8.43,67.07,24.16,75.69,42.96,1.22,2.66,2.04,5.37,2.43,8.14.19,1.27.28,2.55.28,3.84Z"/>
        <path class="cls-21" d="M804.2,571.97v.04c-.4,10.66-1.23,20.94-2.55,30.8v.04c-2.61,19.61-7.12,37.57-13.88,53.48-3.24,7.67-7.02,14.87-11.36,21.55-23.5,36.21-63.44,57.27-125.99,56.5-58.5-1.35-92.7-22.42-112.44-55.58-3.78-6.36-7.04-13.17-9.84-20.37-17.38-44.87-16.53-104.93-14.71-167.14,2.88,32.73,65.12,58.94,141.75,59.22.66,0,1.32.01,1.99.01h1.21c39.08,0,73.94-6.61,96.68-16.95h.01c27.12-11.09,44.14-26.71,44.53-44.04l1.18,5.44v.02c3.01,27.18,4.32,53.02,3.42,76.98Z"/>
        <path class="cls-21" d="M801.65,602.85v-.04c1.32-9.86,2.15-20.14,2.55-30.8v-.04c25.15-28.66,32.08-74.97-3.42-77h0l-1.18-5.44c.01-.2,0-.45-.01-.65-.03-1.29-.21-2.53-.42-3.8-.45-2.76-1.43-5.23-2.66-7.95,74.94-45.64,108.55,53.76,5.14,125.72Z"/>
        <path class="cls-15" d="M779.72,496.58c-7.45,22.48-59.75,39.89-123.17,39.89-59.59,0-109.37-15.37-121.34-35.88,1.71-5.15,5.77-10.04,11.79-14.51,20.22-15.03,62.5-25.37,111.38-25.37s91.16,10.34,111.38,25.37c4.44,3.3,7.81,6.82,9.96,10.5Z"/>
        <path class="cls-17" d="M668.91,481.97c-10.98-15.22-42.91-13.59-58.16,4.04-2.33,2.7-4.18,5.83-5.07,9.28-3.02,11.71,4.33,23.15,22.43,34.31,33.99-6,62.33-14.91,83.04-35,18.64-19.26-20.5-24.85-42.25-12.63Z"/>
        <path class="cls-14" d="M662.28,488.6c-2.52-10.84-23.27-11.19-37.18-.85-2.13,1.58-3.95,3.57-5.11,5.95-4.67,9.62,2.51,18.48,14.75,27,24.58-6.77,49.63-13.42,59.02-24.23,10.77-12.84-6.01-19.26-31.48-7.87Z"/>
        <path class="cls-2" d="M779.72,496.58c-7.45,22.48-59.75,39.89-123.17,39.89-59.59,0-109.37-15.37-121.34-35.88-1.8-3.07-2.74-6.26-2.74-9.53,0-1.68.25-3.35.74-4.98,6.78-22.73,59.42-40.42,123.34-40.42s116.56,17.69,123.34,40.42c.49,1.63.74,3.3.74,4.98,0,1.87-.31,3.71-.91,5.52Z"/>
        <path class="cls-5" d="M804.2,571.97v.04c-.4,10.66-1.23,20.94-2.55,30.8v.04c-2.61,19.61-7.12,37.57-13.88,53.48-3.24,7.67-7.02,14.87-11.36,21.55-23.5,36.21-63.44,57.27-125.99,56.5-58.5-1.35-92.7-22.42-112.44-55.58-3.62-6.09,2.72,6.85,0,0,18.58,10.11,118.49,32.02,188.91-59.19,4.87-6.31,9.65-16.3,12.44-24.15,6.19-17.42,10.19-31.27,12.8-50.88v-.04c.45-3.35.82-6.75,1.16-10.19.6-.26,1.19-.52,1.77-.78h0c27.11-11.09,44.13-26.7,44.53-44.03l1.18,5.43v.02c3.01,27.18,4.32,53.02,3.42,76.98Z"/>
        <path class="cls-5" d="M799.6,489.54c-.4,17.33-17.42,32.94-44.53,44.03h0c-.58.26-1.17.52-1.77.78,0,0,8.11-41.22-32.08-99.37,38.57,8.43,67.07,24.16,75.69,42.96,1.22,2.66,2.04,5.37,2.43,8.14.17,1.15.26,2.3.27,3.46Z"/>
        <path class="cls-5" d="M801.65,602.85v-.04c1.32-9.86,2.15-20.14,2.55-30.8v-.04c25.15-28.66,32.08-74.97-3.42-77h0l-1.18-5.44c.01-.2-.02-.5-.02-.7-.05-1.47-.21-2.44-.4-3.71-.39-2.77-1.44-5.33-2.66-7.99,74.94-45.64,108.55,53.76,5.14,125.72Z"/>
        <g class="cls-24">
          <path class="cls-19" d="M781.69,667.17c-24.82,36.21-67.01,57.27-133.08,56.5-51.45-1.12-85.09-15.93-106.95-39.99,20.15,30.33,53.78,49.41,109.35,50.69,62.55.77,102.49-20.29,125.99-56.5,4.34-6.68,8.11-13.87,11.35-21.54-2.07,3.74-4.28,7.36-6.66,10.83Z"/>
        </g>
        <path class="cls-9" d="M532.89,542.4s-2.53,107.44,35.79,132.75c0,0,.04.02.13.05,8.38,3.34,16.23-5.87,11.68-13.65-11.36-19.44-28.99-54.09-35.82-91.72-.87-4.82-1.93-9.6-3.22-14.32-2.92-10.74-7.59-25.38-8.57-13.1Z"/>
      </g>
      <g>
        <path class="cls-21" d="M475.56,696.01c0,41.47-82.23,75.08-183.66,75.08s-183.66-33.61-183.66-75.08c0-20.2,19.52-38.54,51.27-52.04,2.8,7.2,6.06,14.01,9.84,20.37,19.74,33.16,53.94,54.23,112.44,55.58,62.55.77,102.49-20.29,125.99-56.5,4.34-6.68,8.12-13.88,11.36-21.55,34.78,13.66,56.42,32.87,56.42,54.14Z"/>
        <path class="cls-18" d="M434.09,695.21c0,30.53-64.78,55.27-144.7,55.27s-144.69-24.74-144.69-55.27c0-11.43,9.09-22.05,24.65-30.87,19.74,33.16,53.94,54.23,112.44,55.58,62.55.77,102.49-20.29,125.99-56.5,16.58,8.99,26.31,19.96,26.31,31.79Z"/>
        <path class="cls-12" d="M420.02,599.31c7.51,14.36,7.09,30.87,2.22,48.61-5.49,19.95-18.84,36.73-36.96,46.73-60.57,33.41-153.37,31.02-200.25-5.37-6.67-5.18-12.33-11.46-16.91-18.49,5.01,9.07,11.69,17.12,19.91,23.49,46.88,36.39,139.68,38.78,200.25,5.37,18.12-9.99,31.47-26.78,36.96-46.73,5.45-19.83,5.33-38.14-5.22-53.61Z"/>
        <path class="cls-16" d="M166.11,589.72c-12.67,24.05-13.52,48.11-2.55,72.16,5.2,11.4,12.88,21.5,22.78,29.18,46.88,36.39,139.68,38.78,200.25,5.37,18.12-9.99,31.47-26.78,36.96-46.73,6.22-22.63,5.19-43.28-10.32-59.99-84.21,45.79-166.36,40.27-247.12,0Z"/>
        <path class="cls-13" d="M238.41,699.37c-26.84-10.3-50.65-18.16-70.67-29.51v-.02s-9.65-15.28-9.65-15.28l-2.05-3.26-3.73-5.91c-2.27-34.55.25-60.17,9-75.03,5.8-.87,11.52-1.45,17.16-1.67,28.11-1.13,54.03,6.57,75.57,32.01,4.86,5.75,9.5,12.41,13.89,20.07,5.8,10.13,11.17,22.01,16.04,35.9h0c.25,1.03.22,2.11.61,3.09,12.75,31.68-12.76,52.43-46.17,39.61Z"/>
        <path class="cls-13" d="M166.11,589.72c-5.35-16.4.09-28.03,17.93-34.18,4.49-1.55,8.63-4.01,12.03-7.32,4.12-4.02,8.26-7.68,12.49-9.93,5.73-3.04,10.47-7.72,13.75-13.31,4.35-7.4,10.88-12.15,20.07-13.66,5.53-.9,10.86-2.69,15.71-5.48,30.18-17.38,60.78-14.1,91.68,3.93,1.18.69,2.4,1.33,3.64,1.92,7.44,3.54,14.3,7.5,19.82,12.44,3.63,3.24,7.64,6.06,12.07,8.07,6.21,2.81,11.84,7.53,17.24,13.06,3.33,3.41,6.15,7.31,8.21,11.6,5.67,11.81,6.99,22.84,2.49,32.85-84.07,45.5-166.26,40.56-247.12,0Z"/>
        <path class="cls-13" d="M376.35,661.48l1.19,14.97c.59,7.46,8.63,11.9,15.26,8.42,8.11-4.25,15.86-9.77,23.13-17.05,7.58-15.53,10.92-31.44,10.81-47.67l-50.38,41.33Z"/>
        <path class="cls-20" d="M429.71,627.47c-.39,5.09-1.61,7.84-3.46,9.59-2.84,2.71-7.16,3.08-12.24,5.94-5.07,2.85-8.39,8-9.01,13.79-.7,6.55-.31,12.72-7.9,16.33-2.4,1.38-4.39,1.85-6.09,1.69-.1,0-.2-.02-.29-.03-.16-.02-.31-.04-.45-.08-.14-.02-.27-.05-.4-.09-.83-.22-1.58-.59-2.29-1.09-.12-.08-.23-.16-.35-.25-.06-.05-.13-.11-.2-.16-.07-.06-.14-.12-.21-.18-.19-.16-.38-.34-.57-.52-1.93-1.87-3.49-4.54-5.14-6.92-1.21-1.76-2.86-3.14-4.76-4.01,0,0,0-.01-.02-.01-.54-.25-1.1-.46-1.67-.62-.05-.01-.1-.03-.15-.04-.21-.06-.42-.11-.63-.15-.1-.03-.21-.05-.31-.06-.25-.05-.51-.09-.76-.12-5.09-.59-10.11-.71-15.06-.35-9.1.67-17.73,4.78-23.39,11.95-4.26,5.38-7.23,12.12-8.98,20.1-1.52,6.94-1.4,14.14.15,21.07.27,1.21.51,2.39.65,3.51.81,6.04-.83,10.59-12.6,11.24-2.65.25-4.8.18-6.53-.16-.2-.03-.39-.07-.57-.12-.19-.04-.38-.09-.56-.15-.38-.11-.74-.24-1.08-.38-.14-.06-.29-.13-.42-.19-.3-.15-.57-.31-.83-.48-.11-.07-.22-.15-.33-.23-.18-.13-.34-.27-.5-.41-.16-.15-.32-.3-.46-.46-.03-.03-.06-.06-.08-.09,0,0,0,0,.01,0-1.29-1.47-1.82-3.43-1.9-5.69-.19-4.71,1.49-10.67,1.94-15.95.88-12.07-.36-23.14-6.26-32.01-3.81-6.79-7.88-13.34-12.04-15h0s-.05-.03-.07-.03c-.14-.06-.29-.11-.43-.15-.16-.06-.33-.1-.5-.13-.16-.04-.33-.06-.49-.08-.16-.02-.31-.03-.47-.03-2.17-.01-4.36,1.48-6.55,5.1-1.92,3.19-3.05,6.78-3.5,10.47-1.78,14.51-4.3,27.79-15.66,26.81-.26-.01-.52-.03-.77-.05-.21-.01-.42-.03-.62-.06-.23-.02-.45-.05-.66-.08-.33-.05-.65-.11-.95-.18-.17-.03-.32-.06-.48-.11-.13-.03-.26-.07-.39-.11-7.48-2.09-8.8-9.54-10.62-18.11-1.52-7.11-4.19-13.92-7.91-20.17-6.47-10.86-12.8-20.53-17.55-26.12-2.3-2.45-4.26-3.99-5.96-4.8-.63-.31-1.21-.51-1.77-.6-.12-.04-.23-.05-.34-.06-.69-.1-1.33-.04-1.93.15-.1.02-.2.05-.3.1-.1.04-.2.08-.3.12-.19.09-.38.19-.56.3-.18.13-.37.26-.55.4s-.35.29-.51.46c-.77.76-1.46,1.76-2.11,2.94-.14.26-.29.53-.42.81,0,0,0,0,0,.01-.14.28-.27.56-.41.86-.83,1.82-1.61,3.93-2.38,6.19-.12.32-.23.64-.34.97-1.59,4.68-3.26,9.88-5.59,14.32-1.71,3.26-5.05,5.45-8.72,5.44-.27,0-.53-.01-.78-.04-.23-.01-.45-.04-.67-.09-.09-.01-.18-.03-.27-.05-.16-.03-.31-.08-.46-.12-.09-.03-.18-.06-.27-.1-.02,0-.04-.01-.06-.02-.14-.05-.28-.1-.41-.17-.2-.09-.39-.2-.58-.31,0-.01-.01-.01-.02-.01-.16-.11-.31-.22-.46-.35-.04-.03-.08-.06-.11-.09-.15-.13-.29-.27-.43-.42-4.52-4.87-.82-18.91.98-29.52.77-4.52.75-9.14-.03-13.66-1.29-7.43-3.01-14.02-5.65-18.87-.88-1.63-2.27-2.69-3.81-3.17h-.01c-.16-.06-.33-.11-.5-.14-1.09-.27-2.24-.25-3.32.04-.09.02-.17.05-.26.08-.11.02-.21.06-.31.1-.88.31-1.71.81-2.41,1.51-.24.23-.46.48-.66.76-.3.4-.56.86-.78,1.36-6.92,16-6.85,32.57-4.51,49.32.23,1.65.48,3.3.75,4.95.16.99-.3,1.84-1.02,2.31-.71.47-1.67.54-2.49-.04-.51-.36-1.03-.83-1.57-1.44-.02-.03-.05-.06-.07-.09-.91-1.05-1.27-2.44-1.38-3.83-.1-1.27-.18-2.53-.27-3.77-2.27-34.55.25-60.17,9-75.03,5.41-9.2,13.21-14.29,23.72-14.82,2.4-.12-6.87,4.89-6.56,13.15.14,3.69,2.2,8.04,8.07,12.87.56.47,1.2.83,1.8,1.25,2.8,1.98,17.47,10.78,65.7,17.89,7.48,1.11,15.76,2.17,24.93,3.16,21.65,2.34,70.16,2.15,98.65-9.5,13.62-5.57,25.12-34.27,31.55-36.06,0,0,0,0,0-.01.06-.02.12-.02.18-.04.12-.02.24-.04.35-.04.12,0,.23,0,.35.01.08.01.15.03.22.05.16.04.32.1.47.19.1.07.2.14.31.23.1.08.19.18.28.28.1.1.19.22.28.34.18.26.35.56.52.91.04.09.08.18.13.27,9.06,17.16,14.05,37.11,17.13,58.36.41,2.85.54,5.75.32,8.62Z"/>
        <path class="cls-20" d="M215.85,524.02c-64.91,37.41-42.1,54.35-4.87,83.94,17.09,13.58,39.95,17.75,60.58,10.62,4.85-1.68,9.61-3.56,14.35-5.26,14.23-5.11,29.81-5.01,43.94.37,6.6,2.52,12.97,4.73,20.44,3.9.79-.09,1.58-.16,2.36-.23,14.54-1.26,21.07-14.4,30.13-24.28.8-.87,1.76-1.58,2.8-2.15,49.2-27.11,22.05-60.35-27.93-63.77l-141.8-3.14Z"/>
        <path class="cls-20" d="M241.05,501.47c-40.24,7.4-47.38,53.83-22.23,73.92,7.21,5.76,16.43,8.36,25.65,7.86,12.49-.67,22.34-3.35,29.52-.58,1.25.48,2.52.91,3.82,1.25,4.5,1.19,8.79,2.54,12.92,3.74,11.69,3.39,24.26,2.59,35.27-2.58,21.1-9.92,39.36-9.94,53.07-23.6,37.3-32.33-20.47-70.62-86.44-74.46-11.24-.65-22.54.69-33.16,4.44-41.2,14.59-30.72,47.87,3.75,60.17,7.95,2.84,16.39,4.04,24.83,3.96,45.27-.47,64.44-17.01,62.82-33.42-.83-8.43-7.31-15.22-15.57-17.12-88.09-20.36-66.68,20.9-38.63,20.98,35.34-.39,47.28-12.32,22.92-17.46"/>
        <g class="cls-22">
          <path class="cls-16" d="M159.87,595.97c-7.59,17.58-6.77,35.84-3.75,54.28.24,1.47-.92,2.64-2.2,2.68.04.05.07.11.11.15.54.61,1.07,1.08,1.57,1.44,1.63,1.16,3.84-.29,3.52-2.27-3.02-18.44-3.84-36.7,3.75-54.28,1.48-3.42,5.17-4.69,8.25-3.7-3.09-3.63-9.23-2.97-11.25,1.7Z"/>
          <path class="cls-16" d="M189.87,653.82c-1.71,3.26-5.05,5.45-8.72,5.44-.7,0-1.33-.08-1.9-.23,1.04,1.4,2.61,2.22,4.9,2.23,3.68,0,7.02-2.18,8.72-5.44,6.66-12.72,7.93-31.59,17.55-26.95-12.43-10.3-13.25,11.01-20.55,24.95Z"/>
          <path class="cls-16" d="M429.13,617.15c-3.08-21.25-3.33-22.95-.25-1.7.41,2.86,1.15,6.78.93,9.66-.99,12.89-10.4,11.16-18.8,15.89-5.07,2.86-8.4,8.01-9.01,13.8-.7,6.55-.31,12.72-7.91,16.33-3.27,1.87-5.78,2.07-7.85,1.29,2.58,2.5,5.82,3.59,10.85.71,7.59-3.61,7.21-9.79,7.91-16.33.62-5.79,3.94-10.94,9.01-13.8,8.4-4.73,14.71-2.63,15.7-15.52.22-2.88-.16-7.47-.57-10.32Z"/>
          <path class="cls-16" d="M369.81,658.48c-5.09-.59-10.11-.7-15.06-.35-9.1.66-17.73,4.78-23.39,11.94-4.26,5.39-7.23,12.12-8.98,20.1-1.52,6.94-1.4,14.14.15,21.08,1.72,7.7,2.02,13.98-11.95,14.74-3.68.35-6.39.07-8.37-.66,1.85,2.13,5.29,3.23,11.37,2.66,13.97-.77,13.67-7.04,11.95-14.74-1.55-6.93-1.67-14.14-.15-21.08,1.75-7.98,4.72-14.71,8.98-20.1,5.66-7.16,14.29-11.28,23.39-11.94,4.95-.36,9.96-.25,15.06.35,1.24.14,2.43.49,3.54,1-1.8-1.64-4.08-2.72-6.54-3Z"/>
          <path class="cls-16" d="M272.46,659.36c-1.92,3.18-3.05,6.78-3.5,10.47-1.77,14.5-4.3,27.79-15.65,26.8-2.18-.09-3.98-.5-5.48-1.17,1.94,1.85,4.61,3.01,8.48,3.17,11.35.99,13.88-12.3,15.65-26.8.45-3.69,1.58-7.29,3.5-10.47,2.85-4.72,5.7-5.81,8.51-4.69-3.76-3.44-7.64-3.73-11.51,2.69Z"/>
        </g>
        <path class="cls-3" d="M402.58,542.68c11.21,12.74,7.74,29.97-20,45.26-1.04.57-2,1.28-2.8,2.15-9.05,9.88-15.59,23.02-30.13,24.28-.79.07-1.58.14-2.36.23-7.47.83-13.84-1.38-20.44-3.9-14.12-5.38-29.71-5.48-43.94-.37-4.74,1.7-9.5,3.58-14.35,5.26-20.63,7.13-43.49,2.96-60.58-10.62-8.62-6.85-16.47-13.02-22.63-18.93,6.51,6.82,15.54,13.91,25.63,21.93,17.09,13.58,39.95,17.75,60.58,10.62,4.85-1.68,9.61-3.56,14.35-5.26,14.23-5.11,29.81-5.01,43.94.38,6.6,2.52,12.97,4.73,20.44,3.9.79-.09,1.58-.16,2.36-.23,14.54-1.26,21.07-14.4,30.13-24.28.8-.87,1.76-1.58,2.8-2.15,29.98-16.52,31.61-35.32,17-48.26Z"/>
        <g class="cls-22">
          <path class="cls-20" d="M241.08,501.62c-16.92,3.02-31.56,15.78-35.02,32.82-3.84,16.34,3.2,35.09,18.19,43.19,11.93,6.8,24.22,4,37.1,2.76,4.4-.35,9.04-.53,13.29,1.13,3.95,1.42,8.28,2.32,12.25,3.62,11.89,4.19,25.18,4.61,36.88-.42,7.76-3.62,16.07-6.42,24.29-8.82,11.26-3.3,22.65-6.93,31.01-15.41,3.94-3.45,7.52-7.59,9.51-12.45,9.7-25.4-27.06-44.3-46.59-50.8-16.16-5.59-33.21-8.6-50.27-9.41-12.73-.54-25.58,1.6-37.2,6.83-16.57,7.17-27.44,22.03-15.34,38.76,7.55,10.06,19.6,16.04,31.66,18.88,17.18,3.91,46.26,1.06,61.99-6.9,7.18-3.59,14.21-9.27,16.13-17.29,2.07-8.03-2.38-16.11-9.61-19.8-3.69-1.92-7.89-2.93-11.82-4.28-12.16-3.69-24.71-6.86-37.45-6.7-9.55-.04-23.66,4.29-17.7,16.38,4.06,7.32,12.7,11.04,20.82,11.51,1.81.09,4.52,0,6.37-.01,8.48-.26,17.14-.88,25.21-3.6,14.63-5.39,4.14-11.02-5.21-12.89,0,0,.06-.29.06-.29,2.11.42,4.21.93,6.25,1.65,4.13,1.32,9.92,4.89,4.97,9.26-5.23,4.05-12.02,5.14-18.34,6.25-4.27.65-8.58.98-12.89,1.15-1.92.06-4.59.19-6.5.12-8.75-.36-18.02-4.28-22.54-12.17-4-7-.85-14.29,6.43-17.24,8.31-3.43,17.39-2.85,26.05-1.82,10.76,1.44,21.21,4.28,31.47,7.64,11.59,2.92,20.38,13.21,17.42,25.56-6.82,24.93-47.11,28.98-68.76,28.23-17.33-.96-35.5-7.79-46.23-21.99-5.41-7.14-7.53-17.38-3.24-25.61,4.02-8.12,11.9-13.31,19.89-16.86,27.99-12.13,60.8-5.4,88.75,3.66,16,5.87,32.39,13.77,43.07,27.52,9.56,12.61,7.05,26.18-4.16,36.73-2.77,2.59-5.5,5.28-8.72,7.33-10.92,7.19-24.01,9.56-36.02,14.17-4.07,1.47-7.81,3.21-11.79,5.02-8.11,3.45-17.12,4.67-25.86,3.64-7.39-.81-14.85-3.78-22.01-5.6-1.07-.31-2.13-.67-3.16-1.07-3.69-1.47-7.94-1.35-12.14-1.04-13.43,1.25-25.93,3.89-38.43-3.29-24.43-13.56-26.14-50.02-5.39-67.65,6.51-5.76,14.77-9.27,23.28-10.67,0,0,.05.29.05.29h0Z"/>
        </g>
        <path class="cls-10" d="M166.06,573.02l-6.48,9.1c-1.64,2.3-2.65,5-2.94,7.81l-.72,7.19,1.95-7.22c.55-2.03,1.33-4,2.32-5.86l5.87-11.02Z"/>
        <path class="cls-1" d="M182.49,636.93c-2.18,3.32-2.51,8.02-2.18,13.2.12.56.51.93,1.03,1.14,1.92.77,3.71-1.45,2.76-3.29-.5-.96-.84-1.87-1.69-3.61-.62-1.28-.93-2.71-.81-4.14.11-1.29.51-1.87.89-3.3Z"/>
        <path class="cls-6" d="M230.49,642.46c11.2,6.61,15.15,17.39,14,30.93-1.61-13.48-6.44-23.77-14-30.93Z"/>
        <path class="cls-6" d="M252.53,688.13s.08.02.12.03c3.19.78,6.54-.19,8.88-2.5,1.69-1.66,3.12-3.85,4.36-6.46-4.19,3.63-8.43,6.19-12.81,5.85-1.95-.15-2.45,2.59-.55,3.08Z"/>
        <path class="cls-10" d="M297.53,661.26c4.01,10.16,7.83,20.3,7.44,30.03-.57,8.99-3.39,21.66,0,24.28,1.22.78,2.55,1.17,3.98,1.28,6.14.46,11.27-4.6,11.44-10.75.24-8.73-1.25-21.52,1.13-28.29-2.53,8.5-2.75,21.92-4.3,30.84-.37,2.14-2.13,3.86-4.3,3.95-.07,0-.14,0-.2,0-2.02.02-3.65-1.56-3.92-3.56-.42-3.1.23-7.21.59-11.32.32-3.6.1-7.23-.61-10.77-2.22-11.1-6.46-18.96-11.26-25.69Z"/>
        <path class="cls-4" d="M403.26,638.85l-3.35,14.55c-.83,3.61-3.13,6.72-6.33,8.58l-3.39,1.96,2.74-3.06c2.51-2.81,4.47-6.07,5.77-9.61l4.57-12.42Z"/>
        <path class="cls-6" d="M265.97,631.89c18.06-5.84,39.29-7.04,64.94-1.79,6.36,1.3,12.85,1.89,19.34,1.67,2.93-.1,5.69-.26,8.2-.53,6.67-.69,12.89-3.7,17.56-8.52,2.27-2.34,4.45-4.83,6.65-7.28-.13.44-.27.88-.43,1.32-3.54,10.2-12.63,17.43-23.26,19.32-5.95,1.06-11.82,1.03-17.58-.26-1.07-.24-2.14-.48-3.22-.65-22.68-3.47-40.28-11.37-72.2-3.29Z"/>
        <path class="cls-11" d="M413.17,581.37c2.82,13.32,5.01,25.89,5.86,36.93.39,4.99-2.52,9.55-7.1,11.58-9.7,4.28-17.03,15.41-26.86,14.93-2.16-.1-3.55-2.33-2.79-4.36,3.15-8.37,4.53-15.04,3.97-19.85-1.58-20.4,21.78-24.65,26.92-39.23Z"/>
        <path class="cls-4" d="M187.77,550.47c-9.28,12.66-6.26,24.56,7.07,35.81l-2.01-4.7c-3.72-8.69-5.49-18.1-5.17-27.55l.12-3.56Z"/>
        <path class="cls-4" d="M305.29,602.84s-22.29.45-37.61,6.62c-15.32,6.17-8.6,3.22-8.6,3.22,0,0,5.95-4.84,23.13-11.28,17.17-6.44,37.82,2.27,23.08,1.44Z"/>
        <ellipse class="cls-10" cx="373.11" cy="587.53" rx="4.5" ry="3.48"/>
        <ellipse class="cls-10" cx="363.78" cy="600.69" rx="6.03" ry="1.36" transform="translate(-330.11 492.62) rotate(-49.95)"/>
        <path class="cls-4" d="M211.79,537.5c-8.14,25.03,22.13,44.25,38.15,41.06,1.88-.37,2.55-2.74,1.2-4.1-4.33-4.36-12.31-6.57-21.07-12.15-4.43-2.82-8.4-6.36-11.61-10.51-3.18-4.12-5.32-8.37-6.66-14.3Z"/>
        <path class="cls-7" d="M297.5,578.91c4.69,2.46,9.72,3.75,15.21,3.44,3.94-.22,7.77-1.37,11.31-3.1,6.46-3.16,14.14-5.69,22.55-7.82,7.57-1.92,14.25-6.45,18.64-12.91.07-.1.14-.21.21-.31-.21.18-.42.36-.63.54-5.88,4.99-13.26,7.92-20.97,8.13-7.15.2-13.82,1.64-19.86,4.69-1.43.72-2.73,1.68-4,2.66-5.29,4.11-13.49,4.84-22.46,4.68Z"/>
        <path class="cls-10" d="M251.84,530.53s10.36,17.88,39.67,18.52c29.31.64,33.46-6.36,33.46-6.36,0,0-15.2,4.45-33.46,1.89-18.26-2.55-28.2-.32-39.67-14.05Z"/>
        <path class="cls-1" d="M331.68,509.39c-17.02-7.86-32.11-11-44.25-6.95-2.29.76-4.4,2.07-5.84,4-2.5,3.34-1.57,6.58,4.5,9.68,5.04,2.58,11,3.04,16.28.99,1.23-.48,2.39-1.05,3.5-1.73-5.58-.84-12.03-.6-14.15-3.66-5.56-8.82,7.35-9.34,39.96-2.33Z"/>
        <path class="cls-8" d="M382.43,588.61c-1.04.57-2,1.28-2.8,2.15-9.05,9.88-15.59,23.02-30.13,24.28-.79.07-1.58.14-2.36.23-7.47.83-13.84-1.38-20.44-3.9-14.12-5.38-29.71-5.48-43.94-.37-4.74,1.7-9.5,3.58-14.35,5.26-20.63,7.13-44.32,3.93-60.58-10.62-16.66-14.91-32.21-25.34-35.47-37.28,11.15,25.22,12.88,29.33,35.47,47.28,17.09,13.58,39.95,17.75,60.58,10.62,4.85-1.68,9.61-3.56,14.35-5.26,14.23-5.11,29.81-5.01,43.94.38,6.6,2.52,12.97,4.73,20.44,3.9.79-.09,1.58-.16,2.36-.23,14.54-1.26,21.07-14.4,30.13-24.28.8-.87,1.76-1.58,2.8-2.15,21.32-11.75,28.3-24.65,25.3-35.77-2.22,8.47-10.12,17.41-25.3,25.77Z"/>
        <path class="cls-8" d="M379.07,560.44c-13.71,13.66-31.97,13.68-53.07,23.6-11.02,5.18-23.58,5.97-35.27,2.58-4.13-1.2-8.42-2.55-12.92-3.74-1.3-.34-2.57-.77-3.82-1.25-7.18-2.77-17.03-.09-29.52.58-9.22.49-18.44-2.1-25.65-7.86-8.79-7.02-13.63-17.27-14.5-27.94-1.06,13.06,3.79,26.38,14.5,34.94,7.21,5.76,16.43,8.36,25.65,7.86,12.49-.67,22.34-3.35,29.52-.58,1.25.48,2.52.91,3.82,1.25,4.5,1.19,8.79,2.54,12.92,3.74,11.69,3.39,24.26,2.59,35.27-2.58,21.1-9.92,39.36-9.94,53.07-23.6,9.46-8.2,12.79-16.78,11.44-25.08-1,6.06-4.62,12.17-11.44,18.08Z"/>
        <path class="cls-8" d="M350.85,525.27c-1.98,14.83-21.55,28.57-62.74,28.99-8.44.09-16.88-1.12-24.83-3.96-17.59-6.28-28.93-18.02-30.34-29.96-1.64,13.55,10.29,27.8,30.34,34.96,7.95,2.84,16.39,4.04,24.83,3.96,45.27-.47,64.44-17.01,62.82-33.42-.02-.19-.06-.38-.08-.57Z"/>
        <g class="cls-25">
          <path class="cls-3" d="M332.2,517.73c-3.64,3.97-15.81,7.43-34.57,7.64-14.1.76-24.56-7.18-26.47-15.08-2.42,9.08,9.35,21.01,26.47,20.08,26.53-.29,39.87-7.09,34.57-12.64Z"/>
        </g>
        <g class="cls-23">
          <path class="cls-20" d="M158.36,647.3c-.04-.29-.07-.57-.11-.86-.05.04-.1.08-.16.12-.71.47-1.67.54-2.49-.04-.51-.36-1.03-.83-1.57-1.44-.02-.03-.05-.06-.07-.09-.91-1.05-1.27-2.44-1.38-3.83-.1-1.27-.18-2.53-.27-3.77-.42-6.37-.67-12.43-.76-18.19-.12,8.04.14,16.78.76,26.19.09,1.24.17,2.5.27,3.77.11,1.39.47,2.78,1.38,3.83.02.03.05.06.07.09.54.61,1.06,1.08,1.57,1.44.82.58,1.78.51,2.49.04.72-.47,1.18-1.32,1.02-2.31-.27-1.65-.52-3.3-.75-4.95Z"/>
          <path class="cls-20" d="M180.97,619.23c.36-3.64.23-7.31-.39-10.93-1.29-7.43-3.01-14.02-5.65-18.87-.88-1.63-2.27-2.69-3.81-3.17h-.01c-.16-.06-.33-.11-.5-.14-1.09-.27-2.24-.25-3.32.04-.09.02-.17.05-.26.08-.11.02-.21.06-.31.1-.88.31-1.71.81-2.41,1.51-.24.23-.46.48-.66.76-.3.4-.56.86-.78,1.36-4.91,11.36-6.29,23-5.85,34.79.37-9.06,2.05-18.01,5.85-26.79.22-.5.48-.96.78-1.36.2-.28.42-.53.66-.76.7-.7,1.53-1.2,2.41-1.51.1-.04.2-.08.31-.1.09-.03.17-.06.26-.08,1.08-.29,2.23-.31,3.32-.04.17.03.34.08.5.13h.01c1.54.49,2.93,1.55,3.81,3.18,2.64,4.85,4.36,11.44,5.65,18.87.17.97.29,1.95.39,2.92Z"/>
          <path class="cls-20" d="M426.25,629.06c-2.84,2.71-7.16,3.08-12.24,5.94-5.07,2.85-8.39,8-9.01,13.79-.7,6.55-.31,12.72-7.9,16.33-2.4,1.38-4.39,1.85-6.09,1.69-.1,0-.2-.02-.29-.03-.16-.02-.31-.04-.45-.08-.14-.02-.27-.05-.4-.09-.83-.22-1.58-.59-2.29-1.09-.12-.08-.23-.16-.35-.25-.06-.05-.13-.11-.2-.16-.07-.06-.14-.12-.21-.18-.19-.16-.38-.34-.57-.52-1.93-1.87-3.49-4.54-5.14-6.92-1.21-1.76-2.86-3.14-4.76-4.01,0,0,0-.01-.02-.01-.54-.25-1.1-.46-1.67-.62-.05-.01-.1-.03-.15-.04-.21-.06-.42-.11-.63-.15-.1-.03-.21-.05-.31-.06-.25-.05-.51-.09-.76-.12-5.09-.59-10.11-.71-15.06-.35-9.1.67-17.73,4.78-23.39,11.95-4.26,5.38-7.23,12.12-8.98,20.1-1.02,4.63-1.28,9.38-.9,14.09.17-2.04.46-4.08.9-6.09,1.75-7.98,4.72-14.72,8.98-20.1,5.66-7.17,14.29-11.28,23.39-11.95,4.95-.36,9.97-.24,15.06.35.25.03.51.07.76.12.1.01.21.03.31.06.21.04.42.09.63.15.05.01.1.03.15.04.57.16,1.13.37,1.67.62.01,0,.01.01.02.01,1.9.87,3.55,2.25,4.76,4.01,1.65,2.38,3.21,5.05,5.14,6.92.19.18.38.36.57.52.07.06.14.12.21.18.07.05.14.11.2.16.12.09.23.17.35.25.71.5,1.46.87,2.29,1.09.13.04.26.07.4.09.14.04.29.06.45.08.09.01.19.02.29.03,1.7.16,3.69-.31,6.09-1.69,7.59-3.61,7.2-9.78,7.9-16.33.62-5.79,3.94-10.94,9.01-13.79,5.08-2.86,9.4-3.23,12.24-5.94,1.85-1.75,3.07-4.5,3.46-9.59.18-2.29.12-4.6-.11-6.88-.48,4.37-1.64,6.86-3.35,8.47Z"/>
          <path class="cls-20" d="M325.78,714.48c-1.21,3.04-4.58,5.1-12.21,5.52-2.65.25-4.8.18-6.53-.16-.2-.03-.39-.07-.57-.12-.19-.04-.38-.09-.56-.15-.38-.11-.74-.24-1.08-.38-.14-.06-.29-.13-.42-.19-.3-.15-.57-.31-.83-.48-.11-.07-.22-.15-.33-.23-.18-.13-.34-.27-.5-.41-.16-.15-.32-.3-.46-.46-.03-.03-.06-.06-.08-.09,0,0,0,0,.01,0-.75-.86-1.24-1.89-1.54-3.05-.26,1.88-.43,3.7-.36,5.35.08,2.26.62,4.22,1.9,5.69,0,0,0,0-.01,0,.03.03.06.06.08.09.14.16.3.32.46.46.16.14.32.28.5.41.11.08.22.15.33.23.26.17.53.34.83.48.13.06.28.13.42.19.34.14.7.27,1.08.38.18.06.37.11.56.15.18.05.37.09.57.12,1.73.34,3.88.41,6.53.16,11.77-.65,13.41-5.2,12.6-11.24-.09-.74-.24-1.5-.39-2.28Z"/>
          <path class="cls-20" d="M296.01,663.68c-3.81-6.79-7.88-13.34-12.04-15h0s-.05-.03-.07-.03c-.14-.06-.29-.11-.43-.15-.16-.06-.33-.1-.5-.13-.16-.04-.33-.06-.49-.08-.16-.02-.31-.03-.47-.03-2.17-.01-4.36,1.48-6.55,5.1-1.92,3.19-3.05,6.78-3.5,10.47-1.78,14.51-4.3,27.79-15.66,26.81-.26-.01-.52-.03-.77-.05-.21-.01-.42-.03-.62-.06-.23-.02-.45-.05-.66-.08-.33-.05-.65-.11-.95-.18-.17-.03-.32-.06-.48-.11-.13-.03-.26-.07-.39-.11-7.48-2.09-8.8-9.54-10.62-18.11-1.52-7.11-4.19-13.92-7.91-20.17-6.47-10.86-12.8-20.53-17.55-26.12-2.3-2.45-4.26-3.99-5.96-4.8-.63-.31-1.21-.51-1.77-.6-.12-.04-.23-.05-.34-.06-.69-.1-1.33-.04-1.93.15-.1.02-.2.05-.3.1-.1.04-.2.08-.3.12-.19.09-.38.19-.56.3-.18.13-.37.26-.55.4s-.35.29-.51.46c-.77.76-1.46,1.76-2.11,2.94-.14.26-.29.53-.42.81,0,0,0,0,0,.01-.14.28-.27.56-.41.86-.83,1.82-1.61,3.93-2.38,6.19-.12.32-.23.64-.34.97-1.59,4.68-3.26,9.88-5.59,14.32-1.71,3.26-5.05,5.45-8.72,5.44-.27,0-.53-.01-.78-.04-.23-.01-.45-.04-.67-.09-.09-.01-.18-.03-.27-.05-.16-.03-.31-.08-.46-.12-.09-.03-.18-.06-.27-.1-.02,0-.04-.01-.06-.02-.14-.05-.28-.1-.41-.17-.2-.09-.39-.2-.58-.31,0-.01-.01-.01-.02-.01-.16-.11-.31-.22-.46-.35-.04-.03-.08-.06-.11-.09-.15-.13-.29-.27-.43-.42-1.01-1.08-1.59-2.64-1.89-4.49-.57,5.39-.35,10.07,1.89,12.49.14.15.28.29.43.42.03.03.07.06.11.09.15.13.3.24.46.35.01,0,.02,0,.02.01.19.11.38.22.58.31.13.07.27.12.41.17.02.01.04.02.06.02.09.04.18.07.27.1.15.04.3.09.46.12.09.02.18.04.27.05.22.05.44.08.67.09.25.03.51.04.78.04,3.67.01,7.01-2.18,8.72-5.44,2.33-4.44,4-9.64,5.59-14.32.11-.33.22-.65.34-.97.77-2.26,1.55-4.37,2.38-6.19.14-.3.27-.58.41-.86,0-.01,0-.01,0-.01.13-.28.28-.55.42-.81.65-1.18,1.34-2.18,2.11-2.94.16-.17.33-.32.51-.46s.37-.27.55-.4c.18-.11.37-.21.56-.3.1-.04.2-.08.3-.12.1-.05.2-.08.3-.1.6-.19,1.24-.25,1.93-.15.11.01.22.02.34.06.56.09,1.14.29,1.77.6,1.7.81,3.66,2.35,5.96,4.8,4.75,5.59,11.08,15.26,17.55,26.12,3.72,6.25,6.39,13.06,7.91,20.17,1.82,8.57,3.14,16.02,10.62,18.11.13.04.26.08.39.11.16.05.31.08.48.11.3.07.62.13.95.18.21.03.43.06.66.08.2.03.41.05.62.06.25.02.51.04.77.05,11.36.98,13.88-12.3,15.66-26.81.45-3.69,1.58-7.28,3.5-10.47,2.19-3.62,4.38-5.11,6.55-5.1.16,0,.31.01.47.03.16.02.33.04.49.08.17.03.34.07.5.13.14.04.29.09.43.15.02,0,.05.01.07.02h0c4.16,1.67,8.23,8.22,12.04,15.01,4.14,6.23,5.98,13.54,6.41,21.52.53-11.1-.92-21.26-6.41-29.52Z"/>
        </g>
        <path class="cls-4" d="M167.53,606.92c-7.91,9.74-7.47,16.86-5.73,26.44l.24-6.67c.19-5.32,1.4-10.55,3.56-15.42l1.92-4.34Z"/>
        <path class="cls-1" d="M250.84,701.7s-15.35-7.46-15.06-22c.28-14.54-3.48,8.7,15.06,22Z"/>
        <path class="cls-1" d="M380.27,673.65s7.15,5.65,17.12,3.58c9.97-2.07-10.35,6.57-17.12-3.58Z"/>
        <path class="cls-5" d="M291.9,760.09c-96.92,0-176.29-30.68-183.17-69.59-.32,1.82-.49,3.66-.49,5.51,0,41.47,82.23,75.08,183.66,75.08s183.66-33.61,183.66-75.08c0-1.85-.17-3.68-.49-5.49-6.9,38.9-86.27,69.57-183.17,69.57Z"/>
      </g>
    </g>
  </g>
</svg>