<?xml version="1.0" encoding="UTF-8"?>
<svg xmlns="http://www.w3.org/2000/svg" viewBox="0 0 1000 1000">
  <defs>
    <style>
      .cls-1 {
        isolation: isolate;
      }

      .cls-2 {
        mix-blend-mode: multiply;
        opacity: .4;
      }

      .cls-3 {
        fill: #7cb8fe;
      }

      .cls-3, .cls-4 {
        stroke-width: 0px;
      }

      .cls-4 {
        fill: #ffd71d;
      }
    </style>
  </defs>
  <g class="cls-1">
    <g id="Layer_1" data-name="Layer 1">
      <g>
        <path class="cls-4" d="M962.53,642.38c-5.12-8.99-14.88-20.51-19.39-40.77-1.57-.44-3.31-.36-4.97.36-36.62,15.89-71.31,25.55-102.92,25.17-61.57-1.57-118.08-15.45-167.15-30.82-3.3-1.03-6.57-2.07-9.81-3.11-3.43-1.11-6.81-2.22-10.16-3.33-5.99-1.98-11.86-3.97-17.59-5.94-1.32-.44-2.63-.89-3.93-1.34-1.61-.55-3.2-1.1-4.78-1.65-4.98-1.72-9.85-3.41-14.61-5.06-5.93-2.06-11.69-4.04-17.27-5.94-5.81-1.96-11.41-3.83-16.83-5.55h-.01c-1.8-.57-3.57-1.13-5.32-1.67-2.06-.63-4.09-1.24-6.09-1.83-3.79-1.28-7.58-2.56-11.37-3.83-1.9-.64-3.8-1.28-5.7-1.92-6-2.01-11.99-4-17.97-5.98-6.34-2.09-12.67-4.16-18.97-6.21-4.97-1.61-9.93-3.2-14.87-4.77-5.48-1.75-10.95-3.47-16.38-5.15-10.62-3.3-21.14-6.49-31.52-9.52-6.1-1.78-12.15-3.51-18.14-5.18-7.69-2.15-15.29-4.2-22.77-6.15-6.09-1.57-12.1-3.08-18.02-4.5-3.81-.91-7.58-1.8-11.32-2.64-6.14-1.39-12.18-2.69-18.11-3.88-1.98-.4-3.95-.79-5.9-1.16-1.98-.38-3.95-.75-5.91-1.1-2.97-.54-5.9-1.05-8.81-1.53-4.34-.72-8.61-1.37-12.8-1.95-18.67-2.59-35.86-3.78-51.17-3.23-77.23,4.01-157.11,13.86-198.99,48.55-2.32,9.23-5.73,18.37-9.51,27.48-5.58,13.47-11.95,26.87-16.7,40.38-3.61,10.27-5.65,21.07-5.48,31.96.62,39.42,26,59.17,61.89,64.76,49.22,7.68,107.26-54.88,143.27-65.74,4.48-1.35,9.27-1.46,13.7.02,24.82,8.27-62.3,32.86-49.43,89.26,1.93,7.65,20.87-26.3,41.93-27.52,25.14-2.34,55.34,7.88,65.35,4.6,17.19-4.04,20.54-23.45,22.43-54.62l6.58-59.34c.39-3.55,3.82-5.96,7.29-5.1,166.9,41.39,309.28,122.44,442.21,129.56,72.3,3.11,133.32-7.85,165.24-55.15,3.82-5.67,4.17-12.99.78-18.92ZM324.35,687.16c-3,4.18-8,6.44-13.14,6.21l-49.63-2.21c-.72-.03-1.45-.11-2.17-.16-10.6-.7-24.67,8.35-34.04,9.56-.93.12-1.66-.77-1.35-1.65,7.17-20.19,27.08-27.74,41.57-38,6.34-4.49,10.64-11.29,11.96-18.94.26-1.49,1.53-2.6,3.04-2.64,13.04-.33,27.14,5.43,41.79,14.38,3.46,2.11,5.72,5.74,6.19,9.76,1.15,10-.13,18-4.22,23.69ZM331.09,640.23c-.1,3.23-3.56,5.23-6.4,3.7-6.98-3.75-13.84-6.88-20.57-9.39-24.84-9.23-52.48-7.78-76.37,3.69-29.99,14.38-58.97,34.63-82.1,46.28-15.5,7.8-33.15,10.52-50.16,7.12-16.08-3.22-26.68-10.77-26.88-25.69-.12-8.75,3.54-17.17,9.78-23.31,29.61-29.14,71.81-49.64,124.31-63.07,5.71-1.46,11.51-2.56,17.35-3.29,37.48-4.65,73.21-4.21,106.18,4.3,3.94,1.02,6.63,4.67,6.5,8.74l-1.64,50.92Z"/>
        <path class="cls-3" d="M427.33,493.3c-1.18-5.27-3.8-8.18-7.86-8.75-4.04-.63-7.34,1.54-9.88,6.51-2.28,4.43-4.14,11.48-5.58,21.13,7.48,1.95,15.08,4,22.77,6.15.05-.31.09-.62.13-.93,1.45-10.81,1.59-18.84.42-24.11ZM590.34,551.99c-.61-2.04-1.46-3.31-2.56-3.81-1.1-.49-2.31-.32-3.63.52-1.32.84-2.54,2.13-3.65,3.87l-7.38,11.83c5.42,1.72,11.02,3.59,16.83,5.55l.77-8.96c.35-3.95.22-6.95-.38-9ZM943.07,560.81c5.15-25.06,8.34-48.51.77-63.16-10.46-20.44-24.34-34.41-42.17-44.23-24.57-13.52-53.39-16.95-80.73-10.71-21.84,4.98-44.37,12.49-62.31,18.07-2.9.9-5.77-1.44-5.5-4.46,3.09-33.9,4.74-66.64-15.34-81.85-25.6-21.46-84.95-8.28-123.06-15.32-.98-.18-.98-1.58,0-1.75l27.28-4.91c.41-.07.42-.66,0-.74-28.58-5.95-59.63-13.8-50.68,9.1,6.49,23.33,40.76,38.1,82.38,50.6.25.08.19.45-.07.44-22.26-.38-33.67,6.63-34.04,21.18-.09,3.37.52,6.74,1.64,9.93,5.85,16.57,9.32,32.51,8.55,47.3-.16,3.09-3.24,5.17-6.18,4.22-110.76-35.65-216.6-75.96-301.93-89.11-72.95-13.75-144.72-6.65-215.68,14.8-11.36,3.44-22.45,7.74-33.02,13.14-13.87,7.07-24.34,14.52-29.89,22.53-4.01,5.79-3.95,13.48-.09,19.38,14.89,22.8,15.29,44.4,9.98,65.49,41.88-34.69,121.76-44.54,198.99-48.55,15.31-.55,32.5.64,51.17,3.23-.11-1.49-.23-2.96-.36-4.4-.22-2.37-.4-4.72-.56-7.05-.15-2.33-.1-4.69.15-7.07.19-1.86.71-3.58,1.55-5.17.84-1.58,1.92-2.91,3.24-3.98,1.32-1.06,2.81-1.86,4.48-2.39,1.66-.53,3.39-.7,5.18-.51,3.78.4,6.87,2.51,9.28,6.32,2.42,3.81,3.79,9.48,4.13,17.03.03,1,.07,2.37.12,4.08.06,1.72.13,3.58.21,5.61.03.7.06,1.4.1,2.11,1.95.37,3.92.76,5.9,1.16-.13-1.83-.23-3.69-.32-5.59-.17-3.77-.05-7.58.36-11.43.16-1.59.41-3.32.75-5.2.33-1.87.85-3.61,1.56-5.21.7-1.6,1.63-2.91,2.77-3.93,1.15-1.02,2.62-1.43,4.41-1.24l19.09,2.02-.02.2c-1.47,1.25-2.79,2.89-3.94,4.91-1.15,2.03-2.12,4.25-2.92,6.68-.79,2.43-1.45,4.98-1.96,7.64-.52,2.66-.91,5.25-1.18,7.77-.27,2.57-.43,5-.49,7.26,3.74.84,7.51,1.73,11.32,2.64,1.2-4.43,2.96-8.43,5.25-11.99,2.6-4.02,5.62-7.32,9.06-9.9,3.44-2.58,7.17-4.32,11.19-5.22,4.01-.89,8.08-.78,12.19.36,4.12,1.13,7.76,3.09,10.94,5.86,3.17,2.78,5.7,6.09,7.58,9.93,1.88,3.84,3.08,8.07,3.6,12.71.51,4.58.22,9.28-.88,14.08,10.38,3.03,20.9,6.22,31.52,9.52l1.03-12.93c.42-5.11.38-9.47-.12-13.09s-.98-6.69-1.45-9.21l.06-.19,22.99,7.24-.06.19c-1.83,1.8-3.01,4.35-3.56,7.63-.55,3.29-1.03,7.49-1.45,12.6l-1.06,12.91c4.94,1.57,9.9,3.16,14.87,4.77l3.03-4.93.61-7.25c.42-5.11.38-9.47-.12-13.09-.5-3.62-.99-6.69-1.45-9.21l.06-.19,22.99,7.24-.06.19c-1.83,1.8-3.02,4.35-3.56,7.63-.55,3.29-1.03,7.49-1.45,12.6l-1.08,13.22c5.98,1.98,11.97,3.97,17.97,5.98.66-1.17,1-2.18,1.02-3.02.02-1.07-.64-2.14-1.98-3.19l-3.85-3.1c-5.28-4.32-7.11-9.02-5.51-14.11.68-2.16,1.8-4.01,3.37-5.54,1.57-1.54,3.44-2.68,5.64-3.42,2.19-.74,4.62-1.09,7.3-1.05,2.68.04,5.48.52,8.41,1.44.63.2,1.53.52,2.68.95,1.16.44,2.25.9,3.28,1.4,1.03.5,1.89,1,2.57,1.49.69.5.9.92.66,1.26l-10.23,16.49c-.66.98-1.38,1.07-2.18.25-1.86-1.63-3.8-3.08-5.81-4.34-2.01-1.27-4.01-2.21-5.98-2.83-1.59-.5-2.52-.32-2.79.54s.15,1.74,1.26,2.65l7.37,5.57c3.31,2.37,3.74,5.44,1.29,9.21l-.82,1.27c3.79,1.27,7.58,2.55,11.37,3.83,2,.59,4.03,1.2,6.09,1.83l7.34-11.77c2.73-4.38,4.85-8.04,6.35-10.99,1.5-2.94,2.03-5.68,1.58-8.21l.06-.19,30.54,9.88-.06.19c-1.83,1.79-3.05,4.33-3.64,7.6-.59,3.28-1.11,7.47-1.55,12.58l-1.19,14.07c4.76,1.65,9.63,3.34,14.61,5.06l4.13-13.09c1.57-4.96,2.58-9.13,3.06-12.51.47-3.38.48-6.33.02-8.85l.06-.19,29.08,9.18c3.5,1.11,6.56,2.49,9.18,4.16,2.61,1.67,4.7,3.51,6.27,5.54,1.56,2.04,2.58,4.18,3.05,6.42.48,2.25.36,4.52-.36,6.81-.54,1.72-1.27,3.18-2.18,4.4-.91,1.22-2.1,2.18-3.59,2.9s-3.3,1.25-5.43,1.59c-2.14.34-4.71.52-7.72.55-3.56.11-6.65.78-9.27,2.02,3.35,1.11,6.73,2.22,10.16,3.33,3.24,1.04,6.51,2.08,9.81,3.11,49.07,15.37,105.58,29.25,167.15,30.82,31.61.38,66.3-9.28,102.92-25.17,1.66-.72,3.4-.8,4.97-.36-.38-1.72-.73-3.5-1.03-5.35-1.91-11.76-1.45-23.78.95-35.45ZM658.5,400.39c-25.77-9.18-47.48-19.85-57.95-34.61-.82-1.17.33-2.71,1.69-2.26,6.47,2.14,12.8,4.09,18.84,5.66,7.96,2.07,16.14,3.14,24.36,3.18,15.47.08,31.67-.17,48.48-.7,9.72-.31,19.44,1.59,28.14,5.93,7.52,3.76,13.6,8.85,17.73,15.76,2.54,4.23,1,9.82-3.35,12.14-9.07,4.83-22.67,6.12-38.66,5.54-6.26-.22-12.44-1.41-18.36-3.45l-20.92-7.19ZM648.76,433.8c.05-.14.09-.28.14-.42,2.46-7.18,9.26-11.96,16.84-12.34,19.83-1.01,39.77-1.05,51.4-2.27,12.04-1.48,21.82-4.08,28.77-11.34.67-.7,1.87-.19,1.84.79l-1.31,51.17c-.1,3.9-2.93,7.17-6.76,7.89-35.79,6.75-65.18,2.24-86.32-16.78-4.66-4.2-6.54-10.73-4.6-16.7ZM917.78,499.4c-15.19,27.75-51.8,33.94-83.46,33.94-59.31,0-114.67-14.86-172.42-33.63-2.7-.88-4.56-3.35-4.66-6.19l-.77-21.7c-.1-2.78,2.87-4.55,5.31-3.22,23.82,13.04,58.32,12.23,99.17,3.19,23.88-6.69,49.19-14.08,69.47-18.65,15.78-3.55,32.24-3.13,47.7,1.63,18.03,5.54,32.27,14.44,39.92,29.15,2.53,4.85,2.37,10.68-.26,15.48ZM661.92,583c3.38-.19,5.4-1.34,6.07-3.44.46-1.46-.08-2.97-1.61-4.54-1.53-1.57-3.67-2.78-6.4-3.65-4.13-1.3-8-2.07-11.59-2.3-3.6-.22-6.83.03-9.69.77-2.85.74-5.25,1.92-7.2,3.55-1.94,1.62-3.3,3.64-4.06,6.06-.33,1.03-.61,2.08-.83,3.15,1.3.45,2.61.9,3.93,1.34.03-.12.06-.23.1-.34.44-1.4,1.09-2.52,1.95-3.37.86-.84,2.01-1.37,3.44-1.58,1.43-.22,3.22-.14,5.38.23,2.15.36,4.73,1.02,7.71,1.96,5.15,1.63,9.42,2.35,12.8,2.16ZM338.38,478.6c-1.33-.14-2.53.42-3.6,1.68-1.07,1.27-1.71,2.89-1.92,4.88-.27,2.52.09,4.99,1.07,7.4.63,1.53,1.3,3.14,2.01,4.82,2.91.48,5.84.99,8.81,1.53-.8-13.18-2.92-19.95-6.37-20.31Z"/>
        <g>
          <path class="cls-4" d="M337.59,588.21l-6.5,52.02c-.1,3.23-3.56,5.23-6.4,3.7-6.98-3.75-13.84-6.88-20.57-9.39-24.84-9.23-52.48-7.78-76.37,3.69-29.99,14.38-58.97,34.63-82.1,46.28-15.5,7.8-33.15,10.52-50.16,7.12-16.08-3.22-26.68-10.77-26.88-25.69-.12-8.75,3.54-17.17,9.78-23.31,29.61-29.14,71.81-49.64,124.31-63.07,5.71-1.46,11.51-2.56,17.35-3.29,37.48-4.65,78.07-5.31,111.04,3.2,3.94,1.02,6.96,4.6,6.5,8.74Z"/>
          <path class="cls-4" d="M324.35,687.16c-3,4.18-8,6.44-13.14,6.21l-49.63-2.21c-.72-.03-1.45-.11-2.17-.16-10.6-.7-24.67,8.35-34.04,9.56-.93.12-1.66-.77-1.35-1.65,7.17-20.19,27.08-27.74,41.57-38,6.34-4.49,10.64-11.29,11.96-18.94.26-1.49,1.53-2.6,3.04-2.64,13.04-.33,27.14,5.43,41.79,14.38,3.46,2.11,5.72,5.74,6.19,9.76,1.15,10-.13,18-4.22,23.69Z"/>
        </g>
        <g>
          <path class="cls-3" d="M917.78,499.4c-15.19,27.75-51.8,33.94-83.46,33.94-59.31,0-114.67-14.86-172.42-33.63-2.7-.88-4.56-3.35-4.66-6.19l-.77-21.7c-.1-2.78,2.87-4.55,5.31-3.22,23.82,13.04,58.32,12.23,99.17,3.19,23.88-6.69,49.19-14.08,69.47-18.65,15.78-3.55,32.24-3.13,47.7,1.63,18.03,5.54,32.27,14.44,39.92,29.15,2.53,4.85,2.37,10.68-.26,15.48Z"/>
          <path class="cls-3" d="M747.74,408.22l-1.31,51.17c-.1,3.9-2.93,7.17-6.76,7.89-35.79,6.75-65.18,2.24-86.32-16.78-4.66-4.2-6.54-10.73-4.6-16.7.05-.14.09-.28.14-.42,2.46-7.18,9.26-11.96,16.84-12.34,19.83-1.01,39.77-1.05,51.4-2.27,12.04-1.48,21.82-4.08,28.77-11.34.67-.7,1.87-.19,1.84.79Z"/>
          <path class="cls-3" d="M736.43,405.49c-9.07,4.83-22.67,6.12-38.66,5.54-6.26-.22-12.44-1.41-18.36-3.45l-20.92-7.19c-25.77-9.18-47.48-19.85-57.95-34.61-.82-1.17.33-2.71,1.69-2.26,6.47,2.14,12.8,4.09,18.84,5.66,7.96,2.07,16.14,3.14,24.36,3.18,15.47.08,31.67-.17,48.48-.7,9.72-.31,19.44,1.59,28.14,5.93,7.52,3.76,13.6,8.85,17.73,15.76,2.54,4.23,1,9.82-3.35,12.14Z"/>
        </g>
        <g>
          <path class="cls-3" d="M917.78,499.4c-15.19,27.75-51.8,33.94-83.46,33.94-59.31,0-114.67-14.86-172.42-33.63-2.7-.88-4.56-3.35-4.66-6.19l-.77-21.7c-.1-2.78,2.87-4.55,5.31-3.22,23.82,13.04,58.32,12.23,99.17,3.19,23.88-6.69,49.19-14.08,69.47-18.65,15.78-3.55,32.24-3.13,47.7,1.63,18.03,5.54,32.27,14.44,39.92,29.15,2.53,4.85,2.37,10.68-.26,15.48Z"/>
          <path class="cls-3" d="M747.74,408.22l-1.31,51.17c-.1,3.9-2.93,7.17-6.76,7.89-35.79,6.75-65.18,2.24-86.32-16.78-4.66-4.2-6.54-10.73-4.6-16.7.05-.14.09-.28.14-.42,2.46-7.18,9.26-11.96,16.84-12.34,19.83-1.01,39.77-1.05,51.4-2.27,12.04-1.48,21.82-4.08,28.77-11.34.67-.7,1.87-.19,1.84.79Z"/>
          <path class="cls-3" d="M736.43,405.49c-9.07,4.83-22.67,6.12-38.66,5.54-6.26-.22-12.44-1.41-18.36-3.45l-20.92-7.19c-25.77-9.18-47.48-19.85-57.95-34.61-.82-1.17.33-2.71,1.69-2.26,6.47,2.14,12.8,4.09,18.84,5.66,7.96,2.07,16.14,3.14,24.36,3.18,15.47.08,31.67-.17,48.48-.7,9.72-.31,19.44,1.59,28.14,5.93,7.52,3.76,13.6,8.85,17.73,15.76,2.54,4.23,1,9.82-3.35,12.14Z"/>
        </g>
        <g>
          <path class="cls-3" d="M356.57,501.17c.12,1.8.27,3.57.44,5.3.33,3.49.64,6.77.91,9.85.28,3.08.29,5.81.04,8.2-.21,1.99-.51,3.42-.91,4.28-.39.86-.95,1.26-1.68,1.18-.99-.11-1.83-1.2-2.52-3.28-.68-2.09-1.09-4.75-1.21-7.98-.06-.74-.12-1.87-.2-3.39-.07-1.51-.16-3.23-.26-5.15-.09-1.92-.2-3.95-.31-6.07-.07-1.39-.14-2.75-.2-4.1-1.98-.38-3.95-.75-5.91-1.1.08,1.28.15,2.62.2,4.02l.84,20.6c.14,4.31,1.43,7.83,3.86,10.57,2.42,2.74,5.52,4.31,9.3,4.71,1.92.2,3.75.01,5.49-.58,1.74-.58,3.29-1.46,4.65-2.62,1.37-1.17,2.49-2.59,3.37-4.27.89-1.68,1.43-3.52,1.64-5.51.26-2.39.4-4.68.43-6.89.03-2.21.05-4.42.05-6.63s.02-4.51.08-6.89c0-.12.01-.25.01-.37-6.14-1.39-12.18-2.69-18.11-3.88ZM337.23,500.4c-.45-1.03-.88-2.04-1.29-3.02-4.34-.72-8.61-1.37-12.8-1.95.06.95.13,1.92.18,2.9.14,2.49.06,5.1-.23,7.82-.26,2.52-.76,5.1-1.47,7.74-.72,2.63-1.59,5.16-2.61,7.56-1.03,2.41-2.19,4.62-3.47,6.62-1.29,2.01-2.67,3.64-4.14,4.89l-.02.2,19.09,2.03c3.19.33,5.6-.62,7.25-2.86,1.64-2.24,2.73-5.84,3.25-10.81.47-4.44.27-8.37-.61-11.78-.88-3.41-1.92-6.53-3.13-9.34Z"/>
          <path class="cls-3" d="M426.78,518.34c-1.49,10.99-3.47,18.88-5.94,23.69-2.53,4.94-5.83,7.12-9.89,6.55-4.05-.62-6.65-3.55-7.8-8.78-1.15-5.23-1.03-13.25.36-24.07.16-1.22.33-2.4.5-3.54-6.09-1.57-12.1-3.08-18.02-4.5-.17.57-.31,1.15-.45,1.73-1.14,4.88-1.45,9.63-.92,14.27.51,4.64,1.71,8.88,3.6,12.72,1.88,3.83,4.39,7.14,7.53,9.91,3.15,2.76,6.81,4.72,10.98,5.88,4.12,1.13,8.18,1.25,12.2.35,4.02-.9,7.74-2.64,11.19-5.21,3.44-2.58,6.46-5.88,9.05-9.9,2.6-4.02,4.5-8.6,5.71-13.73.01-.06.03-.13.04-.19-6.1-1.78-12.15-3.51-18.14-5.18Z"/>
          <path class="cls-3" d="M544.63,555.15c-.18.33-.39.67-.62,1.02l-7.96,11.96c-1.16,1.67-2.41,2.92-3.75,3.75-1.35.83-2.56,1.01-3.63.54-1.07-.48-1.91-1.72-2.5-3.73-.59-2-.72-4.98-.38-8.93l.87-10.59c-6.34-2.09-12.67-4.16-18.97-6.21l-8.36,13.6c-1.11,1.75-2.18,3.09-3.21,4.03-1.03.93-1.9,1.21-2.63.85-.72-.37-1.25-1.53-1.57-3.49-.33-1.95-.33-4.91.01-8.86l.89-10.9c-5.48-1.75-10.95-3.47-16.38-5.15l-1.25,15.6c-.42,5.11-.92,9.31-1.5,12.58-.58,3.28-1.78,5.82-3.61,7.62l-.06.19,26.77,8.54.07-.19c-.47-2.52.04-5.26,1.54-8.21,1.49-2.96,3.59-6.63,6.3-11.02l5.11-8.24-.76,9.4c-.42,5.11-.92,9.31-1.5,12.58-.58,3.28-1.78,5.82-3.61,7.62l-.06.19,29.64,9.45.06-.2c-.24-1.26-.2-2.54.11-3.84.3-1.3.83-2.71,1.59-4.22.75-1.51,1.69-3.15,2.81-4.93,1.12-1.78,2.4-3.73,3.84-5.87l8.4-13.02c-1.9-.64-3.8-1.28-5.7-1.92Z"/>
          <path class="cls-3" d="M606.07,603.43c-.49-3.62-.51-7.98-.07-13.09l1.22-14.45c-5.93-2.06-11.69-4.04-17.27-5.94l-1.28,14.84c-.45,5.11-.95,9.31-1.51,12.59-.56,3.29-1.76,5.83-3.59,7.62l-.06.19,23.9,7.65.06-.19c-.45-2.53-.92-5.6-1.4-9.22ZM584.64,585.4c-.05-1.28-.36-2.48-.94-3.61-.59-1.13-1.39-2.23-2.42-3.29-1.02-1.07-2.26-2.18-3.7-3.34l-3.84-3.12c-1.34-1.06-2.08-2.14-2.22-3.23-.14-1.09.34-2.48,1.44-4.16l.15-.25c-1.8-.57-3.57-1.13-5.32-1.67l-1.5,2.41c-2.42,3.85-2,6.92,1.25,9.22l7.43,5.32c.75.52,1.26,1.05,1.54,1.59.28.55.35,1.01.19,1.38-.15.37-.51.62-1.08.75-.57.14-1.33.05-2.28-.25-1.97-.63-3.96-1.58-5.96-2.86-2.01-1.27-3.94-2.73-5.8-4.37-.79-.81-1.51-.73-2.18.25l-10.33,16.54c-.78,1.15,2.28,2.83,9.2,5.04,2.92.93,5.77,1.44,8.55,1.52,2.77.09,5.32-.22,7.64-.91,2.32-.69,4.31-1.77,5.97-3.24,1.65-1.46,2.84-3.3,3.55-5.53.49-1.52.71-2.92.66-4.19Z"/>
          <path class="cls-3" d="M669.88,603.81c-.21-2.57-.79-5.07-1.77-7.49-.41-1.06-.91-2.11-1.48-3.14-.22-.41-.49-.66-.82-.73-.33-.06-.7-.09-1.12-.09-1.2.04-2.54.18-4.01.41-.79.13-1.58.27-2.38.44-.71.15-1.43.31-2.16.49-1.56.38-3.05.8-4.49,1.26-1.44.45-2.69.93-3.76,1.43-1.08.57-1.28,1.31-.59,2.22,1.54,1.75,2.5,3.49,2.86,5.21.37,1.72.34,3.24-.07,4.54-.41,1.3-1.14,2.28-2.18,2.93-1.05.65-2.23.76-3.57.34-2.16-.69-3.69-2.2-4.59-4.55-.91-2.34-.93-4.88-.06-7.62,1.08-3.43,3.14-6.19,6.18-8.27.71-.49,1.47-.93,2.27-1.31-5.99-1.98-11.86-3.97-17.59-5.94-.43,1.54-.58,3.5-.46,5.88.14,2.56.55,5.31,1.23,8.26.68,2.94,1.57,5.96,2.69,9.08,1.11,3.11,2.44,6,3.98,8.65,1.53,2.65,3.22,4.95,5.05,6.89,1.84,1.94,3.77,3.24,5.81,3.88,2.03.64,4.07.83,6.11.57,2.04-.27,3.94-.92,5.71-1.98,1.76-1.05,3.33-2.42,4.71-4.12,1.37-1.7,2.42-3.69,3.15-5.98,1.2-3.81,1.65-7.57,1.35-11.26ZM626.38,596.78c-.81-4.97-.73-9.7.24-14.18-1.61-.55-3.2-1.1-4.78-1.65l-4,12.66c-1.57,4.96-3.13,8.96-4.68,11.99-1.56,3.05-3.25,5.47-5.08,7.26l-.06.2,23.65,7.46c1.08.35,1.74.1,1.97-.74.22-.83.15-1.66-.22-2.48-3.7-7.53-6.05-14.37-7.04-20.52Z"/>
        </g>
        <g>
          <path class="cls-4" d="M350.66,500.01c-1.98-.38-3.95-.75-5.91-1.1-.8-13.18-2.92-19.95-6.37-20.31-1.33-.14-2.53.42-3.6,1.68-1.07,1.27-1.71,2.89-1.92,4.88-.27,2.52.09,4.99,1.07,7.4.63,1.53,1.3,3.14,2.01,4.82-4.34-.72-8.61-1.37-12.8-1.95-.11-1.49-.23-2.96-.36-4.4-.22-2.37-.4-4.72-.56-7.05-.15-2.33-.1-4.69.15-7.07.19-1.86.71-3.58,1.55-5.17.84-1.58,1.92-2.91,3.24-3.98,1.32-1.06,2.81-1.86,4.48-2.39,1.66-.53,3.39-.7,5.18-.51,3.78.4,6.87,2.51,9.28,6.32,2.42,3.81,3.79,9.48,4.13,17.03.03,1,.07,2.37.12,4.08.06,1.72.13,3.58.21,5.61.03.7.06,1.4.1,2.11Z"/>
          <path class="cls-4" d="M385.19,470.59l-.02.2c-1.47,1.25-2.79,2.89-3.94,4.91-1.15,2.03-2.12,4.25-2.92,6.68-.79,2.43-1.45,4.98-1.96,7.64-.52,2.66-.91,5.25-1.18,7.77-.27,2.57-.43,5-.49,7.26-6.14-1.39-12.18-2.69-18.11-3.88-.13-1.83-.23-3.69-.32-5.59-.17-3.77-.05-7.58.36-11.43.16-1.59.41-3.32.75-5.2.33-1.87.85-3.61,1.56-5.21.7-1.6,1.63-2.91,2.77-3.93,1.15-1.02,2.62-1.43,4.41-1.24l19.09,2.02Z"/>
          <path class="cls-4" d="M444.92,523.52c-6.1-1.78-12.15-3.51-18.14-5.18.05-.31.09-.62.13-.93,1.45-10.81,1.59-18.84.42-24.11-1.18-5.27-3.8-8.18-7.86-8.75-4.04-.63-7.34,1.54-9.88,6.51-2.28,4.43-4.14,11.48-5.58,21.13-6.09-1.57-12.1-3.08-18.02-4.5,1.2-4.43,2.96-8.43,5.25-11.99,2.6-4.02,5.62-7.32,9.06-9.9,3.44-2.58,7.17-4.32,11.19-5.22,4.01-.89,8.08-.78,12.19.36,4.12,1.13,7.76,3.09,10.94,5.86,3.17,2.78,5.7,6.09,7.58,9.93,1.88,3.84,3.08,8.07,3.6,12.71.51,4.58.22,9.28-.88,14.08Z"/>
          <path class="cls-4" d="M568.22,528.26l-10.23,16.49c-.66.98-1.38,1.07-2.18.25-1.86-1.63-3.8-3.08-5.81-4.34-2.01-1.27-4.01-2.21-5.98-2.83-1.59-.5-2.52-.32-2.79.54s.15,1.74,1.26,2.65l7.37,5.57c3.31,2.37,3.74,5.44,1.29,9.21l-.82,1.27c-1.9-.64-3.8-1.28-5.7-1.92.66-1.17,1-2.18,1.02-3.02.02-1.07-.64-2.14-1.98-3.19l-3.85-3.1c-5.28-4.32-7.11-9.02-5.51-14.11.68-2.16,1.8-4.01,3.37-5.54,1.57-1.54,3.44-2.68,5.64-3.42,2.19-.74,4.62-1.09,7.3-1.05,2.68.04,5.48.52,8.41,1.44.63.2,1.53.52,2.68.95,1.16.44,2.25.9,3.28,1.4,1.03.5,1.89,1,2.57,1.49.69.5.9.92.66,1.26Z"/>
          <path class="cls-4" d="M532.82,515.53l-.06.19c-1.83,1.8-3.02,4.35-3.56,7.63-.55,3.29-1.03,7.49-1.45,12.6l-1.08,13.22c-6.34-2.09-12.67-4.16-18.97-6.21l3.03-4.93.61-7.25c.42-5.11.38-9.47-.12-13.09-.5-3.62-.99-6.69-1.45-9.21l.06-.19,22.99,7.24Z"/>
          <path class="cls-4" d="M498.95,504.86l-.06.19c-1.83,1.8-3.01,4.35-3.56,7.63-.55,3.29-1.03,7.49-1.45,12.6l-1.06,12.91c-5.48-1.75-10.95-3.47-16.38-5.15l1.03-12.93c.42-5.11.38-9.47-.12-13.09s-.98-6.69-1.45-9.21l.06-.19,22.99,7.24Z"/>
          <path class="cls-4" d="M613.66,541.45l-.06.19c-1.83,1.79-3.05,4.33-3.64,7.6-.59,3.28-1.11,7.47-1.55,12.58l-1.19,14.07c-5.93-2.06-11.69-4.04-17.27-5.94l.77-8.96c.35-3.95.22-6.95-.38-9-.61-2.04-1.46-3.31-2.56-3.81-1.1-.49-2.31-.32-3.63.52-1.32.84-2.54,2.13-3.65,3.87l-7.38,11.83h-.01c-1.8-.57-3.57-1.13-5.32-1.67l7.34-11.77c2.73-4.38,4.85-8.04,6.35-10.99,1.5-2.94,2.03-5.68,1.58-8.21l.06-.19,30.54,9.88Z"/>
          <path class="cls-4" d="M676.32,578.42c-.54,1.72-1.27,3.18-2.18,4.4-.91,1.22-2.1,2.18-3.59,2.9s-3.3,1.25-5.43,1.59c-2.14.34-4.71.52-7.72.55-3.56.11-6.65.78-9.27,2.02-5.99-1.98-11.86-3.97-17.59-5.94.03-.12.06-.23.1-.34.44-1.4,1.09-2.52,1.95-3.37.86-.84,2.01-1.37,3.44-1.58,1.43-.22,3.22-.14,5.38.23,2.15.36,4.73,1.02,7.71,1.96,5.15,1.63,9.42,2.35,12.8,2.16s5.4-1.34,6.07-3.44c.46-1.46-.08-2.97-1.61-4.54-1.53-1.57-3.67-2.78-6.4-3.65-4.13-1.3-8-2.07-11.59-2.3-3.6-.22-6.83.03-9.69.77-2.85.74-5.25,1.92-7.2,3.55-1.94,1.62-3.3,3.64-4.06,6.06-.33,1.03-.61,2.08-.83,3.15-1.61-.55-3.2-1.1-4.78-1.65l4.13-13.09c1.57-4.96,2.58-9.13,3.06-12.51.47-3.38.48-6.33.02-8.85l.06-.19,29.08,9.18c3.5,1.11,6.56,2.49,9.18,4.16,2.61,1.67,4.7,3.51,6.27,5.54,1.56,2.04,2.58,4.18,3.05,6.42.48,2.25.36,4.52-.36,6.81Z"/>
        </g>
        <g class="cls-2">
          <path class="cls-3" d="M917.78,499.4c-15.19,27.75-51.8,33.94-83.46,33.94-59.31,0-114.67-14.86-172.42-33.63-2.7-.88-4.56-3.35-4.66-6.19l-.77-21.7c-.1-2.78,2.87-4.55,5.31-3.22,23.82,13.04,58.32,12.23,99.17,3.19,23.88-6.69,49.19-14.08,69.47-18.65,15.78-3.55,32.24-3.13,47.7,1.63,18.03,5.54,32.27,14.44,39.92,29.15,2.53,4.85,2.37,10.68-.26,15.48Z"/>
          <path class="cls-3" d="M747.74,408.22l-1.31,51.17c-.1,3.9-2.93,7.17-6.76,7.89-35.79,6.75-65.18,2.24-86.32-16.78-4.66-4.2-6.54-10.73-4.6-16.7.05-.14.09-.28.14-.42,2.46-7.18,9.26-11.96,16.84-12.34,19.83-1.01,39.77-1.05,51.4-2.27,12.04-1.48,21.82-4.08,28.77-11.34.67-.7,1.87-.19,1.84.79Z"/>
          <path class="cls-3" d="M736.43,405.49c-9.07,4.83-22.67,6.12-38.66,5.54-6.26-.22-12.44-1.41-18.36-3.45l-20.92-7.19c-25.77-9.18-47.48-19.85-57.95-34.61-.82-1.17.33-2.71,1.69-2.26,6.47,2.14,12.8,4.09,18.84,5.66,7.96,2.07,16.14,3.14,24.36,3.18,15.47.08,31.67-.17,48.48-.7,9.72-.31,19.44,1.59,28.14,5.93,7.52,3.76,13.6,8.85,17.73,15.76,2.54,4.23,1,9.82-3.35,12.14Z"/>
        </g>
        <g class="cls-2">
          <path class="cls-4" d="M337.59,588.21l-6.5,52.02c-.1,3.23-3.56,5.23-6.4,3.7-6.98-3.75-13.84-6.88-20.57-9.39-24.84-9.23-52.48-7.78-76.37,3.69-29.99,14.38-58.97,34.63-82.1,46.28-15.5,7.8-33.15,10.52-50.16,7.12-16.08-3.22-26.68-10.77-26.88-25.69-.12-8.75,3.54-17.17,9.78-23.31,29.61-29.14,71.81-49.64,124.31-63.07,5.71-1.46,11.51-2.56,17.35-3.29,37.48-4.65,78.07-5.31,111.04,3.2,3.94,1.02,6.96,4.6,6.5,8.74Z"/>
          <path class="cls-4" d="M324.35,687.16c-3,4.18-8,6.44-13.14,6.21l-49.63-2.21c-.72-.03-1.45-.11-2.17-.16-10.6-.7-24.67,8.35-34.04,9.56-.93.12-1.66-.77-1.35-1.65,7.17-20.19,27.08-27.74,41.57-38,6.34-4.49,10.64-11.29,11.96-18.94.26-1.49,1.53-2.6,3.04-2.64,13.04-.33,27.14,5.43,41.79,14.38,3.46,2.11,5.72,5.74,6.19,9.76,1.15,10-.13,18-4.22,23.69Z"/>
        </g>
      </g>
    </g>
  </g>
</svg>