<svg width="320" height="106" viewBox="0 0 320 106" fill="none" xmlns="http://www.w3.org/2000/svg">
<g clip-path="url(#clip0_43_299)">
<path d="M93 40.1163C93 50.1474 86.4275 58.6337 77.3712 61.4756C75.6882 72.1598 66.4783 80.3256 55.3656 80.3256C51.7587 80.3256 48.3505 79.464 45.3368 77.9372C41.6245 85.1053 34.1609 90 25.5591 90C17.4301 90 10.3217 85.6314 6.42882 79.1042C2.93032 81.4079 -1.25462 82.7442 -5.75269 82.7442C-16.5763 82.7442 -25.5966 74.9956 -27.6108 64.7226C-38.5488 63.2986 -47 53.9084 -47 42.5349C-47 31.8356 -39.5243 22.8928 -29.5316 20.6858C-29.5346 20.5135 -29.5376 20.3381 -29.5376 20.1628C-29.5376 7.80674 -19.563 -2.2093 -7.25806 -2.2093C-2.95269 -2.2093 1.06667 -0.984884 4.47183 1.13744C7.46452 -7.66628 15.7742 -14 25.5591 -14C34.8383 -14 42.7897 -8.30419 46.1437 -0.207908C48.9527 -1.49279 52.0748 -2.2093 55.3656 -2.2093C67.228 -2.2093 76.9226 7.09628 77.603 18.8356C86.5389 21.744 93 30.1728 93 40.1163Z" fill="#F9E1D4"/>
</g>
<g clip-path="url(#clip1_43_299)">
<path d="M203 32.5233C203 44.4835 195.16 54.6017 184.357 57.9901C182.349 70.729 171.363 80.4651 158.108 80.4651C153.805 80.4651 149.74 79.4378 146.145 77.6174C141.716 86.1641 132.813 92 122.553 92C112.856 92 104.377 86.7913 99.7329 79.0088C95.5597 81.7556 90.5677 83.3488 85.2021 83.3488C72.2911 83.3488 61.5312 74.1101 59.1286 61.8615C46.0811 60.1637 36 48.9677 36 35.407C36 22.6501 44.9174 11.9876 56.8373 9.35616C56.8337 9.1507 56.8301 8.94163 56.8301 8.73256C56.8301 -5.99965 68.7284 -17.9419 83.4064 -17.9419C88.5421 -17.9419 93.3367 -16.482 97.3985 -13.9515C100.968 -24.4483 110.881 -32 122.553 -32C133.621 -32 143.106 -25.2088 147.107 -15.5556C150.458 -17.0876 154.182 -17.9419 158.108 -17.9419C172.258 -17.9419 183.822 -6.84674 184.634 7.15012C195.293 10.6178 203 20.6676 203 32.5233Z" fill="#F9E1D4"/>
</g>
<g clip-path="url(#clip2_43_299)">
<path d="M299 46.5233C299 58.4835 291.16 68.6017 280.357 71.9901C278.349 84.729 267.363 94.4651 254.108 94.4651C249.805 94.4651 245.74 93.4378 242.145 91.6174C237.716 100.164 228.813 106 218.553 106C208.856 106 200.377 100.791 195.733 93.0088C191.56 95.7556 186.568 97.3488 181.202 97.3488C168.291 97.3488 157.531 88.1101 155.129 75.8615C142.081 74.1637 132 62.9677 132 49.407C132 36.6501 140.917 25.9876 152.837 23.3562C152.834 23.1507 152.83 22.9416 152.83 22.7326C152.83 8.00035 164.728 -3.94186 179.406 -3.94186C184.542 -3.94186 189.337 -2.48198 193.399 0.0484886C196.968 -10.4483 206.881 -18 218.553 -18C229.621 -18 239.106 -11.2088 243.107 -1.55558C246.458 -3.08756 250.182 -3.94186 254.108 -3.94186C268.258 -3.94186 279.822 7.15326 280.634 21.1501C291.293 24.6178 299 34.6676 299 46.5233Z" fill="#F9E1D4"/>
</g>
<g clip-path="url(#clip3_43_299)">
<path d="M367 40.7994C367 51.6987 359.864 60.9193 350.032 64.0071C348.204 75.6159 338.205 84.4884 326.14 84.4884C322.224 84.4884 318.523 83.5522 315.251 81.8933C311.221 89.6818 303.118 95 293.778 95C284.953 95 277.235 90.2533 273.008 83.1613C269.21 85.6644 264.666 87.1163 259.783 87.1163C248.031 87.1163 238.238 78.6971 236.051 67.5351C224.176 65.9879 215 55.7851 215 43.4273C215 31.8021 223.116 22.0854 233.966 19.6875C233.962 19.5002 233.959 19.3097 233.959 19.1192C233.959 5.69387 244.789 -5.18895 258.148 -5.18895C262.823 -5.18895 267.187 -3.85858 270.884 -1.55259C274.133 -11.1182 283.155 -18 293.778 -18C303.853 -18 312.486 -11.8113 316.127 -3.01436C319.177 -4.41044 322.567 -5.18895 326.14 -5.18895C339.019 -5.18895 349.545 4.92192 350.283 17.6771C359.985 20.8372 367 29.9954 367 40.7994Z" fill="#F9E1D4"/>
</g>
<defs>
<clipPath id="clip0_43_299">
<rect width="140" height="104" fill="white" transform="translate(-47 -14)"/>
</clipPath>
<clipPath id="clip1_43_299">
<rect width="167" height="124" fill="white" transform="translate(36 -32)"/>
</clipPath>
<clipPath id="clip2_43_299">
<rect width="167" height="124" fill="white" transform="translate(132 -18)"/>
</clipPath>
<clipPath id="clip3_43_299">
<rect width="152" height="113" fill="white" transform="translate(215 -18)"/>
</clipPath>
</defs>
</svg>
